<?xml version="1.0" standalone="no"?>
<!DOCTYPE svg PUBLIC "-//W3C//DTD SVG 20010904//EN"
 "http://www.w3.org/TR/2001/REC-SVG-20010904/DTD/svg10.dtd">
<svg version="1.0" xmlns="http://www.w3.org/2000/svg"
 width="954.000000pt" height="954.000000pt" viewBox="0 0 954.000000 954.000000"
 preserveAspectRatio="xMidYMid meet">
<metadata>
Created by potrace 1.11, written by Peter Selinger 2001-2013
</metadata>
<g transform="translate(0.000000,954.000000) scale(0.100000,-0.100000)"
fill="#000000" stroke="none">
<path d="M4309 9155 c-2 -2 -29 -6 -59 -9 -78 -8 -111 -12 -145 -20 -16 -3
-39 -8 -50 -10 -165 -33 -381 -108 -583 -202 -41 -19 -78 -34 -83 -34 -5 0 -9
-4 -9 -10 0 -5 -5 -10 -11 -10 -11 0 -183 -92 -254 -135 -22 -14 -47 -28 -55
-32 -8 -3 -41 -24 -73 -45 -32 -21 -62 -38 -67 -38 -5 0 -10 -3 -12 -7 -4 -10
-82 -63 -91 -63 -5 0 -13 -5 -20 -10 -7 -6 -42 -32 -79 -58 -158 -110 -223
-157 -228 -162 -3 -3 -27 -21 -55 -40 -60 -42 -61 -42 -105 -77 -19 -16 -62
-48 -95 -73 -33 -24 -62 -46 -65 -49 -3 -4 -23 -19 -45 -35 -22 -16 -48 -37
-57 -45 -9 -9 -30 -26 -45 -38 -50 -39 -258 -207 -269 -218 -6 -6 -30 -27 -54
-46 -23 -18 -54 -45 -69 -59 -15 -14 -67 -61 -117 -105 -101 -90 -415 -404
-486 -486 -26 -30 -57 -65 -69 -79 -28 -32 -196 -243 -230 -290 -55 -75 -159
-232 -159 -241 0 -5 -4 -9 -9 -9 -5 0 -12 -11 -15 -25 -4 -14 -11 -25 -16 -25
-6 0 -10 -5 -10 -10 0 -6 -15 -34 -33 -63 -31 -49 -177 -331 -177 -342 0 -3
-11 -29 -23 -57 -13 -29 -36 -87 -52 -128 -15 -41 -33 -88 -40 -105 -14 -33
-66 -198 -73 -230 -5 -25 -6 -31 -21 -85 -15 -51 -13 -42 -40 -172 -11 -53
-23 -118 -27 -145 -3 -26 -8 -56 -10 -66 -31 -167 -24 -633 13 -777 3 -14 6
-28 5 -32 -1 -6 13 -67 43 -181 3 -9 7 -26 9 -37 3 -10 11 -34 19 -52 8 -18
27 -64 43 -103 23 -58 98 -201 147 -279 19 -31 113 -158 136 -186 12 -14 41
-47 64 -75 46 -55 277 -286 277 -278 0 3 13 -9 29 -26 16 -17 31 -31 34 -31 3
0 23 -16 44 -35 32 -29 89 -76 213 -175 14 -11 47 -37 75 -58 27 -20 56 -42
63 -49 7 -7 26 -20 42 -30 17 -9 30 -21 30 -25 0 -4 7 -8 15 -8 8 0 15 -3 15
-7 0 -5 20 -21 45 -36 25 -16 45 -33 45 -37 0 -5 9 -11 20 -15 11 -3 30 -15
42 -26 19 -16 118 -89 267 -197 82 -59 299 -223 312 -236 9 -9 18 -16 21 -16
4 0 17 -9 30 -20 12 -11 57 -47 98 -81 116 -94 173 -142 198 -166 13 -13 25
-23 27 -23 3 0 13 -8 23 -18 10 -9 53 -48 97 -87 43 -38 93 -83 111 -100 17
-16 62 -57 99 -90 37 -33 86 -77 108 -98 23 -21 68 -61 100 -90 33 -28 69 -61
81 -72 24 -22 106 -93 176 -152 24 -21 52 -46 62 -55 10 -10 18 -15 18 -11 0
4 6 0 13 -9 36 -46 426 -318 456 -318 5 0 11 -3 13 -7 1 -5 39 -25 83 -45 230
-105 344 -132 560 -132 143 -1 202 7 332 40 177 46 325 105 523 211 61 32 157
88 198 115 15 10 34 21 42 25 8 3 17 9 20 12 3 3 46 33 95 66 50 33 99 68 109
77 11 10 23 18 26 18 6 0 22 12 67 50 7 5 15 10 18 10 4 0 13 6 20 13 18 15
18 15 155 122 63 49 124 97 135 107 11 9 65 54 120 100 169 140 233 194 280
236 17 15 57 50 90 77 33 28 67 57 75 65 9 8 45 40 79 70 35 30 73 64 85 75
13 11 55 49 96 85 40 36 78 70 84 75 6 6 61 55 121 110 61 55 139 127 174 160
35 33 83 78 107 100 124 115 256 240 339 320 51 50 173 167 270 260 396 380
670 662 861 890 63 75 196 250 219 287 5 9 25 37 43 63 17 25 32 47 32 49 0 2
23 40 50 86 27 46 50 88 50 95 0 6 5 16 11 22 18 18 110 250 125 316 2 9 6 27
10 40 6 26 12 55 21 117 9 57 9 292 0 345 -12 70 -18 99 -29 140 -6 22 -11 45
-13 50 -7 34 -19 71 -24 80 -3 6 -6 12 -6 15 -2 14 -31 91 -51 137 -13 28 -24
54 -24 56 0 26 -241 428 -261 435 -5 2 -7 8 -3 13 3 5 1 9 -4 9 -5 0 -23 23
-41 50 -18 28 -37 50 -42 50 -5 0 -9 5 -9 10 0 8 -115 156 -140 180 -3 3 -32
36 -65 75 -33 38 -80 91 -105 116 -154 160 -251 256 -346 346 -173 161 -178
166 -414 366 -84 71 -255 205 -367 287 -27 19 -52 38 -58 42 -5 4 -24 19 -41
33 -18 14 -36 25 -42 25 -6 0 -12 3 -14 8 -5 11 -75 62 -86 62 -6 0 -12 3 -14
8 -5 11 -75 62 -86 62 -5 0 -17 9 -27 20 -10 11 -24 20 -32 20 -7 0 -13 5 -13
10 0 6 -7 10 -15 10 -8 0 -15 5 -15 10 0 6 -7 10 -15 10 -8 0 -15 4 -15 9 0 5
-17 17 -37 26 -21 10 -42 24 -46 31 -4 8 -12 14 -18 14 -8 0 -95 53 -179 109
-14 10 -51 33 -84 52 -32 19 -70 42 -85 51 -14 10 -33 21 -41 25 -47 24 -181
106 -186 114 -3 5 -13 9 -23 9 -10 0 -24 7 -31 15 -7 8 -24 21 -39 28 -66 34
-206 111 -211 117 -10 11 -395 200 -407 200 -7 0 -13 4 -13 10 0 5 -12 13 -27
16 -16 4 -55 19 -88 34 -33 15 -80 35 -105 44 -25 10 -56 23 -70 29 -57 22
-68 27 -125 46 -76 25 -232 71 -265 77 -14 3 -50 11 -80 19 -30 7 -73 16 -95
20 -67 10 -108 16 -145 21 -44 7 -396 14 -401 9z"/>
</g>
</svg>
