<svg width="692" height="470" viewBox="0 0 692 470" fill="none" xmlns="http://www.w3.org/2000/svg">
<g clip-path="url(#clip0)">
<g opacity="0.2653">
<path d="M50.0947 293.39L136.447 301.627L136.365 302.491L50.0123 294.253L50.0947 293.39Z" fill="#002145"/>
<path d="M50.589 288.209L136.941 296.446L136.859 297.31L50.5066 289.072L50.589 288.209Z" fill="#002145"/>
<path d="M137.436 291.265L51.0832 283.027L51.0009 283.891L137.353 292.129L137.436 291.265Z" fill="#002145"/>
<path d="M51.5775 277.846L137.93 286.084L137.847 286.947L51.4951 278.71L51.5775 277.846Z" fill="#002145"/>
<path d="M138.424 280.903L52.0717 272.665L51.9894 273.529L138.342 281.766L138.424 280.903Z" fill="#002145"/>
<path d="M52.566 267.484L138.918 275.722L138.836 276.585L52.4836 268.348L52.566 267.484Z" fill="#002145"/>
<path d="M139.413 270.54L53.0603 262.303L52.9779 263.166L139.33 271.404L139.413 270.54Z" fill="#002145"/>
<path d="M53.5545 257.122L139.907 265.359L139.824 266.223L53.4721 257.985L53.5545 257.122Z" fill="#002145"/>
<path d="M140.401 260.178L54.0488 251.941L53.9664 252.804L140.319 261.042L140.401 260.178Z" fill="#002145"/>
<path d="M54.543 246.759L140.895 254.997L140.813 255.861L54.4606 247.623L54.543 246.759Z" fill="#002145"/>
<path d="M141.39 249.816L55.0373 241.578L54.9549 242.442L141.307 250.679L141.39 249.816Z" fill="#002145"/>
<path d="M55.5315 236.397L141.884 244.635L141.801 245.498L55.4492 237.261L55.5315 236.397Z" fill="#002145"/>
<path d="M142.378 239.454L56.0258 231.216L55.9434 232.08L142.296 240.317L142.378 239.454Z" fill="#002145"/>
<path d="M56.5201 226.035L142.872 234.272L142.79 235.136L56.4377 226.898L56.5201 226.035Z" fill="#002145"/>
<path d="M143.367 229.091L57.0143 220.854L56.9319 221.717L143.284 229.955L143.367 229.091Z" fill="#002145"/>
<path d="M57.5086 215.673L143.861 223.91L143.779 224.774L57.4262 216.536L57.5086 215.673Z" fill="#002145"/>
<path d="M144.355 218.729L58.0028 210.491L57.9205 211.355L144.273 219.593L144.355 218.729Z" fill="#002145"/>
<path d="M58.4971 205.31L144.849 213.548L144.767 214.411L58.4147 206.174L58.4971 205.31Z" fill="#002145"/>
<path d="M145.344 208.367L58.9913 200.129L58.909 200.993L145.261 209.23L145.344 208.367Z" fill="#002145"/>
<path d="M59.4856 194.948L145.838 203.186L145.756 204.049L59.4032 195.812L59.4856 194.948Z" fill="#002145"/>
<path d="M146.332 198.005L59.9798 189.767L59.8975 190.63L146.25 198.868L146.332 198.005Z" fill="#002145"/>
<path d="M60.4741 184.586L146.826 192.823L146.744 193.687L60.3917 185.449L60.4741 184.586Z" fill="#002145"/>
<path d="M147.321 187.642L60.9684 179.405L60.886 180.268L147.238 188.506L147.321 187.642Z" fill="#002145"/>
<path d="M61.4626 174.223L147.815 182.461L147.733 183.325L61.3802 175.087L61.4626 174.223Z" fill="#002145"/>
<path d="M148.309 177.28L61.9569 169.042L61.8745 169.906L148.227 178.143L148.309 177.28Z" fill="#002145"/>
<path d="M62.4511 163.861L148.803 172.099L148.721 172.962L62.3688 164.725L62.4511 163.861Z" fill="#002145"/>
<path d="M149.298 166.918L62.9454 158.68L62.863 159.544L149.215 167.781L149.298 166.918Z" fill="#002145"/>
<path d="M63.4397 153.499L149.792 161.737L149.71 162.6L63.3573 154.362L63.4397 153.499Z" fill="#002145"/>
<path d="M150.286 156.555L63.9339 148.318L63.8515 149.181L150.204 157.419L150.286 156.555Z" fill="#002145"/>
<path d="M64.4282 143.137L150.78 151.374L150.698 152.238L64.3458 144L64.4282 143.137Z" fill="#002145"/>
<path d="M151.275 146.193L64.9224 137.956L64.84 138.819L151.192 147.057L151.275 146.193Z" fill="#002145"/>
<path d="M65.4167 132.774L151.769 141.012L151.687 141.876L65.3343 133.638L65.4167 132.774Z" fill="#002145"/>
<path d="M152.263 135.831L65.9109 127.593L65.8286 128.457L152.181 136.694L152.263 135.831Z" fill="#002145"/>
<path d="M66.4052 122.412L152.758 130.65L152.675 131.513L66.3228 123.276L66.4052 122.412Z" fill="#002145"/>
<path d="M153.252 125.469L66.8994 117.231L66.8171 118.094L153.169 126.332L153.252 125.469Z" fill="#002145"/>
<path d="M67.3937 112.05L153.746 120.287L153.664 121.151L67.3113 112.913L67.3937 112.05Z" fill="#002145"/>
<path d="M154.24 115.106L67.888 106.869L67.8056 107.732L154.158 115.97L154.24 115.106Z" fill="#002145"/>
<path d="M68.3822 101.688L154.735 109.925L154.652 110.789L68.2998 102.551L68.3822 101.688Z" fill="#002145"/>
<path d="M155.229 104.744L68.8765 96.5064L68.7941 97.3699L155.146 105.608L155.229 104.744Z" fill="#002145"/>
<path d="M69.3707 91.3253L155.723 99.5629L155.641 100.426L69.2884 92.1888L69.3707 91.3253Z" fill="#002145"/>
<path d="M156.217 94.3817L69.865 86.1441L69.7826 87.0076L156.135 95.2452L156.217 94.3817Z" fill="#002145"/>
<path d="M70.3592 80.963L156.712 89.2006L156.629 90.0641L70.2769 81.8265L70.3592 80.963Z" fill="#002145"/>
<path d="M157.206 84.0194L70.8535 75.7818L70.7711 76.6454L157.123 84.883L157.206 84.0194Z" fill="#002145"/>
<path d="M71.3477 70.6007L157.7 78.8383L157.618 79.7018L71.2654 71.4642L71.3477 70.6007Z" fill="#002145"/>
<path d="M158.194 73.6572L71.842 65.4196L71.7596 66.2831L158.112 74.5207L158.194 73.6572Z" fill="#002145"/>
<path d="M72.3363 60.2384L158.689 68.476L158.606 69.3396L72.2539 61.1019L72.3363 60.2384Z" fill="#002145"/>
<path d="M159.183 63.2949L72.8305 55.0573L72.7481 55.9208L159.1 64.1584L159.183 63.2949Z" fill="#002145"/>
<path d="M-146.834 426.113L-61.5476 441.952L-61.706 442.805L-146.992 426.966L-146.834 426.113Z" fill="#002145"/>
<path d="M-145.883 420.996L-60.5973 436.835L-60.7557 437.688L-146.042 421.849L-145.883 420.996Z" fill="#002145"/>
<path d="M-59.647 431.718L-144.933 415.879L-145.091 416.732L-59.8054 432.571L-59.647 431.718Z" fill="#002145"/>
<path d="M-143.983 410.762L-58.6966 426.601L-58.855 427.453L-144.141 411.615L-143.983 410.762Z" fill="#002145"/>
<path d="M-57.7463 421.483L-143.032 405.645L-143.191 406.498L-57.9047 422.336L-57.7463 421.483Z" fill="#002145"/>
<path d="M-142.082 400.528L-56.796 416.366L-56.9544 417.219L-142.24 401.38L-142.082 400.528Z" fill="#002145"/>
<path d="M-55.8456 411.249L-141.132 395.41L-141.29 396.263L-56.004 412.102L-55.8456 411.249Z" fill="#002145"/>
<path d="M-140.181 390.293L-54.8953 406.132L-55.0537 406.985L-140.34 391.146L-140.181 390.293Z" fill="#002145"/>
<path d="M-53.945 401.015L-139.231 385.176L-139.389 386.029L-54.1034 401.868L-53.945 401.015Z" fill="#002145"/>
<path d="M-138.281 380.059L-52.9947 395.898L-53.1531 396.751L-138.439 380.912L-138.281 380.059Z" fill="#002145"/>
<path d="M-52.0443 390.78L-137.33 374.942L-137.489 375.795L-52.2027 391.633L-52.0443 390.78Z" fill="#002145"/>
<path d="M-136.38 369.825L-51.094 385.663L-51.2524 386.516L-136.538 370.677L-136.38 369.825Z" fill="#002145"/>
<path d="M-50.1437 380.546L-135.43 364.707L-135.588 365.56L-50.3021 381.399L-50.1437 380.546Z" fill="#002145"/>
<path d="M-134.479 359.59L-49.1934 375.429L-49.3517 376.282L-134.638 360.443L-134.479 359.59Z" fill="#002145"/>
<path d="M-48.243 370.312L-133.529 354.473L-133.687 355.326L-48.4014 371.165L-48.243 370.312Z" fill="#002145"/>
<path d="M-132.579 349.356L-47.2927 365.195L-47.4511 366.048L-132.737 350.209L-132.579 349.356Z" fill="#002145"/>
<path d="M-46.3424 360.078L-131.628 344.239L-131.787 345.092L-46.5008 360.93L-46.3424 360.078Z" fill="#002145"/>
<path d="M-130.678 339.122L-45.392 354.96L-45.5504 355.813L-130.836 339.974L-130.678 339.122Z" fill="#002145"/>
<path d="M-44.4417 349.843L-129.728 334.004L-129.886 334.857L-44.6001 350.696L-44.4417 349.843Z" fill="#002145"/>
<path d="M-128.777 328.887L-43.4914 344.726L-43.6498 345.579L-128.936 329.74L-128.777 328.887Z" fill="#002145"/>
<path d="M-42.5411 339.609L-127.827 323.77L-127.986 324.623L-42.6994 340.462L-42.5411 339.609Z" fill="#002145"/>
<path d="M-126.877 318.653L-41.5907 334.492L-41.7491 335.345L-127.035 319.506L-126.877 318.653Z" fill="#002145"/>
<path d="M-40.6404 329.375L-125.926 313.536L-126.085 314.389L-40.7988 330.227L-40.6404 329.375Z" fill="#002145"/>
<path d="M-124.976 308.419L-39.6901 324.257L-39.8485 325.11L-125.135 309.271L-124.976 308.419Z" fill="#002145"/>
<path d="M-38.7397 319.14L-124.026 303.301L-124.184 304.154L-38.8981 319.993L-38.7397 319.14Z" fill="#002145"/>
<path d="M-123.075 298.184L-37.7894 314.023L-37.9478 314.876L-123.234 299.037L-123.075 298.184Z" fill="#002145"/>
<path d="M-36.8391 308.906L-122.125 293.067L-122.284 293.92L-36.9975 309.759L-36.8391 308.906Z" fill="#002145"/>
<path d="M-121.175 287.95L-35.8888 303.789L-36.0471 304.642L-121.333 288.803L-121.175 287.95Z" fill="#002145"/>
<path d="M-34.9384 298.672L-120.224 282.833L-120.383 283.686L-35.0968 299.524L-34.9384 298.672Z" fill="#002145"/>
<path d="M-119.274 277.716L-33.9881 293.554L-34.1465 294.407L-119.433 278.568L-119.274 277.716Z" fill="#002145"/>
<path d="M-33.0378 288.437L-118.324 272.598L-118.482 273.451L-33.1962 289.29L-33.0378 288.437Z" fill="#002145"/>
<path d="M-117.374 267.481L-32.0874 283.32L-32.2458 284.173L-117.532 268.334L-117.374 267.481Z" fill="#002145"/>
<path d="M-31.1371 278.203L-116.423 262.364L-116.582 263.217L-31.2955 279.056L-31.1371 278.203Z" fill="#002145"/>
<path d="M-115.473 257.247L-30.1868 273.086L-30.3452 273.939L-115.631 258.1L-115.473 257.247Z" fill="#002145"/>
<path d="M-29.2365 267.969L-114.523 252.13L-114.681 252.983L-29.3949 268.821L-29.2365 267.969Z" fill="#002145"/>
<path d="M-113.572 247.013L-28.2861 262.851L-28.4445 263.704L-113.731 247.865L-113.572 247.013Z" fill="#002145"/>
<path d="M-27.3358 257.734L-112.622 241.895L-112.78 242.748L-27.4942 258.587L-27.3358 257.734Z" fill="#002145"/>
<path d="M-111.672 236.778L-26.3855 252.617L-26.5439 253.47L-111.83 237.631L-111.672 236.778Z" fill="#002145"/>
<path d="M-25.4352 247.5L-110.721 231.661L-110.88 232.514L-25.5935 248.353L-25.4352 247.5Z" fill="#002145"/>
<path d="M-109.771 226.544L-24.4848 242.383L-24.6432 243.236L-109.929 227.397L-109.771 226.544Z" fill="#002145"/>
<path d="M-23.5345 237.266L-108.821 221.427L-108.979 222.28L-23.6929 238.118L-23.5345 237.266Z" fill="#002145"/>
<path d="M-107.87 216.31L-22.5842 232.148L-22.7426 233.001L-108.029 217.162L-107.87 216.31Z" fill="#002145"/>
<path d="M-21.6338 227.031L-106.92 211.192L-107.078 212.045L-21.7922 227.884L-21.6338 227.031Z" fill="#002145"/>
<path d="M-105.97 206.075L-20.6835 221.914L-20.8419 222.767L-106.128 206.928L-105.97 206.075Z" fill="#002145"/>
<path d="M-19.7332 216.797L-105.019 200.958L-105.178 201.811L-19.8916 217.65L-19.7332 216.797Z" fill="#002145"/>
<path d="M-104.069 195.841L-18.7829 211.68L-18.9412 212.533L-104.227 196.694L-104.069 195.841Z" fill="#002145"/>
<path d="M-17.8325 206.563L-103.119 190.724L-103.277 191.577L-17.9909 207.415L-17.8325 206.563Z" fill="#002145"/>
<path d="M-129.039 391.496L-90.6855 469.301L-91.4635 469.684L-129.817 391.879L-129.039 391.496Z" fill="#002145"/>
<path d="M-124.371 389.194L-86.0172 466.999L-86.7952 467.383L-125.149 389.578L-124.371 389.194Z" fill="#002145"/>
<path d="M-81.3489 464.698L-119.702 386.893L-120.48 387.277L-82.1269 465.082L-81.3489 464.698Z" fill="#002145"/>
<path d="M-115.034 384.592L-76.6806 462.397L-77.4586 462.78L-115.812 384.976L-115.034 384.592Z" fill="#002145"/>
<path d="M-72.0123 460.096L-110.366 382.291L-111.144 382.674L-72.7904 460.479L-72.0123 460.096Z" fill="#002145"/>
<path d="M-105.697 379.99L-67.344 457.795L-68.1221 458.178L-106.475 380.373L-105.697 379.99Z" fill="#002145"/>
<path d="M-62.6757 455.493L-101.029 377.688L-101.807 378.072L-63.4538 455.877L-62.6757 455.493Z" fill="#002145"/>
<path d="M-96.3608 375.387L-58.0074 453.192L-58.7855 453.576L-97.1388 375.771L-96.3608 375.387Z" fill="#002145"/>
<path d="M-53.3391 450.891L-91.6925 373.086L-92.4705 373.47L-54.1172 451.275L-53.3391 450.891Z" fill="#002145"/>
<path d="M-87.0242 370.785L-48.6708 448.59L-49.4489 448.973L-87.8022 371.168L-87.0242 370.785Z" fill="#002145"/>
<path d="M-44.0025 446.289L-82.3559 368.484L-83.1339 368.867L-44.7806 446.672L-44.0025 446.289Z" fill="#002145"/>
<path d="M-77.6876 366.182L-39.3343 443.987L-40.1123 444.371L-78.4657 366.566L-77.6876 366.182Z" fill="#002145"/>
<path d="M-34.666 441.686L-73.0193 363.881L-73.7974 364.265L-35.444 442.07L-34.666 441.686Z" fill="#002145"/>
<path d="M-68.351 361.58L-29.9977 439.385L-30.7757 439.768L-69.1291 361.964L-68.351 361.58Z" fill="#002145"/>
<path d="M-25.3294 437.084L-63.6827 359.279L-64.4608 359.662L-26.1074 437.467L-25.3294 437.084Z" fill="#002145"/>
<path d="M-59.0144 356.978L-20.6611 434.783L-21.4391 435.166L-59.7925 357.361L-59.0144 356.978Z" fill="#002145"/>
<path d="M-15.9928 432.481L-54.3461 354.676L-55.1242 355.06L-16.7708 432.865L-15.9928 432.481Z" fill="#002145"/>
<path d="M-49.6778 352.375L-11.3245 430.18L-12.1025 430.564L-50.4559 352.759L-49.6778 352.375Z" fill="#002145"/>
<path d="M-6.6562 427.879L-45.0096 350.074L-45.7876 350.458L-7.43425 428.262L-6.6562 427.879Z" fill="#002145"/>
<path d="M-40.3413 347.773L-1.98792 425.578L-2.76596 425.961L-41.1193 348.156L-40.3413 347.773Z" fill="#002145"/>
<path d="M2.68037 423.277L-35.673 345.472L-36.451 345.855L1.90233 423.66L2.68037 423.277Z" fill="#002145"/>
<path d="M-31.0047 343.17L7.34868 420.975L6.57063 421.359L-31.7827 343.554L-31.0047 343.17Z" fill="#002145"/>
<path d="M12.017 418.674L-26.3364 340.869L-27.1144 341.253L11.2389 419.058L12.017 418.674Z" fill="#002145"/>
<path d="M-21.6681 338.568L16.6853 416.373L15.9072 416.756L-22.4461 338.952L-21.6681 338.568Z" fill="#002145"/>
<path d="M21.3536 414.072L-16.9998 336.267L-17.7778 336.65L20.5755 414.455L21.3536 414.072Z" fill="#002145"/>
<path d="M-12.3315 333.966L26.0219 411.771L25.2438 412.154L-13.1096 334.349L-12.3315 333.966Z" fill="#002145"/>
<path d="M30.6901 409.469L-7.66321 331.664L-8.44127 332.048L29.9121 409.853L30.6901 409.469Z" fill="#002145"/>
<path d="M-2.99492 329.363L35.3584 407.168L34.5804 407.552L-3.77296 329.747L-2.99492 329.363Z" fill="#002145"/>
<path d="M40.0267 404.867L1.67339 327.062L0.895325 327.446L39.2487 405.25L40.0267 404.867Z" fill="#002145"/>
<path d="M6.34167 324.761L44.695 402.566L43.917 402.949L5.56361 325.144L6.34167 324.761Z" fill="#002145"/>
<path d="M49.3633 400.265L11.01 322.46L10.2319 322.843L48.5853 400.648L49.3633 400.265Z" fill="#002145"/>
<path d="M15.6783 320.158L54.0316 397.963L53.2536 398.347L14.9002 320.542L15.6783 320.158Z" fill="#002145"/>
<path d="M58.6999 395.662L20.3465 317.857L19.5685 318.241L57.9218 396.046L58.6999 395.662Z" fill="#002145"/>
<path d="M25.0148 315.556L63.3682 393.361L62.5901 393.744L24.2368 315.94L25.0148 315.556Z" fill="#002145"/>
<path d="M68.0365 391.06L29.6831 313.255L28.9051 313.638L67.2584 391.443L68.0365 391.06Z" fill="#002145"/>
<path d="M34.3514 310.954L72.7048 388.759L71.9267 389.142L33.5734 311.337L34.3514 310.954Z" fill="#002145"/>
<path d="M77.3731 386.457L39.0197 308.652L38.2417 309.036L76.595 386.841L77.3731 386.457Z" fill="#002145"/>
<path d="M43.688 306.351L82.0414 384.156L81.2633 384.54L42.91 306.735L43.688 306.351Z" fill="#002145"/>
<path d="M86.7097 381.855L48.3563 304.05L47.5783 304.434L85.9316 382.238L86.7097 381.855Z" fill="#002145"/>
<path d="M53.0246 301.749L91.3779 379.554L90.5999 379.937L52.2466 302.132L53.0246 301.749Z" fill="#002145"/>
<path d="M96.0462 377.253L57.6929 299.448L56.9148 299.831L95.2682 377.636L96.0462 377.253Z" fill="#002145"/>
<path d="M62.3612 297.146L100.715 374.951L99.9365 375.335L61.5831 297.53L62.3612 297.146Z" fill="#002145"/>
<path d="M105.383 372.65L67.0295 294.845L66.2514 295.229L104.605 373.034L105.383 372.65Z" fill="#002145"/>
<path d="M71.6978 292.544L110.051 370.349L109.273 370.732L70.9197 292.928L71.6978 292.544Z" fill="#002145"/>
<path d="M114.719 368.048L76.3661 290.243L75.588 290.626L113.941 368.431L114.719 368.048Z" fill="#002145"/>
<path d="M81.0344 287.942L119.388 365.747L118.61 366.13L80.2563 288.325L81.0344 287.942Z" fill="#002145"/>
<path d="M124.056 363.445L85.7027 285.64L84.9246 286.024L123.278 363.829L124.056 363.445Z" fill="#002145"/>
<path d="M521.776 195.363L460.711 256.971L460.095 256.36L521.16 194.752L521.776 195.363Z" fill="#002145"/>
<path d="M525.473 199.027L464.407 260.635L463.791 260.024L524.857 198.416L525.473 199.027Z" fill="#002145"/>
<path d="M468.104 264.299L529.169 202.691L528.553 202.08L467.488 263.688L468.104 264.299Z" fill="#002145"/>
<path d="M532.866 206.354L471.8 267.963L471.184 267.352L532.25 205.744L532.866 206.354Z" fill="#002145"/>
<path d="M475.497 271.627L536.562 210.018L535.946 209.408L474.881 271.016L475.497 271.627Z" fill="#002145"/>
<path d="M540.259 213.682L479.193 275.291L478.577 274.68L539.643 213.072L540.259 213.682Z" fill="#002145"/>
<path d="M482.89 278.955L543.955 217.346L543.339 216.736L482.274 278.344L482.89 278.955Z" fill="#002145"/>
<path d="M547.652 221.01L486.586 282.618L485.97 282.008L547.036 220.399L547.652 221.01Z" fill="#002145"/>
<path d="M490.283 286.282L551.348 224.674L550.732 224.063L489.667 285.672L490.283 286.282Z" fill="#002145"/>
<path d="M555.045 228.338L493.979 289.946L493.363 289.336L554.429 227.727L555.045 228.338Z" fill="#002145"/>
<path d="M497.676 293.61L558.741 232.002L558.125 231.391L497.06 293L497.676 293.61Z" fill="#002145"/>
<path d="M562.438 235.666L501.372 297.274L500.756 296.664L561.822 235.055L562.438 235.666Z" fill="#002145"/>
<path d="M505.069 300.938L566.134 239.33L565.518 238.719L504.453 300.327L505.069 300.938Z" fill="#002145"/>
<path d="M569.831 242.994L508.766 304.602L508.149 303.991L569.215 242.383L569.831 242.994Z" fill="#002145"/>
<path d="M512.462 308.266L573.527 246.658L572.911 246.047L511.846 307.655L512.462 308.266Z" fill="#002145"/>
<path d="M577.224 250.322L516.159 311.93L515.542 311.319L576.608 249.711L577.224 250.322Z" fill="#002145"/>
<path d="M519.855 315.594L580.92 253.985L580.304 253.375L519.239 314.983L519.855 315.594Z" fill="#002145"/>
<path d="M584.617 257.649L523.552 319.258L522.935 318.647L584.001 257.039L584.617 257.649Z" fill="#002145"/>
<path d="M527.248 322.922L588.313 261.313L587.697 260.703L526.632 322.311L527.248 322.922Z" fill="#002145"/>
<path d="M592.01 264.977L530.945 326.586L530.328 325.975L591.394 264.367L592.01 264.977Z" fill="#002145"/>
<path d="M534.641 330.25L595.706 268.641L595.09 268.031L534.025 329.639L534.641 330.25Z" fill="#002145"/>
<path d="M599.403 272.305L538.338 333.913L537.721 333.303L598.787 271.694L599.403 272.305Z" fill="#002145"/>
<path d="M542.034 337.577L603.099 275.969L602.483 275.358L541.418 336.967L542.034 337.577Z" fill="#002145"/>
<path d="M606.796 279.633L545.731 341.241L545.114 340.631L606.18 279.022L606.796 279.633Z" fill="#002145"/>
<path d="M549.427 344.905L610.492 283.297L609.876 282.686L548.811 344.295L549.427 344.905Z" fill="#002145"/>
<path d="M614.189 286.961L553.124 348.569L552.507 347.959L613.573 286.35L614.189 286.961Z" fill="#002145"/>
<path d="M556.82 352.233L617.885 290.625L617.269 290.014L556.204 351.622L556.82 352.233Z" fill="#002145"/>
<path d="M621.582 294.289L560.517 355.897L559.9 355.286L620.966 293.678L621.582 294.289Z" fill="#002145"/>
<path d="M564.213 359.561L625.279 297.953L624.662 297.342L563.597 358.95L564.213 359.561Z" fill="#002145"/>
<path d="M628.975 301.617L567.91 363.225L567.293 362.614L628.359 301.006L628.975 301.617Z" fill="#002145"/>
<path d="M571.606 366.889L632.672 305.28L632.055 304.67L570.99 366.278L571.606 366.889Z" fill="#002145"/>
<path d="M636.368 308.944L575.303 370.553L574.686 369.942L635.752 308.334L636.368 308.944Z" fill="#002145"/>
<path d="M578.999 374.217L640.065 312.608L639.448 311.998L578.383 373.606L578.999 374.217Z" fill="#002145"/>
<path d="M643.761 316.272L582.696 377.881L582.079 377.27L643.145 315.662L643.761 316.272Z" fill="#002145"/>
<path d="M586.392 381.545L647.458 319.936L646.841 319.326L585.776 380.934L586.392 381.545Z" fill="#002145"/>
<path d="M651.154 323.6L590.089 385.208L589.472 384.598L650.538 322.989L651.154 323.6Z" fill="#002145"/>
<path d="M593.785 388.872L654.851 327.264L654.234 326.653L593.169 388.262L593.785 388.872Z" fill="#002145"/>
<path d="M658.547 330.928L597.482 392.536L596.865 391.926L657.931 330.317L658.547 330.928Z" fill="#002145"/>
<path d="M601.178 396.2L662.244 334.592L661.627 333.981L600.562 395.59L601.178 396.2Z" fill="#002145"/>
<path d="M665.94 338.256L604.875 399.864L604.258 399.254L665.324 337.645L665.94 338.256Z" fill="#002145"/>
<path d="M608.571 403.528L669.637 341.92L669.02 341.309L607.955 402.917L608.571 403.528Z" fill="#002145"/>
<path d="M673.333 345.584L612.268 407.192L611.651 406.581L672.717 344.973L673.333 345.584Z" fill="#002145"/>
<path d="M615.964 410.856L677.03 349.248L676.413 348.637L615.348 410.245L615.964 410.856Z" fill="#002145"/>
<path d="M680.726 352.911L619.661 414.52L619.044 413.909L680.11 352.301L680.726 352.911Z" fill="#002145"/>
<path d="M623.357 418.184L684.423 356.575L683.806 355.965L622.741 417.573L623.357 418.184Z" fill="#002145"/>
<path d="M688.119 360.239L627.054 421.848L626.438 421.237L687.503 359.629L688.119 360.239Z" fill="#002145"/>
<path d="M630.75 425.512L691.816 363.903L691.199 363.293L630.134 424.901L630.75 425.512Z" fill="#002145"/>
<path d="M227.053 354.626L290.259 295.216L290.853 295.848L227.647 355.258L227.053 354.626Z" fill="#002145"/>
<path d="M223.488 350.833L286.695 291.423L287.289 292.055L224.082 351.465L223.488 350.833Z" fill="#002145"/>
<path d="M283.13 287.631L219.924 347.041L220.518 347.673L283.724 288.263L283.13 287.631Z" fill="#002145"/>
<path d="M216.359 343.249L279.565 283.839L280.159 284.471L216.953 343.881L216.359 343.249Z" fill="#002145"/>
<path d="M276.001 280.046L212.794 339.456L213.389 340.088L276.595 280.678L276.001 280.046Z" fill="#002145"/>
<path d="M209.23 335.664L272.436 276.254L273.03 276.886L209.824 336.296L209.23 335.664Z" fill="#002145"/>
<path d="M268.871 272.461L205.665 331.871L206.259 332.504L269.466 273.093L268.871 272.461Z" fill="#002145"/>
<path d="M202.101 328.079L265.307 268.669L265.901 269.301L202.695 328.711L202.101 328.079Z" fill="#002145"/>
<path d="M261.742 264.877L198.536 324.287L199.13 324.919L262.336 265.509L261.742 264.877Z" fill="#002145"/>
<path d="M194.971 320.494L258.178 261.084L258.772 261.716L195.566 321.126L194.971 320.494Z" fill="#002145"/>
<path d="M254.613 257.292L191.407 316.702L192.001 317.334L255.207 257.924L254.613 257.292Z" fill="#002145"/>
<path d="M187.842 312.91L251.048 253.5L251.643 254.132L188.436 313.542L187.842 312.91Z" fill="#002145"/>
<path d="M247.484 249.707L184.278 309.117L184.872 309.749L248.078 250.339L247.484 249.707Z" fill="#002145"/>
<path d="M180.713 305.325L243.919 245.915L244.513 246.547L181.307 305.957L180.713 305.325Z" fill="#002145"/>
<path d="M240.355 242.122L177.148 301.532L177.743 302.165L240.949 242.754L240.355 242.122Z" fill="#002145"/>
<path d="M173.584 297.74L236.79 238.33L237.384 238.962L174.178 298.372L173.584 297.74Z" fill="#002145"/>
<path d="M233.225 234.538L170.019 293.948L170.613 294.58L233.82 235.17L233.225 234.538Z" fill="#002145"/>
<path d="M166.455 290.155L229.661 230.745L230.255 231.377L167.049 290.787L166.455 290.155Z" fill="#002145"/>
<path d="M226.096 226.953L162.89 286.363L163.484 286.995L226.69 227.585L226.096 226.953Z" fill="#002145"/>
<path d="M159.325 282.571L222.532 223.161L223.126 223.793L159.92 283.203L159.325 282.571Z" fill="#002145"/>
<path d="M218.967 219.368L155.761 278.778L156.355 279.41L219.561 220L218.967 219.368Z" fill="#002145"/>
<path d="M152.196 274.986L215.402 215.576L215.997 216.208L152.79 275.618L152.196 274.986Z" fill="#002145"/>
<path d="M211.838 211.783L148.632 271.193L149.226 271.826L212.432 212.415L211.838 211.783Z" fill="#002145"/>
<path d="M145.067 267.401L208.273 207.991L208.867 208.623L145.661 268.033L145.067 267.401Z" fill="#002145"/>
<path d="M204.709 204.199L141.502 263.609L142.097 264.241L205.303 204.831L204.709 204.199Z" fill="#002145"/>
<path d="M137.938 259.816L201.144 200.406L201.738 201.038L138.532 260.448L137.938 259.816Z" fill="#002145"/>
<path d="M197.579 196.614L134.373 256.024L134.967 256.656L198.174 197.246L197.579 196.614Z" fill="#002145"/>
<path d="M130.809 252.232L194.015 192.822L194.609 193.454L131.403 252.864L130.809 252.232Z" fill="#002145"/>
<path d="M190.45 189.029L127.244 248.439L127.838 249.071L191.044 189.661L190.45 189.029Z" fill="#002145"/>
<path d="M123.679 244.647L186.886 185.237L187.48 185.869L124.273 245.279L123.679 244.647Z" fill="#002145"/>
<path d="M183.321 181.444L120.115 240.854L120.709 241.487L183.915 182.077L183.321 181.444Z" fill="#002145"/>
<path d="M116.55 237.062L179.756 177.652L180.351 178.284L117.144 237.694L116.55 237.062Z" fill="#002145"/>
<path d="M176.192 173.86L112.986 233.27L113.58 233.902L176.786 174.492L176.192 173.86Z" fill="#002145"/>
<path d="M109.421 229.477L172.627 170.067L173.221 170.699L110.015 230.109L109.421 229.477Z" fill="#002145"/>
<path d="M169.063 166.275L105.856 225.685L106.451 226.317L169.657 166.907L169.063 166.275Z" fill="#002145"/>
<path d="M102.292 221.893L165.498 162.483L166.092 163.115L102.886 222.525L102.292 221.893Z" fill="#002145"/>
<path d="M161.933 158.69L98.7272 218.1L99.3213 218.732L162.527 159.322L161.933 158.69Z" fill="#002145"/>
<path d="M95.1626 214.308L158.369 154.898L158.963 155.53L95.7567 214.94L95.1626 214.308Z" fill="#002145"/>
<path d="M154.804 151.105L91.598 210.516L92.1921 211.148L155.398 151.738L154.804 151.105Z" fill="#002145"/>
<path d="M88.0334 206.723L151.24 147.313L151.834 147.945L88.6275 207.355L88.0334 206.723Z" fill="#002145"/>
<path d="M147.675 143.521L84.4688 202.931L85.0629 203.563L148.269 144.153L147.675 143.521Z" fill="#002145"/>
<path d="M80.9042 199.138L144.11 139.728L144.704 140.36L81.4983 199.77L80.9042 199.138Z" fill="#002145"/>
<path d="M140.546 135.936L77.3396 195.346L77.9337 195.978L141.14 136.568L140.546 135.936Z" fill="#002145"/>
<path d="M73.775 191.554L136.981 132.144L137.575 132.776L74.3691 192.186L73.775 191.554Z" fill="#002145"/>
<path d="M133.417 128.351L70.2104 187.761L70.8045 188.393L134.011 128.983L133.417 128.351Z" fill="#002145"/>
<path d="M66.6458 183.969L129.852 124.559L130.446 125.191L67.2399 184.601L66.6458 183.969Z" fill="#002145"/>
<path d="M126.287 120.766L63.0812 180.177L63.6753 180.809L126.881 121.399L126.287 120.766Z" fill="#002145"/>
<path d="M585.047 317.211L664.317 281.986L664.67 282.779L585.399 318.003L585.047 317.211Z" fill="#002145"/>
<path d="M582.933 312.454L662.204 277.23L662.556 278.023L583.286 313.247L582.933 312.454Z" fill="#002145"/>
<path d="M660.09 272.474L580.82 307.698L581.172 308.491L660.443 273.266L660.09 272.474Z" fill="#002145"/>
<path d="M578.707 302.942L657.977 267.717L658.329 268.51L579.059 303.735L578.707 302.942Z" fill="#002145"/>
<path d="M655.863 262.961L576.593 298.186L576.945 298.979L656.216 263.754L655.863 262.961Z" fill="#002145"/>
<path d="M574.48 293.43L653.75 258.205L654.102 258.998L574.832 294.222L574.48 293.43Z" fill="#002145"/>
<path d="M651.637 253.449L572.366 288.673L572.718 289.466L651.989 254.241L651.637 253.449Z" fill="#002145"/>
<path d="M570.253 283.917L649.523 248.692L649.875 249.485L570.605 284.71L570.253 283.917Z" fill="#002145"/>
<path d="M647.41 243.936L568.139 279.161L568.491 279.954L647.762 244.729L647.41 243.936Z" fill="#002145"/>
<path d="M566.026 274.405L645.296 239.18L645.648 239.973L566.378 275.197L566.026 274.405Z" fill="#002145"/>
<path d="M643.183 234.424L563.912 269.648L564.264 270.441L643.535 235.216L643.183 234.424Z" fill="#002145"/>
<path d="M561.799 264.892L641.069 229.668L641.421 230.46L562.151 265.685L561.799 264.892Z" fill="#002145"/>
<path d="M638.956 224.911L559.685 260.136L560.037 260.929L639.308 225.704L638.956 224.911Z" fill="#002145"/>
<path d="M557.572 255.38L636.842 220.155L637.194 220.948L557.924 256.172L557.572 255.38Z" fill="#002145"/>
<path d="M634.729 215.399L555.458 250.624L555.81 251.416L635.081 216.192L634.729 215.399Z" fill="#002145"/>
<path d="M553.345 245.867L632.615 210.643L632.967 211.435L553.697 246.66L553.345 245.867Z" fill="#002145"/>
<path d="M630.502 205.886L551.231 241.111L551.583 241.904L630.854 206.679L630.502 205.886Z" fill="#002145"/>
<path d="M549.118 236.355L628.388 201.13L628.74 201.923L549.47 237.148L549.118 236.355Z" fill="#002145"/>
<path d="M626.275 196.374L547.004 231.599L547.357 232.391L626.627 197.167L626.275 196.374Z" fill="#002145"/>
<path d="M544.891 226.842L624.161 191.618L624.513 192.41L545.243 227.635L544.891 226.842Z" fill="#002145"/>
<path d="M622.048 186.862L542.777 222.086L543.13 222.879L622.4 187.654L622.048 186.862Z" fill="#002145"/>
<path d="M540.664 217.33L619.934 182.105L620.287 182.898L541.016 218.123L540.664 217.33Z" fill="#002145"/>
<path d="M617.821 177.349L538.55 212.574L538.903 213.366L618.173 178.142L617.821 177.349Z" fill="#002145"/>
<path d="M536.437 207.818L615.707 172.593L616.06 173.386L536.789 208.61L536.437 207.818Z" fill="#002145"/>
<path d="M613.594 167.837L534.323 203.061L534.676 203.854L613.946 168.629L613.594 167.837Z" fill="#002145"/>
<path d="M532.21 198.305L611.48 163.08L611.833 163.873L532.562 199.098L532.21 198.305Z" fill="#002145"/>
<path d="M609.367 158.324L530.096 193.549L530.449 194.342L609.719 159.117L609.367 158.324Z" fill="#002145"/>
<path d="M527.983 188.793L607.253 153.568L607.606 154.361L528.335 189.585L527.983 188.793Z" fill="#002145"/>
<path d="M605.14 148.812L525.87 184.036L526.222 184.829L605.492 149.604L605.14 148.812Z" fill="#002145"/>
<path d="M523.756 179.28L603.026 144.055L603.379 144.848L524.108 180.073L523.756 179.28Z" fill="#002145"/>
<path d="M600.913 139.299L521.643 174.524L521.995 175.317L601.265 140.092L600.913 139.299Z" fill="#002145"/>
<path d="M519.529 169.768L598.799 134.543L599.152 135.336L519.881 170.56L519.529 169.768Z" fill="#002145"/>
<path d="M596.686 129.787L517.416 165.011L517.768 165.804L597.038 130.58L596.686 129.787Z" fill="#002145"/>
<path d="M515.302 160.255L594.573 125.031L594.925 125.823L515.654 161.048L515.302 160.255Z" fill="#002145"/>
<path d="M592.459 120.274L513.189 155.499L513.541 156.292L592.811 121.067L592.459 120.274Z" fill="#002145"/>
<path d="M511.075 150.743L590.346 115.518L590.698 116.311L511.427 151.536L511.075 150.743Z" fill="#002145"/>
<path d="M588.232 110.762L508.962 145.987L509.314 146.779L588.584 111.555L588.232 110.762Z" fill="#002145"/>
<path d="M506.848 141.23L586.119 106.006L586.471 106.798L507.2 142.023L506.848 141.23Z" fill="#002145"/>
<path d="M584.005 101.249L504.735 136.474L505.087 137.267L584.357 102.042L584.005 101.249Z" fill="#002145"/>
<path d="M502.621 131.718L581.892 96.4932L582.244 97.2859L502.973 132.511L502.621 131.718Z" fill="#002145"/>
<path d="M579.778 91.737L500.508 126.962L500.86 127.754L580.13 92.5297L579.778 91.737Z" fill="#002145"/>
<path d="M498.394 122.205L577.665 86.9808L578.017 87.7735L498.747 122.998L498.394 122.205Z" fill="#002145"/>
<path d="M575.551 82.2245L496.281 117.449L496.633 118.242L575.904 83.0173L575.551 82.2245Z" fill="#002145"/>
<path d="M494.167 112.693L573.438 77.4683L573.79 78.261L494.52 113.486L494.167 112.693Z" fill="#002145"/>
<path d="M571.324 72.7121L492.054 107.937L492.406 108.729L571.677 73.5048L571.324 72.7121Z" fill="#002145"/>
<path d="M489.94 103.181L569.211 67.9559L569.563 68.7486L490.293 103.973L489.94 103.181Z" fill="#002145"/>
<path d="M567.097 63.1996L487.827 98.4243L488.179 99.217L567.45 63.9924L567.097 63.1996Z" fill="#002145"/>
<path d="M334.558 0.986949L249.804 19.4624L249.619 18.6149L334.373 0.139404L334.558 0.986949Z" fill="#002145"/>
<path d="M335.666 6.07219L250.912 24.5477L250.728 23.7001L335.482 5.22464L335.666 6.07219Z" fill="#002145"/>
<path d="M252.021 29.6329L336.775 11.1574L336.59 10.3099L251.836 28.7854L252.021 29.6329Z" fill="#002145"/>
<path d="M337.883 16.2427L253.129 34.7182L252.945 33.8706L337.699 15.3951L337.883 16.2427Z" fill="#002145"/>
<path d="M254.238 39.8034L338.992 21.3279L338.807 20.4804L254.053 38.9558L254.238 39.8034Z" fill="#002145"/>
<path d="M340.101 26.4131L255.347 44.8886L255.162 44.0411L339.916 25.5656L340.101 26.4131Z" fill="#002145"/>
<path d="M256.455 49.9739L341.209 31.4984L341.024 30.6508L256.27 49.1263L256.455 49.9739Z" fill="#002145"/>
<path d="M342.318 36.5836L257.564 55.0591L257.379 54.2116L342.133 35.7361L342.318 36.5836Z" fill="#002145"/>
<path d="M258.672 60.1443L343.426 41.6689L343.241 40.8213L258.487 59.2968L258.672 60.1443Z" fill="#002145"/>
<path d="M344.535 46.7541L259.781 65.2296L259.596 64.382L344.35 45.9066L344.535 46.7541Z" fill="#002145"/>
<path d="M260.889 70.3148L345.643 51.8393L345.458 50.9918L260.704 69.4673L260.889 70.3148Z" fill="#002145"/>
<path d="M346.752 56.9246L261.998 75.4001L261.813 74.5525L346.567 56.077L346.752 56.9246Z" fill="#002145"/>
<path d="M263.106 80.4853L347.86 62.0098L347.675 61.1623L262.922 79.6378L263.106 80.4853Z" fill="#002145"/>
<path d="M348.969 67.095L264.215 85.5705L264.03 84.723L348.784 66.2475L348.969 67.095Z" fill="#002145"/>
<path d="M265.323 90.6558L350.077 72.1803L349.893 71.3327L265.139 89.8082L265.323 90.6558Z" fill="#002145"/>
<path d="M351.186 77.2655L266.432 95.741L266.247 94.8935L351.001 76.418L351.186 77.2655Z" fill="#002145"/>
<path d="M267.54 100.826L352.294 82.3508L352.11 81.5032L267.356 99.9787L267.54 100.826Z" fill="#002145"/>
<path d="M353.403 87.436L268.649 105.911L268.464 105.064L353.218 86.5885L353.403 87.436Z" fill="#002145"/>
<path d="M269.757 110.997L354.511 92.5212L354.327 91.6737L269.573 110.149L269.757 110.997Z" fill="#002145"/>
<path d="M355.62 97.6065L270.866 116.082L270.681 115.234L355.435 96.7589L355.62 97.6065Z" fill="#002145"/>
<path d="M271.974 121.167L356.728 102.692L356.544 101.844L271.79 120.32L271.974 121.167Z" fill="#002145"/>
<path d="M357.837 107.777L273.083 126.252L272.898 125.405L357.652 106.929L357.837 107.777Z" fill="#002145"/>
<path d="M274.192 131.338L358.946 112.862L358.761 112.015L274.007 130.49L274.192 131.338Z" fill="#002145"/>
<path d="M360.054 117.947L275.3 136.423L275.115 135.575L359.869 117.1L360.054 117.947Z" fill="#002145"/>
<path d="M276.409 141.508L361.163 123.033L360.978 122.185L276.224 140.661L276.409 141.508Z" fill="#002145"/>
<path d="M362.271 128.118L277.517 146.593L277.332 145.746L362.086 127.27L362.271 128.118Z" fill="#002145"/>
<path d="M278.626 151.679L363.38 133.203L363.195 132.356L278.441 150.831L278.626 151.679Z" fill="#002145"/>
<path d="M364.488 138.288L279.734 156.764L279.549 155.916L364.303 137.441L364.488 138.288Z" fill="#002145"/>
<path d="M280.843 161.849L365.597 143.374L365.412 142.526L280.658 161.002L280.843 161.849Z" fill="#002145"/>
<path d="M366.705 148.459L281.951 166.934L281.767 166.087L366.521 147.611L366.705 148.459Z" fill="#002145"/>
<path d="M283.06 172.02L367.814 153.544L367.629 152.697L282.875 171.172L283.06 172.02Z" fill="#002145"/>
<path d="M368.922 158.629L284.168 177.105L283.984 176.257L368.738 157.782L368.922 158.629Z" fill="#002145"/>
<path d="M285.277 182.19L370.031 163.715L369.846 162.867L285.092 181.343L285.277 182.19Z" fill="#002145"/>
<path d="M371.139 168.8L286.385 187.275L286.201 186.428L370.955 167.952L371.139 168.8Z" fill="#002145"/>
<path d="M287.494 192.361L372.248 173.885L372.063 173.038L287.309 191.513L287.494 192.361Z" fill="#002145"/>
<path d="M373.356 178.97L288.602 197.446L288.418 196.598L373.172 178.123L373.356 178.97Z" fill="#002145"/>
<path d="M289.711 202.531L374.465 184.056L374.28 183.208L289.526 201.683L289.711 202.531Z" fill="#002145"/>
<path d="M375.573 189.141L290.819 207.616L290.635 206.769L375.389 188.293L375.573 189.141Z" fill="#002145"/>
<path d="M291.928 212.702L376.682 194.226L376.497 193.378L291.743 211.854L291.928 212.702Z" fill="#002145"/>
<path d="M377.791 199.311L293.037 217.787L292.852 216.939L377.606 198.464L377.791 199.311Z" fill="#002145"/>
<path d="M294.145 222.872L378.899 204.396L378.714 203.549L293.96 222.024L294.145 222.872Z" fill="#002145"/>
<path d="M380.008 209.482L295.254 227.957L295.069 227.11L379.823 208.634L380.008 209.482Z" fill="#002145"/>
<path d="M296.362 233.042L381.116 214.567L380.931 213.719L296.177 232.195L296.362 233.042Z" fill="#002145"/>
<path d="M382.225 219.652L297.471 238.128L297.286 237.28L382.04 218.805L382.225 219.652Z" fill="#002145"/>
<path d="M298.579 243.213L383.333 224.737L383.148 223.89L298.394 242.365L298.579 243.213Z" fill="#002145"/>
<path d="M384.442 229.823L299.688 248.298L299.503 247.451L384.257 228.975L384.442 229.823Z" fill="#002145"/>
<path d="M300.796 253.383L385.55 234.908L385.365 234.06L300.612 252.536L300.796 253.383Z" fill="#002145"/>
</g>
</g>
<defs>
<clipPath id="clip0">
<rect width="692" height="470" fill="white" transform="matrix(-1 0 0 1 692 0)"/>
</clipPath>
</defs>
</svg>
