<svg width="846" height="485" viewBox="0 0 846 485" fill="none" xmlns="http://www.w3.org/2000/svg">
<g clip-path="url(#clip0)">
<g opacity="0.739207">
<path d="M202.271 299.39L288.624 307.627L288.541 308.491L202.189 300.253L202.271 299.39Z" fill="#002145"/>
<path d="M202.765 294.208L289.118 302.446L289.035 303.31L202.683 295.072L202.765 294.208Z" fill="#002145"/>
<path d="M289.612 297.265L203.26 289.027L203.177 289.891L289.53 298.128L289.612 297.265Z" fill="#002145"/>
<path d="M203.754 283.846L290.106 292.084L290.024 292.947L203.672 284.71L203.754 283.846Z" fill="#002145"/>
<path d="M290.601 286.903L204.248 278.665L204.166 279.529L290.518 287.766L290.601 286.903Z" fill="#002145"/>
<path d="M204.743 273.484L291.095 281.722L291.012 282.585L204.66 274.347L204.743 273.484Z" fill="#002145"/>
<path d="M291.589 276.54L205.237 268.303L205.154 269.166L291.507 277.404L291.589 276.54Z" fill="#002145"/>
<path d="M205.731 263.122L292.083 271.359L292.001 272.223L205.649 263.985L205.731 263.122Z" fill="#002145"/>
<path d="M292.578 266.178L206.225 257.941L206.143 258.804L292.495 267.042L292.578 266.178Z" fill="#002145"/>
<path d="M206.72 252.759L293.072 260.997L292.989 261.861L206.637 253.623L206.72 252.759Z" fill="#002145"/>
<path d="M293.566 255.816L207.214 247.578L207.131 248.442L293.484 256.679L293.566 255.816Z" fill="#002145"/>
<path d="M207.708 242.397L294.06 250.635L293.978 251.498L207.626 243.261L207.708 242.397Z" fill="#002145"/>
<path d="M294.555 245.454L208.202 237.216L208.12 238.079L294.472 246.317L294.555 245.454Z" fill="#002145"/>
<path d="M208.697 232.035L295.049 240.272L294.967 241.136L208.614 232.898L208.697 232.035Z" fill="#002145"/>
<path d="M295.543 235.091L209.191 226.854L209.108 227.717L295.461 235.955L295.543 235.091Z" fill="#002145"/>
<path d="M209.685 221.673L296.037 229.91L295.955 230.774L209.603 222.536L209.685 221.673Z" fill="#002145"/>
<path d="M296.532 224.729L210.179 216.491L210.097 217.355L296.449 225.593L296.532 224.729Z" fill="#002145"/>
<path d="M210.674 211.31L297.026 219.548L296.944 220.411L210.591 212.174L210.674 211.31Z" fill="#002145"/>
<path d="M297.52 214.367L211.168 206.129L211.085 206.993L297.438 215.23L297.52 214.367Z" fill="#002145"/>
<path d="M211.662 200.948L298.014 209.186L297.932 210.049L211.58 201.811L211.662 200.948Z" fill="#002145"/>
<path d="M298.509 204.004L212.156 195.767L212.074 196.63L298.426 204.868L298.509 204.004Z" fill="#002145"/>
<path d="M212.651 190.586L299.003 198.823L298.921 199.687L212.568 191.449L212.651 190.586Z" fill="#002145"/>
<path d="M299.497 193.642L213.145 185.405L213.063 186.268L299.415 194.506L299.497 193.642Z" fill="#002145"/>
<path d="M213.639 180.223L299.991 188.461L299.909 189.325L213.557 181.087L213.639 180.223Z" fill="#002145"/>
<path d="M300.486 183.28L214.133 175.042L214.051 175.906L300.403 184.143L300.486 183.28Z" fill="#002145"/>
<path d="M214.628 169.861L300.98 178.099L300.898 178.962L214.545 170.725L214.628 169.861Z" fill="#002145"/>
<path d="M301.474 172.918L215.122 164.68L215.04 165.544L301.392 173.781L301.474 172.918Z" fill="#002145"/>
<path d="M215.616 159.499L301.968 167.736L301.886 168.6L215.534 160.362L215.616 159.499Z" fill="#002145"/>
<path d="M302.463 162.555L216.11 154.318L216.028 155.181L302.38 163.419L302.463 162.555Z" fill="#002145"/>
<path d="M216.605 149.137L302.957 157.374L302.875 158.238L216.522 150L216.605 149.137Z" fill="#002145"/>
<path d="M303.451 152.193L217.099 143.955L217.017 144.819L303.369 153.057L303.451 152.193Z" fill="#002145"/>
<path d="M217.593 138.774L303.946 147.012L303.863 147.875L217.511 139.638L217.593 138.774Z" fill="#002145"/>
<path d="M304.44 141.831L218.087 133.593L218.005 134.457L304.357 142.694L304.44 141.831Z" fill="#002145"/>
<path d="M218.582 128.412L304.934 136.65L304.852 137.513L218.499 129.276L218.582 128.412Z" fill="#002145"/>
<path d="M305.428 131.469L219.076 123.231L218.994 124.094L305.346 132.332L305.428 131.469Z" fill="#002145"/>
<path d="M219.57 118.05L305.923 126.287L305.84 127.151L219.488 118.913L219.57 118.05Z" fill="#002145"/>
<path d="M306.417 121.106L220.064 112.869L219.982 113.732L306.334 121.97L306.417 121.106Z" fill="#002145"/>
<path d="M220.559 107.687L306.911 115.925L306.829 116.789L220.476 108.551L220.559 107.687Z" fill="#002145"/>
<path d="M307.405 110.744L221.053 102.506L220.971 103.37L307.323 111.607L307.405 110.744Z" fill="#002145"/>
<path d="M221.547 97.3252L307.9 105.563L307.817 106.426L221.465 98.1887L221.547 97.3252Z" fill="#002145"/>
<path d="M308.394 100.382L222.042 92.1441L221.959 93.0076L308.311 101.245L308.394 100.382Z" fill="#002145"/>
<path d="M222.536 86.9629L308.888 95.2005L308.806 96.0641L222.453 87.8264L222.536 86.9629Z" fill="#002145"/>
<path d="M309.382 90.0194L223.03 81.7818L222.948 82.6453L309.3 90.8829L309.382 90.0194Z" fill="#002145"/>
<path d="M223.524 76.6006L309.877 84.8383L309.794 85.7018L223.442 77.4642L223.524 76.6006Z" fill="#002145"/>
<path d="M310.371 79.6571L224.019 71.4195L223.936 72.283L310.288 80.5206L310.371 79.6571Z" fill="#002145"/>
<path d="M224.513 66.2384L310.865 74.476L310.783 75.3395L224.43 67.1019L224.513 66.2384Z" fill="#002145"/>
<path d="M311.359 69.2948L225.007 61.0572L224.925 61.9208L311.277 70.1584L311.359 69.2948Z" fill="#002145"/>
</g>
<path d="M5.34285 432.113L90.6289 447.952L90.4705 448.805L5.18446 432.966L5.34285 432.113Z" fill="#002145"/>
<path d="M6.29317 426.996L91.5792 442.835L91.4209 443.688L6.13479 427.849L6.29317 426.996Z" fill="#002145"/>
<path d="M92.5296 437.718L7.2435 421.879L7.08511 422.732L92.3712 438.571L92.5296 437.718Z" fill="#002145"/>
<path d="M8.19383 416.762L93.4799 432.601L93.3215 433.453L8.03544 417.615L8.19383 416.762Z" fill="#002145"/>
<path d="M94.4302 427.483L9.14416 411.645L8.98577 412.497L94.2718 428.336L94.4302 427.483Z" fill="#002145"/>
<path d="M10.0945 406.527L95.3805 422.366L95.2222 423.219L9.9361 407.38L10.0945 406.527Z" fill="#002145"/>
<path d="M96.3309 417.249L11.0448 401.41L10.8864 402.263L96.1725 418.102L96.3309 417.249Z" fill="#002145"/>
<path d="M11.9951 396.293L97.2812 412.132L97.1228 412.985L11.8368 397.146L11.9951 396.293Z" fill="#002145"/>
<path d="M98.2315 407.015L12.9455 391.176L12.7871 392.029L98.0732 407.868L98.2315 407.015Z" fill="#002145"/>
<path d="M13.8958 386.059L99.1819 401.898L99.0235 402.75L13.7374 386.912L13.8958 386.059Z" fill="#002145"/>
<path d="M100.132 396.78L14.8461 380.942L14.6877 381.794L99.9738 397.633L100.132 396.78Z" fill="#002145"/>
<path d="M15.7965 375.824L101.083 391.663L100.924 392.516L15.6381 376.677L15.7965 375.824Z" fill="#002145"/>
<path d="M102.033 386.546L16.7468 370.707L16.5884 371.56L101.874 387.399L102.033 386.546Z" fill="#002145"/>
<path d="M17.6971 365.59L102.983 381.429L102.825 382.282L17.5387 366.443L17.6971 365.59Z" fill="#002145"/>
<path d="M103.934 376.312L18.6474 360.473L18.489 361.326L103.775 377.165L103.934 376.312Z" fill="#002145"/>
<path d="M19.5978 355.356L104.884 371.195L104.725 372.047L19.4394 356.209L19.5978 355.356Z" fill="#002145"/>
<path d="M105.834 366.077L20.5481 350.239L20.3897 351.092L105.676 366.93L105.834 366.077Z" fill="#002145"/>
<path d="M21.4984 345.121L106.784 360.96L106.626 361.813L21.34 345.974L21.4984 345.121Z" fill="#002145"/>
<path d="M107.735 355.843L22.4488 340.004L22.2904 340.857L107.576 356.696L107.735 355.843Z" fill="#002145"/>
<path d="M23.3991 334.887L108.685 350.726L108.527 351.579L23.2407 335.74L23.3991 334.887Z" fill="#002145"/>
<path d="M109.635 345.609L24.3494 329.77L24.191 330.623L109.477 346.462L109.635 345.609Z" fill="#002145"/>
<path d="M25.2997 324.653L110.586 340.492L110.427 341.344L25.1413 325.506L25.2997 324.653Z" fill="#002145"/>
<path d="M111.536 335.374L26.2501 319.536L26.0917 320.389L111.378 336.227L111.536 335.374Z" fill="#002145"/>
<path d="M27.2004 314.419L112.486 330.257L112.328 331.11L27.042 315.271L27.2004 314.419Z" fill="#002145"/>
<path d="M113.437 325.14L28.1507 309.301L27.9923 310.154L113.278 325.993L113.437 325.14Z" fill="#002145"/>
<path d="M29.101 304.184L114.387 320.023L114.229 320.876L28.9427 305.037L29.101 304.184Z" fill="#002145"/>
<path d="M115.337 314.906L30.0514 299.067L29.893 299.92L115.179 315.759L115.337 314.906Z" fill="#002145"/>
<path d="M31.0017 293.95L116.288 309.789L116.129 310.642L30.8433 294.803L31.0017 293.95Z" fill="#002145"/>
<path d="M117.238 304.671L31.952 288.833L31.7936 289.686L117.08 305.524L117.238 304.671Z" fill="#002145"/>
<path d="M32.9024 283.716L118.188 299.554L118.03 300.407L32.744 284.568L32.9024 283.716Z" fill="#002145"/>
<path d="M119.139 294.437L33.8527 278.598L33.6943 279.451L118.98 295.29L119.139 294.437Z" fill="#002145"/>
<path d="M34.803 273.481L120.089 289.32L119.931 290.173L34.6446 274.334L34.803 273.481Z" fill="#002145"/>
<path d="M121.039 284.203L35.7533 268.364L35.595 269.217L120.881 285.056L121.039 284.203Z" fill="#002145"/>
<path d="M36.7037 263.247L121.99 279.086L121.831 279.939L36.5453 264.1L36.7037 263.247Z" fill="#002145"/>
<path d="M122.94 273.969L37.654 258.13L37.4956 258.983L122.782 274.821L122.94 273.969Z" fill="#002145"/>
<path d="M38.6043 253.013L123.89 268.851L123.732 269.704L38.4459 253.865L38.6043 253.013Z" fill="#002145"/>
<path d="M124.841 263.734L39.5547 247.895L39.3963 248.748L124.682 264.587L124.841 263.734Z" fill="#002145"/>
<path d="M40.505 242.778L125.791 258.617L125.633 259.47L40.3466 243.631L40.505 242.778Z" fill="#002145"/>
<path d="M126.741 253.5L41.4553 237.661L41.2969 238.514L126.583 254.353L126.741 253.5Z" fill="#002145"/>
<path d="M42.4056 232.544L127.692 248.383L127.533 249.236L42.2473 233.397L42.4056 232.544Z" fill="#002145"/>
<path d="M128.642 243.266L43.356 227.427L43.1976 228.28L128.484 244.118L128.642 243.266Z" fill="#002145"/>
<path d="M44.3063 222.31L129.592 238.148L129.434 239.001L44.1479 223.162L44.3063 222.31Z" fill="#002145"/>
<path d="M130.543 233.031L45.2566 217.192L45.0982 218.045L130.384 233.884L130.543 233.031Z" fill="#002145"/>
<path d="M46.2069 212.075L131.493 227.914L131.335 228.767L46.0486 212.928L46.2069 212.075Z" fill="#002145"/>
<path d="M132.443 222.797L47.1573 206.958L46.9989 207.811L132.285 223.65L132.443 222.797Z" fill="#002145"/>
<path d="M48.1076 201.841L133.394 217.68L133.235 218.533L47.9492 202.694L48.1076 201.841Z" fill="#002145"/>
<path d="M134.344 212.563L49.0579 196.724L48.8995 197.577L134.186 213.415L134.344 212.563Z" fill="#002145"/>
<g opacity="0.34827">
<path d="M23.1377 397.496L61.491 475.301L60.713 475.684L22.3596 397.879L23.1377 397.496Z" fill="#002145"/>
<path d="M27.806 395.194L66.1593 472.999L65.3813 473.383L27.0279 395.578L27.806 395.194Z" fill="#002145"/>
<path d="M70.8276 470.698L32.4743 392.893L31.6962 393.277L70.0496 471.082L70.8276 470.698Z" fill="#002145"/>
<path d="M37.1426 390.592L75.4959 468.397L74.7179 468.78L36.3645 390.976L37.1426 390.592Z" fill="#002145"/>
<path d="M80.1642 466.096L41.8109 388.291L41.0328 388.674L79.3862 466.479L80.1642 466.096Z" fill="#002145"/>
<path d="M46.4791 385.99L84.8325 463.795L84.0544 464.178L45.7011 386.373L46.4791 385.99Z" fill="#002145"/>
<path d="M89.5008 461.493L51.1474 383.688L50.3694 384.072L88.7227 461.877L89.5008 461.493Z" fill="#002145"/>
<path d="M55.8157 381.387L94.1691 459.192L93.391 459.576L55.0377 381.771L55.8157 381.387Z" fill="#002145"/>
<path d="M98.8374 456.891L60.484 379.086L59.706 379.47L98.0593 457.274L98.8374 456.891Z" fill="#002145"/>
<path d="M65.1523 376.785L103.506 454.59L102.728 454.973L64.3743 377.168L65.1523 376.785Z" fill="#002145"/>
<path d="M108.174 452.288L69.8206 374.484L69.0426 374.867L107.396 452.672L108.174 452.288Z" fill="#002145"/>
<path d="M74.4889 372.182L112.842 449.987L112.064 450.371L73.7109 372.566L74.4889 372.182Z" fill="#002145"/>
<path d="M117.511 447.686L79.1572 369.881L78.3791 370.265L116.733 448.07L117.511 447.686Z" fill="#002145"/>
<path d="M83.8255 367.58L122.179 445.385L121.401 445.768L83.0474 367.964L83.8255 367.58Z" fill="#002145"/>
<path d="M126.847 443.084L88.4938 365.279L87.7157 365.662L126.069 443.467L126.847 443.084Z" fill="#002145"/>
<path d="M93.1621 362.978L131.515 440.782L130.737 441.166L92.384 363.361L93.1621 362.978Z" fill="#002145"/>
<path d="M136.184 438.481L97.8304 360.676L97.0523 361.06L135.406 438.865L136.184 438.481Z" fill="#002145"/>
<path d="M102.499 358.375L140.852 436.18L140.074 436.564L101.721 358.759L102.499 358.375Z" fill="#002145"/>
<path d="M145.52 433.879L107.167 356.074L106.389 356.458L144.742 434.262L145.52 433.879Z" fill="#002145"/>
<path d="M111.835 353.773L150.189 431.578L149.411 431.961L111.057 354.156L111.835 353.773Z" fill="#002145"/>
<path d="M154.857 429.276L116.504 351.472L115.725 351.855L154.079 429.66L154.857 429.276Z" fill="#002145"/>
<path d="M121.172 349.17L159.525 426.975L158.747 427.359L120.394 349.554L121.172 349.17Z" fill="#002145"/>
<path d="M164.193 424.674L125.84 346.869L125.062 347.253L163.415 425.058L164.193 424.674Z" fill="#002145"/>
<path d="M130.508 344.568L168.862 422.373L168.084 422.756L129.73 344.952L130.508 344.568Z" fill="#002145"/>
<path d="M173.53 420.072L135.177 342.267L134.399 342.65L172.752 420.455L173.53 420.072Z" fill="#002145"/>
<path d="M139.845 339.966L178.198 417.77L177.42 418.154L139.067 340.349L139.845 339.966Z" fill="#002145"/>
<path d="M182.867 415.469L144.513 337.664L143.735 338.048L182.089 415.853L182.867 415.469Z" fill="#002145"/>
<path d="M149.182 335.363L187.535 413.168L186.757 413.552L148.404 335.747L149.182 335.363Z" fill="#002145"/>
<path d="M192.203 410.867L153.85 333.062L153.072 333.446L191.425 411.25L192.203 410.867Z" fill="#002145"/>
<path d="M158.518 330.761L196.872 408.566L196.093 408.949L157.74 331.144L158.518 330.761Z" fill="#002145"/>
<path d="M201.54 406.264L163.186 328.46L162.408 328.843L200.762 406.648L201.54 406.264Z" fill="#002145"/>
<path d="M167.855 326.158L206.208 403.963L205.43 404.347L167.077 326.542L167.855 326.158Z" fill="#002145"/>
<path d="M210.876 401.662L172.523 323.857L171.745 324.241L210.098 402.046L210.876 401.662Z" fill="#002145"/>
<path d="M177.191 321.556L215.545 399.361L214.767 399.744L176.413 321.94L177.191 321.556Z" fill="#002145"/>
<path d="M220.213 397.06L181.86 319.255L181.082 319.638L219.435 397.443L220.213 397.06Z" fill="#002145"/>
<path d="M186.528 316.954L224.881 394.758L224.103 395.142L185.75 317.337L186.528 316.954Z" fill="#002145"/>
<path d="M229.55 392.457L191.196 314.652L190.418 315.036L228.772 392.841L229.55 392.457Z" fill="#002145"/>
<path d="M195.865 312.351L234.218 390.156L233.44 390.54L195.086 312.735L195.865 312.351Z" fill="#002145"/>
<path d="M238.886 387.855L200.533 310.05L199.755 310.434L238.108 388.238L238.886 387.855Z" fill="#002145"/>
<path d="M205.201 307.749L243.554 385.554L242.776 385.937L204.423 308.132L205.201 307.749Z" fill="#002145"/>
<path d="M248.223 383.252L209.869 305.448L209.091 305.831L247.445 383.636L248.223 383.252Z" fill="#002145"/>
<path d="M214.538 303.146L252.891 380.951L252.113 381.335L213.76 303.53L214.538 303.146Z" fill="#002145"/>
<path d="M257.559 378.65L219.206 300.845L218.428 301.229L256.781 379.034L257.559 378.65Z" fill="#002145"/>
<path d="M223.874 298.544L262.228 376.349L261.45 376.732L223.096 298.928L223.874 298.544Z" fill="#002145"/>
<path d="M266.896 374.048L228.543 296.243L227.765 296.626L266.118 374.431L266.896 374.048Z" fill="#002145"/>
<path d="M233.211 293.942L271.564 371.746L270.786 372.13L232.433 294.325L233.211 293.942Z" fill="#002145"/>
<path d="M276.233 369.445L237.879 291.64L237.101 292.024L275.454 369.829L276.233 369.445Z" fill="#002145"/>
</g>
<g opacity="0.877971">
<path d="M673.953 201.363L612.888 262.971L612.271 262.36L673.337 200.752L673.953 201.363Z" fill="#002145"/>
<path d="M677.649 205.027L616.584 266.635L615.968 266.024L677.033 204.416L677.649 205.027Z" fill="#002145"/>
<path d="M620.281 270.299L681.346 208.69L680.73 208.08L619.664 269.688L620.281 270.299Z" fill="#002145"/>
<path d="M685.042 212.354L623.977 273.963L623.361 273.352L684.426 211.744L685.042 212.354Z" fill="#002145"/>
<path d="M627.674 277.627L688.739 216.018L688.123 215.408L627.057 277.016L627.674 277.627Z" fill="#002145"/>
<path d="M692.435 219.682L631.37 281.291L630.754 280.68L691.819 219.072L692.435 219.682Z" fill="#002145"/>
<path d="M635.067 284.955L696.132 223.346L695.516 222.736L634.45 284.344L635.067 284.955Z" fill="#002145"/>
<path d="M699.828 227.01L638.763 288.618L638.147 288.008L699.212 226.399L699.828 227.01Z" fill="#002145"/>
<path d="M642.46 292.282L703.525 230.674L702.909 230.063L641.843 291.672L642.46 292.282Z" fill="#002145"/>
<path d="M707.221 234.338L646.156 295.946L645.54 295.336L706.605 233.727L707.221 234.338Z" fill="#002145"/>
<path d="M649.853 299.61L710.918 238.002L710.302 237.391L649.236 299L649.853 299.61Z" fill="#002145"/>
<path d="M714.614 241.666L653.549 303.274L652.933 302.664L713.998 241.055L714.614 241.666Z" fill="#002145"/>
<path d="M657.246 306.938L718.311 245.33L717.695 244.719L656.629 306.327L657.246 306.938Z" fill="#002145"/>
<path d="M722.007 248.994L660.942 310.602L660.326 309.991L721.391 248.383L722.007 248.994Z" fill="#002145"/>
<path d="M664.639 314.266L725.704 252.658L725.088 252.047L664.022 313.655L664.639 314.266Z" fill="#002145"/>
<path d="M729.4 256.322L668.335 317.93L667.719 317.319L728.784 255.711L729.4 256.322Z" fill="#002145"/>
<path d="M672.032 321.594L733.097 259.985L732.481 259.375L671.415 320.983L672.032 321.594Z" fill="#002145"/>
<path d="M736.794 263.649L675.728 325.258L675.112 324.647L736.177 263.039L736.794 263.649Z" fill="#002145"/>
<path d="M679.425 328.922L740.49 267.313L739.874 266.703L678.808 328.311L679.425 328.922Z" fill="#002145"/>
<path d="M744.187 270.977L683.121 332.586L682.505 331.975L743.57 270.367L744.187 270.977Z" fill="#002145"/>
<path d="M686.818 336.25L747.883 274.641L747.267 274.03L686.201 335.639L686.818 336.25Z" fill="#002145"/>
<path d="M751.58 278.305L690.514 339.913L689.898 339.303L750.963 277.694L751.58 278.305Z" fill="#002145"/>
<path d="M694.211 343.577L755.276 281.969L754.66 281.358L693.594 342.967L694.211 343.577Z" fill="#002145"/>
<path d="M758.973 285.633L697.907 347.241L697.291 346.631L758.356 285.022L758.973 285.633Z" fill="#002145"/>
<path d="M701.604 350.905L762.669 289.297L762.053 288.686L700.987 350.295L701.604 350.905Z" fill="#002145"/>
<path d="M766.366 292.961L705.3 354.569L704.684 353.958L765.749 292.35L766.366 292.961Z" fill="#002145"/>
<path d="M708.997 358.233L770.062 296.625L769.446 296.014L708.38 357.622L708.997 358.233Z" fill="#002145"/>
<path d="M773.759 300.289L712.693 361.897L712.077 361.286L773.142 299.678L773.759 300.289Z" fill="#002145"/>
<path d="M716.39 365.561L777.455 303.953L776.839 303.342L715.773 364.95L716.39 365.561Z" fill="#002145"/>
<path d="M781.152 307.616L720.086 369.225L719.47 368.614L780.535 307.006L781.152 307.616Z" fill="#002145"/>
<path d="M723.783 372.889L784.848 311.28L784.232 310.67L723.166 372.278L723.783 372.889Z" fill="#002145"/>
<path d="M788.545 314.944L727.479 376.553L726.863 375.942L787.928 314.334L788.545 314.944Z" fill="#002145"/>
<path d="M731.176 380.217L792.241 318.608L791.625 317.998L730.559 379.606L731.176 380.217Z" fill="#002145"/>
<path d="M795.938 322.272L734.872 383.881L734.256 383.27L795.321 321.662L795.938 322.272Z" fill="#002145"/>
<path d="M738.569 387.544L799.634 325.936L799.018 325.325L737.953 386.934L738.569 387.544Z" fill="#002145"/>
<path d="M803.331 329.6L742.265 391.208L741.649 390.598L802.714 328.989L803.331 329.6Z" fill="#002145"/>
<path d="M745.962 394.872L807.027 333.264L806.411 332.653L745.346 394.262L745.962 394.872Z" fill="#002145"/>
<path d="M810.724 336.928L749.658 398.536L749.042 397.926L810.107 336.317L810.724 336.928Z" fill="#002145"/>
<path d="M753.355 402.2L814.42 340.592L813.804 339.981L752.739 401.59L753.355 402.2Z" fill="#002145"/>
<path d="M818.117 344.256L757.051 405.864L756.435 405.253L817.5 343.645L818.117 344.256Z" fill="#002145"/>
<path d="M760.748 409.528L821.813 347.92L821.197 347.309L760.132 408.917L760.748 409.528Z" fill="#002145"/>
<path d="M825.51 351.584L764.444 413.192L763.828 412.581L824.893 350.973L825.51 351.584Z" fill="#002145"/>
<path d="M768.141 416.856L829.206 355.248L828.59 354.637L767.525 416.245L768.141 416.856Z" fill="#002145"/>
<path d="M832.903 358.911L771.837 420.52L771.221 419.909L832.286 358.301L832.903 358.911Z" fill="#002145"/>
<path d="M775.534 424.184L836.599 362.575L835.983 361.965L774.918 423.573L775.534 424.184Z" fill="#002145"/>
<path d="M840.296 366.239L779.23 427.848L778.614 427.237L839.679 365.629L840.296 366.239Z" fill="#002145"/>
<path d="M782.927 431.512L843.992 369.903L843.376 369.293L782.311 430.901L782.927 431.512Z" fill="#002145"/>
</g>
<g opacity="0.244615">
<path d="M379.229 360.626L442.436 301.216L443.03 301.848L379.824 361.258L379.229 360.626Z" fill="#002145"/>
<path d="M375.665 356.833L438.871 297.423L439.465 298.055L376.259 357.465L375.665 356.833Z" fill="#002145"/>
<path d="M435.306 293.631L372.1 353.041L372.694 353.673L435.901 294.263L435.306 293.631Z" fill="#002145"/>
<path d="M368.536 349.249L431.742 289.838L432.336 290.471L369.13 349.881L368.536 349.249Z" fill="#002145"/>
<path d="M428.177 286.046L364.971 345.456L365.565 346.088L428.771 286.678L428.177 286.046Z" fill="#002145"/>
<path d="M361.406 341.664L424.613 282.254L425.207 282.886L362.001 342.296L361.406 341.664Z" fill="#002145"/>
<path d="M421.048 278.461L357.842 337.871L358.436 338.503L421.642 279.093L421.048 278.461Z" fill="#002145"/>
<path d="M354.277 334.079L417.483 274.669L418.078 275.301L354.871 334.711L354.277 334.079Z" fill="#002145"/>
<path d="M413.919 270.877L350.713 330.287L351.307 330.919L414.513 271.509L413.919 270.877Z" fill="#002145"/>
<path d="M347.148 326.494L410.354 267.084L410.948 267.716L347.742 327.126L347.148 326.494Z" fill="#002145"/>
<path d="M406.79 263.292L343.583 322.702L344.177 323.334L407.384 263.924L406.79 263.292Z" fill="#002145"/>
<path d="M340.019 318.91L403.225 259.499L403.819 260.132L340.613 319.542L340.019 318.91Z" fill="#002145"/>
<path d="M399.66 255.707L336.454 315.117L337.048 315.749L400.254 256.339L399.66 255.707Z" fill="#002145"/>
<path d="M332.89 311.325L396.096 251.915L396.69 252.547L333.484 311.957L332.89 311.325Z" fill="#002145"/>
<path d="M392.531 248.122L329.325 307.532L329.919 308.164L393.125 248.754L392.531 248.122Z" fill="#002145"/>
<path d="M325.76 303.74L388.967 244.33L389.561 244.962L326.354 304.372L325.76 303.74Z" fill="#002145"/>
<path d="M385.402 240.538L322.196 299.948L322.79 300.58L385.996 241.17L385.402 240.538Z" fill="#002145"/>
<path d="M318.631 296.155L381.837 236.745L382.431 237.377L319.225 296.787L318.631 296.155Z" fill="#002145"/>
<path d="M378.273 232.953L315.067 292.363L315.661 292.995L378.867 233.585L378.273 232.953Z" fill="#002145"/>
<path d="M311.502 288.571L374.708 229.16L375.302 229.793L312.096 289.203L311.502 288.571Z" fill="#002145"/>
<path d="M371.144 225.368L307.937 284.778L308.531 285.41L371.738 226L371.144 225.368Z" fill="#002145"/>
<path d="M304.373 280.986L367.579 221.576L368.173 222.208L304.967 281.618L304.373 280.986Z" fill="#002145"/>
<path d="M364.014 217.783L300.808 277.193L301.402 277.825L364.608 218.415L364.014 217.783Z" fill="#002145"/>
<path d="M297.244 273.401L360.45 213.991L361.044 214.623L297.838 274.033L297.244 273.401Z" fill="#002145"/>
<path d="M356.885 210.199L293.679 269.609L294.273 270.241L357.479 210.831L356.885 210.199Z" fill="#002145"/>
<path d="M290.114 265.816L353.321 206.406L353.915 207.038L290.708 266.448L290.114 265.816Z" fill="#002145"/>
<path d="M349.756 202.614L286.55 262.024L287.144 262.656L350.35 203.246L349.756 202.614Z" fill="#002145"/>
<path d="M282.985 258.232L346.191 198.822L346.785 199.454L283.579 258.864L282.985 258.232Z" fill="#002145"/>
<path d="M342.627 195.029L279.421 254.439L280.015 255.071L343.221 195.661L342.627 195.029Z" fill="#002145"/>
<path d="M275.856 250.647L339.062 191.237L339.656 191.869L276.45 251.279L275.856 250.647Z" fill="#002145"/>
<path d="M335.498 187.444L272.291 246.854L272.885 247.486L336.092 188.076L335.498 187.444Z" fill="#002145"/>
<path d="M268.727 243.062L331.933 183.652L332.527 184.284L269.321 243.694L268.727 243.062Z" fill="#002145"/>
<path d="M328.368 179.86L265.162 239.27L265.756 239.902L328.962 180.492L328.368 179.86Z" fill="#002145"/>
<path d="M261.598 235.477L324.804 176.067L325.398 176.699L262.192 236.109L261.598 235.477Z" fill="#002145"/>
<path d="M321.239 172.275L258.033 231.685L258.627 232.317L321.833 172.907L321.239 172.275Z" fill="#002145"/>
<path d="M254.468 227.893L317.675 168.483L318.269 169.115L255.062 228.525L254.468 227.893Z" fill="#002145"/>
<path d="M314.11 164.69L250.904 224.1L251.498 224.732L314.704 165.322L314.11 164.69Z" fill="#002145"/>
<path d="M247.339 220.308L310.545 160.898L311.139 161.53L247.933 220.94L247.339 220.308Z" fill="#002145"/>
<path d="M306.981 157.105L243.775 216.515L244.369 217.148L307.575 157.737L306.981 157.105Z" fill="#002145"/>
<path d="M240.21 212.723L303.416 153.313L304.01 153.945L240.804 213.355L240.21 212.723Z" fill="#002145"/>
<path d="M299.852 149.521L236.645 208.931L237.239 209.563L300.446 150.153L299.852 149.521Z" fill="#002145"/>
<path d="M233.081 205.138L296.287 145.728L296.881 146.36L233.675 205.77L233.081 205.138Z" fill="#002145"/>
<path d="M292.722 141.936L229.516 201.346L230.11 201.978L293.316 142.568L292.722 141.936Z" fill="#002145"/>
<path d="M225.951 197.554L289.158 138.144L289.752 138.776L226.546 198.186L225.951 197.554Z" fill="#002145"/>
<path d="M285.593 134.351L222.387 193.761L222.981 194.393L286.187 134.983L285.593 134.351Z" fill="#002145"/>
<path d="M218.822 189.969L282.029 130.559L282.623 131.191L219.416 190.601L218.822 189.969Z" fill="#002145"/>
<path d="M278.464 126.766L215.258 186.176L215.852 186.809L279.058 127.398L278.464 126.766Z" fill="#002145"/>
</g>
<g opacity="0.489228">
<path d="M737.223 323.211L816.494 287.986L816.846 288.779L737.576 324.003L737.223 323.211Z" fill="#002145"/>
<path d="M735.11 318.454L814.38 283.23L814.733 284.022L735.462 319.247L735.11 318.454Z" fill="#002145"/>
<path d="M812.267 278.474L732.997 313.698L733.349 314.491L812.619 279.266L812.267 278.474Z" fill="#002145"/>
<path d="M730.883 308.942L810.153 273.717L810.506 274.51L731.235 309.735L730.883 308.942Z" fill="#002145"/>
<path d="M808.04 268.961L728.77 304.186L729.122 304.978L808.392 269.754L808.04 268.961Z" fill="#002145"/>
<path d="M726.656 299.43L805.927 264.205L806.279 264.998L727.008 300.222L726.656 299.43Z" fill="#002145"/>
<path d="M803.813 259.449L724.543 294.673L724.895 295.466L804.165 260.241L803.813 259.449Z" fill="#002145"/>
<path d="M722.429 289.917L801.7 254.692L802.052 255.485L722.781 290.71L722.429 289.917Z" fill="#002145"/>
<path d="M799.586 249.936L720.316 285.161L720.668 285.954L799.938 250.729L799.586 249.936Z" fill="#002145"/>
<path d="M718.202 280.405L797.473 245.18L797.825 245.973L718.554 281.197L718.202 280.405Z" fill="#002145"/>
<path d="M795.359 240.424L716.089 275.648L716.441 276.441L795.711 241.216L795.359 240.424Z" fill="#002145"/>
<path d="M713.975 270.892L793.246 235.668L793.598 236.46L714.327 271.685L713.975 270.892Z" fill="#002145"/>
<path d="M791.132 230.911L711.862 266.136L712.214 266.929L791.484 231.704L791.132 230.911Z" fill="#002145"/>
<path d="M709.748 261.38L789.019 226.155L789.371 226.948L710.1 262.172L709.748 261.38Z" fill="#002145"/>
<path d="M786.905 221.399L707.635 256.624L707.987 257.416L787.257 222.192L786.905 221.399Z" fill="#002145"/>
<path d="M705.521 251.867L784.792 216.643L785.144 217.435L705.874 252.66L705.521 251.867Z" fill="#002145"/>
<path d="M782.678 211.886L703.408 247.111L703.76 247.904L783.03 212.679L782.678 211.886Z" fill="#002145"/>
<path d="M701.294 242.355L780.565 207.13L780.917 207.923L701.647 243.148L701.294 242.355Z" fill="#002145"/>
<path d="M778.451 202.374L699.181 237.599L699.533 238.391L778.804 203.167L778.451 202.374Z" fill="#002145"/>
<path d="M697.067 232.842L776.338 197.618L776.69 198.41L697.42 233.635L697.067 232.842Z" fill="#002145"/>
<path d="M774.224 192.861L694.954 228.086L695.306 228.879L774.577 193.654L774.224 192.861Z" fill="#002145"/>
<path d="M692.84 223.33L772.111 188.105L772.463 188.898L693.193 224.123L692.84 223.33Z" fill="#002145"/>
<path d="M769.997 183.349L690.727 218.574L691.079 219.366L770.35 184.142L769.997 183.349Z" fill="#002145"/>
<path d="M688.613 213.817L767.884 178.593L768.236 179.386L688.966 214.61L688.613 213.817Z" fill="#002145"/>
<path d="M765.77 173.837L686.5 209.061L686.852 209.854L766.123 174.629L765.77 173.837Z" fill="#002145"/>
<path d="M684.386 204.305L763.657 169.08L764.009 169.873L684.739 205.098L684.386 204.305Z" fill="#002145"/>
<path d="M761.543 164.324L682.273 199.549L682.625 200.341L761.896 165.117L761.543 164.324Z" fill="#002145"/>
<path d="M680.16 194.793L759.43 159.568L759.782 160.361L680.512 195.585L680.16 194.793Z" fill="#002145"/>
<path d="M757.316 154.812L678.046 190.036L678.398 190.829L757.669 155.604L757.316 154.812Z" fill="#002145"/>
<path d="M675.933 185.28L755.203 150.055L755.555 150.848L676.285 186.073L675.933 185.28Z" fill="#002145"/>
<path d="M753.09 145.299L673.819 180.524L674.171 181.317L753.442 146.092L753.09 145.299Z" fill="#002145"/>
<path d="M671.706 175.768L750.976 140.543L751.328 141.336L672.058 176.56L671.706 175.768Z" fill="#002145"/>
<path d="M748.863 135.787L669.592 171.011L669.944 171.804L749.215 136.579L748.863 135.787Z" fill="#002145"/>
<path d="M667.479 166.255L746.749 131.031L747.101 131.823L667.831 167.048L667.479 166.255Z" fill="#002145"/>
<path d="M744.636 126.274L665.365 161.499L665.717 162.292L744.988 127.067L744.636 126.274Z" fill="#002145"/>
<path d="M663.252 156.743L742.522 121.518L742.874 122.311L663.604 157.535L663.252 156.743Z" fill="#002145"/>
<path d="M740.409 116.762L661.138 151.987L661.49 152.779L740.761 117.555L740.409 116.762Z" fill="#002145"/>
<path d="M659.025 147.23L738.295 112.006L738.647 112.798L659.377 148.023L659.025 147.23Z" fill="#002145"/>
<path d="M736.182 107.249L656.911 142.474L657.263 143.267L736.534 108.042L736.182 107.249Z" fill="#002145"/>
<path d="M654.798 137.718L734.068 102.493L734.42 103.286L655.15 138.511L654.798 137.718Z" fill="#002145"/>
<path d="M731.955 97.7369L652.684 132.962L653.037 133.754L732.307 98.5296L731.955 97.7369Z" fill="#002145"/>
<path d="M650.571 128.205L729.841 92.9807L730.193 93.7734L650.923 128.998L650.571 128.205Z" fill="#002145"/>
<path d="M727.728 88.2245L648.457 123.449L648.81 124.242L728.08 89.0172L727.728 88.2245Z" fill="#002145"/>
<path d="M646.344 118.693L725.614 83.4683L725.967 84.261L646.696 119.486L646.344 118.693Z" fill="#002145"/>
<path d="M723.501 78.712L644.23 113.937L644.583 114.729L723.853 79.5047L723.501 78.712Z" fill="#002145"/>
<path d="M642.117 109.18L721.387 73.9558L721.74 74.7485L642.469 109.973L642.117 109.18Z" fill="#002145"/>
<path d="M719.274 69.1996L640.003 104.424L640.356 105.217L719.626 69.9923L719.274 69.1996Z" fill="#002145"/>
</g>
<g opacity="0.2653">
<path d="M486.734 6.9869L401.98 25.4624L401.796 24.6149L486.55 6.13936L486.734 6.9869Z" fill="#002145"/>
<path d="M487.843 12.0721L403.089 30.5476L402.904 29.7001L487.658 11.2246L487.843 12.0721Z" fill="#002145"/>
<path d="M404.197 35.6329L488.951 17.1574L488.767 16.3098L404.013 34.7853L404.197 35.6329Z" fill="#002145"/>
<path d="M490.06 22.2426L405.306 40.7181L405.121 39.8706L489.875 21.3951L490.06 22.2426Z" fill="#002145"/>
<path d="M406.415 45.8033L491.169 27.3279L490.984 26.4803L406.23 44.9558L406.415 45.8033Z" fill="#002145"/>
<path d="M492.277 32.4131L407.523 50.8886L407.338 50.041L492.092 31.5656L492.277 32.4131Z" fill="#002145"/>
<path d="M408.632 55.9738L493.386 37.4983L493.201 36.6508L408.447 55.1263L408.632 55.9738Z" fill="#002145"/>
<path d="M494.494 42.5836L409.74 61.0591L409.555 60.2115L494.309 41.736L494.494 42.5836Z" fill="#002145"/>
<path d="M410.849 66.1443L495.603 47.6688L495.418 46.8213L410.664 65.2968L410.849 66.1443Z" fill="#002145"/>
<path d="M496.711 52.754L411.957 71.2295L411.772 70.382L496.526 51.9065L496.711 52.754Z" fill="#002145"/>
<path d="M413.066 76.3148L497.82 57.8393L497.635 56.9917L412.881 75.4672L413.066 76.3148Z" fill="#002145"/>
<path d="M498.928 62.9245L414.174 81.4L413.989 80.5525L498.743 62.077L498.928 62.9245Z" fill="#002145"/>
<path d="M415.283 86.4853L500.037 68.0098L499.852 67.1622L415.098 85.6377L415.283 86.4853Z" fill="#002145"/>
<path d="M501.145 73.095L416.391 91.5705L416.207 90.7229L500.961 72.2475L501.145 73.095Z" fill="#002145"/>
<path d="M417.5 96.6557L502.254 78.1802L502.069 77.3327L417.315 95.8082L417.5 96.6557Z" fill="#002145"/>
<path d="M503.362 83.2655L418.608 101.741L418.424 100.893L503.178 82.4179L503.362 83.2655Z" fill="#002145"/>
<path d="M419.717 106.826L504.471 88.3507L504.286 87.5032L419.532 105.979L419.717 106.826Z" fill="#002145"/>
<path d="M505.579 93.436L420.825 111.911L420.641 111.064L505.395 92.5884L505.579 93.436Z" fill="#002145"/>
<path d="M421.934 116.997L506.688 98.5212L506.503 97.6736L421.749 116.149L421.934 116.997Z" fill="#002145"/>
<path d="M507.796 103.606L423.042 122.082L422.858 121.234L507.612 102.759L507.796 103.606Z" fill="#002145"/>
<path d="M424.151 127.167L508.905 108.692L508.72 107.844L423.966 126.32L424.151 127.167Z" fill="#002145"/>
<path d="M510.014 113.777L425.26 132.252L425.075 131.405L509.829 112.929L510.014 113.777Z" fill="#002145"/>
<path d="M426.368 137.338L511.122 118.862L510.937 118.015L426.183 136.49L426.368 137.338Z" fill="#002145"/>
<path d="M512.231 123.947L427.477 142.423L427.292 141.575L512.046 123.1L512.231 123.947Z" fill="#002145"/>
<path d="M428.585 147.508L513.339 129.033L513.154 128.185L428.4 146.661L428.585 147.508Z" fill="#002145"/>
<path d="M514.448 134.118L429.694 152.593L429.509 151.746L514.263 133.27L514.448 134.118Z" fill="#002145"/>
<path d="M430.802 157.679L515.556 139.203L515.371 138.356L430.617 156.831L430.802 157.679Z" fill="#002145"/>
<path d="M516.665 144.288L431.911 162.764L431.726 161.916L516.48 143.441L516.665 144.288Z" fill="#002145"/>
<path d="M433.019 167.849L517.773 149.374L517.588 148.526L432.834 167.002L433.019 167.849Z" fill="#002145"/>
<path d="M518.882 154.459L434.128 172.934L433.943 172.087L518.697 153.611L518.882 154.459Z" fill="#002145"/>
<path d="M435.236 178.02L519.99 159.544L519.806 158.697L435.052 177.172L435.236 178.02Z" fill="#002145"/>
<path d="M521.099 164.629L436.345 183.105L436.16 182.257L520.914 163.782L521.099 164.629Z" fill="#002145"/>
<path d="M437.453 188.19L522.207 169.715L522.023 168.867L437.269 187.342L437.453 188.19Z" fill="#002145"/>
<path d="M523.316 174.8L438.562 193.275L438.377 192.428L523.131 173.952L523.316 174.8Z" fill="#002145"/>
<path d="M439.67 198.36L524.424 179.885L524.24 179.037L439.486 197.513L439.67 198.36Z" fill="#002145"/>
<path d="M525.533 184.97L440.779 203.446L440.594 202.598L525.348 184.123L525.533 184.97Z" fill="#002145"/>
<path d="M441.887 208.531L526.641 190.055L526.457 189.208L441.703 207.683L441.887 208.531Z" fill="#002145"/>
<path d="M527.75 195.141L442.996 213.616L442.811 212.769L527.565 194.293L527.75 195.141Z" fill="#002145"/>
<path d="M444.105 218.701L528.859 200.226L528.674 199.378L443.92 217.854L444.105 218.701Z" fill="#002145"/>
<path d="M529.967 205.311L445.213 223.787L445.028 222.939L529.782 204.464L529.967 205.311Z" fill="#002145"/>
<path d="M446.322 228.872L531.076 210.396L530.891 209.549L446.137 228.024L446.322 228.872Z" fill="#002145"/>
<path d="M532.184 215.482L447.43 233.957L447.245 233.11L531.999 214.634L532.184 215.482Z" fill="#002145"/>
<path d="M448.539 239.042L533.293 220.567L533.108 219.719L448.354 238.195L448.539 239.042Z" fill="#002145"/>
<path d="M534.401 225.652L449.647 244.128L449.462 243.28L534.216 224.805L534.401 225.652Z" fill="#002145"/>
<path d="M450.756 249.213L535.51 230.737L535.325 229.89L450.571 248.365L450.756 249.213Z" fill="#002145"/>
<path d="M536.618 235.823L451.864 254.298L451.679 253.451L536.433 234.975L536.618 235.823Z" fill="#002145"/>
<path d="M452.973 259.383L537.727 240.908L537.542 240.06L452.788 258.536L452.973 259.383Z" fill="#002145"/>
</g>
</g>
<defs>
<clipPath id="clip0">
<rect width="846" height="485" fill="white"/>
</clipPath>
</defs>
</svg>
