<?xml version="1.0" encoding="UTF-8" standalone="no"?>
<svg
   xmlns:dc="http://purl.org/dc/elements/1.1/"
   xmlns:cc="http://creativecommons.org/ns#"
   xmlns:rdf="http://www.w3.org/1999/02/22-rdf-syntax-ns#"
   xmlns:svg="http://www.w3.org/2000/svg"
   xmlns="http://www.w3.org/2000/svg"
   viewBox="0 0 384.67999 85.226669"
   height="85.226669"
   width="384.67999"
   xml:space="preserve"
   id="svg2"
   version="1.1"><metadata
     id="metadata8"><rdf:RDF><cc:Work
         rdf:about=""><dc:format>image/svg+xml</dc:format><dc:type
           rdf:resource="http://purl.org/dc/dcmitype/StillImage" /></cc:Work></rdf:RDF></metadata><defs
     id="defs6" /><g
     transform="matrix(1.3333333,0,0,-1.3333333,0,85.226667)"
     id="g10"><g
       transform="scale(0.1)"
       id="g12"><path
         id="path14"
         style="fill:#ae1329;fill-opacity:1;fill-rule:nonzero;stroke:none"
         d="M 1278.32,0.00390625 H 0 V 639.164 H 1278.32 V 0.00390625" /><path
         id="path16"
         style="fill:#ffffff;fill-opacity:1;fill-rule:nonzero;stroke:none"
         d="m 713.555,274.988 c 2.011,8.789 2.785,11.582 5.59,20.012 2.414,6.801 3.199,8.773 7.195,15.941 -11.985,4.411 -16.797,5.993 -25.969,7.997 -12.777,2.82 -25.191,4.402 -38.375,4.402 -28.375,0 -47.547,-6.789 -62.742,-21.985 -13.574,-13.574 -21.602,-32.773 -21.602,-53.148 0,-23.574 8.789,-40.773 27.582,-53.937 9.606,-6.836 17.204,-10.821 37.586,-20.008 20.75,-9.602 26.785,-12.395 35.953,-18.797 14.016,-9.555 20.793,-20.742 20.793,-33.969 0,-27.1874 -22.007,-45.5546 -53.937,-45.5546 -13.992,0 -28.387,3.1953 -41.609,9.9805 -9.2,4.414 -14.774,8.3867 -27.555,19.1991 -3.207,-18.8085 -4.789,-24.3866 -11.992,-39.9999 18.757,-9.1484 26.402,-11.5703 45.957,-14.3633 9.976,-1.5742 18.402,-2.3945 26.781,-2.3945 35.973,0 62.746,11.5898 79.937,33.9844 11.59,15.5937 17.204,31.5823 17.204,48.7303 0,12.813 -3.223,25.606 -9.207,34.793 -7.606,12.024 -19.184,20.781 -45.981,33.969 -37.543,18.793 -43.164,21.594 -51.937,28.383 -9.985,8.004 -15.61,18.808 -15.61,30.781 0,23.203 16.395,38.363 41.192,38.363 6.793,0 17.168,-1.976 25.593,-4.39 13.153,-4.383 19.953,-7.606 35.153,-17.989 m 226.101,7.219 c -0.801,8.395 -1.164,14.777 -1.164,19.148 0,5.618 0.363,10.028 1.973,19.989 -15.598,-1.977 -21.172,-1.977 -30.375,-1.977 h -40.774 l -47.164,0.383 -27.179,0.828 c 1.597,-31.594 2.004,-44.387 2.8,-64.394 v -21.551 -87.949 c 0,-28.782 -0.378,-47.5863 -0.796,-56.7309 -0.805,-7.9961 -1.606,-20.8008 -3.207,-37.1836 9.199,0.7813 16.011,1.1797 20.793,1.1797 5.609,0 13.992,-0.3984 25.187,-1.6211 -2.824,34.8164 -2.824,40.8008 -2.824,88.7699 v 33.972 h 42.004 c 16.761,0 27.156,-0.808 52.336,-4.011 -0.786,8.398 -1.211,14.785 -1.211,19.195 0,5.195 0.425,9.988 2.039,20.391 -21.61,-3.211 -29.184,-3.594 -47.586,-3.594 H 837.34 v 16.785 46.742 l 0.426,15.992 h 42.738 c 10.805,0 27.98,-0.761 42.379,-2.402 3.594,-0.391 9.211,-0.797 16.773,-1.961 m 108.724,38.754 c -9.99,-1.211 -17.59,-1.594 -22.78,-1.594 -5.21,0 -12.81,0.774 -23.15,1.977 1.56,-15.184 1.97,-20.778 2.37,-33.18 v -19.961 -20.402 l 0.4,-95.121 c 0,-37.969 1.19,-45.977 10.38,-61.1448 5.61,-9.1954 13.61,-17.6133 23.6,-24.3633 18.78,-13.2227 39.16,-17.9883 76.34,-17.9883 34.76,0 56.36,5.1953 75.52,18.7578 27.97,19.6016 33.98,37.1676 33.98,101.9136 l -0.39,62.77 c 0,5.215 0.39,18.77 0.79,40.773 0,16.762 0.41,28.778 0.81,35.165 0.42,2.82 0.79,6.789 1.2,12.398 -9.2,-0.82 -16,-1.594 -20.38,-1.594 -4.42,0 -11.19,0.774 -19.97,1.594 1.57,-13.988 2.38,-19.606 2.76,-31.598 1.2,-15.965 1.6,-35.148 1.6,-56.336 v -62.359 c 0,-43.945 -1.2,-53.547 -9.58,-65.957 -3.22,-4.414 -8.77,-9.1993 -16.01,-13.5665 -13.57,-8.4179 -28.38,-11.6289 -48.35,-11.6289 -28.38,0 -54.75,10.4375 -64.74,25.1954 -8.01,12.031 -8.38,16.797 -8.8,58.359 v 81.539 c 0,4.411 0.42,12.004 0.79,22 0,9.977 0.43,16.371 0.43,18.75 0.78,14.004 1.19,20.016 3.18,35.602" /><path
         id="path18"
         style="fill:#ffffff;fill-opacity:1;fill-rule:nonzero;stroke:none"
         d="M 1439.57,0.00390625 V 322.508 h 64.32 V 57.9805 h 84.25 V 0.00390625 h -148.57" /><path
         id="path20"
         style="fill:#ffffff;fill-opacity:1;fill-rule:nonzero;stroke:none"
         d="M 1634.92,0.00390625 V 322.508 h 64.32 V 0.00390625 h -64.32" /><path
         id="path22"
         style="fill:#ffffff;fill-opacity:1;fill-rule:nonzero;stroke:none"
         d="m 1843.1,141.32 h -20.39 V 57.9805 h 20.39 c 25.82,0 33.06,12.2304 33.06,41.6718 0,29.4457 -8.15,41.6677 -33.06,41.6677 z m 0.89,123.211 h -21.28 V 195.68 h 21.28 c 24.93,0 32.17,10.871 32.17,34.425 0,23.555 -6.79,34.426 -32.17,34.426 z M 1918.74,21.293 C 1905.15,7.25 1883.86,0.00390625 1851.7,0.00390625 h -93.31 V 322.508 h 93.31 c 32.16,0 53.45,-7.246 67.49,-20.832 15.4,-14.949 21.29,-31.711 21.29,-67.043 0,-23.102 -4.07,-40.766 -17.67,-54.356 -4.07,-4.074 -8.6,-7.695 -14.95,-10.871 5.89,-3.172 11.33,-7.246 14.95,-11.328 13.6,-14.031 17.67,-31.695 17.67,-63.4061 0,-37.1485 -5.44,-56.6211 -21.74,-73.3789" /><path
         id="path24"
         style="fill:#ffffff;fill-opacity:1;fill-rule:nonzero;stroke:none"
         d="m 2084.4,264.531 h -27.17 v -81.082 h 27.17 c 24.47,0 25.82,22.196 25.82,40.77 0,18.566 -1.35,40.312 -25.82,40.312 z M 2117.92,0.00390625 2078.52,125.473 h -21.29 V 0.00390625 h -64.32 V 322.508 h 91.94 c 70.22,0 89.69,-36.688 89.69,-98.289 0,-34.43 -5.43,-65.231 -36.69,-84.703 L 2184.96,0.00390625 h -67.04" /><path
         id="path26"
         style="fill:#ffffff;fill-opacity:1;fill-rule:nonzero;stroke:none"
         d="m 2322.65,227.84 -24.92,-119.582 h 49.83 z M 2370.21,0.00390625 2359.79,50.2773 h -74.28 L 2275.09,0.00390625 h -67.04 L 2290.94,322.508 h 63.42 L 2437.25,0.00390625 h -67.04" /><path
         id="path28"
         style="fill:#ffffff;fill-opacity:1;fill-rule:nonzero;stroke:none"
         d="m 2566.89,264.531 h -27.17 v -81.082 h 27.17 c 24.46,0 25.82,22.196 25.82,40.77 0,18.566 -1.36,40.312 -25.82,40.312 z M 2600.41,0.00390625 2561.01,125.473 h -21.29 V 0.00390625 h -64.33 V 322.508 h 91.95 c 70.22,0 89.69,-36.688 89.69,-98.289 0,-34.43 -5.44,-65.231 -36.69,-84.703 L 2667.45,0.00390625 h -67.04" /><path
         id="path30"
         style="fill:#ffffff;fill-opacity:1;fill-rule:nonzero;stroke:none"
         d="M 2816.95,121.391 V 0.00390625 h -64.31 V 121.391 l -65.69,201.117 h 70.67 l 27.17,-116.863 27.18,116.863 h 73.17 l -68.19,-201.117" /></g></g></svg>
