<?xml version="1.0" encoding="UTF-8" standalone="no"?>
<svg
   xmlns:dc="http://purl.org/dc/elements/1.1/"
   xmlns:cc="http://creativecommons.org/ns#"
   xmlns:rdf="http://www.w3.org/1999/02/22-rdf-syntax-ns#"
   xmlns:svg="http://www.w3.org/2000/svg"
   xmlns="http://www.w3.org/2000/svg"
   viewBox="0 0 192 45.080002"
   height="45.080002"
   width="192"
   xml:space="preserve"
   id="svg2"
   version="1.1"><metadata
     id="metadata8"><rdf:RDF><cc:Work
         rdf:about=""><dc:format>image/svg+xml</dc:format><dc:type
           rdf:resource="http://purl.org/dc/dcmitype/StillImage" /></cc:Work></rdf:RDF></metadata><defs
     id="defs6" /><g
     transform="matrix(1.3333333,0,0,-1.3333333,0,45.08)"
     id="g10"><g
       transform="scale(0.1)"
       id="g12"><path
         id="path14"
         style="fill:#a21835;fill-opacity:1;fill-rule:nonzero;stroke:none"
         d="M 675.969,0.132813 H 0 V 338.121 H 675.969 V 0.132813" /><path
         id="path16"
         style="fill:#ffffff;fill-opacity:1;fill-rule:nonzero;stroke:none"
         d="m 377.324,145.547 c 1.067,4.644 1.473,6.125 2.957,10.574 1.274,3.602 1.692,4.641 3.805,8.434 -6.34,2.332 -8.883,3.172 -13.734,4.23 -6.758,1.488 -13.321,2.328 -20.293,2.328 -15.004,0 -25.141,-3.59 -33.176,-11.625 -7.18,-7.179 -11.422,-17.332 -11.422,-28.105 0,-12.469 4.648,-21.563 14.586,-28.528 5.078,-3.6128 9.094,-5.7105 19.875,-10.5737 10.969,-5.0782 14.164,-6.5547 19.012,-9.9415 7.41,-5.0507 10.996,-10.9687 10.996,-17.9609 0,-14.375 -11.637,-24.0898 -28.524,-24.0898 -7.402,0 -15.011,1.6875 -22,5.2812 -4.867,2.3242 -7.816,4.4336 -14.574,10.1485 -1.695,-9.9532 -2.531,-12.9024 -6.344,-21.1524 9.922,-4.8359 13.965,-6.125 24.305,-7.5976 5.273,-0.8321 9.734,-1.2618 14.16,-1.2618 19.024,0 33.18,6.125 42.274,17.9688 6.125,8.2422 9.093,16.6992 9.093,25.7734 0,6.7656 -1.703,13.5352 -4.867,18.3985 -4.023,6.3476 -10.144,10.9843 -24.312,17.9573 -19.852,9.937 -22.825,11.422 -27.465,15.011 -5.281,4.227 -8.258,9.946 -8.258,16.274 0,12.269 8.672,20.289 21.785,20.289 3.59,0 9.074,-1.047 13.535,-2.32 6.953,-2.325 10.551,-4.024 18.586,-9.512 m 119.563,3.812 c -0.422,4.442 -0.617,7.813 -0.617,10.129 0,2.969 0.195,5.297 1.046,10.567 -8.253,-1.039 -11.195,-1.039 -16.062,-1.039 h -21.566 l -24.934,0.199 -14.375,0.437 c 0.844,-16.707 1.059,-23.468 1.484,-34.05 V 124.203 77.6992 c 0,-15.2226 -0.207,-25.164 -0.425,-30 -0.426,-4.2265 -0.844,-11.0039 -1.696,-19.6679 4.863,0.4101 8.469,0.625 10.992,0.625 2.969,0 7.403,-0.2149 13.321,-0.8477 -1.496,18.3984 -1.496,21.5703 -1.496,46.9336 v 17.9687 h 22.218 c 8.864,0 14.356,-0.4296 27.672,-2.1289 -0.418,4.4414 -0.64,7.8203 -0.64,10.156 0,2.742 0.222,5.282 1.078,10.782 -11.426,-1.7 -15.43,-1.907 -25.16,-1.907 h -24.946 v 8.883 24.719 l 0.227,8.457 h 22.597 c 5.715,0 14.801,-0.406 22.411,-1.27 1.898,-0.211 4.871,-0.425 8.871,-1.043 m 57.496,20.496 c -5.289,-0.64 -9.305,-0.839 -12.051,-0.839 -2.754,0 -6.773,0.402 -12.242,1.039 0.824,-8.028 1.043,-10.989 1.258,-17.543 v -10.559 -10.785 l 0.207,-50.3047 c 0,-20.0781 0.629,-24.3047 5.488,-32.332 2.969,-4.8633 7.195,-9.3086 12.484,-12.8829 9.926,-6.9921 20.707,-9.5117 40.368,-9.5117 18.378,0 29.8,2.7461 39.937,9.9219 14.789,10.3633 17.961,19.6602 17.961,53.8867 l -0.203,33.1957 c 0,2.757 0.203,9.925 0.418,21.562 0,8.863 0.222,15.219 0.426,18.594 0.226,1.488 0.421,3.59 0.64,6.558 -4.867,-0.437 -8.461,-0.839 -10.781,-0.839 -2.332,0 -5.918,0.402 -10.559,0.839 0.832,-7.398 1.258,-10.367 1.461,-16.71 0.637,-8.442 0.848,-18.59 0.848,-29.79 v -32.98 c 0,-23.2305 -0.637,-28.3086 -5.066,-34.8711 -1.704,-2.3359 -4.641,-4.8633 -8.465,-7.1797 -7.176,-4.4414 -15.016,-6.1406 -25.567,-6.1406 -15.015,0 -28.957,5.5156 -34.238,13.3203 -4.234,6.3555 -4.43,8.875 -4.648,30.8594 v 43.1137 c 0,2.336 0.218,6.347 0.414,11.636 0,5.274 0.222,8.657 0.222,9.914 0.418,7.407 0.633,10.582 1.688,18.828" /><path
         id="path18"
         style="fill:#ffffff;fill-opacity:1;fill-rule:nonzero;stroke:none"
         d="m 793.281,151.949 c -2.39,9.66 -7.976,14.278 -14.715,14.278 -6.738,0 -10.644,-4.442 -10.644,-9.758 0,-6.114 3.457,-8.598 14.195,-10.457 13.383,-2.403 19.59,-7.813 19.59,-18.809 0,-6.383 -4.078,-19.152 -23.047,-19.152 -10.383,0 -17.027,3.547 -20.84,6.562 v 16.403 h 4.25 c 1.598,-11.524 7.629,-17.907 16.672,-17.907 8.25,0 12.68,4.7 12.68,11.082 0,5.403 -2.129,8.778 -11.434,10.813 -13.664,2.926 -21.636,5.504 -21.636,18.008 0,6.476 3.894,17.906 20.652,17.906 9.226,0 15.605,-2.926 18.543,-5.227 v -13.742 h -4.266" /><path
         id="path20"
         style="fill:#ffffff;fill-opacity:1;fill-rule:nonzero;stroke:none"
         d="m 830.406,113.109 4.875,-0.261 v -4.172 h -22.078 v 4.172 l 5.145,0.261 0.613,0.801 v 51.332 l -0.613,0.797 -5.145,0.27 v 4.171 h 22.078 v -4.171 l -4.875,-0.27 -0.625,-0.797 V 113.91 l 0.625,-0.801" /><path
         id="path22"
         style="fill:#ffffff;fill-opacity:1;fill-rule:nonzero;stroke:none"
         d="m 899.27,157.891 -14.102,-40.082 h -9.316 l -14.629,40.699 h -0.532 V 113.91 l 0.618,-0.801 5.054,-0.261 v -4.172 h -17.82 v 4.172 l 5.141,0.261 0.625,0.801 v 51.332 l -0.625,0.797 -5.141,0.27 v 4.171 h 20.039 c 1.953,-5.851 12.148,-33.695 14.102,-39.55 h 0.355 l 13.746,39.55 h 18.887 v -4.171 l -4.879,-0.27 -0.621,-0.797 V 113.91 l 0.621,-0.801 4.879,-0.261 v -4.172 h -21.906 v 4.172 l 5.238,0.261 0.707,0.801 v 43.981 h -0.441" /><path
         id="path24"
         style="fill:#ffffff;fill-opacity:1;fill-rule:nonzero;stroke:none"
         d="m 939.977,139.27 c 0,-13.219 0.718,-26.247 12.414,-26.247 11.8,0 11.882,12.497 11.882,28.637 0,13.211 -1.238,24.473 -11.882,24.473 -11.086,0 -12.414,-11.442 -12.414,-26.863 z m 36.363,0.531 c 0,-18.449 -4.973,-31.66 -24.563,-31.66 -19.336,0 -23.773,13.304 -23.773,31.3 0,16.055 5.5,31.395 24.836,31.395 18.441,0 23.5,-13.742 23.5,-31.035" /><path
         id="path26"
         style="fill:#ffffff;fill-opacity:1;fill-rule:nonzero;stroke:none"
         d="m 1034.22,124.719 -0.09,40.523 -0.62,0.797 -5.32,0.27 v 4.171 h 17.82 v -4.171 l -4.88,-0.27 -0.7,-0.797 v -56.566 h -8.61 l -30.94,48.504 h -0.36 v -43.27 l 0.89,-0.801 4.7,-0.261 v -4.172 h -17.739 v 4.172 l 5.234,0.261 0.622,0.801 v 51.332 l -0.622,0.797 -5.144,0.27 v 4.171 h 16.229 l 29.34,-45.761 h 0.19" /><path
         id="path28"
         style="fill:#ffffff;fill-opacity:1;fill-rule:nonzero;stroke:none"
         d="m 1099.23,113.91 0.62,-0.801 5.23,-0.261 v -4.172 h -22.52 v 4.172 l 5.23,0.261 0.62,0.801 v 51.25 l -0.62,0.797 -5.23,0.27 v 4.16 h 44.52 V 155.938 H 1123 c -2.49,9.304 -3.91,9.664 -12.51,9.664 h -11.17 v -24.297 h 6.83 c 7.44,0 7.89,0.886 9.39,8.16 h 3.91 v -21.281 h -3.91 c -1.5,7.269 -2.3,8.336 -9.3,8.336 h -6.92 l -0.09,-22.61" /><path
         id="path30"
         style="fill:#ffffff;fill-opacity:1;fill-rule:nonzero;stroke:none"
         d="m 1163.55,165.777 h -7.19 v -25.093 h 6.83 c 5.95,0 10.64,4.527 10.64,12.863 0,8.504 -4.34,12.23 -10.28,12.23 z m 1.51,4.703 c 15.06,0 20.66,-7.179 20.66,-16.933 0,-7.629 -3.99,-14.195 -12.33,-16.32 l 12.94,-22.348 c 0.82,-1.328 1.25,-1.594 2.85,-1.856 l 3.72,-0.714 v -3.633 h -15.43 c -2.03,4.523 -12.23,22.785 -14.28,27.308 h -6.74 V 113.91 l 0.63,-0.801 4.78,-0.261 v -4.172 h -22.07 v 4.172 l 5.14,0.261 0.71,0.801 v 51.332 l -0.71,0.797 -5.14,0.27 v 4.171 h 25.27" /><path
         id="path32"
         style="fill:#ffffff;fill-opacity:1;fill-rule:nonzero;stroke:none"
         d="m 1220.46,129.426 h 19.41 l -9.49,28.547 h -0.34 z m 16.49,40.961 19.24,-56.477 0.7,-0.801 4.08,-0.261 v -4.172 h -21.98 v 4.172 l 5.59,0.261 0.52,0.618 -3.64,10.914 h -22.61 l -3.64,-10.731 0.55,-0.801 5.67,-0.261 v -4.172 h -18.01 v 4.172 l 4.35,0.261 0.63,0.801 19.51,56.477 h 9.04" /><path
         id="path34"
         style="fill:#ffffff;fill-opacity:1;fill-rule:nonzero;stroke:none"
         d="m 1308.45,151.949 c -2.39,9.66 -7.98,14.278 -14.72,14.278 -6.74,0 -10.64,-4.442 -10.64,-9.758 0,-6.114 3.46,-8.598 14.18,-10.457 13.4,-2.403 19.6,-7.813 19.6,-18.809 0,-6.383 -4.07,-19.152 -23.05,-19.152 -10.39,0 -17.03,3.547 -20.84,6.562 v 16.403 h 4.25 c 1.59,-11.524 7.63,-17.907 16.68,-17.907 8.24,0 12.68,4.7 12.68,11.082 0,5.403 -2.13,8.778 -11.45,10.813 -13.65,2.926 -21.63,5.504 -21.63,18.008 0,6.476 3.91,17.906 20.67,17.906 9.22,0 15.6,-2.926 18.52,-5.227 v -13.742 h -4.25" /><path
         id="path36"
         style="fill:#ffffff;fill-opacity:1;fill-rule:nonzero;stroke:none"
         d="m 1361.35,130.043 c -1.42,7.273 -2.21,8.242 -9.14,8.242 h -7.09 v -24.824 h 11.18 c 8.69,0 11.53,0.09 13.3,11.973 h 4.17 v -16.758 h -45.4 v 4.172 l 5.22,0.261 0.63,0.801 v 51.25 l -0.63,0.797 -5.22,0.27 v 4.16 h 44.51 v -14.449 h -4.08 c -2.48,9.304 -3.9,9.664 -12.5,9.664 h -11.18 v -22.61 h 7.01 c 7.36,0 7.8,1.067 9.22,8.336 h 3.9 v -21.285 h -3.9" /><path
         id="path38"
         style="fill:#ffffff;fill-opacity:1;fill-rule:nonzero;stroke:none"
         d="m 1410.64,165.777 h -7.18 v -25.093 h 6.83 c 5.95,0 10.64,4.527 10.64,12.863 0,8.504 -4.34,12.23 -10.29,12.23 z m 1.51,4.703 c 15.08,0 20.66,-7.179 20.66,-16.933 0,-7.629 -3.99,-14.195 -12.33,-16.32 l 12.95,-22.348 c 0.8,-1.328 1.24,-1.594 2.84,-1.856 l 3.73,-0.714 v -3.633 h -15.43 c -2.04,4.523 -12.24,22.785 -14.28,27.308 h -6.74 V 113.91 l 0.62,-0.801 4.79,-0.261 v -4.172 h -22.08 v 4.172 l 5.14,0.261 0.72,0.801 v 51.332 l -0.72,0.797 -5.14,0.27 v 4.171 h 25.27" /><path
         id="path40"
         style="fill:#ffffff;fill-opacity:1;fill-rule:nonzero;stroke:none"
         d="m 800.285,58.082 -5.051,0.2618 v 4.1718 h 17.293 v -4.1718 l -4.691,-0.2618 -0.719,-0.8007 V 22.9648 c 0,-15.34371 -7.363,-22.96870625 -22.344,-22.96870625 -18.621,0 -23.058,10.55470625 -23.058,22.61720625 v 34.668 l -0.531,0.8007 -5.149,0.2618 v 4.1718 h 22 v -4.1718 l -4.972,-0.2618 c 0,-0.1875 -0.438,-0.7148 -0.532,-0.8007 V 22.1719 c 0,-8.7891 2.399,-16.58987 14.278,-16.58987 13.394,0 14.195,9.57817 14.195,17.29297 v 34.3164 l -0.719,0.8906" /><path
         id="path42"
         style="fill:#ffffff;fill-opacity:1;fill-rule:nonzero;stroke:none"
         d="m 870.984,16.7617 -0.089,40.5196 -0.614,0.8007 -5.328,0.2618 v 4.1718 h 17.82 v -4.1718 l -4.867,-0.2618 -0.718,-0.8007 V 0.707031 H 868.59 L 837.637,49.2148 h -0.344 V 5.94141 l 0.887,-0.80078 4.691,-0.26172 V 0.707031 H 825.145 V 4.87891 l 5.222,0.26172 0.625,0.80078 V 57.2813 l -0.625,0.8007 -5.14,0.2618 v 4.1718 h 16.226 l 29.36,-45.7539 h 0.171" /><path
         id="path44"
         style="fill:#ffffff;fill-opacity:1;fill-rule:nonzero;stroke:none"
         d="m 913.332,5.14063 4.879,-0.26172 V 0.707031 H 896.125 V 4.87891 l 5.141,0.26172 0.625,0.80078 V 57.2813 l -0.625,0.8007 -5.141,0.2618 v 4.1718 h 22.086 v -4.1718 l -4.879,-0.2618 -0.621,-0.8007 V 5.94141 l 0.621,-0.80078" /><path
         id="path46"
         style="fill:#ffffff;fill-opacity:1;fill-rule:nonzero;stroke:none"
         d="m 953.004,0.707031 -17.996,56.484369 -0.621,0.8008 -4.164,0.2656 v 4.168 h 22.078 v -4.168 l -5.504,-0.2656 -0.613,-0.8008 13.652,-44.4336 h 0.437 c 2.047,6.836 11.711,37.6094 13.758,44.4336 l -0.543,0.8008 -5.675,0.2656 v 4.168 h 17.832 v -4.168 l -4.344,-0.2656 -0.625,-0.8008 -18.18,-56.484369 h -9.492" /><path
         id="path48"
         style="fill:#ffffff;fill-opacity:1;fill-rule:nonzero;stroke:none"
         d="m 1030.73,22.0742 c -1.42,7.2774 -2.21,8.2422 -9.14,8.2422 h -7.08 V 5.49219 h 11.17 c 8.69,0 11.53,0.08984 13.3,11.97261 h 4.17 V 0.707031 H 997.746 V 4.87891 l 5.234,0.26172 0.62,0.80078 V 57.1914 l -0.62,0.8008 -5.234,0.2656 v 4.168 h 44.514 V 47.9727 h -4.08 c -2.49,9.3086 -3.9,9.6601 -12.5,9.6601 h -11.17 V 35.0234 h 7.01 c 7.35,0 7.79,1.0664 9.21,8.3321 h 3.91 V 22.0742 h -3.91" /><path
         id="path50"
         style="fill:#ffffff;fill-opacity:1;fill-rule:nonzero;stroke:none"
         d="m 1080.03,57.8164 h -7.18 V 32.7188 h 6.83 c 5.94,0 10.63,4.5234 10.63,12.8632 0,8.5039 -4.34,12.2344 -10.28,12.2344 z m 1.51,4.6992 c 15.07,0 20.65,-7.1875 20.65,-16.9336 0,-7.6367 -3.98,-14.1992 -12.32,-16.3281 l 12.95,-22.34374 c 0.79,-1.32813 1.24,-1.59375 2.83,-1.85547 l 3.73,-0.70313 V 0.707031 h -15.43 C 1091.91,5.23047 1081.72,23.5 1079.68,28.0234 h -6.74 V 5.94141 l 0.61,-0.80078 4.8,-0.26172 V 0.707031 h -22.09 V 4.87891 l 5.14,0.26172 0.72,0.80078 V 57.2813 l -0.72,0.8007 -5.14,0.2618 v 4.1718 h 25.28" /><path
         id="path52"
         style="fill:#ffffff;fill-opacity:1;fill-rule:nonzero;stroke:none"
         d="m 1156.47,43.9805 c -2.39,9.6679 -7.97,14.2773 -14.71,14.2773 -6.74,0 -10.65,-4.4336 -10.65,-9.7578 0,-6.1133 3.46,-8.6016 14.19,-10.457 13.39,-2.3946 19.6,-7.8047 19.6,-18.8086 0,-6.3789 -4.08,-19.1523687 -23.05,-19.1523687 -10.38,0 -17.02,3.5468787 -20.84,6.5624987 V 23.0508 h 4.26 c 1.59,-11.5235 7.62,-17.91017 16.66,-17.91017 8.25,0 12.69,4.69921 12.69,11.08597 0,5.4101 -2.13,8.7773 -11.44,10.8203 -13.66,2.9297 -21.64,5.4883 -21.64,17.9961 0,6.4765 3.9,17.9218 20.66,17.9218 9.22,0 15.6,-2.9414 18.54,-5.2343 v -13.75 h -4.27" /><path
         id="path54"
         style="fill:#ffffff;fill-opacity:1;fill-rule:nonzero;stroke:none"
         d="m 1193.6,5.14063 4.87,-0.26172 V 0.707031 h -22.08 V 4.87891 l 5.15,0.26172 0.61,0.80078 V 57.2813 l -0.61,0.8007 -5.15,0.2618 v 4.1718 h 22.08 v -4.1718 l -4.87,-0.2618 -0.62,-0.8007 V 5.94141 l 0.62,-0.80078" /><path
         id="path56"
         style="fill:#ffffff;fill-opacity:1;fill-rule:nonzero;stroke:none"
         d="m 1214.57,47.5352 h -4.09 v 14.8906 h 48.51 V 47.5352 h -4.07 c -1.95,9.5703 -3.72,10.0976 -12.34,10.0976 h -2.48 V 5.94141 l 0.62,-0.80078 4.88,-0.26172 V 0.707031 h -22.17 V 4.87891 l 5.24,0.26172 0.62,0.80078 V 57.6328 h -2.4 c -8.6,0 -10.19,-0.8008 -12.32,-10.0976" /><path
         id="path58"
         style="fill:#ffffff;fill-opacity:1;fill-rule:nonzero;stroke:none"
         d="M 1300.74,25.7969 V 5.94141 l 0.62,-0.80078 4.88,-0.26172 V 0.707031 h -22.17 V 4.87891 l 5.23,0.26172 0.62,0.80078 V 25.0039 l -15.25,32.2774 -0.71,0.8007 -4.26,0.2618 v 4.1718 h 22.35 v -4.1718 l -5.49,-0.2618 -0.63,-0.7148 11.45,-24.6484 h 0.44 l 11.43,24.5625 -0.52,0.8007 -5.68,0.2618 v 4.1718 h 17.83 v -4.1718 l -4.26,-0.2618 -0.63,-0.8007 -15.25,-31.4844" /></g></g></svg>
