<svg width="249" height="111" viewBox="0 0 249 111" fill="none" xmlns="http://www.w3.org/2000/svg">
<path d="M41.4333 1.03857H29.1679V29.7999C29.1679 36.3545 26.7693 39.1012 21.2053 39.1012C15.2813 39.1012 12.7426 36.2839 12.7426 29.7305V1.03857H0.477295V28.8839C0.477295 34.5945 1.04395 37.6946 2.66128 40.6559C5.76395 46.3679 11.8253 49.1145 20.9919 49.1145C27.9026 49.1145 32.6893 47.7025 36.216 44.4625C38.3306 42.4212 39.8133 39.8772 40.6573 36.9226C41.2213 34.7372 41.4333 32.6892 41.4333 28.9559V1.03857ZM114.101 27.5425H123.476C128.477 27.5425 130.732 29.2319 130.732 32.9759C130.732 36.6372 128.547 38.3279 123.757 38.3279H114.101V27.5425ZM114.101 10.3439H122.557C126.993 10.3439 128.973 11.7545 128.973 14.9972C128.973 17.8865 126.785 19.5065 122.84 19.4385H114.101V10.3439ZM101.829 1.03857V47.9866H125.867C131.575 47.9866 135.313 46.9985 138.277 44.5332C141.516 41.9932 143.139 38.4012 143.139 33.9599C143.139 28.3172 140.6 24.5119 135.528 22.6079L134.752 22.3239C138.84 20.2159 140.883 17.0412 140.883 12.8079C140.883 8.44391 138.628 4.7079 134.819 2.8039C132.424 1.60524 129.253 1.03857 124.388 1.03857" fill="white"/>
<path d="M76.5067 4.83158C76.5067 4.83158 77.9187 18.1036 77.616 19.413C77.616 19.413 77.3093 22.6263 82.1427 34.1916C86.9653 45.7583 83.8507 37.8129 87.8694 46.9609L89.68 49.5769L91.492 35.0969C91.7893 29.8703 91.6947 21.3196 91.6947 21.3196C91.992 21.117 93.1014 6.94359 92.8987 5.83692C92.696 4.72891 92.8013 0.91026 92.8013 0.91026C78.0173 0.30626 74.6987 1.51026 74.6987 1.51026C63.84 0.80626 51.6707 0.806256 51.6707 0.806256C50.968 3.32359 50.5654 7.04492 50.6654 8.24759C50.7667 9.45826 50.968 11.2663 50.7667 14.3796C50.5653 17.4983 51.268 26.549 51.268 26.549L50.5654 26.353C51.068 34.8956 50.364 47.9663 50.364 47.9663H60.216C60.7214 47.3649 70.4747 23.6343 70.4747 23.6343C73.996 16.3943 76.5067 4.83158 76.5067 4.83158ZM68.6654 29.5663L77.7107 27.4543L79.5253 29.1649L78.5214 32.381" fill="#A85623"/>
<path d="M16.6666 75.6204C16.6666 80.2497 13.932 82.5017 9.35197 82.5017C4.74664 82.5017 2.06128 80.271 2.06128 75.6204V64.9683H5.82397V75.6204C5.82397 77.4897 6.3053 79.3377 9.35197 79.3377C12.0373 79.3377 12.9013 78.1617 12.9013 75.6204V64.9683H16.6666" fill="white"/>
<path d="M19.5452 69.6963H22.7838V71.423H22.8532C23.7198 70.031 25.2065 69.3589 26.6452 69.3589C30.2665 69.3589 31.1799 71.3963 31.1799 74.4683V82.0949H27.7732V75.0936C27.7732 73.0536 27.1745 72.0456 25.5879 72.0456C23.7425 72.0456 22.9545 73.0763 22.9545 75.5963V82.0949H19.5452" fill="white"/>
<path d="M34.1038 69.696H37.5106V82.0949H34.1038V69.696ZM37.5105 67.776H34.1038V64.9692H37.5105V67.776Z" fill="white"/>
<path d="M47.1786 82.0949H43.3893L39.1426 69.6963H42.7146L45.3306 78.1629H45.3773L47.9919 69.6963H51.3746" fill="white"/>
<path d="M60.66 74.5656C60.3467 72.8376 59.6013 71.9256 57.948 71.9256C55.7893 71.9256 55.1654 73.6042 55.1187 74.5656H60.66ZM55.1187 76.7229C55.212 78.8803 56.268 79.8642 58.1613 79.8642C59.5293 79.8642 60.632 79.0256 60.8494 78.2589H63.8467C62.888 81.1856 60.8494 82.4322 58.044 82.4322C54.132 82.4322 51.7107 79.7456 51.7107 75.9069C51.7107 72.1896 54.2774 69.3589 58.044 69.3589C62.2667 69.3589 64.3027 72.9096 64.064 76.7229" fill="white"/>
<path d="M66.0786 69.6963H69.3173V71.9989H69.3679C69.9893 70.4389 71.6666 69.3589 73.3226 69.3589C73.5613 69.3589 73.848 69.4083 74.0666 69.4789V72.6443C73.7546 72.5736 73.2493 72.5243 72.8426 72.5243C70.3479 72.5243 69.484 74.3243 69.484 76.5056V82.0949H66.0786" fill="white"/>
<path d="M78.1665 78.0669C78.1905 79.5549 79.4398 80.1522 80.7812 80.1522C81.7652 80.1522 83.0105 79.7682 83.0105 78.5709C83.0105 77.5375 81.5998 77.1789 79.1505 76.6495C77.1838 76.2189 75.2159 75.5255 75.2159 73.3402C75.2159 70.1762 77.9505 69.3589 80.6145 69.3589C83.3225 69.3589 85.8185 70.2682 86.0825 73.3162H82.8451C82.7478 71.9975 81.7425 71.6375 80.5185 71.6375C79.7505 71.6375 78.6225 71.7802 78.6225 72.7882C78.6225 74.0136 80.5412 74.1802 82.4838 74.6349C84.4745 75.0949 86.4172 75.8135 86.4172 78.1135C86.4172 81.3735 83.5865 82.4309 80.7558 82.4309C77.8785 82.4309 75.0732 81.3522 74.9292 78.0669" fill="white"/>
<path d="M88.6253 69.696H92.0305V82.0949H88.6253V69.696ZM92.0293 67.776H88.624V64.9692H92.0293V67.776Z" fill="white"/>
<path d="M99.516 69.6961H102.009V71.9721H99.516V78.1121C99.516 79.2641 99.804 79.5548 100.955 79.5548C101.315 79.5548 101.649 79.5281 102.009 79.4574V82.1201C101.433 82.2148 100.691 82.2388 100.019 82.2388C97.9333 82.2388 96.1079 81.7601 96.1079 79.2895V71.9721H94.0439V69.6961H96.1079V65.9761H99.516" fill="white"/>
<path d="M111.964 76.0269C111.387 76.5296 110.192 76.5549 109.133 76.7469C108.079 76.9616 107.12 77.3229 107.12 78.5696C107.12 79.8389 108.104 80.1536 109.205 80.1536C111.868 80.1536 111.964 78.0416 111.964 77.2989V76.0269ZM104.099 73.5069C104.287 70.3189 107.144 69.3589 109.925 69.3589C112.395 69.3589 115.371 69.9109 115.371 72.8856V79.3362C115.371 80.4642 115.489 81.5922 115.801 82.0949H112.348C112.228 81.7122 112.132 81.3042 112.107 80.8962C111.027 82.0242 109.444 82.4322 107.935 82.4322C105.585 82.4322 103.713 81.2576 103.713 78.7149C103.713 75.9069 105.823 75.2349 107.935 74.9469C110.02 74.6349 111.964 74.7096 111.964 73.3176C111.964 71.8536 110.956 71.6376 109.757 71.6376C108.461 71.6376 107.624 72.1656 107.503 73.5069" fill="white"/>
<path d="M122.203 69.6961H124.699V71.9721H122.203V78.1121C122.203 79.2641 122.492 79.5548 123.644 79.5548C124.005 79.5548 124.339 79.5281 124.699 79.4574V82.1201C124.123 82.2148 123.379 82.2388 122.708 82.2388C120.621 82.2388 118.799 81.7601 118.799 79.2895V71.9721H116.736V69.6961H118.799V65.9761H122.203" fill="white"/>
<path d="M137.555 75.4749H141.992L139.836 69.1909H139.789L137.555 75.4749ZM137.916 64.9683H141.776L148.18 82.0949H144.272L142.977 78.2816H136.573L135.228 82.0949H131.416" fill="white"/>
<path d="M160.823 82.095H157.583V80.3683H157.513C156.651 81.7603 155.16 82.4323 153.724 82.4323C150.101 82.4323 149.188 80.3924 149.188 77.323V69.6963H152.596V76.6977C152.596 78.7377 153.193 79.7443 154.779 79.7443C156.627 79.7443 157.417 78.715 157.417 76.195V69.6963H160.823" fill="white"/>
<path d="M168.333 69.6961H170.823V71.9721H168.333V78.1121C168.333 79.2641 168.617 79.5548 169.769 79.5548C170.131 79.5548 170.467 79.5281 170.823 79.4574V82.1201C170.248 82.2148 169.505 82.2388 168.836 82.2388C166.747 82.2388 164.923 81.7601 164.923 79.2895V71.9721H162.861V69.6961H164.923V65.9761H168.333" fill="white"/>
<path d="M178.836 79.8627C181.163 79.8627 181.857 77.8747 181.857 75.9067C181.857 73.916 181.163 71.9254 178.836 71.9254C176.532 71.9254 175.839 73.916 175.839 75.9067C175.839 77.8747 176.532 79.8627 178.836 79.8627ZM174.588 64.7534H178.356L180.66 68.16H178.283L174.588 64.7534ZM178.836 69.3587C182.745 69.3587 185.263 71.948 185.263 75.9067C185.263 79.8387 182.745 82.432 178.836 82.432C174.949 82.432 172.432 79.8387 172.432 75.9067C172.432 71.948 174.949 69.3587 178.836 69.3587Z" fill="white"/>
<path d="M187.233 69.6963H190.468V71.423H190.54C191.405 70.031 192.892 69.3589 194.332 69.3589C197.955 69.3589 198.865 71.3963 198.865 74.4683V82.0949H195.458V75.0936C195.458 73.0536 194.857 72.0456 193.276 72.0456C191.428 72.0456 190.636 73.0763 190.636 75.5963V82.0949H187.233" fill="white"/>
<path d="M207.235 79.8629C209.561 79.8629 210.259 77.8749 210.259 75.9069C210.259 73.9162 209.561 71.9256 207.235 71.9256C204.932 71.9256 204.237 73.9162 204.237 75.9069C204.237 77.8749 204.932 79.8629 207.235 79.8629ZM207.235 69.3589C211.147 69.3589 213.665 71.9482 213.665 75.9069C213.665 79.8389 211.147 82.4322 207.235 82.4322C203.349 82.4322 200.831 79.8389 200.831 75.9069C200.831 71.9482 203.349 69.3589 207.235 69.3589Z" fill="white"/>
<path d="M215.727 69.6963H218.94V71.3736H218.988C219.877 70.1043 221.171 69.3589 222.777 69.3589C224.337 69.3589 225.728 69.935 226.401 71.423C227.12 70.3416 228.415 69.3589 230.144 69.3589C232.781 69.3589 234.677 70.5829 234.677 73.7963V82.0949H231.268V75.0669C231.268 73.4136 231.127 72.0456 229.183 72.0456C227.263 72.0456 226.905 73.6283 226.905 75.187V82.0949H223.499V75.1376C223.499 73.7016 223.593 72.0456 221.436 72.0456C220.763 72.0456 219.131 72.4776 219.131 74.8989V82.0949H215.727" fill="white"/>
<path d="M244.844 76.0269C244.269 76.5296 243.069 76.5549 242.016 76.7469C240.96 76.9616 240 77.3229 240 78.5696C240 79.8389 240.984 80.1536 242.088 80.1536C244.748 80.1536 244.844 78.0416 244.844 77.2989V76.0269ZM236.977 73.5069C237.17 70.3189 240.025 69.3589 242.805 69.3589C245.277 69.3589 248.252 69.9109 248.252 72.8856V79.3362C248.252 80.4642 248.372 81.5922 248.683 82.0949H245.229C245.107 81.7122 245.013 81.3042 244.988 80.8962C243.909 82.0242 242.331 82.4322 240.816 82.4322C238.465 82.4322 236.594 81.2576 236.594 78.7149C236.594 75.9069 238.705 75.2349 240.816 74.9469C242.901 74.6349 244.844 74.7096 244.844 73.3176C244.844 71.8536 243.84 71.6376 242.638 71.6376C241.342 71.6376 240.502 72.1656 240.384 73.5069" fill="white"/>
<path d="M7.65054 100.409C5.4172 100.409 4.65054 102.327 4.65054 104.368C4.65054 106.309 5.53854 108.348 7.65054 108.348C9.90254 108.348 10.5746 106.38 10.5746 104.343C10.5746 102.327 9.8532 100.409 7.65054 100.409ZM10.6212 108.996H10.5746C9.78389 110.339 8.39189 110.915 6.80789 110.915C3.06923 110.915 1.2439 107.701 1.2439 104.271C1.2439 100.936 3.08922 97.8425 6.73589 97.8425C8.19989 97.8425 9.63858 98.4665 10.4292 99.6905H10.4052H10.4546V93.4546H13.8612V110.58H10.6212" fill="white"/>
<path d="M25.0159 103.048C24.7039 101.321 23.9599 100.409 22.3039 100.409C20.1465 100.409 19.5212 102.088 19.4732 103.048H25.0159ZM19.4732 105.207C19.5692 107.364 20.6252 108.349 22.5199 108.349C23.8866 108.349 24.9905 107.509 25.2065 106.743H28.2039C27.2452 109.669 25.2066 110.915 22.4026 110.915C18.4906 110.915 16.0679 108.231 16.0679 104.393C16.0679 100.673 18.6346 97.8423 22.4026 97.8423C26.6226 97.8423 28.6612 101.395 28.4199 105.207" fill="white"/>
<path d="M39.6705 107.652H43.6985C45.1852 107.652 46.4825 107.175 46.4825 105.4C46.4825 103.647 45.3771 102.952 43.7705 102.952H39.6705V107.652ZM39.6705 100.385H43.4825C44.8025 100.385 45.7865 99.7852 45.7865 98.3465C45.7865 96.7159 44.5385 96.3785 43.1959 96.3785H39.6705V100.385ZM35.9038 93.4546H43.9638C47.2252 93.4546 49.4358 94.5092 49.4358 97.6972C49.4358 99.3772 48.5918 100.555 47.1038 101.273C49.1931 101.873 50.2478 103.479 50.2478 105.615C50.2478 109.091 47.2998 110.58 44.2025 110.58H35.9038" fill="white"/>
<path d="M60.2746 104.509C59.6999 105.016 58.4986 105.037 57.4439 105.231C56.3892 105.447 55.4293 105.807 55.4293 107.052C55.4293 108.325 56.4133 108.637 57.5159 108.637C60.1786 108.637 60.2746 106.525 60.2746 105.783V104.509ZM52.4065 101.992C52.5985 98.8014 55.4532 97.8428 58.2345 97.8428C60.7065 97.8428 63.6799 98.3948 63.6799 101.368V107.819C63.6799 108.947 63.7999 110.076 64.1106 110.58H60.6612C60.5386 110.195 60.4412 109.788 60.4172 109.38C59.3386 110.509 57.7559 110.916 56.2452 110.916C53.8945 110.916 52.0239 109.74 52.0239 107.197C52.0239 104.392 54.1332 103.719 56.2452 103.431C58.3319 103.119 60.2746 103.192 60.2746 101.8C60.2746 100.337 59.2652 100.121 58.0692 100.121C56.7706 100.121 55.9319 100.649 55.8132 101.992" fill="white"/>
<path d="M66.5586 98.1788H69.7973V100.483H69.8439C70.4693 98.9215 72.1466 97.8428 73.8026 97.8428C74.0413 97.8428 74.3279 97.8922 74.5452 97.9642V101.131C74.2332 101.056 73.7293 101.007 73.3213 101.007C70.828 101.007 69.9639 102.809 69.9639 104.992V110.58H66.5586" fill="white"/>
<path d="M84.2601 102.543C84.0455 101.153 83.1601 100.408 81.7415 100.408C79.5575 100.408 78.8388 102.616 78.8388 104.44C78.8388 106.213 79.5335 108.348 81.6695 108.348C83.2508 108.348 84.1641 107.341 84.3801 105.832H87.6655C87.2348 109.116 84.9535 110.915 81.6935 110.915C77.9508 110.915 75.4333 108.277 75.4333 104.56C75.4333 100.696 77.7348 97.8423 81.7655 97.8423C84.6935 97.8423 87.3775 99.377 87.5935 102.543" fill="white"/>
<path d="M98.0505 103.048C97.7412 101.321 96.9972 100.409 95.3439 100.409C93.1826 100.409 92.5586 102.088 92.5106 103.048H98.0505ZM92.5106 105.207C92.6066 107.364 93.6626 108.349 95.5572 108.349C96.9239 108.349 98.0265 107.509 98.2425 106.743H101.243C100.281 109.669 98.2426 110.915 95.4386 110.915C91.5266 110.915 89.1052 108.231 89.1052 104.393C89.1052 100.673 91.6706 97.8423 95.4386 97.8423C99.6572 97.8423 101.696 101.395 101.459 105.207" fill="white"/>
<path d="M103.569 110.582H106.975V93.4551H103.569V110.582Z" fill="white"/>
<path d="M115.68 108.348C118.007 108.348 118.704 106.357 118.704 104.392C118.704 102.4 118.007 100.409 115.68 100.409C113.377 100.409 112.684 102.4 112.684 104.392C112.684 106.357 113.377 108.348 115.68 108.348ZM115.68 97.8423C119.592 97.8423 122.111 100.433 122.111 104.392C122.111 108.324 119.592 110.915 115.68 110.915C111.796 110.915 109.276 108.324 109.276 104.392C109.276 100.433 111.796 97.8423 115.68 97.8423Z" fill="white"/>
<path d="M124.317 98.1788H127.556V99.9068H127.625C128.489 98.5162 129.976 97.8428 131.417 97.8428C135.038 97.8428 135.95 99.8829 135.95 102.952V110.58H132.544V103.576C132.544 101.537 131.944 100.531 130.358 100.531C128.517 100.531 127.722 101.561 127.722 104.079V110.58H124.317" fill="white"/>
<path d="M146.382 104.509C145.806 105.016 144.606 105.037 143.552 105.231C142.497 105.447 141.537 105.807 141.537 107.052C141.537 108.325 142.521 108.637 143.626 108.637C146.286 108.637 146.382 106.525 146.382 105.783V104.509ZM138.516 101.992C138.708 98.8014 141.562 97.8428 144.344 97.8428C146.813 97.8428 149.789 98.3948 149.789 101.368V107.819C149.789 108.947 149.91 110.076 150.218 110.58H146.765C146.647 110.195 146.549 109.788 146.525 109.38C145.446 110.509 143.866 110.916 142.354 110.916C140.001 110.916 138.132 109.74 138.132 107.197C138.132 104.392 140.244 103.719 142.354 103.431C144.44 103.119 146.382 103.192 146.382 101.8C146.382 100.337 145.378 100.121 144.177 100.121C142.881 100.121 142.04 100.649 141.921 101.992" fill="white"/>
</svg>
