<?xml version="1.0" encoding="UTF-8" standalone="no"?>
<svg
   xmlns:dc="http://purl.org/dc/elements/1.1/"
   xmlns:cc="http://creativecommons.org/ns#"
   xmlns:rdf="http://www.w3.org/1999/02/22-rdf-syntax-ns#"
   xmlns:svg="http://www.w3.org/2000/svg"
   xmlns="http://www.w3.org/2000/svg"
   viewBox="0 0 480 148.22667"
   height="148.22667"
   width="480"
   xml:space="preserve"
   id="svg2"
   version="1.1"><metadata
     id="metadata8"><rdf:RDF><cc:Work
         rdf:about=""><dc:format>image/svg+xml</dc:format><dc:type
           rdf:resource="http://purl.org/dc/dcmitype/StillImage" /></cc:Work></rdf:RDF></metadata><defs
     id="defs6" /><g
     transform="matrix(1.3333333,0,0,-1.3333333,0,148.22667)"
     id="g10"><g
       transform="scale(0.1)"
       id="g12"><path
         id="path14"
         style="fill:#ffffff;fill-opacity:1;fill-rule:nonzero;stroke:none"
         d="m 1095.31,892.602 c 29.91,0 32.35,-1.379 32.63,-18.497 l 0.21,-9.015 c 0.25,-10.77 0.47,-20.067 0.47,-39.434 v -78.777 c 0,-15.527 4.93,-92.981 102.27,-92.981 26.82,0 51.62,8.489 68.05,23.262 23.56,21.211 35.02,54.707 35.02,102.383 v 77.57 c 0,19.258 1.39,27.461 5.3,31.367 4.18,4.168 12.72,4.168 26.88,4.129 l 3.75,-0.007 c 3.75,0 6.58,3.914 6.58,9.109 0,6.555 -2.48,9.355 -8.29,9.355 -2.04,0 -8.26,-0.234 -15.01,-0.496 -9.25,-0.351 -23.24,-0.879 -29.73,-0.879 -14.7,0 -29.58,0.606 -39.45,0.997 l -1.31,0.058 c -4.61,0.184 -7.97,0.32 -9.82,0.32 -2.86,0 -6.25,-1.503 -6.25,-8.671 0,-2.93 0,-9.793 6.25,-9.793 h 2.41 c 16.06,-0.012 25.8,0.019 31.2,-5 5.29,-4.922 7.35,-15.637 7.35,-38.196 v -68.125 c 0,-67.801 -23.08,-100.75 -70.56,-100.75 -64.01,0 -73.56,51.903 -73.56,82.852 v 62.273 c 0,19.367 0.21,28.664 0.47,39.434 l 0.2,9.035 c 0.28,17.098 2.73,18.477 32.64,18.477 7.28,0 7.28,7.617 7.28,10.488 0,5.508 -3.31,7.976 -6.58,7.976 -0.52,0 -1.96,-0.046 -4.12,-0.125 l -3.11,-0.117 c -10.91,-0.39 -31.23,-1.133 -47.51,-1.133 -15.79,0 -35.98,0.731 -47.02,1.133 l -2.84,0.106 c -2.37,0.078 -3.95,0.136 -4.5,0.136 -3.28,0 -6.58,-2.468 -6.58,-7.976 0,-2.871 0,-10.488 7.28,-10.488" /><path
         id="path16"
         style="fill:#ffffff;fill-opacity:1;fill-rule:nonzero;stroke:none"
         d="m 1353.62,800.207 c 0,-1.875 0,-6.855 6.24,-7.605 14.78,-1.485 17.16,-6.282 17.16,-17.168 v -47.141 c 0,-29.453 -1.07,-46.16 -1.8,-48.184 -1.47,-3.464 -1.78,-6.121 -13.97,-6.121 -11.04,0 -13.49,0 -13.49,-8.664 0,-6.023 3.4,-7.293 6.25,-7.293 1.5,0 3.32,0.059 6.06,0.145 6.56,0.207 17.52,0.547 40.4,0.547 19.07,0 25.63,-0.418 28.46,-0.606 l 0.46,-0.027 c 0.6,-0.031 1.01,-0.059 1.34,-0.059 4.61,0 6.95,2.684 6.95,7.977 0,7.98 -3.63,7.98 -12.03,7.98 -11.4,0 -13.77,0 -13.77,20.223 v 85.352 c 0,1.328 0.57,2.578 1.56,3.429 5.56,4.766 18.73,11.649 27.98,11.649 32.67,0 35.02,-18.817 35.02,-49.825 v -61.609 c 0,-8.164 -1.82,-9.219 -17.93,-9.219 -5.73,0 -6.47,-4.179 -6.47,-8.32 0,-7.266 4.9,-7.637 5.88,-7.637 0.7,0 1.58,0.047 2.91,0.106 3.88,0.187 11.93,0.586 33.22,0.586 10.25,0 30.24,-0.692 34.76,-0.692 5.52,0 8.32,2.684 8.32,7.977 0,2.187 0,7.98 -6.95,7.98 -18.85,0 -18.85,4.715 -18.85,8.875 v 82.578 c 0,35.547 -17.37,55.129 -48.92,55.129 -15.91,0 -30.86,-8.117 -43.4,-16.054 -1.41,-0.891 -4.1,-1.692 -5.56,-0.86 -1.5,0.86 -1.37,3.172 -1.3,4.891 0.09,2.629 0.2,4.687 0.29,6.445 0.08,1.485 0.14,2.512 0.14,3.106 0,1.808 0,7.277 -4.54,7.277 -2.12,0 -3.84,-1.008 -6.28,-2.453 -4.92,-2.899 -15.16,-8.934 -42.55,-14.473 -3.5,-0.672 -5.59,-1.297 -5.59,-8.242" /><path
         id="path18"
         style="fill:#ffffff;fill-opacity:1;fill-rule:nonzero;stroke:none"
         d="m 1554.14,658.031 c 1.49,0 3.31,0.059 6.06,0.145 6.54,0.207 17.27,0.547 40.13,0.547 17.57,0 23.95,-0.418 26.71,-0.606 l 0.46,-0.019 c 0.62,-0.039 1.05,-0.067 1.39,-0.067 4.61,0 6.95,2.684 6.95,7.977 0,7.98 -5.18,7.98 -11.74,7.98 -11.39,0 -12.32,0 -12.32,20.223 v 74.328 c 0,25.078 0.52,41.277 1.55,48.106 0.12,0.703 1.77,8.73 -5.42,8.73 -2.14,0 -3.87,-1.027 -6.27,-2.441 -4.91,-2.903 -15.13,-8.946 -42.56,-14.485 -3.44,-0.664 -5.58,-3.828 -5.58,-8.242 0,-1.875 0,-6.855 6.23,-7.605 14.78,-1.485 17.16,-3.821 17.16,-14.707 v -49.602 c 0,-29.461 -1.07,-46.16 -1.8,-48.172 -1.47,-3.476 -3.7,-6.133 -11.35,-6.133 -11.06,0 -15.88,0 -15.88,-8.664 0,-6.023 3.41,-7.293 6.28,-7.293" /><path
         id="path20"
         style="fill:#ffffff;fill-opacity:1;fill-rule:nonzero;stroke:none"
         d="m 1594.17,866.203 c 12.77,0 21.36,11.231 21.36,21.731 0,10.507 -8.59,21.757 -21.36,21.757 -12.8,0 -21.4,-11.25 -21.4,-21.757 0,-10.5 8.6,-21.731 21.4,-21.731" /><path
         id="path22"
         style="fill:#ffffff;fill-opacity:1;fill-rule:nonzero;stroke:none"
         d="m 1643.23,797.492 c 0.67,0 7.81,0.52 9.63,-3.211 1.81,-3.73 10.56,-27.422 18.43,-48.781 9.37,-25.398 28.58,-72.676 29.6,-74.949 5.16,-11.426 7.52,-16.653 12.86,-16.653 4.94,0 9.02,4.512 19.57,29.786 2.05,4.777 29.82,67.578 38.04,86.964 12.37,29.161 9.23,26.239 28.07,27.176 h 0.63 c 4.36,0.481 7.02,2.696 7.02,8.203 0,4.211 -1.56,8.692 -5.86,8.692 -4.94,0 -10.78,-0.176 -15.69,-0.34 l -0.34,-0.012 c -5.17,-0.176 -10.2,-0.332 -14.99,-0.332 -4.71,0 -9.76,0.168 -14.63,0.324 l -0.7,0.02 c -4.78,0.164 -11.6,0.34 -16.14,0.34 -5.21,0 -6.12,-5.047 -6.12,-8.692 0,-5.75 2.53,-7.636 5.82,-7.636 17.54,0 20.36,-1.121 20.36,-5.411 0,-7.753 -4.5,-19.851 -30.13,-76.992 -0.76,-1.707 -2.2,-4.383 -4.04,-4.453 -1.85,0.02 -3.53,2.832 -4.24,4.531 -13.26,31.875 -27.56,71.223 -27.56,78.418 0,0.813 -0.81,3.45 2.82,3.653 3.52,0.187 8.27,0.039 12.9,0.051 h 1.84 c 4.07,0 5.66,4.16 5.66,7.773 0,5.613 -2.34,8.758 -6.07,8.758 -3.29,0 -37.51,-0.684 -40.93,-0.684 -5.3,0 -32.76,0.676 -32.8,0.676 -6.84,0 -6.84,-6.828 -6.84,-9.797 0,-6.863 5.5,-7.422 13.83,-7.422" /><path
         id="path24"
         style="fill:#ffffff;fill-opacity:1;fill-rule:nonzero;stroke:none"
         d="m 1839.1,774.477 c 5.24,20.906 16.41,31.511 33.19,31.511 8.06,0 26.81,-2.84 26.81,-29.179 0,-6.719 -2.54,-7.852 -8.21,-7.852 h -47.39 c -1.41,0 -3.32,0.188 -4.19,1.309 -0.85,1.086 -0.54,2.902 -0.21,4.211 z m 39.4,-120.567 c 46.78,0 62.69,43.379 62.69,47.195 0,3.352 -5.07,7.618 -9.03,7.618 -3.14,0 -4.93,-2.743 -6.7,-5.438 -0.39,-0.597 -0.79,-1.211 -1.3,-1.906 -9.22,-13.231 -20.76,-19.129 -37.42,-19.129 -34.53,0 -52.91,30.926 -52.91,53.262 0,4.394 0.15,8.32 0.47,12.011 0.2,2.332 1.03,4.09 3.4,4.09 h 92.08 c 2.08,0 7.62,0 7.62,7.285 0,6.457 -1.83,63.04 -65.11,63.04 -35.54,0 -72.31,-32.2 -72.31,-86.067 0,-52.09 28.62,-81.961 78.52,-81.961" /><path
         id="path26"
         style="fill:#ffffff;fill-opacity:1;fill-rule:nonzero;stroke:none"
         d="m 1953.64,658.031 c 2.09,0 4.95,0.078 7.61,0.164 l 0.59,0.02 c 5.71,0.195 14.36,0.5 32.54,0.5 8.6,0 15.7,-0.188 21.96,-0.363 6.06,-0.176 12.83,-0.321 18.57,-0.321 4.19,0 7.38,0.645 7.38,8.309 0,8.332 -3.75,7.648 -17.62,7.648 -13.68,0 -13.68,3.895 -13.68,16.797 v 78.113 c 0,3.04 0.26,6.778 1.49,8.704 3.93,6.121 14.02,12.566 21.14,12.566 3.39,0 5.58,-2.031 8.62,-4.832 3.95,-3.672 8.87,-8.254 17.87,-8.254 12.74,0 20.35,10.539 20.35,20.715 0,13.621 -10.25,22.773 -25.51,22.773 -11.08,0 -23.35,-5.703 -36.46,-16.945 -1.43,-1.23 -4.37,-2.664 -6.05,-1.805 -1.68,0.86 -1.52,3.711 -1.36,5.586 0.15,1.766 0.3,3.321 0.43,4.688 l 0.05,0.488 c 0.26,2.684 0.42,4.414 0.42,5.848 0,2.687 -1.32,6.945 -4.87,6.945 -2.13,0 -3.86,-1.027 -6.27,-2.441 -4.9,-2.903 -15.1,-8.926 -42.55,-14.485 -5.18,-1.054 -5.58,-3.816 -5.58,-8.25 0,-1.867 0,-6.847 6.23,-7.597 14.77,-1.485 17.15,-6.27 17.15,-17.168 v -87.403 c 0,-12.863 -1.18,-14.043 -14.06,-14.043 -8.52,0 -14.16,0 -14.16,-7.98 0,-5.879 2.57,-7.977 5.77,-7.977" /><path
         id="path28"
         style="fill:#ffffff;fill-opacity:1;fill-rule:nonzero;stroke:none"
         d="m 2095.67,663.48 c 0.48,-2.617 1.08,-6.242 4.63,-7.199 3.14,-0.859 5.68,-0.136 13.46,-0.136 6.45,0 23.52,-2.247 29.82,-2.247 51.76,0 56.78,38.508 56.78,50.305 0,32.82 -17.33,39.649 -41.33,49.09 v 0 c -6.45,2.531 -13.77,5.402 -21.51,9.102 -5.31,2.668 -14.22,8.8 -14.22,19.914 0,13.964 8.98,22.304 24.02,22.304 14.25,0 25.14,-8.957 32.36,-26.582 l 0.61,-1.476 c 2.5,-6.524 6.1,-6.004 9.7,-6.004 6.11,0 7.29,2.578 7.29,6.258 0,2.089 -0.51,4.707 -1.17,8.105 -0.94,4.758 -2.22,11.27 -2.62,19.414 0,7.442 -0.89,11.75 -7.8,13.02 -1.94,0.359 -22.09,3.222 -38.04,3.222 -32.32,0 -55.79,-21.164 -55.79,-50.304 0,-28.653 25.02,-38.496 45.13,-46.407 17.15,-6.738 31.96,-12.566 31.96,-26.875 0,-4.531 -1.34,-27.129 -27.83,-27.129 -19.92,0 -28.1,13.625 -33.51,23.743 -3.23,6.043 -4.99,11.015 -9.83,11.015 -6.44,0 -9.99,-0.949 -9.99,-4.648 0,-1.992 1.53,-8.633 5.01,-23.801 1.44,-6.269 2.4,-10.078 2.87,-12.684" /><path
         id="path30"
         style="fill:#ffffff;fill-opacity:1;fill-rule:nonzero;stroke:none"
         d="m 2220.08,658.031 c 1.5,0 3.31,0.059 6.07,0.145 6.54,0.207 17.49,0.547 40.36,0.547 17.56,0 23.95,-0.418 26.7,-0.606 l 0.46,-0.019 c 0.62,-0.039 1.05,-0.067 1.4,-0.067 4.6,0 6.95,2.684 6.95,7.977 0,7.98 -5.19,7.98 -11.74,7.98 -11.39,0 -12.33,0 -12.33,20.223 v 74.328 c 0,25.078 0.53,41.277 1.55,48.106 0.12,0.703 0.16,1.121 0.16,1.453 0,5.031 -2.8,7.277 -5.58,7.277 -2.14,0 -3.87,-1.027 -6.26,-2.441 -4.91,-2.903 -15.13,-8.946 -42.56,-14.485 -3.45,-0.664 -5.59,-3.828 -5.59,-8.242 0,-1.875 0,-6.855 6.24,-7.605 14.77,-1.485 17.16,-3.821 17.16,-14.707 v -49.602 c 0,-29.461 -1.08,-46.16 -1.81,-48.172 -1.47,-3.476 -3.2,-6.133 -10.85,-6.133 -11.05,0 -16.61,0 -16.61,-8.664 0,-6.023 3.42,-7.293 6.28,-7.293" /><path
         id="path32"
         style="fill:#ffffff;fill-opacity:1;fill-rule:nonzero;stroke:none"
         d="m 2260.34,866.203 c 12.78,0 21.36,11.231 21.36,21.731 0,10.507 -8.58,21.757 -21.36,21.757 -12.8,0 -21.4,-11.25 -21.4,-21.757 0,-10.5 8.6,-21.731 21.4,-21.731" /><path
         id="path34"
         style="fill:#ffffff;fill-opacity:1;fill-rule:nonzero;stroke:none"
         d="m 2304.17,793.559 c 1.17,-0.723 2.37,-0.676 3.39,-0.735 h 17.06 c 0.05,-0.195 0.09,-0.496 0.09,-0.965 v -91.796 c 0,-29.766 15.3,-46.165 43.08,-46.165 31.79,0 49.26,16.34 49.26,21.75 0,3.387 -3.41,9.004 -7.29,9.004 -1.25,0 -2.23,-0.539 -4.37,-1.718 -3.91,-2.168 -11.19,-6.192 -19.03,-6.192 -22.51,0 -26.77,7.313 -26.77,46.055 v 66.57 c 0,1.203 -0.09,2.754 0.77,3.606 0.86,0.859 2.56,0.906 3.76,0.906 0.01,0 0.02,0 0.03,-0.008 16.51,-0.109 20.82,-0.566 24.05,-0.754 1.31,-0.078 2.16,-0.125 2.75,-0.125 7.5,0 12.8,-0.285 12.78,9.746 -0.01,10.664 -3.93,11.825 -6.54,11.825 -6.87,0 -12.88,-0.215 -16.96,-0.43 l -0.52,-0.028 c -4.31,-0.234 -5.94,-0.5 -15.22,-0.597 -0.02,0 -0.04,0 -0.05,0 -1.24,0 -3.04,-0.067 -3.9,0.82 -0.86,0.891 -0.67,2.61 -0.62,3.848 0.46,12.246 0.69,19.648 0.69,22.629 0,5.242 -3.84,7.988 -7.63,7.988 -4.61,0 -7.79,-3.762 -13.57,-10.578 -6.44,-7.606 -16.17,-19.082 -34.05,-32.527 -2.16,-1.75 -3.34,-3.196 -3.34,-7.54 0,-2.16 0.72,-3.703 2.15,-4.589" /><path
         id="path36"
         style="fill:#ffffff;fill-opacity:1;fill-rule:nonzero;stroke:none"
         d="m 2422.46,797.375 c 10.74,0 17.94,-0.711 19.93,-5.574 2.72,-6.633 4.88,-14.446 7.86,-24.27 5.54,-18.172 13.12,-43.074 27.25,-79.394 l 1.03,-2.625 c 3.76,-9.582 10.77,-27.414 10.77,-34.66 0,-15.477 -14.95,-43.465 -19.07,-45.672 -0.86,0.125 -2.37,0.976 -3.66,1.707 -3.11,1.75 -7.39,4.14 -13.36,4.14 -12.49,0 -23.44,-10.32 -23.44,-22.078 0,-13.136 10.21,-23.808 22.76,-23.808 13.64,0 25.38,5.242 52.47,73.105 4.09,10.41 20.12,44.727 35.63,77.91 l 0.6,1.278 c 11.79,25.214 25.7,54.738 31.48,68.007 4.3,10.059 6.73,11.329 18.71,11.329 6.03,0 8.78,2.843 8.79,8.476 0,1.535 0.4,5.129 -1.98,7.531 -1.26,1.27 -3.33,1.942 -5.27,1.942 -5.47,0 -10.77,-0.184 -15.45,-0.352 -9.81,-0.351 -21.24,-0.332 -31.8,0 -5.23,0.168 -11.88,0.352 -17.51,0.352 -3.71,0 -5.89,-3.504 -5.89,-7.977 0,-9.785 5.41,-9.836 7.1,-9.836 l 3.06,0.02 c 6.32,-0.008 15.34,0.48 18.53,-2.684 0.91,-0.91 1.34,-2.09 1.34,-3.703 0,-4.383 -6.55,-23.816 -36.09,-85.672 -0.81,-1.672 -2.34,-2.629 -4.26,-2.558 -1.86,0.078 -3.37,1.16 -4.04,2.89 -16.07,42.02 -26.78,73.094 -26.78,88.184 0,2.312 0.85,4.051 13.37,4.051 4.52,0 6.58,4.824 6.58,9.308 0,7.196 -5.35,7.977 -7.65,7.977 -4.96,0 -10.21,-0.156 -16.07,-0.332 -5.77,-0.184 -11.92,-0.352 -17.99,-0.352 -7.71,0 -17.93,0.266 -25.66,0.469 l -2.36,0.059 c -3.28,0.089 -7.26,0.156 -8.5,0.156 -3.62,0 -5.84,-2.625 -5.84,-7.625 0,-4.797 0.84,-9.719 5.41,-9.719" /><path
         id="path38"
         style="fill:#ffffff;fill-opacity:1;fill-rule:nonzero;stroke:none"
         d="m 2836.43,792.59 h 16.44 c 3.1,0 5.5,-0.731 5.5,-5.184 V 682.473 c 0,-4.239 -2.13,-8.243 -9.2,-8.243 -11.1,0 -12.17,-0.105 -13.85,-1.894 -1.65,-1.758 -1.72,-4.492 -1.72,-6.328 0,-5.879 2.12,-7.977 6.61,-7.977 0.58,0 1.25,0.028 2.11,0.067 l 1.21,0.039 c 4.07,0.195 12.55,0.586 33.15,0.586 8.14,0 14.76,-0.164 21.96,-0.371 5.54,-0.157 12.19,-0.321 18.17,-0.321 4.19,0 7.76,0.645 7.76,8.309 0,6.894 -3.88,7.648 -14.85,7.648 -17.76,0 -16.47,3.895 -16.47,16.797 v 97.059 c 0,1.25 0.5,2.402 1.39,3.261 0.9,0.86 2.09,1.329 3.3,1.243 5.62,-0.246 12.54,-0.625 18.25,-0.95 l 0.46,-0.019 c 5.71,-0.32 11.61,-0.977 12.53,-0.977 8.03,0 10.2,3.938 10.2,11.524 0,8.867 -2.99,10.734 -7.29,10.734 h -34.33 c -2.49,0 -4.51,2.02 -4.51,4.512 v 36.355 c 0,21.164 3.4,46.387 19.57,46.387 5.24,0 7.02,-2.246 12.87,-7.09 9.76,-8.094 18.68,-8.73 21.19,-8.73 11.77,0 19.68,8.183 19.68,20.363 0,12.645 -12.65,18.309 -25.19,18.309 -6.5,0 -16.2,-1.453 -21.87,-2.86 -40.41,-10.636 -58.42,-38.164 -62.13,-95.039 -0.86,-12.785 -1.99,-11.672 -15.12,-15.019 -9,-2.297 -13.44,-2.793 -13.44,-9.278 0,-7.07 2.94,-7.746 7.62,-7.98" /><path
         id="path40"
         style="fill:#ffffff;fill-opacity:1;fill-rule:nonzero;stroke:none"
         d="m 1359.93,455.461 c 0,-61.258 -42.58,-100.828 -108.47,-100.828 -29.94,0 -29.94,8.711 -29.94,18.797 v 136.562 c -0.25,21.367 0.64,33.985 6.03,39.434 5.63,5.695 17.75,5.695 39.74,5.695 54.55,0 92.64,-40.988 92.64,-99.66 z m 44.58,73.887 c -27.16,33.359 -71.74,50.265 -132.51,50.265 -21.82,0 -52.69,-1.211 -69.5,-1.886 -7.12,-0.262 -12.26,-0.457 -13.73,-0.457 -27.25,0 -56.98,1.257 -72.95,1.941 l -0.78,0.031 c -5.32,0.223 -8.83,0.371 -10.03,0.371 -5.31,0 -8.74,-4.336 -8.74,-11.066 0,-5.02 0,-13.426 9.92,-13.426 40.06,0 48.71,-3.086 49.25,-35.871 l 0.33,-13.895 c 0.48,-19.425 0.85,-34.765 0.85,-68.644 V 293.168 c 0,-24.406 -0.54,-60.734 -1.75,-90.723 -0.48,-12.531 -0.86,-24.152 -46.94,-24.152 -17.1,0 -19.85,-3.965 -19.85,-13.426 0,-5.207 1.29,-11.094 8.12,-11.094 12.94,0 21.73,1.172 92.57,1.172 52.63,0 91.88,-1.172 106.1,-1.172 8.16,0 9.28,7 9.28,12.207 0,10.625 -5.02,12.313 -23.72,12.313 -57.06,0 -56.7,11.418 -57.73,31.953 l -0.04,3.41 c -0.54,16.504 -1.09,33.574 -1.13,116.278 -0.01,1.328 0.57,2.578 1.59,3.437 1,0.859 2.33,1.231 3.63,1.027 18.12,-2.91 37.89,-4.269 62.21,-4.269 41.35,0 76.28,11.309 101,32.707 26.27,22.723 40.16,56.375 40.16,97.324 0,6.297 -1.24,39.246 -25.61,69.188" /><path
         id="path42"
         style="fill:#ffffff;fill-opacity:1;fill-rule:nonzero;stroke:none"
         d="m 1559.31,175.941 c -21.74,0 -23.49,2.762 -23.49,36.954 v 126.55 c 0,42.825 0.92,70.52 2.74,82.336 0.15,0.965 0.22,1.563 0.22,2.032 0,6.855 -3.51,9.921 -6.99,9.921 -2.92,0 -5.44,-1.484 -9.4,-3.82 -8.47,-5.008 -26.11,-15.449 -73.3,-24.961 -4.68,-0.945 -7.48,-5.281 -7.48,-11.601 0,-3.055 0,-9.414 8.39,-10.477 26.92,-2.687 31.46,-11.953 31.46,-31.699 v -80.274 c 0,-42.453 -1.42,-78.898 -3.25,-83.007 -3.31,-7.754 -7.6,-11.954 -20.84,-11.954 -21.16,0 -25.7,-1.054 -25.7,-12.257 0,-2.715 0,-9.911 8.13,-9.911 2.55,0 5.67,0.106 9.99,0.243 11.05,0.343 29.55,0.929 69.1,0.929 29.69,0 40.82,-0.715 45.55,-1.007 1.47,-0.106 2.41,-0.165 3.1,-0.165 9.31,0 9.31,8.055 9.31,11.094 0,10.645 -5.06,11.074 -17.54,11.074" /><path
         id="path44"
         style="fill:#ffffff;fill-opacity:1;fill-rule:nonzero;stroke:none"
         d="m 1508.34,577.27 c -16.37,0 -33.9,-13.868 -33.9,-34.512 0,-20.645 17.53,-34.512 33.9,-34.512 16.39,0 33.94,13.867 33.94,34.512 0,20.644 -17.55,34.512 -33.94,34.512" /><path
         id="path46"
         style="fill:#ffffff;fill-opacity:1;fill-rule:nonzero;stroke:none"
         d="m 1758.05,194.094 c -1.49,0 -2.87,-0.762 -6.24,-2.617 -6.87,-3.797 -19.65,-10.848 -33.61,-10.848 -44.18,0 -48.12,20.965 -48.12,80.906 v 115.039 c 0,1.203 0.48,2.336 1.34,3.196 0.86,0.847 2.09,1.308 3.22,1.316 32.64,-0.234 50.53,-1.836 58.15,-2.52 2.96,-0.273 4.47,-0.378 5.52,-0.398 14.65,-0.273 19.28,6.602 19.28,18.113 0,3.907 0,15.782 -9.31,15.782 h -73.65 c -1.21,0 -2.34,0.468 -3.19,1.328 -0.86,0.871 -1.33,2.023 -1.32,3.242 0.15,16.203 0.76,26.055 1.22,33.469 0.3,4.753 0.53,8.515 0.53,12.39 0,7.598 -5.45,11.055 -10.52,11.055 -6.68,0 -12.14,-6.426 -21.21,-17.117 -11.03,-13.02 -27.71,-32.688 -58.26,-55.676 -3.98,-3.184 -4.83,-5.633 -4.83,-10.906 0,-5.735 3.52,-8.743 6.99,-8.743 h 27.9 c 2.91,0 3.78,-0.789 3.78,-3.367 V 222.855 c 0,-62.902 38.52,-76.105 70.84,-76.105 54.25,0 81.36,27.922 81.36,34.504 0,4.715 -4.87,12.84 -9.87,12.84" /><path
         id="path48"
         style="fill:#ffffff;fill-opacity:1;fill-rule:nonzero;stroke:none"
         d="m 1955.83,194.094 c -1.49,0 -2.88,-0.762 -6.25,-2.617 -6.87,-3.797 -19.65,-10.848 -33.6,-10.848 -44.18,0 -48.12,20.965 -48.12,80.906 v 115.039 c 0,1.203 0.47,2.336 1.33,3.196 0.86,0.847 2.09,1.308 3.23,1.316 32.63,-0.234 50.52,-1.836 58.15,-2.52 2.96,-0.273 4.46,-0.378 5.51,-0.398 14.66,-0.273 19.28,6.602 19.28,18.113 0,3.907 0,15.782 -9.31,15.782 h -73.65 c -1.2,0 -2.34,0.468 -3.19,1.328 -0.86,0.871 -1.33,2.023 -1.32,3.242 0.16,16.203 0.77,26.055 1.22,33.469 0.3,4.753 0.53,8.515 0.53,12.39 0,7.598 -5.45,11.055 -10.51,11.055 -6.69,0 -12.14,-6.426 -21.21,-17.117 -11.04,-13.02 -27.72,-32.688 -58.26,-55.676 -3.99,-3.184 -4.83,-5.633 -4.83,-10.906 0,-5.735 3.51,-8.743 6.99,-8.743 h 27.89 c 2.91,0 3.79,-0.789 3.79,-3.367 V 222.855 c 0,-62.902 38.52,-76.105 70.83,-76.105 54.25,0 81.37,27.922 81.37,34.504 0,4.715 -4.88,12.84 -9.87,12.84" /><path
         id="path50"
         style="fill:#ffffff;fill-opacity:1;fill-rule:nonzero;stroke:none"
         d="m 2098.33,311.145 c 0,0 -23.66,9.296 -36.87,15.597 -9.56,4.766 -25.61,15.809 -25.61,36.133 0,24.98 16.65,40.488 43.42,40.488 25.36,0 44.67,-15.754 57.39,-46.828 l 0.3,-0.73 c 3.69,-9.649 9.18,-10.45 14.95,-10.45 5.93,0 9.92,3.27 9.92,8.153 0,3.351 -0.87,7.734 -1.96,13.301 -1.6,8.183 -3.8,19.406 -4.49,33.566 0,6.367 -2.42,17.695 -11.4,19.754 -2.79,0.723 -37.21,5.402 -64.14,5.402 -53.59,0 -92.5,-34.972 -92.5,-83.144 0,-47.102 39.97,-62.813 75.27,-76.692 28.79,-11.336 55.97,-22.039 55.97,-48.113 0,-38.418 -31.34,-48.672 -49.86,-48.672 -35.43,0 -48.94,25.281 -57.89,42.012 -5.33,9.961 -9.18,17.156 -15.93,17.156 -3.46,0 -14.01,0 -14.01,-6.973 0,-3.496 12.81,-59.792 13.48,-63.281 0.67,-3.484 3.28,-6.386 6.38,-6.386 24.09,0 47.64,-4.688 67.37,-4.688 91.84,0 98.98,63.645 98.98,83.145 0,54.171 -28.85,65.527 -68.77,81.25" /><path
         id="path52"
         style="fill:#ffffff;fill-opacity:1;fill-rule:nonzero;stroke:none"
         d="m 2400.45,280.863 c 0,-75.332 -23.21,-111.953 -70.96,-111.953 -41.04,0 -60.99,24.356 -60.99,74.453 v 106.641 c 0,34.148 21.48,54.539 57.45,54.539 61.57,0 74.5,-67.254 74.5,-123.68 z m 21.16,116.356 c -22.46,20.527 -52.88,31.828 -85.67,31.828 -24.73,0 -42.75,-5.363 -60.23,-17.922 -1.44,-1.023 -3.23,-1.172 -4.79,-0.371 -1.52,0.781 -2.42,2.266 -2.42,3.984 v 95.215 c 0,53.195 1.17,61.535 2.63,74.902 0.06,0.54 0.23,2.571 0.23,3.372 0,7.312 -3.7,8.445 -6.92,8.445 -2.54,0 -6.39,-1.602 -13.4,-4.52 -13.65,-5.683 -36.45,-15.422 -68.7,-20.742 -6.46,-1.066 -7.48,-5.273 -7.48,-11.594 0,-5.781 3,-9.589 8.42,-10.476 l 1.27,-0.117 c 29.59,-2.688 29.59,-2.688 29.59,-49.825 V 193.566 c 0,-7.722 -1.18,-25.945 -1.18,-29.882 0,-2.743 0,-11.075 8.13,-11.075 7.71,0 9.28,4.493 11.68,8.34 2.83,4.524 5.49,8.801 12.36,8.801 6.09,0 12.81,-3.371 22.93,-7.492 16.98,-6.903 38.11,-15.508 66.13,-15.508 31.07,0 62.12,11.934 85.21,32.746 28.53,25.731 43.61,63.621 43.61,109.57 0,46.004 -14.32,83.407 -41.4,108.153" /><path
         id="path54"
         style="fill:#ffffff;fill-opacity:1;fill-rule:nonzero;stroke:none"
         d="m 2764.52,189.406 c -1.86,0 -18.88,-2.332 -23.35,-2.332 -10.41,0 -11.18,7.207 -11.18,18.203 v 110.157 c 0,33.64 3.45,69.492 4.75,82.988 0.4,4.238 0.51,5.488 0.51,6.055 0,7.421 -4.24,11.679 -11.65,11.679 -7.42,0 -15.06,-0.461 -22.46,-0.898 -7.28,-0.43 -14.81,-0.86 -22.06,-0.86 -23.87,0 -40.49,1.758 -49.64,1.758 -7.56,0 -8.92,-5.117 -8.92,-15.187 0,-9.336 10.78,-9.336 22.2,-9.336 28.77,0 32.9,-1.953 32.9,-31.668 V 208.207 c 0,-14.961 -33.52,-27.578 -54.57,-27.578 -38.33,0 -53.96,19.023 -53.96,65.664 v 158.184 c 0,8.074 -1.17,11.679 -8.13,11.679 -3.2,0 -8.31,-0.254 -14.77,-0.586 l -0.35,-0.011 c -9.75,-0.496 -23.11,-1.161 -35.85,-1.161 -12.37,0 -20.49,0.704 -26.74,1.25 -3.16,0.282 -5.67,0.508 -7.83,0.508 -11.36,0 -9.91,-10.644 -9.91,-15.187 0,-8.406 11.46,-9.336 16.35,-9.336 27.21,0 32.87,0 32.87,-51.602 v -91.394 c 0,-71.407 23.29,-101.887 77.85,-101.887 20.7,0 53.8,8.84 83.07,28.469 -0.5,-4.856 -0.98,-10.403 -0.98,-15.039 0,-5.645 4.22,-11.692 10.51,-11.692 8.51,0 32.51,9.473 67.9,15.293 16.9,2.637 22.25,3.821 22.25,11.047 0,9.043 -1.27,14.578 -8.81,14.578" /><path
         id="path56"
         style="fill:#ffffff;fill-opacity:1;fill-rule:nonzero;stroke:none"
         d="m 2970.82,425.531 c -21.14,0 -44.86,-12.578 -70.49,-37.375 -1.39,-1.336 -3.77,-2.215 -5.53,-1.426 -1.74,0.793 -2.21,2.95 -2.12,4.875 0.47,9.989 1.21,17.481 1.76,23.055 0.4,3.887 0.75,7.246 0.75,9.738 0,3.047 1.05,9.336 -5.82,9.336 -2.94,0 -5.49,-1.515 -9.4,-3.82 -8.48,-5.019 -26.13,-15.457 -73.3,-24.969 -4.68,-0.949 -7.48,-5.285 -7.48,-11.593 0,-3.055 0,-9.414 8.39,-10.477 26.92,-2.687 31.46,-11.945 31.46,-31.699 V 202.355 c 0,-23.21 -3.21,-26.414 -26.41,-26.414 -14.7,0 -21.63,0 -21.63,-11.074 0,-10.012 6.1,-11.094 8.73,-11.094 3.59,0 6.94,0.118 12.02,0.301 9.71,0.344 24.37,0.871 55.95,0.871 14.05,0 25.71,-0.312 36.98,-0.617 l 0.46,-0.008 c 9.43,-0.265 19.17,-0.547 29.36,-0.547 8.92,0 12.22,0.879 12.22,11.668 0,11.661 -4.91,10.5 -27.48,10.5 -25.84,0 -25.84,9.102 -25.84,31.102 v 132.988 c 0,5.676 0.54,12.395 3.22,16.465 10.38,15.793 29.98,22.266 37.88,22.266 6.74,0 10.98,-3.926 16.38,-8.926 6.42,-5.938 14.41,-13.34 28.7,-13.34 20.15,0 32.19,16.66 32.19,32.766 0,22.031 -16.07,36.269 -40.95,36.269" /><path
         id="path58"
         style="fill:#ffffff;fill-opacity:1;fill-rule:nonzero;stroke:none"
         d="m 3132.61,252.102 c -42.86,0 -49.26,41.515 -49.26,66.261 0,57.578 17.37,86.766 51.62,86.766 41.3,0 45.76,-47.156 45.76,-67.43 0,-31.972 -6.25,-85.597 -48.12,-85.597 z M 3050.56,84.3281 c 0,28.9959 30.23,51.8559 30.23,51.8559 h 86.55 c 41.45,0 58.51,-8.75 58.51,-39.5746 0,-37.6211 -29.1,-62.7305 -94.38,-62.7305 -75.07,0 -80.91,38.6094 -80.91,50.4492 z m 195.39,296.5939 c 5.66,-8.535 12.7,-19.16 25.51,-19.16 13.94,0 25.7,10.984 25.7,23.972 0,10.911 -4.61,36.289 -47.37,36.289 -10.53,0 -25.02,-1.687 -43.77,-14.89 -1.55,-1.086 -3.54,-1.125 -5.08,-0.098 -19.02,12.676 -44.56,20.235 -68.33,20.235 -26.71,0 -53.65,-10.305 -73.9,-28.262 -21.43,-18.996 -33.24,-44.309 -33.24,-71.27 0,-36.925 12.1,-63.097 37,-80.011 1.27,-0.86 2.59,-2.059 2.62,-3.575 0.03,-1.453 -1.2,-2.957 -2.38,-3.828 -22.64,-16.699 -36.67,-33.289 -36.67,-64.336 0,-14.734 9.99,-27.898 24.87,-34.492 1.44,-0.633 3.25,-1.719 3.41,-3.242 0.15,-1.367 -0.89,-3.047 -1.95,-4.121 -21.88,-21.942 -42.13,-43.4221 -42.13,-75.5939 C 3010.24,19.1484 3036.09,0 3089.27,0 c 24.87,0 72.63,3.17188 113.05,24.3594 39.63,20.7617 59.72,51.789 59.72,93.3596 0,7.129 -1.19,26.238 -10.53,39.277 -13.64,19.063 -37.34,29.492 -72.59,29.492 h -86.73 c -17.31,0 -24.06,4.442 -24.06,15.867 0,16.993 10.87,27.004 17.97,31.739 2.26,1.515 5.07,1.426 6.43,0.976 12.97,-4.355 31.64,-5.117 38.34,-5.117 67.47,0 107.75,38.965 107.75,104.231 0,13.867 -9.45,41.796 -20.51,56.023 2.25,3.293 5.61,5.988 12.61,5.988 8.07,0 10.79,-8.586 15.23,-15.273" /><path
         id="path60"
         style="fill:#ffffff;fill-opacity:1;fill-rule:nonzero;stroke:none"
         d="m 3590.7,175.941 c -34.62,0 -34.62,9.774 -34.62,17.625 v 140.618 c 0,58.906 -28.7,91.347 -80.8,91.347 -33.61,0 -59.08,-13.293 -81.62,-27.656 -1.4,-0.898 -3.12,-0.949 -4.58,-0.148 -1.46,0.8 -2.34,2.277 -2.34,3.945 v 108.281 c 0,42.746 2.36,69.942 2.89,78.106 0.53,8.164 -1.86,10.488 -6.92,10.488 -2.56,0 -6.42,-1.609 -13.42,-4.531 -13.66,-5.672 -36.4,-15.743 -68.72,-20.731 -7.43,-1.144 -7.47,-5.293 -7.47,-11.582 0,-5.781 3,-9.601 8.44,-10.48 30.27,-2.762 30.84,-2.813 30.84,-51.825 V 294.34 c 0,-36.68 -1.52,-101.621 -3.24,-106.438 -2.49,-5.789 -6.14,-11.961 -17.93,-11.961 -21.15,0 -25.69,-1.054 -25.69,-12.257 0,-2.715 0,-9.911 8.12,-9.911 1.48,0 3.53,0.067 6.74,0.196 9.14,0.312 28.16,0.976 69.43,0.976 32.18,0 43.66,-0.722 48.58,-1.027 1.41,-0.086 2.32,-0.145 2.99,-0.145 9.31,0 9.31,8.055 9.31,11.094 0,11.074 -4.17,11.074 -20.46,11.074 -21.73,0 -23.49,2.762 -23.49,36.954 l -0.02,155.625 c 4.24,7.195 28.53,17.859 52.81,17.859 57.98,0 62.16,-32.996 62.16,-87.352 V 194.145 c 0,-15.918 -1.97,-18.204 -31.83,-18.204 -8.6,0 -9.77,-6.289 -9.77,-11.671 0,-9.735 5.79,-10.497 7.57,-10.497 1.16,0 2.6,0.067 5.01,0.184 6.78,0.324 20.88,0.988 56.5,0.988 17.75,0 28.57,-0.371 38.13,-0.703 l 0.84,-0.031 c 6.92,-0.234 14.02,-0.438 21.33,-0.438 10.56,0 10.53,6.856 10.53,10.457 0,5.645 -0.72,11.711 -9.3,11.711" /><path
         id="path62"
         style="fill:#ffffff;fill-opacity:1;fill-rule:nonzero;stroke:none"
         d="m 2788.88,737.23 c 0,-55.605 -23.87,-67.285 -43.88,-67.285 -35.98,0 -43.53,36.59 -43.53,67.285 0,62.411 33.32,67.266 43.53,67.266 40.71,0 43.88,-51.484 43.88,-67.266 z M 2745,820.707 c -47.58,0 -83.46,-35.891 -83.46,-83.477 0,-48.371 35.1,-83.476 83.46,-83.476 50.13,0 83.81,33.543 83.81,83.476 0,48.368 -35.25,83.477 -83.81,83.477" /><path
         id="path64"
         style="fill:#ffffff;fill-opacity:1;fill-rule:nonzero;stroke:none"
         d="M 391.973,1039.13 H 492.09 v -24.04 H 391.973 v 24.04" /><path
         id="path66"
         style="fill:#ffffff;fill-opacity:1;fill-rule:nonzero;stroke:none"
         d="m 491.992,1054.64 c 0,12.73 18.762,18.07 18.762,40.55 0,12.34 0,16.53 0,16.53 h -29.082 v -16.53 h -25.145 v 16.53 h -29.082 v -16.53 h -25.144 v 16.53 h -29.078 c 0,0 0,-4.39 0,-16.53 0,-21.65 18.75,-27.82 18.75,-40.55 h 100.019" /><path
         id="path68"
         style="fill:#ffffff;fill-opacity:1;fill-rule:nonzero;stroke:none"
         d="m 212.457,975.832 h 99.863 v 24.055 h -99.863 v -24.055" /><path
         id="path70"
         style="fill:#ffffff;fill-opacity:1;fill-rule:nonzero;stroke:none"
         d="m 312.32,1015.09 c 0,12.71 18.914,18.06 18.914,40.55 0,12.34 0,16.52 0,16.52 h -29.082 v -16.52 h -25.144 v 16.52 H 247.93 v -16.52 h -25.149 v 16.52 h -29.082 c 0,0 0,-4.39 0,-16.52 0,-21.65 18.758,-27.84 18.758,-40.55 h 99.863" /><path
         id="path72"
         style="fill:#ffffff;fill-opacity:1;fill-rule:nonzero;stroke:none"
         d="m 569.625,975.832 h 99.855 v 24.055 h -99.855 v -24.055" /><path
         id="path74"
         style="fill:#ffffff;fill-opacity:1;fill-rule:nonzero;stroke:none"
         d="m 669.48,1015.09 c 0,12.71 18.918,18.06 18.918,40.55 0,12.34 0,16.52 0,16.52 H 659.32 v -16.52 h -25.144 v 16.52 h -29.082 v -16.52 h -25.149 v 16.52 h -29.078 c 0,0 0,-4.39 0,-16.52 0,-21.65 18.758,-27.84 18.758,-40.55 h 99.855" /><path
         id="path76"
         style="fill:#ffffff;fill-opacity:1;fill-rule:nonzero;stroke:none"
         d="m 441.656,278.793 c -35.879,0 -65.074,-29.199 -65.074,-65.078 0,-35.879 29.195,-65 65.074,-65 35.883,0 65.059,29.121 65.059,65 0,35.879 -29.176,65.078 -65.059,65.078" /><path
         id="path78"
         style="fill:#ffffff;fill-opacity:1;fill-rule:nonzero;stroke:none"
         d="m 220.414,826.43 c -35.879,0 -65.07,-29.2 -65.07,-65.039 0,-35.879 29.191,-65.078 65.07,-65.078 35.879,0 65.074,29.199 65.074,65.078 0,35.839 -29.195,65.039 -65.074,65.039" /><path
         id="path80"
         style="fill:#ffffff;fill-opacity:1;fill-rule:nonzero;stroke:none"
         d="m 662.18,826.43 c -35.887,0 -65.078,-29.2 -65.078,-65.039 0,-35.879 29.191,-65.078 65.078,-65.078 35.879,0 65.05,29.199 65.05,65.078 0,35.839 -29.171,65.039 -65.05,65.039" /><path
         id="path82"
         style="fill:#ffffff;fill-opacity:1;fill-rule:nonzero;stroke:none"
         d="M 839.723,652.777 H 42.3828 V 870.648 H 406.836 v 50.508 c 0,18.848 15.273,34.121 34.121,34.121 18.844,0 34.121,-15.273 34.121,-34.121 V 870.648 H 839.723 Z M 484.82,530.961 v 86.758 h 86.735 v -86.758 h 86.804 v 86.758 h 86.778 v -86.758 h -86.778 v -86.797 h 86.778 v -86.777 h -86.778 v 86.777 H 571.555 V 357.387 H 484.82 v 86.777 h -86.808 v 86.797 h -86.746 v 86.758 h 86.746 v -86.758 z m -347.386,0 v 86.758 h 86.781 v -86.758 h 86.777 v -86.797 h 86.75 v -86.777 h -86.75 v 86.777 h -86.777 v -86.777 h -86.781 v 86.777 h 86.781 v 86.797 z M 638.523,159.574 C 551.902,84.9219 464.008,52.7383 441.055,45.1797 418.105,52.75 330.203,84.9805 243.578,159.66 189.434,206.34 145.527,261.02 112.852,322.328 H 769.309 C 736.633,260.961 692.703,206.262 638.523,159.574 Z m 49.875,752.606 v 5.429 c 0,22.481 -17.031,31.887 -18.918,42.297 h -99.855 c -1.676,-10.695 -18.758,-20.644 -18.758,-42.297 0,-2.089 0,-3.875 0,-5.429 H 529.84 v 5.558 c 0,34.2 20.844,38.895 20.844,60.555 v 21.594 h -29.129 v -16.836 h -18.707 v 16.836 h -29.227 v -16.836 h -18.125 v 16.836 h -14.539 -14.539 v -16.836 h -18.125 v 16.836 h -29.227 v -16.836 h -18.707 v 16.836 h -29.132 v -21.594 c 0,-21.66 20.847,-26.355 20.847,-60.555 v -5.558 h -20.84 c 0,1.554 0,3.332 0,5.429 0,22.481 -17.035,31.887 -18.914,42.297 h -99.863 c -1.676,-10.695 -18.758,-20.644 -18.758,-42.297 V 912.18 L 0,912.18 V 624.672 C 0,511.027 22.8164,407.563 67.8242,317.152 103.922,244.621 154.223,180.434 217.328,126.34 324.613,34.3984 430.852,3.82813 435.316,2.57031 l 5.731,-1.60156 5.726,1.60156 c 4.465,1.25782 110.707,31.75779 217.993,123.67169 63.117,54.074 113.418,118.262 149.511,190.801 45.004,90.43 67.825,193.926 67.825,307.629 V 912.18 H 688.398" /><path
         id="path84"
         style="fill:#ffffff;fill-opacity:1;fill-rule:nonzero;stroke:none"
         d="m 571.555,444.164 v 86.797 H 484.82 v -86.797 h 86.735" /></g></g></svg>
