<svg width="246" height="43" viewBox="0 0 246 43" fill="none" xmlns="http://www.w3.org/2000/svg">
<path d="M1.26966 20.3145C1.97088 20.3145 2.53933 20.883 2.53933 21.5842C2.53933 22.2854 1.97088 22.8539 1.26966 22.8539C0.568447 22.8539 0 22.2854 0 21.5842C0 20.883 0.568447 20.3145 1.26966 20.3145Z" fill="white"/>
<path d="M41.8989 20.3145C42.6001 20.3145 43.1685 20.883 43.1685 21.5842C43.1685 22.2854 42.6001 22.8539 41.8989 22.8539C41.1977 22.8539 40.6292 22.2854 40.6292 21.5842C40.6292 20.883 41.1977 20.3145 41.8989 20.3145Z" fill="white"/>
<path d="M82.5281 20.3145C83.2293 20.3145 83.7978 20.883 83.7978 21.5842C83.7978 22.2854 83.2293 22.8539 82.5281 22.8539C81.8269 22.8539 81.2584 22.2854 81.2584 21.5842C81.2584 20.883 81.8269 20.3145 82.5281 20.3145Z" fill="white"/>
<path d="M123.157 20.3145C123.859 20.3145 124.427 20.883 124.427 21.5842C124.427 22.2854 123.859 22.8539 123.157 22.8539C122.456 22.8539 121.888 22.2854 121.888 21.5842C121.888 20.883 122.456 20.3145 123.157 20.3145Z" fill="white"/>
<path d="M163.787 20.3145C164.488 20.3145 165.056 20.883 165.056 21.5842C165.056 22.2854 164.488 22.8539 163.787 22.8539C163.085 22.8539 162.517 22.2854 162.517 21.5842C162.517 20.883 163.085 20.3145 163.787 20.3145Z" fill="white"/>
<path d="M204.416 20.3145C205.117 20.3145 205.685 20.883 205.685 21.5842C205.685 22.2854 205.117 22.8539 204.416 22.8539C203.715 22.8539 203.146 22.2854 203.146 21.5842C203.146 20.883 203.715 20.3145 204.416 20.3145Z" fill="white"/>
<path d="M21.5843 20.3145C22.2855 20.3145 22.8539 20.883 22.8539 21.5842C22.8539 22.2854 22.2855 22.8539 21.5843 22.8539C20.8831 22.8539 20.3146 22.2854 20.3146 21.5842C20.3146 20.883 20.8831 20.3145 21.5843 20.3145Z" fill="white"/>
<path d="M62.2135 20.3145C62.9147 20.3145 63.4831 20.883 63.4831 21.5842C63.4831 22.2854 62.9147 22.8539 62.2135 22.8539C61.5123 22.8539 60.9438 22.2854 60.9438 21.5842C60.9438 20.883 61.5123 20.3145 62.2135 20.3145Z" fill="white"/>
<path d="M102.843 20.3145C103.544 20.3145 104.112 20.883 104.112 21.5842C104.112 22.2854 103.544 22.8539 102.843 22.8539C102.141 22.8539 101.573 22.2854 101.573 21.5842C101.573 20.883 102.141 20.3145 102.843 20.3145Z" fill="white"/>
<path d="M143.472 20.3145C144.173 20.3145 144.742 20.883 144.742 21.5842C144.742 22.2854 144.173 22.8539 143.472 22.8539C142.771 22.8539 142.202 22.2854 142.202 21.5842C142.202 20.883 142.771 20.3145 143.472 20.3145Z" fill="white"/>
<path d="M184.101 20.3145C184.802 20.3145 185.371 20.883 185.371 21.5842C185.371 22.2854 184.802 22.8539 184.101 22.8539C183.4 22.8539 182.831 22.2854 182.831 21.5842C182.831 20.883 183.4 20.3145 184.101 20.3145Z" fill="white"/>
<path d="M224.73 20.3145C225.432 20.3145 226 20.883 226 21.5842C226 22.2854 225.432 22.8539 224.73 22.8539C224.029 22.8539 223.461 22.2854 223.461 21.5842C223.461 20.883 224.029 20.3145 224.73 20.3145Z" fill="white"/>
<path d="M1.26966 -3.05176e-05C1.97088 -3.05176e-05 2.53933 0.568417 2.53933 1.26963C2.53933 1.97085 1.97088 2.5393 1.26966 2.5393C0.568447 2.5393 0 1.97085 0 1.26963C0 0.568417 0.568447 -3.05176e-05 1.26966 -3.05176e-05Z" fill="white"/>
<path d="M41.8989 -3.05176e-05C42.6001 -3.05176e-05 43.1685 0.568417 43.1685 1.26963C43.1685 1.97085 42.6001 2.5393 41.8989 2.5393C41.1977 2.5393 40.6292 1.97085 40.6292 1.26963C40.6292 0.568417 41.1977 -3.05176e-05 41.8989 -3.05176e-05Z" fill="white"/>
<path d="M82.5281 -3.05176e-05C83.2293 -3.05176e-05 83.7978 0.568417 83.7978 1.26963C83.7978 1.97085 83.2293 2.5393 82.5281 2.5393C81.8269 2.5393 81.2584 1.97085 81.2584 1.26963C81.2584 0.568417 81.8269 -3.05176e-05 82.5281 -3.05176e-05Z" fill="white"/>
<path d="M123.157 -3.05176e-05C123.859 -3.05176e-05 124.427 0.568417 124.427 1.26963C124.427 1.97085 123.859 2.5393 123.157 2.5393C122.456 2.5393 121.888 1.97085 121.888 1.26963C121.888 0.568417 122.456 -3.05176e-05 123.157 -3.05176e-05Z" fill="white"/>
<path d="M163.787 -3.05176e-05C164.488 -3.05176e-05 165.056 0.568417 165.056 1.26963C165.056 1.97085 164.488 2.5393 163.787 2.5393C163.085 2.5393 162.517 1.97085 162.517 1.26963C162.517 0.568417 163.085 -3.05176e-05 163.787 -3.05176e-05Z" fill="white"/>
<path d="M204.416 -3.05176e-05C205.117 -3.05176e-05 205.685 0.568417 205.685 1.26963C205.685 1.97085 205.117 2.5393 204.416 2.5393C203.715 2.5393 203.146 1.97085 203.146 1.26963C203.146 0.568417 203.715 -3.05176e-05 204.416 -3.05176e-05Z" fill="white"/>
<path d="M21.5843 -3.05176e-05C22.2855 -3.05176e-05 22.8539 0.568417 22.8539 1.26963C22.8539 1.97085 22.2855 2.5393 21.5843 2.5393C20.8831 2.5393 20.3146 1.97085 20.3146 1.26963C20.3146 0.568417 20.8831 -3.05176e-05 21.5843 -3.05176e-05Z" fill="white"/>
<path d="M62.2135 -3.05176e-05C62.9147 -3.05176e-05 63.4831 0.568417 63.4831 1.26963C63.4831 1.97085 62.9147 2.5393 62.2135 2.5393C61.5123 2.5393 60.9438 1.97085 60.9438 1.26963C60.9438 0.568417 61.5123 -3.05176e-05 62.2135 -3.05176e-05Z" fill="white"/>
<path d="M102.843 -3.05176e-05C103.544 -3.05176e-05 104.112 0.568417 104.112 1.26963C104.112 1.97085 103.544 2.5393 102.843 2.5393C102.141 2.5393 101.573 1.97085 101.573 1.26963C101.573 0.568417 102.141 -3.05176e-05 102.843 -3.05176e-05Z" fill="white"/>
<path d="M143.472 -3.05176e-05C144.173 -3.05176e-05 144.742 0.568417 144.742 1.26963C144.742 1.97085 144.173 2.5393 143.472 2.5393C142.771 2.5393 142.202 1.97085 142.202 1.26963C142.202 0.568417 142.771 -3.05176e-05 143.472 -3.05176e-05Z" fill="white"/>
<path d="M184.101 -3.05176e-05C184.802 -3.05176e-05 185.371 0.568417 185.371 1.26963C185.371 1.97085 184.802 2.5393 184.101 2.5393C183.4 2.5393 182.831 1.97085 182.831 1.26963C182.831 0.568417 183.4 -3.05176e-05 184.101 -3.05176e-05Z" fill="white"/>
<path d="M224.73 -3.05176e-05C225.432 -3.05176e-05 226 0.568417 226 1.26963C226 1.97085 225.432 2.5393 224.73 2.5393C224.029 2.5393 223.461 1.97085 223.461 1.26963C223.461 0.568417 224.029 -3.05176e-05 224.73 -3.05176e-05Z" fill="white"/>
</svg>
