<svg width="246" height="43" viewBox="0 0 246 43" fill="none" xmlns="http://www.w3.org/2000/svg">
<path d="M1.26966 20.3146C1.97088 20.3146 2.53933 20.883 2.53933 21.5842C2.53933 22.2855 1.97088 22.8539 1.26966 22.8539C0.568447 22.8539 0 22.2855 0 21.5842C0 20.883 0.568447 20.3146 1.26966 20.3146Z" fill="white" fill-opacity="0.5"/>
<path d="M41.8989 20.3146C42.6001 20.3146 43.1685 20.883 43.1685 21.5842C43.1685 22.2855 42.6001 22.8539 41.8989 22.8539C41.1977 22.8539 40.6292 22.2855 40.6292 21.5842C40.6292 20.883 41.1977 20.3146 41.8989 20.3146Z" fill="white" fill-opacity="0.5"/>
<path d="M82.5281 20.3146C83.2293 20.3146 83.7978 20.883 83.7978 21.5842C83.7978 22.2855 83.2293 22.8539 82.5281 22.8539C81.8269 22.8539 81.2584 22.2855 81.2584 21.5842C81.2584 20.883 81.8269 20.3146 82.5281 20.3146Z" fill="white" fill-opacity="0.5"/>
<path d="M123.157 20.3146C123.859 20.3146 124.427 20.883 124.427 21.5842C124.427 22.2855 123.859 22.8539 123.157 22.8539C122.456 22.8539 121.888 22.2855 121.888 21.5842C121.888 20.883 122.456 20.3146 123.157 20.3146Z" fill="white" fill-opacity="0.5"/>
<path d="M163.787 20.3146C164.488 20.3146 165.056 20.883 165.056 21.5842C165.056 22.2855 164.488 22.8539 163.787 22.8539C163.085 22.8539 162.517 22.2855 162.517 21.5842C162.517 20.883 163.085 20.3146 163.787 20.3146Z" fill="white" fill-opacity="0.5"/>
<path d="M204.416 20.3146C205.117 20.3146 205.685 20.883 205.685 21.5842C205.685 22.2855 205.117 22.8539 204.416 22.8539C203.715 22.8539 203.146 22.2855 203.146 21.5842C203.146 20.883 203.715 20.3146 204.416 20.3146Z" fill="white" fill-opacity="0.5"/>
<path d="M21.5843 20.3146C22.2855 20.3146 22.8539 20.883 22.8539 21.5842C22.8539 22.2855 22.2855 22.8539 21.5843 22.8539C20.8831 22.8539 20.3146 22.2855 20.3146 21.5842C20.3146 20.883 20.8831 20.3146 21.5843 20.3146Z" fill="white" fill-opacity="0.5"/>
<path d="M62.2135 20.3146C62.9147 20.3146 63.4831 20.883 63.4831 21.5842C63.4831 22.2855 62.9147 22.8539 62.2135 22.8539C61.5123 22.8539 60.9438 22.2855 60.9438 21.5842C60.9438 20.883 61.5123 20.3146 62.2135 20.3146Z" fill="white" fill-opacity="0.5"/>
<path d="M102.843 20.3146C103.544 20.3146 104.112 20.883 104.112 21.5842C104.112 22.2855 103.544 22.8539 102.843 22.8539C102.141 22.8539 101.573 22.2855 101.573 21.5842C101.573 20.883 102.141 20.3146 102.843 20.3146Z" fill="white" fill-opacity="0.5"/>
<path d="M143.472 20.3146C144.173 20.3146 144.742 20.883 144.742 21.5842C144.742 22.2855 144.173 22.8539 143.472 22.8539C142.771 22.8539 142.202 22.2855 142.202 21.5842C142.202 20.883 142.771 20.3146 143.472 20.3146Z" fill="white" fill-opacity="0.5"/>
<path d="M184.101 20.3146C184.802 20.3146 185.371 20.883 185.371 21.5842C185.371 22.2855 184.802 22.8539 184.101 22.8539C183.4 22.8539 182.831 22.2855 182.831 21.5842C182.831 20.883 183.4 20.3146 184.101 20.3146Z" fill="white" fill-opacity="0.5"/>
<path d="M224.73 20.3146C225.432 20.3146 226 20.883 226 21.5842C226 22.2855 225.432 22.8539 224.73 22.8539C224.029 22.8539 223.461 22.2855 223.461 21.5842C223.461 20.883 224.029 20.3146 224.73 20.3146Z" fill="white" fill-opacity="0.5"/>
<path d="M1.26966 0C1.97088 0 2.53933 0.568447 2.53933 1.26966C2.53933 1.97088 1.97088 2.53933 1.26966 2.53933C0.568447 2.53933 0 1.97088 0 1.26966C0 0.568447 0.568447 0 1.26966 0Z" fill="white" fill-opacity="0.5"/>
<path d="M41.8989 0C42.6001 0 43.1685 0.568447 43.1685 1.26966C43.1685 1.97088 42.6001 2.53933 41.8989 2.53933C41.1977 2.53933 40.6292 1.97088 40.6292 1.26966C40.6292 0.568447 41.1977 0 41.8989 0Z" fill="white" fill-opacity="0.5"/>
<path d="M82.5281 0C83.2293 0 83.7978 0.568447 83.7978 1.26966C83.7978 1.97088 83.2293 2.53933 82.5281 2.53933C81.8269 2.53933 81.2584 1.97088 81.2584 1.26966C81.2584 0.568447 81.8269 0 82.5281 0Z" fill="white" fill-opacity="0.5"/>
<path d="M123.157 0C123.859 0 124.427 0.568447 124.427 1.26966C124.427 1.97088 123.859 2.53933 123.157 2.53933C122.456 2.53933 121.888 1.97088 121.888 1.26966C121.888 0.568447 122.456 0 123.157 0Z" fill="white" fill-opacity="0.5"/>
<path d="M163.787 0C164.488 0 165.056 0.568447 165.056 1.26966C165.056 1.97088 164.488 2.53933 163.787 2.53933C163.085 2.53933 162.517 1.97088 162.517 1.26966C162.517 0.568447 163.085 0 163.787 0Z" fill="white" fill-opacity="0.5"/>
<path d="M204.416 0C205.117 0 205.685 0.568447 205.685 1.26966C205.685 1.97088 205.117 2.53933 204.416 2.53933C203.715 2.53933 203.146 1.97088 203.146 1.26966C203.146 0.568447 203.715 0 204.416 0Z" fill="white" fill-opacity="0.5"/>
<path d="M21.5843 0C22.2855 0 22.8539 0.568447 22.8539 1.26966C22.8539 1.97088 22.2855 2.53933 21.5843 2.53933C20.8831 2.53933 20.3146 1.97088 20.3146 1.26966C20.3146 0.568447 20.8831 0 21.5843 0Z" fill="white" fill-opacity="0.5"/>
<path d="M62.2135 0C62.9147 0 63.4831 0.568447 63.4831 1.26966C63.4831 1.97088 62.9147 2.53933 62.2135 2.53933C61.5123 2.53933 60.9438 1.97088 60.9438 1.26966C60.9438 0.568447 61.5123 0 62.2135 0Z" fill="white" fill-opacity="0.5"/>
<path d="M102.843 0C103.544 0 104.112 0.568447 104.112 1.26966C104.112 1.97088 103.544 2.53933 102.843 2.53933C102.141 2.53933 101.573 1.97088 101.573 1.26966C101.573 0.568447 102.141 0 102.843 0Z" fill="white" fill-opacity="0.5"/>
<path d="M143.472 0C144.173 0 144.742 0.568447 144.742 1.26966C144.742 1.97088 144.173 2.53933 143.472 2.53933C142.771 2.53933 142.202 1.97088 142.202 1.26966C142.202 0.568447 142.771 0 143.472 0Z" fill="white" fill-opacity="0.5"/>
<path d="M184.101 0C184.802 0 185.371 0.568447 185.371 1.26966C185.371 1.97088 184.802 2.53933 184.101 2.53933C183.4 2.53933 182.831 1.97088 182.831 1.26966C182.831 0.568447 183.4 0 184.101 0Z" fill="white" fill-opacity="0.5"/>
<path d="M224.73 0C225.432 0 226 0.568447 226 1.26966C226 1.97088 225.432 2.53933 224.73 2.53933C224.029 2.53933 223.461 1.97088 223.461 1.26966C223.461 0.568447 224.029 0 224.73 0Z" fill="white" fill-opacity="0.5"/>
</svg>
