<svg width="1400" height="500" viewBox="0 0 1400 500" fill="none" xmlns="http://www.w3.org/2000/svg">
<g clip-path="url(#clip0)">
<g opacity="0.3392">
<path d="M337.271 224.39L423.624 232.627L423.541 233.491L337.189 225.253L337.271 224.39Z" fill="#002145"/>
<path d="M337.765 219.208L424.118 227.446L424.035 228.31L337.683 220.072L337.765 219.208Z" fill="#002145"/>
<path d="M424.612 222.265L338.26 214.027L338.177 214.891L424.53 223.128L424.612 222.265Z" fill="#002145"/>
<path d="M338.754 208.846L425.106 217.084L425.024 217.947L338.672 209.71L338.754 208.846Z" fill="#002145"/>
<path d="M425.601 211.903L339.248 203.665L339.166 204.529L425.518 212.766L425.601 211.903Z" fill="#002145"/>
<path d="M339.743 198.484L426.095 206.722L426.012 207.585L339.66 199.347L339.743 198.484Z" fill="#002145"/>
<path d="M426.589 201.54L340.237 193.303L340.154 194.166L426.507 202.404L426.589 201.54Z" fill="#002145"/>
<path d="M340.731 188.122L427.083 196.359L427.001 197.223L340.649 188.985L340.731 188.122Z" fill="#002145"/>
<path d="M427.578 191.178L341.225 182.941L341.143 183.804L427.495 192.042L427.578 191.178Z" fill="#002145"/>
<path d="M341.72 177.759L428.072 185.997L427.989 186.86L341.637 178.623L341.72 177.759Z" fill="#002145"/>
<path d="M428.566 180.816L342.214 172.578L342.131 173.442L428.484 181.679L428.566 180.816Z" fill="#002145"/>
<path d="M342.708 167.397L429.06 175.635L428.978 176.498L342.626 168.261L342.708 167.397Z" fill="#002145"/>
<path d="M429.555 170.454L343.202 162.216L343.12 163.079L429.472 171.317L429.555 170.454Z" fill="#002145"/>
<path d="M343.697 157.035L430.049 165.272L429.967 166.136L343.614 157.898L343.697 157.035Z" fill="#002145"/>
<path d="M430.543 160.091L344.191 151.854L344.108 152.717L430.461 160.955L430.543 160.091Z" fill="#002145"/>
<path d="M344.685 146.673L431.037 154.91L430.955 155.774L344.603 147.536L344.685 146.673Z" fill="#002145"/>
<path d="M431.532 149.729L345.179 141.491L345.097 142.355L431.449 150.593L431.532 149.729Z" fill="#002145"/>
<path d="M345.674 136.31L432.026 144.548L431.944 145.411L345.591 137.174L345.674 136.31Z" fill="#002145"/>
<path d="M432.52 139.367L346.168 131.129L346.085 131.993L432.438 140.23L432.52 139.367Z" fill="#002145"/>
<path d="M346.662 125.948L433.014 134.186L432.932 135.049L346.58 126.812L346.662 125.948Z" fill="#002145"/>
<path d="M433.509 129.004L347.156 120.767L347.074 121.63L433.426 129.868L433.509 129.004Z" fill="#002145"/>
<path d="M347.651 115.586L434.003 123.823L433.921 124.687L347.568 116.449L347.651 115.586Z" fill="#002145"/>
<path d="M434.497 118.642L348.145 110.405L348.063 111.268L434.415 119.506L434.497 118.642Z" fill="#002145"/>
<path d="M348.639 105.223L434.991 113.461L434.909 114.325L348.557 106.087L348.639 105.223Z" fill="#002145"/>
<path d="M435.486 108.28L349.133 100.042L349.051 100.906L435.403 109.143L435.486 108.28Z" fill="#002145"/>
<path d="M349.628 94.8611L435.98 103.099L435.898 103.962L349.545 95.7247L349.628 94.8611Z" fill="#002145"/>
<path d="M436.474 97.9176L350.122 89.68L350.04 90.5435L436.392 98.7811L436.474 97.9176Z" fill="#002145"/>
<path d="M350.616 84.4989L436.968 92.7365L436.886 93.6L350.534 85.3624L350.616 84.4989Z" fill="#002145"/>
<path d="M437.463 87.5553L351.11 79.3177L351.028 80.1813L437.38 88.4189L437.463 87.5553Z" fill="#002145"/>
<path d="M351.605 74.1366L437.957 82.3742L437.875 83.2377L351.522 75.0001L351.605 74.1366Z" fill="#002145"/>
<path d="M438.451 77.1931L352.099 68.9554L352.017 69.819L438.369 78.0566L438.451 77.1931Z" fill="#002145"/>
<path d="M352.593 63.7743L438.946 72.0119L438.863 72.8755L352.511 64.6378L352.593 63.7743Z" fill="#002145"/>
<path d="M439.44 66.8308L353.087 58.5932L353.005 59.4567L439.357 67.6943L439.44 66.8308Z" fill="#002145"/>
<path d="M353.582 53.412L439.934 61.6496L439.852 62.5132L353.499 54.2756L353.582 53.412Z" fill="#002145"/>
<path d="M440.428 56.4685L354.076 48.2309L353.994 49.0944L440.346 57.332L440.428 56.4685Z" fill="#002145"/>
<path d="M354.57 43.0498L440.923 51.2874L440.84 52.1509L354.488 43.9133L354.57 43.0498Z" fill="#002145"/>
<path d="M441.417 46.1062L355.064 37.8686L354.982 38.7321L441.334 46.9698L441.417 46.1062Z" fill="#002145"/>
<path d="M355.559 32.6875L441.911 40.9251L441.829 41.7886L355.476 33.551L355.559 32.6875Z" fill="#002145"/>
<path d="M442.405 35.7439L356.053 27.5063L355.971 28.3699L442.323 36.6075L442.405 35.7439Z" fill="#002145"/>
<path d="M356.547 22.3252L442.9 30.5628L442.817 31.4263L356.465 23.1887L356.547 22.3252Z" fill="#002145"/>
<path d="M443.394 25.3817L357.042 17.1441L356.959 18.0076L443.311 26.2452L443.394 25.3817Z" fill="#002145"/>
<path d="M357.536 11.9629L443.888 20.2005L443.806 21.0641L357.453 12.8264L357.536 11.9629Z" fill="#002145"/>
<path d="M444.382 15.0194L358.03 6.78178L357.948 7.6453L444.3 15.8829L444.382 15.0194Z" fill="#002145"/>
<path d="M358.524 1.60064L444.877 9.83826L444.794 10.7018L358.442 2.46416L358.524 1.60064Z" fill="#002145"/>
<path d="M445.371 4.65712L359.019 -3.58049L358.936 -2.71697L445.288 5.52064L445.371 4.65712Z" fill="#002145"/>
<path d="M359.513 -8.76164L445.865 -0.524024L445.783 0.339496L359.43 -7.89811L359.513 -8.76164Z" fill="#002145"/>
<path d="M446.359 -5.70516L360.007 -13.9428L359.925 -13.0792L446.277 -4.84163L446.359 -5.70516Z" fill="#002145"/>
</g>
<g opacity="0.2">
<path d="M-22.6572 363.113L62.6289 378.952L62.4705 379.805L-22.8155 363.966L-22.6572 363.113Z" fill="#002145"/>
<path d="M-21.7068 357.996L63.5792 373.835L63.4209 374.688L-21.8652 358.849L-21.7068 357.996Z" fill="#002145"/>
<path d="M64.5296 368.718L-20.7565 352.879L-20.9149 353.732L64.3712 369.571L64.5296 368.718Z" fill="#002145"/>
<path d="M-19.8062 347.762L65.4799 363.601L65.3215 364.453L-19.9646 348.615L-19.8062 347.762Z" fill="#002145"/>
<path d="M66.4302 358.483L-18.8558 342.645L-19.0142 343.497L66.2718 359.336L66.4302 358.483Z" fill="#002145"/>
<path d="M-17.9055 337.527L67.3805 353.366L67.2222 354.219L-18.0639 338.38L-17.9055 337.527Z" fill="#002145"/>
<path d="M68.3309 348.249L-16.9552 332.41L-17.1136 333.263L68.1725 349.102L68.3309 348.249Z" fill="#002145"/>
<path d="M-16.0049 327.293L69.2812 343.132L69.1228 343.985L-16.1632 328.146L-16.0049 327.293Z" fill="#002145"/>
<path d="M70.2315 338.015L-15.0545 322.176L-15.2129 323.029L70.0732 338.868L70.2315 338.015Z" fill="#002145"/>
<path d="M-14.1042 317.059L71.1819 332.898L71.0235 333.75L-14.2626 317.912L-14.1042 317.059Z" fill="#002145"/>
<path d="M72.1322 327.78L-13.1539 311.942L-13.3123 312.794L71.9738 328.633L72.1322 327.78Z" fill="#002145"/>
<path d="M-12.2035 306.824L73.0825 322.663L72.9241 323.516L-12.3619 307.677L-12.2035 306.824Z" fill="#002145"/>
<path d="M74.0328 317.546L-11.2532 301.707L-11.4116 302.56L73.8744 318.399L74.0328 317.546Z" fill="#002145"/>
<path d="M-10.3029 296.59L74.9832 312.429L74.8248 313.282L-10.4613 297.443L-10.3029 296.59Z" fill="#002145"/>
<path d="M75.9335 307.312L-9.35256 291.473L-9.51095 292.326L75.7751 308.165L75.9335 307.312Z" fill="#002145"/>
<path d="M-8.40223 286.356L76.8838 302.195L76.7254 303.047L-8.56062 287.209L-8.40223 286.356Z" fill="#002145"/>
<path d="M77.8342 297.077L-7.4519 281.239L-7.61029 282.092L77.6758 297.93L77.8342 297.077Z" fill="#002145"/>
<path d="M-6.50158 276.121L78.7845 291.96L78.6261 292.813L-6.65996 276.974L-6.50158 276.121Z" fill="#002145"/>
<path d="M79.7348 286.843L-5.55125 271.004L-5.70964 271.857L79.5764 287.696L79.7348 286.843Z" fill="#002145"/>
<path d="M-4.60092 265.887L80.6851 281.726L80.5267 282.579L-4.75931 266.74L-4.60092 265.887Z" fill="#002145"/>
<path d="M81.6355 276.609L-3.65059 260.77L-3.80898 261.623L81.4771 277.462L81.6355 276.609Z" fill="#002145"/>
<path d="M-2.70026 255.653L82.5858 271.492L82.4274 272.345L-2.85865 256.506L-2.70026 255.653Z" fill="#002145"/>
<path d="M83.5361 266.374L-1.74994 250.536L-1.90833 251.389L83.3777 267.227L83.5361 266.374Z" fill="#002145"/>
<path d="M-0.799608 245.419L84.4865 261.257L84.3281 262.11L-0.957998 246.271L-0.799608 245.419Z" fill="#002145"/>
<path d="M85.4368 256.14L0.150714 240.301L-0.0076692 241.154L85.2784 256.993L85.4368 256.14Z" fill="#002145"/>
<path d="M1.10105 235.184L86.3871 251.023L86.2287 251.876L0.942659 236.037L1.10105 235.184Z" fill="#002145"/>
<path d="M87.3374 245.906L2.05137 230.067L1.89299 230.92L87.1791 246.759L87.3374 245.906Z" fill="#002145"/>
<path d="M3.0017 224.95L88.2878 240.789L88.1294 241.642L2.84331 225.803L3.0017 224.95Z" fill="#002145"/>
<path d="M89.2381 235.671L3.95203 219.833L3.79364 220.686L89.0797 236.524L89.2381 235.671Z" fill="#002145"/>
<path d="M4.90236 214.716L90.1884 230.554L90.03 231.407L4.74396 215.568L4.90236 214.716Z" fill="#002145"/>
<path d="M91.1387 225.437L5.85269 209.598L5.69431 210.451L90.9804 226.29L91.1387 225.437Z" fill="#002145"/>
<path d="M6.80302 204.481L92.0891 220.32L91.9307 221.173L6.64463 205.334L6.80302 204.481Z" fill="#002145"/>
<path d="M93.0394 215.203L7.75334 199.364L7.59496 200.217L92.881 216.056L93.0394 215.203Z" fill="#002145"/>
<path d="M8.70367 194.247L93.9897 210.086L93.8313 210.939L8.54528 195.1L8.70367 194.247Z" fill="#002145"/>
<path d="M94.9401 204.969L9.654 189.13L9.49561 189.983L94.7817 205.821L94.9401 204.969Z" fill="#002145"/>
<path d="M10.6043 184.013L95.8904 199.851L95.732 200.704L10.4459 184.865L10.6043 184.013Z" fill="#002145"/>
<path d="M96.8407 194.734L11.5546 178.895L11.3963 179.748L96.6823 195.587L96.8407 194.734Z" fill="#002145"/>
<path d="M12.505 173.778L97.791 189.617L97.6327 190.47L12.3466 174.631L12.505 173.778Z" fill="#002145"/>
<path d="M98.7414 184.5L13.4553 168.661L13.2969 169.514L98.583 185.353L98.7414 184.5Z" fill="#002145"/>
<path d="M14.4056 163.544L99.6917 179.383L99.5333 180.236L14.2472 164.397L14.4056 163.544Z" fill="#002145"/>
<path d="M100.642 174.266L15.356 158.427L15.1976 159.28L100.484 175.118L100.642 174.266Z" fill="#002145"/>
<path d="M16.3063 153.31L101.592 169.148L101.434 170.001L16.1479 154.162L16.3063 153.31Z" fill="#002145"/>
<path d="M102.543 164.031L17.2566 148.192L17.0982 149.045L102.384 164.884L102.543 164.031Z" fill="#002145"/>
<path d="M18.207 143.075L103.493 158.914L103.335 159.767L18.0486 143.928L18.207 143.075Z" fill="#002145"/>
<path d="M104.443 153.797L19.1573 137.958L18.9989 138.811L104.285 154.65L104.443 153.797Z" fill="#002145"/>
<path d="M20.1076 132.841L105.394 148.68L105.235 149.533L19.9492 133.694L20.1076 132.841Z" fill="#002145"/>
<path d="M106.344 143.563L21.0579 127.724L20.8995 128.577L106.186 144.415L106.344 143.563Z" fill="#002145"/>
</g>
<g opacity="0.2483">
<path d="M-4.86233 328.496L33.491 406.301L32.713 406.684L-5.64038 328.879L-4.86233 328.496Z" fill="#002145"/>
<path d="M-0.194036 326.194L38.1593 403.999L37.3813 404.383L-0.97209 326.578L-0.194036 326.194Z" fill="#002145"/>
<path d="M42.8276 401.698L4.47426 323.893L3.69621 324.277L42.0496 402.082L42.8276 401.698Z" fill="#002145"/>
<path d="M9.14255 321.592L47.4959 399.397L46.7179 399.78L8.3645 321.976L9.14255 321.592Z" fill="#002145"/>
<path d="M52.1642 397.096L13.8108 319.291L13.0328 319.674L51.3861 397.479L52.1642 397.096Z" fill="#002145"/>
<path d="M18.4791 316.99L56.8325 394.794L56.0544 395.178L17.7011 317.373L18.4791 316.99Z" fill="#002145"/>
<path d="M61.5008 392.493L23.1474 314.688L22.3694 315.072L60.7227 392.877L61.5008 392.493Z" fill="#002145"/>
<path d="M27.8157 312.387L66.1691 390.192L65.391 390.576L27.0377 312.771L27.8157 312.387Z" fill="#002145"/>
<path d="M70.8374 387.891L32.484 310.086L31.706 310.47L70.0593 388.274L70.8374 387.891Z" fill="#002145"/>
<path d="M37.1523 307.785L75.5057 385.59L74.7276 385.973L36.3743 308.168L37.1523 307.785Z" fill="#002145"/>
<path d="M80.174 383.288L41.8206 305.484L41.0426 305.867L79.3959 383.672L80.174 383.288Z" fill="#002145"/>
<path d="M46.4889 303.182L84.8422 380.987L84.0642 381.371L45.7108 303.566L46.4889 303.182Z" fill="#002145"/>
<path d="M89.5105 378.686L51.1572 300.881L50.3791 301.265L88.7325 379.07L89.5105 378.686Z" fill="#002145"/>
<path d="M55.8255 298.58L94.1788 376.385L93.4008 376.768L55.0474 298.964L55.8255 298.58Z" fill="#002145"/>
<path d="M98.8471 374.084L60.4938 296.279L59.7157 296.662L98.0691 374.467L98.8471 374.084Z" fill="#002145"/>
<path d="M65.1621 293.978L103.515 371.782L102.737 372.166L64.384 294.361L65.1621 293.978Z" fill="#002145"/>
<path d="M108.184 369.481L69.8304 291.676L69.0523 292.06L107.406 369.865L108.184 369.481Z" fill="#002145"/>
<path d="M74.4987 289.375L112.852 367.18L112.074 367.564L73.7206 289.759L74.4987 289.375Z" fill="#002145"/>
<path d="M117.52 364.879L79.167 287.074L78.3889 287.458L116.742 365.262L117.52 364.879Z" fill="#002145"/>
<path d="M83.8352 284.773L122.189 362.578L121.411 362.961L83.0572 285.156L83.8352 284.773Z" fill="#002145"/>
<path d="M126.857 360.276L88.5035 282.472L87.7255 282.855L126.079 360.66L126.857 360.276Z" fill="#002145"/>
<path d="M93.1718 280.17L131.525 357.975L130.747 358.359L92.3938 280.554L93.1718 280.17Z" fill="#002145"/>
<path d="M136.193 355.674L97.8401 277.869L97.0621 278.253L135.415 356.058L136.193 355.674Z" fill="#002145"/>
<path d="M102.508 275.568L140.862 353.373L140.084 353.756L101.73 275.952L102.508 275.568Z" fill="#002145"/>
<path d="M145.53 351.072L107.177 273.267L106.399 273.65L144.752 351.455L145.53 351.072Z" fill="#002145"/>
<path d="M111.845 270.966L150.198 348.77L149.42 349.154L111.067 271.349L111.845 270.966Z" fill="#002145"/>
<path d="M154.867 346.469L116.513 268.664L115.735 269.048L154.089 346.853L154.867 346.469Z" fill="#002145"/>
<path d="M121.182 266.363L159.535 344.168L158.757 344.552L120.404 266.747L121.182 266.363Z" fill="#002145"/>
<path d="M164.203 341.867L125.85 264.062L125.072 264.446L163.425 342.25L164.203 341.867Z" fill="#002145"/>
<path d="M130.518 261.761L168.872 339.566L168.093 339.949L129.74 262.144L130.518 261.761Z" fill="#002145"/>
<path d="M173.54 337.264L135.186 259.46L134.408 259.843L172.762 337.648L173.54 337.264Z" fill="#002145"/>
<path d="M139.855 257.158L178.208 334.963L177.43 335.347L139.077 257.542L139.855 257.158Z" fill="#002145"/>
<path d="M182.876 332.662L144.523 254.857L143.745 255.241L182.098 333.046L182.876 332.662Z" fill="#002145"/>
<path d="M149.191 252.556L187.545 330.361L186.767 330.744L148.413 252.94L149.191 252.556Z" fill="#002145"/>
<path d="M192.213 328.06L153.86 250.255L153.082 250.638L191.435 328.443L192.213 328.06Z" fill="#002145"/>
<path d="M158.528 247.954L196.881 325.758L196.103 326.142L157.75 248.337L158.528 247.954Z" fill="#002145"/>
<path d="M201.55 323.457L163.196 245.652L162.418 246.036L200.772 323.841L201.55 323.457Z" fill="#002145"/>
<path d="M167.865 243.351L206.218 321.156L205.44 321.54L167.086 243.735L167.865 243.351Z" fill="#002145"/>
<path d="M210.886 318.855L172.533 241.05L171.755 241.434L210.108 319.238L210.886 318.855Z" fill="#002145"/>
<path d="M177.201 238.749L215.554 316.554L214.776 316.937L176.423 239.132L177.201 238.749Z" fill="#002145"/>
<path d="M220.223 314.252L181.869 236.448L181.091 236.831L219.445 314.636L220.223 314.252Z" fill="#002145"/>
<path d="M186.538 234.146L224.891 311.951L224.113 312.335L185.76 234.53L186.538 234.146Z" fill="#002145"/>
<path d="M229.559 309.65L191.206 231.845L190.428 232.229L228.781 310.034L229.559 309.65Z" fill="#002145"/>
<path d="M195.874 229.544L234.228 307.349L233.45 307.732L195.096 229.928L195.874 229.544Z" fill="#002145"/>
<path d="M238.896 305.048L200.543 227.243L199.765 227.626L238.118 305.431L238.896 305.048Z" fill="#002145"/>
<path d="M205.211 224.942L243.564 302.746L242.786 303.13L204.433 225.325L205.211 224.942Z" fill="#002145"/>
<path d="M248.233 300.445L209.879 222.64L209.101 223.024L247.454 300.829L248.233 300.445Z" fill="#002145"/>
</g>
<g opacity="0.378">
<path d="M948.953 264.186L887.888 325.794L887.271 325.184L948.337 263.575L948.953 264.186Z" fill="#002145"/>
<path d="M952.649 267.85L891.584 329.458L890.968 328.847L952.033 267.239L952.649 267.85Z" fill="#002145"/>
<path d="M895.281 333.122L956.346 271.514L955.73 270.903L894.664 332.511L895.281 333.122Z" fill="#002145"/>
<path d="M960.042 275.178L898.977 336.786L898.361 336.175L959.426 274.567L960.042 275.178Z" fill="#002145"/>
<path d="M902.674 340.45L963.739 278.842L963.123 278.231L902.057 339.839L902.674 340.45Z" fill="#002145"/>
<path d="M967.435 282.505L906.37 344.114L905.754 343.503L966.819 281.895L967.435 282.505Z" fill="#002145"/>
<path d="M910.067 347.778L971.132 286.169L970.516 285.559L909.45 347.167L910.067 347.778Z" fill="#002145"/>
<path d="M974.828 289.833L913.763 351.442L913.147 350.831L974.212 289.223L974.828 289.833Z" fill="#002145"/>
<path d="M917.46 355.106L978.525 293.497L977.909 292.887L916.843 354.495L917.46 355.106Z" fill="#002145"/>
<path d="M982.221 297.161L921.156 358.77L920.54 358.159L981.605 296.551L982.221 297.161Z" fill="#002145"/>
<path d="M924.853 362.433L985.918 300.825L985.302 300.214L924.236 361.823L924.853 362.433Z" fill="#002145"/>
<path d="M989.614 304.489L928.549 366.097L927.933 365.487L988.998 303.878L989.614 304.489Z" fill="#002145"/>
<path d="M932.246 369.761L993.311 308.153L992.695 307.542L931.629 369.151L932.246 369.761Z" fill="#002145"/>
<path d="M997.007 311.817L935.942 373.425L935.326 372.815L996.391 311.206L997.007 311.817Z" fill="#002145"/>
<path d="M939.639 377.089L1000.7 315.481L1000.09 314.87L939.022 376.479L939.639 377.089Z" fill="#002145"/>
<path d="M1004.4 319.145L943.335 380.753L942.719 380.142L1003.78 318.534L1004.4 319.145Z" fill="#002145"/>
<path d="M947.032 384.417L1008.1 322.809L1007.48 322.198L946.415 383.806L947.032 384.417Z" fill="#002145"/>
<path d="M1011.79 326.473L950.728 388.081L950.112 387.47L1011.18 325.862L1011.79 326.473Z" fill="#002145"/>
<path d="M954.425 391.745L1015.49 330.137L1014.87 329.526L953.808 391.134L954.425 391.745Z" fill="#002145"/>
<path d="M1019.19 333.8L958.121 395.409L957.505 394.798L1018.57 333.19L1019.19 333.8Z" fill="#002145"/>
<path d="M961.818 399.073L1022.88 337.464L1022.27 336.854L961.201 398.462L961.818 399.073Z" fill="#002145"/>
<path d="M1026.58 341.128L965.514 402.737L964.898 402.126L1025.96 340.518L1026.58 341.128Z" fill="#002145"/>
<path d="M969.211 406.401L1030.28 344.792L1029.66 344.182L968.594 405.79L969.211 406.401Z" fill="#002145"/>
<path d="M1033.97 348.456L972.907 410.065L972.291 409.454L1033.36 347.846L1033.97 348.456Z" fill="#002145"/>
<path d="M976.604 413.728L1037.67 352.12L1037.05 351.509L975.987 413.118L976.604 413.728Z" fill="#002145"/>
<path d="M1041.37 355.784L980.3 417.392L979.684 416.782L1040.75 355.173L1041.37 355.784Z" fill="#002145"/>
<path d="M983.997 421.056L1045.06 359.448L1044.45 358.837L983.38 420.446L983.997 421.056Z" fill="#002145"/>
<path d="M1048.76 363.112L987.693 424.72L987.077 424.11L1048.14 362.501L1048.76 363.112Z" fill="#002145"/>
<path d="M991.39 428.384L1052.46 366.776L1051.84 366.165L990.773 427.774L991.39 428.384Z" fill="#002145"/>
<path d="M1056.15 370.44L995.086 432.048L994.47 431.437L1055.54 369.829L1056.15 370.44Z" fill="#002145"/>
<path d="M998.783 435.712L1059.85 374.104L1059.23 373.493L998.166 435.101L998.783 435.712Z" fill="#002145"/>
<path d="M1063.54 377.768L1002.48 439.376L1001.86 438.765L1062.93 377.157L1063.54 377.768Z" fill="#002145"/>
<path d="M1006.18 443.04L1067.24 381.432L1066.62 380.821L1005.56 442.429L1006.18 443.04Z" fill="#002145"/>
<path d="M1070.94 385.095L1009.87 446.704L1009.26 446.093L1070.32 384.485L1070.94 385.095Z" fill="#002145"/>
<path d="M1013.57 450.368L1074.63 388.759L1074.02 388.149L1012.95 449.757L1013.57 450.368Z" fill="#002145"/>
<path d="M1078.33 392.423L1017.27 454.032L1016.65 453.421L1077.71 391.813L1078.33 392.423Z" fill="#002145"/>
<path d="M1020.96 457.696L1082.03 396.087L1081.41 395.477L1020.35 457.085L1020.96 457.696Z" fill="#002145"/>
<path d="M1085.72 399.751L1024.66 461.36L1024.04 460.749L1085.11 399.14L1085.72 399.751Z" fill="#002145"/>
<path d="M1028.35 465.023L1089.42 403.415L1088.8 402.804L1027.74 464.413L1028.35 465.023Z" fill="#002145"/>
<path d="M1093.12 407.079L1032.05 468.687L1031.44 468.077L1092.5 406.468L1093.12 407.079Z" fill="#002145"/>
<path d="M1035.75 472.351L1096.81 410.743L1096.2 410.132L1035.13 471.741L1035.75 472.351Z" fill="#002145"/>
<path d="M1100.51 414.407L1039.44 476.015L1038.83 475.405L1099.89 413.796L1100.51 414.407Z" fill="#002145"/>
<path d="M1043.14 479.679L1104.21 418.071L1103.59 417.46L1042.52 479.068L1043.14 479.679Z" fill="#002145"/>
<path d="M1107.9 421.735L1046.84 483.343L1046.22 482.732L1107.29 421.124L1107.9 421.735Z" fill="#002145"/>
<path d="M1050.53 487.007L1111.6 425.399L1110.98 424.788L1049.92 486.396L1050.53 487.007Z" fill="#002145"/>
<path d="M1115.3 429.063L1054.23 490.671L1053.61 490.06L1114.68 428.452L1115.3 429.063Z" fill="#002145"/>
<path d="M1057.93 494.335L1118.99 432.726L1118.38 432.116L1057.31 493.724L1057.93 494.335Z" fill="#002145"/>
</g>
<g opacity="0.244615">
<path d="M514.229 285.626L577.436 226.216L578.03 226.848L514.824 286.258L514.229 285.626Z" fill="#002145"/>
<path d="M510.665 281.833L573.871 222.423L574.465 223.055L511.259 282.465L510.665 281.833Z" fill="#002145"/>
<path d="M570.306 218.631L507.1 278.041L507.694 278.673L570.901 219.263L570.306 218.631Z" fill="#002145"/>
<path d="M503.536 274.249L566.742 214.838L567.336 215.471L504.13 274.881L503.536 274.249Z" fill="#002145"/>
<path d="M563.177 211.046L499.971 270.456L500.565 271.088L563.771 211.678L563.177 211.046Z" fill="#002145"/>
<path d="M496.406 266.664L559.613 207.254L560.207 207.886L497.001 267.296L496.406 266.664Z" fill="#002145"/>
<path d="M556.048 203.461L492.842 262.871L493.436 263.503L556.642 204.093L556.048 203.461Z" fill="#002145"/>
<path d="M489.277 259.079L552.483 199.669L553.078 200.301L489.871 259.711L489.277 259.079Z" fill="#002145"/>
<path d="M548.919 195.877L485.713 255.287L486.307 255.919L549.513 196.509L548.919 195.877Z" fill="#002145"/>
<path d="M482.148 251.494L545.354 192.084L545.948 192.716L482.742 252.126L482.148 251.494Z" fill="#002145"/>
<path d="M541.79 188.292L478.583 247.702L479.177 248.334L542.384 188.924L541.79 188.292Z" fill="#002145"/>
<path d="M475.019 243.91L538.225 184.499L538.819 185.132L475.613 244.542L475.019 243.91Z" fill="#002145"/>
<path d="M534.66 180.707L471.454 240.117L472.048 240.749L535.254 181.339L534.66 180.707Z" fill="#002145"/>
<path d="M467.89 236.325L531.096 176.915L531.69 177.547L468.484 236.957L467.89 236.325Z" fill="#002145"/>
<path d="M527.531 173.122L464.325 232.532L464.919 233.164L528.125 173.754L527.531 173.122Z" fill="#002145"/>
<path d="M460.76 228.74L523.967 169.33L524.561 169.962L461.354 229.372L460.76 228.74Z" fill="#002145"/>
<path d="M520.402 165.538L457.196 224.948L457.79 225.58L520.996 166.17L520.402 165.538Z" fill="#002145"/>
<path d="M453.631 221.155L516.837 161.745L517.431 162.377L454.225 221.787L453.631 221.155Z" fill="#002145"/>
<path d="M513.273 157.953L450.067 217.363L450.661 217.995L513.867 158.585L513.273 157.953Z" fill="#002145"/>
<path d="M446.502 213.571L509.708 154.16L510.302 154.793L447.096 214.203L446.502 213.571Z" fill="#002145"/>
<path d="M506.144 150.368L442.937 209.778L443.531 210.41L506.738 151L506.144 150.368Z" fill="#002145"/>
<path d="M439.373 205.986L502.579 146.576L503.173 147.208L439.967 206.618L439.373 205.986Z" fill="#002145"/>
<path d="M499.014 142.783L435.808 202.193L436.402 202.825L499.608 143.415L499.014 142.783Z" fill="#002145"/>
<path d="M432.244 198.401L495.45 138.991L496.044 139.623L432.838 199.033L432.244 198.401Z" fill="#002145"/>
<path d="M491.885 135.199L428.679 194.609L429.273 195.241L492.479 135.831L491.885 135.199Z" fill="#002145"/>
<path d="M425.114 190.816L488.321 131.406L488.915 132.038L425.708 191.448L425.114 190.816Z" fill="#002145"/>
<path d="M484.756 127.614L421.55 187.024L422.144 187.656L485.35 128.246L484.756 127.614Z" fill="#002145"/>
<path d="M417.985 183.232L481.191 123.822L481.785 124.454L418.579 183.864L417.985 183.232Z" fill="#002145"/>
<path d="M477.627 120.029L414.421 179.439L415.015 180.071L478.221 120.661L477.627 120.029Z" fill="#002145"/>
<path d="M410.856 175.647L474.062 116.237L474.656 116.869L411.45 176.279L410.856 175.647Z" fill="#002145"/>
<path d="M470.498 112.444L407.291 171.854L407.885 172.486L471.092 113.076L470.498 112.444Z" fill="#002145"/>
<path d="M403.727 168.062L466.933 108.652L467.527 109.284L404.321 168.694L403.727 168.062Z" fill="#002145"/>
<path d="M463.368 104.86L400.162 164.27L400.756 164.902L463.962 105.492L463.368 104.86Z" fill="#002145"/>
<path d="M396.598 160.477L459.804 101.067L460.398 101.699L397.192 161.109L396.598 160.477Z" fill="#002145"/>
<path d="M456.239 97.2749L393.033 156.685L393.627 157.317L456.833 97.907L456.239 97.2749Z" fill="#002145"/>
<path d="M389.468 152.893L452.675 93.4825L453.269 94.1146L390.062 153.525L389.468 152.893Z" fill="#002145"/>
<path d="M449.11 89.6901L385.904 149.1L386.498 149.732L449.704 90.3222L449.11 89.6901Z" fill="#002145"/>
<path d="M382.339 145.308L445.545 85.8978L446.139 86.5298L382.933 145.94L382.339 145.308Z" fill="#002145"/>
<path d="M441.981 82.1054L378.775 141.515L379.369 142.148L442.575 82.7375L441.981 82.1054Z" fill="#002145"/>
<path d="M375.21 137.723L438.416 78.313L439.01 78.9451L375.804 138.355L375.21 137.723Z" fill="#002145"/>
<path d="M434.852 74.5207L371.645 133.931L372.239 134.563L435.446 75.1527L434.852 74.5207Z" fill="#002145"/>
<path d="M368.081 130.138L431.287 70.7283L431.881 71.3604L368.675 130.77L368.081 130.138Z" fill="#002145"/>
<path d="M427.722 66.9359L364.516 126.346L365.11 126.978L428.316 67.568L427.722 66.9359Z" fill="#002145"/>
<path d="M360.951 122.554L424.158 63.1436L424.752 63.7756L361.546 123.186L360.951 122.554Z" fill="#002145"/>
<path d="M420.593 59.3512L357.387 118.761L357.981 119.393L421.187 59.9832L420.593 59.3512Z" fill="#002145"/>
<path d="M353.822 114.969L417.029 55.5588L417.623 56.1908L354.416 115.601L353.822 114.969Z" fill="#002145"/>
<path d="M413.464 51.7664L350.258 111.176L350.852 111.809L414.058 52.3985L413.464 51.7664Z" fill="#002145"/>
</g>
<g opacity="0.489228">
<path d="M1012.22 386.034L1091.49 350.809L1091.85 351.602L1012.58 386.827L1012.22 386.034Z" fill="#002145"/>
<path d="M1010.11 381.278L1089.38 346.053L1089.73 346.846L1010.46 382.07L1010.11 381.278Z" fill="#002145"/>
<path d="M1087.27 341.297L1008 376.521L1008.35 377.314L1087.62 342.089L1087.27 341.297Z" fill="#002145"/>
<path d="M1005.88 371.765L1085.15 336.541L1085.51 337.333L1006.24 372.558L1005.88 371.765Z" fill="#002145"/>
<path d="M1083.04 331.784L1003.77 367.009L1004.12 367.802L1083.39 332.577L1083.04 331.784Z" fill="#002145"/>
<path d="M1001.66 362.253L1080.93 327.028L1081.28 327.821L1002.01 363.045L1001.66 362.253Z" fill="#002145"/>
<path d="M1078.81 322.272L999.543 357.497L999.895 358.289L1079.17 323.065L1078.81 322.272Z" fill="#002145"/>
<path d="M997.429 352.74L1076.7 317.516L1077.05 318.308L997.781 353.533L997.429 352.74Z" fill="#002145"/>
<path d="M1074.59 312.759L995.316 347.984L995.668 348.777L1074.94 313.552L1074.59 312.759Z" fill="#002145"/>
<path d="M993.202 343.228L1072.47 308.003L1072.82 308.796L993.554 344.021L993.202 343.228Z" fill="#002145"/>
<path d="M1070.36 303.247L991.089 338.472L991.441 339.264L1070.71 304.04L1070.36 303.247Z" fill="#002145"/>
<path d="M988.975 333.715L1068.25 298.491L1068.6 299.283L989.327 334.508L988.975 333.715Z" fill="#002145"/>
<path d="M1066.13 293.735L986.862 328.959L987.214 329.752L1066.48 294.527L1066.13 293.735Z" fill="#002145"/>
<path d="M984.748 324.203L1064.02 288.978L1064.37 289.771L985.1 324.996L984.748 324.203Z" fill="#002145"/>
<path d="M1061.91 284.222L982.635 319.447L982.987 320.239L1062.26 285.015L1061.91 284.222Z" fill="#002145"/>
<path d="M980.521 314.691L1059.79 279.466L1060.14 280.259L980.874 315.483L980.521 314.691Z" fill="#002145"/>
<path d="M1057.68 274.71L978.408 309.934L978.76 310.727L1058.03 275.502L1057.68 274.71Z" fill="#002145"/>
<path d="M976.294 305.178L1055.56 269.953L1055.92 270.746L976.647 305.971L976.294 305.178Z" fill="#002145"/>
<path d="M1053.45 265.197L974.181 300.422L974.533 301.215L1053.8 265.99L1053.45 265.197Z" fill="#002145"/>
<path d="M972.067 295.666L1051.34 260.441L1051.69 261.234L972.42 296.458L972.067 295.666Z" fill="#002145"/>
<path d="M1049.22 255.685L969.954 290.909L970.306 291.702L1049.58 256.477L1049.22 255.685Z" fill="#002145"/>
<path d="M967.84 286.153L1047.11 250.928L1047.46 251.721L968.193 286.946L967.84 286.153Z" fill="#002145"/>
<path d="M1045 246.172L965.727 281.397L966.079 282.19L1045.35 246.965L1045 246.172Z" fill="#002145"/>
<path d="M963.613 276.641L1042.88 241.416L1043.24 242.209L963.966 277.433L963.613 276.641Z" fill="#002145"/>
<path d="M1040.77 236.66L961.5 271.884L961.852 272.677L1041.12 237.452L1040.77 236.66Z" fill="#002145"/>
<path d="M959.386 267.128L1038.66 231.904L1039.01 232.696L959.739 267.921L959.386 267.128Z" fill="#002145"/>
<path d="M1036.54 227.147L957.273 262.372L957.625 263.165L1036.9 227.94L1036.54 227.147Z" fill="#002145"/>
<path d="M955.16 257.616L1034.43 222.391L1034.78 223.184L955.512 258.409L955.16 257.616Z" fill="#002145"/>
<path d="M1032.32 217.635L953.046 252.86L953.398 253.652L1032.67 218.428L1032.32 217.635Z" fill="#002145"/>
<path d="M950.933 248.103L1030.2 212.879L1030.56 213.671L951.285 248.896L950.933 248.103Z" fill="#002145"/>
<path d="M1028.09 208.122L948.819 243.347L949.171 244.14L1028.44 208.915L1028.09 208.122Z" fill="#002145"/>
<path d="M946.706 238.591L1025.98 203.366L1026.33 204.159L947.058 239.384L946.706 238.591Z" fill="#002145"/>
<path d="M1023.86 198.61L944.592 233.835L944.944 234.627L1024.21 199.403L1023.86 198.61Z" fill="#002145"/>
<path d="M942.479 229.078L1021.75 193.854L1022.1 194.646L942.831 229.871L942.479 229.078Z" fill="#002145"/>
<path d="M1019.64 189.098L940.365 224.322L940.717 225.115L1019.99 189.89L1019.64 189.098Z" fill="#002145"/>
<path d="M938.252 219.566L1017.52 184.341L1017.87 185.134L938.604 220.359L938.252 219.566Z" fill="#002145"/>
<path d="M1015.41 179.585L936.138 214.81L936.49 215.602L1015.76 180.378L1015.41 179.585Z" fill="#002145"/>
<path d="M934.025 210.054L1013.3 174.829L1013.65 175.622L934.377 210.846L934.025 210.054Z" fill="#002145"/>
<path d="M1011.18 170.073L931.911 205.297L932.263 206.09L1011.53 170.865L1011.18 170.073Z" fill="#002145"/>
<path d="M929.798 200.541L1009.07 165.316L1009.42 166.109L930.15 201.334L929.798 200.541Z" fill="#002145"/>
<path d="M1006.95 160.56L927.684 195.785L928.037 196.578L1007.31 161.353L1006.95 160.56Z" fill="#002145"/>
<path d="M925.571 191.029L1004.84 155.804L1005.19 156.597L925.923 191.821L925.571 191.029Z" fill="#002145"/>
<path d="M1002.73 151.048L923.457 186.272L923.81 187.065L1003.08 151.84L1002.73 151.048Z" fill="#002145"/>
<path d="M921.344 181.516L1000.61 146.292L1000.97 147.084L921.696 182.309L921.344 181.516Z" fill="#002145"/>
<path d="M998.501 141.535L919.23 176.76L919.583 177.553L998.853 142.328L998.501 141.535Z" fill="#002145"/>
<path d="M917.117 172.004L996.387 136.779L996.74 137.572L917.469 172.796L917.117 172.004Z" fill="#002145"/>
<path d="M994.274 132.023L915.003 167.248L915.356 168.04L994.626 132.816L994.274 132.023Z" fill="#002145"/>
</g>
<g opacity="0.2653">
<path d="M621.734 -68.0131L536.98 -49.5376L536.796 -50.3851L621.55 -68.8606L621.734 -68.0131Z" fill="#002145"/>
<path d="M622.843 -62.9279L538.089 -44.4524L537.904 -45.2999L622.658 -63.7754L622.843 -62.9279Z" fill="#002145"/>
<path d="M539.197 -39.3671L623.951 -57.8426L623.767 -58.6902L539.013 -40.2147L539.197 -39.3671Z" fill="#002145"/>
<path d="M625.06 -52.7574L540.306 -34.2819L540.121 -35.1294L624.875 -53.6049L625.06 -52.7574Z" fill="#002145"/>
<path d="M541.415 -29.1967L626.169 -47.6722L625.984 -48.5197L541.23 -30.0442L541.415 -29.1967Z" fill="#002145"/>
<path d="M627.277 -42.5869L542.523 -24.1114L542.338 -24.9589L627.092 -43.4344L627.277 -42.5869Z" fill="#002145"/>
<path d="M543.632 -19.0262L628.386 -37.5017L628.201 -38.3492L543.447 -19.8737L543.632 -19.0262Z" fill="#002145"/>
<path d="M629.494 -32.4164L544.74 -13.9409L544.555 -14.7885L629.309 -33.264L629.494 -32.4164Z" fill="#002145"/>
<path d="M545.849 -8.85571L630.603 -27.3312L630.418 -28.1787L545.664 -9.70324L545.849 -8.85571Z" fill="#002145"/>
<path d="M631.711 -22.246L546.957 -3.77046L546.772 -4.61799L631.526 -23.0935L631.711 -22.246Z" fill="#002145"/>
<path d="M548.066 1.31478L632.82 -17.1607L632.635 -18.0083L547.881 0.467232L548.066 1.31478Z" fill="#002145"/>
<path d="M633.928 -12.0755L549.174 6.40001L548.989 5.55247L633.743 -12.923L633.928 -12.0755Z" fill="#002145"/>
<path d="M550.283 11.4853L635.037 -6.99024L634.852 -7.83778L550.098 10.6377L550.283 11.4853Z" fill="#002145"/>
<path d="M636.145 -1.905L551.391 16.5705L551.207 15.7229L635.961 -2.75254L636.145 -1.905Z" fill="#002145"/>
<path d="M552.5 21.6557L637.254 3.18024L637.069 2.3327L552.315 20.8082L552.5 21.6557Z" fill="#002145"/>
<path d="M638.362 8.26548L553.608 26.741L553.424 25.8934L638.178 7.41794L638.362 8.26548Z" fill="#002145"/>
<path d="M554.717 31.8262L639.471 13.3507L639.286 12.5032L554.532 30.9787L554.717 31.8262Z" fill="#002145"/>
<path d="M640.579 18.436L555.825 36.9114L555.641 36.0639L640.395 17.5884L640.579 18.436Z" fill="#002145"/>
<path d="M556.934 41.9967L641.688 23.5212L641.503 22.6736L556.749 41.1492L556.934 41.9967Z" fill="#002145"/>
<path d="M642.796 28.6064L558.042 47.0819L557.858 46.2344L642.612 27.7589L642.796 28.6064Z" fill="#002145"/>
<path d="M559.151 52.1672L643.905 33.6917L643.72 32.8441L558.966 51.3196L559.151 52.1672Z" fill="#002145"/>
<path d="M645.014 38.7769L560.26 57.2524L560.075 56.4049L644.829 37.9294L645.014 38.7769Z" fill="#002145"/>
<path d="M561.368 62.3376L646.122 43.8621L645.937 43.0146L561.183 61.4901L561.368 62.3376Z" fill="#002145"/>
<path d="M647.231 48.9474L562.477 67.4229L562.292 66.5753L647.046 48.0998L647.231 48.9474Z" fill="#002145"/>
<path d="M563.585 72.5081L648.339 54.0326L648.154 53.1851L563.4 71.6606L563.585 72.5081Z" fill="#002145"/>
<path d="M649.448 59.1179L564.694 77.5934L564.509 76.7458L649.263 58.2703L649.448 59.1179Z" fill="#002145"/>
<path d="M565.802 82.6786L650.556 64.2031L650.371 63.3556L565.617 81.8311L565.802 82.6786Z" fill="#002145"/>
<path d="M651.665 69.2883L566.911 87.7638L566.726 86.9163L651.48 68.4408L651.665 69.2883Z" fill="#002145"/>
<path d="M568.019 92.8491L652.773 74.3736L652.588 73.526L567.835 92.0015L568.019 92.8491Z" fill="#002145"/>
<path d="M653.882 79.4588L569.128 97.9343L568.943 97.0868L653.697 78.6113L653.882 79.4588Z" fill="#002145"/>
<path d="M570.236 103.02L654.99 84.5441L654.806 83.6965L570.052 102.172L570.236 103.02Z" fill="#002145"/>
<path d="M656.099 89.6293L571.345 108.105L571.16 107.257L655.914 88.7818L656.099 89.6293Z" fill="#002145"/>
<path d="M572.453 113.19L657.207 94.7145L657.023 93.867L572.269 112.342L572.453 113.19Z" fill="#002145"/>
<path d="M658.316 99.7998L573.562 118.275L573.377 117.428L658.131 98.9522L658.316 99.7998Z" fill="#002145"/>
<path d="M574.67 123.36L659.424 104.885L659.24 104.037L574.486 122.513L574.67 123.36Z" fill="#002145"/>
<path d="M660.533 109.97L575.779 128.446L575.594 127.598L660.348 109.123L660.533 109.97Z" fill="#002145"/>
<path d="M576.887 133.531L661.641 115.055L661.457 114.208L576.703 132.683L576.887 133.531Z" fill="#002145"/>
<path d="M662.75 120.141L577.996 138.616L577.811 137.769L662.565 119.293L662.75 120.141Z" fill="#002145"/>
<path d="M579.105 143.701L663.859 125.226L663.674 124.378L578.92 142.854L579.105 143.701Z" fill="#002145"/>
<path d="M664.967 130.311L580.213 148.787L580.028 147.939L664.782 129.464L664.967 130.311Z" fill="#002145"/>
<path d="M581.322 153.872L666.076 135.396L665.891 134.549L581.137 153.024L581.322 153.872Z" fill="#002145"/>
<path d="M667.184 140.482L582.43 158.957L582.245 158.11L666.999 139.634L667.184 140.482Z" fill="#002145"/>
<path d="M583.539 164.042L668.293 145.567L668.108 144.719L583.354 163.195L583.539 164.042Z" fill="#002145"/>
<path d="M669.401 150.652L584.647 169.128L584.462 168.28L669.216 149.805L669.401 150.652Z" fill="#002145"/>
<path d="M585.756 174.213L670.51 155.737L670.325 154.89L585.571 173.365L585.756 174.213Z" fill="#002145"/>
<path d="M671.618 160.823L586.864 179.298L586.679 178.451L671.433 159.975L671.618 160.823Z" fill="#002145"/>
<path d="M587.973 184.383L672.727 165.908L672.542 165.06L587.788 183.536L587.973 184.383Z" fill="#002145"/>
</g>
<g opacity="0.963224">
<path d="M1278.36 397.673L1361.7 421.725L1361.46 422.558L1278.12 398.506L1278.36 397.673Z" fill="#002145"/>
<path d="M1279.8 392.672L1363.14 416.724L1362.9 417.558L1279.56 393.505L1279.8 392.672Z" fill="#002145"/>
<path d="M1364.59 411.724L1281.24 387.671L1281 388.505L1364.35 412.557L1364.59 411.724Z" fill="#002145"/>
<path d="M1282.69 382.671L1366.03 406.723L1365.79 407.556L1282.45 383.504L1282.69 382.671Z" fill="#002145"/>
<path d="M1367.47 401.722L1284.13 377.67L1283.89 378.504L1367.23 402.556L1367.47 401.722Z" fill="#002145"/>
<path d="M1285.57 372.67L1368.92 396.722L1368.68 397.555L1285.33 373.503L1285.57 372.67Z" fill="#002145"/>
<path d="M1370.36 391.721L1287.02 367.669L1286.78 368.503L1370.12 392.555L1370.36 391.721Z" fill="#002145"/>
<path d="M1288.46 362.669L1371.8 386.721L1371.56 387.554L1288.22 363.502L1288.46 362.669Z" fill="#002145"/>
<path d="M1373.25 381.72L1289.9 357.668L1289.66 358.501L1373.01 382.553L1373.25 381.72Z" fill="#002145"/>
<path d="M1291.35 352.667L1374.69 376.719L1374.45 377.553L1291.11 353.501L1291.35 352.667Z" fill="#002145"/>
<path d="M1376.13 371.719L1292.79 347.667L1292.55 348.5L1375.89 372.552L1376.13 371.719Z" fill="#002145"/>
<path d="M1294.23 342.666L1377.58 366.718L1377.34 367.552L1293.99 343.5L1294.23 342.666Z" fill="#002145"/>
<path d="M1379.02 361.718L1295.68 337.666L1295.44 338.499L1378.78 362.551L1379.02 361.718Z" fill="#002145"/>
<path d="M1297.12 332.665L1380.46 356.717L1380.22 357.551L1296.88 333.498L1297.12 332.665Z" fill="#002145"/>
<path d="M1381.91 351.716L1298.56 327.664L1298.32 328.498L1381.66 352.55L1381.91 351.716Z" fill="#002145"/>
<path d="M1300.01 322.664L1383.35 346.716L1383.11 347.549L1299.76 323.497L1300.01 322.664Z" fill="#002145"/>
<path d="M1384.79 341.715L1301.45 317.663L1301.21 318.497L1384.55 342.549L1384.79 341.715Z" fill="#002145"/>
<path d="M1302.89 312.663L1386.23 336.715L1385.99 337.548L1302.65 313.496L1302.89 312.663Z" fill="#002145"/>
<path d="M1387.68 331.714L1304.33 307.662L1304.09 308.495L1387.44 332.548L1387.68 331.714Z" fill="#002145"/>
<path d="M1305.78 302.661L1389.12 326.714L1388.88 327.547L1305.54 303.495L1305.78 302.661Z" fill="#002145"/>
<path d="M1390.56 321.713L1307.22 297.661L1306.98 298.494L1390.32 322.546L1390.56 321.713Z" fill="#002145"/>
<path d="M1308.66 292.66L1392.01 316.712L1391.77 317.546L1308.42 293.494L1308.66 292.66Z" fill="#002145"/>
<path d="M1393.45 311.712L1310.11 287.66L1309.87 288.493L1393.21 312.545L1393.45 311.712Z" fill="#002145"/>
<path d="M1311.55 282.659L1394.89 306.711L1394.65 307.545L1311.31 283.493L1311.55 282.659Z" fill="#002145"/>
<path d="M1396.34 301.711L1312.99 277.659L1312.75 278.492L1396.1 302.544L1396.34 301.711Z" fill="#002145"/>
<path d="M1314.44 272.658L1397.78 296.71L1397.54 297.543L1314.2 273.491L1314.44 272.658Z" fill="#002145"/>
<path d="M1399.22 291.709L1315.88 267.657L1315.64 268.491L1398.98 292.543L1399.22 291.709Z" fill="#002145"/>
<path d="M1317.32 262.657L1400.67 286.709L1400.43 287.542L1317.08 263.49L1317.32 262.657Z" fill="#002145"/>
<path d="M1402.11 281.708L1318.77 257.656L1318.53 258.49L1401.87 282.542L1402.11 281.708Z" fill="#002145"/>
<path d="M1320.21 252.656L1403.55 276.708L1403.31 277.541L1319.97 253.489L1320.21 252.656Z" fill="#002145"/>
<path d="M1405 271.707L1321.65 247.655L1321.41 248.488L1404.75 272.541L1405 271.707Z" fill="#002145"/>
<path d="M1323.1 242.654L1406.44 266.706L1406.2 267.54L1322.85 243.488L1323.1 242.654Z" fill="#002145"/>
<path d="M1407.88 261.706L1324.54 237.654L1324.3 238.487L1407.64 262.539L1407.88 261.706Z" fill="#002145"/>
<path d="M1325.98 232.653L1409.32 256.705L1409.08 257.539L1325.74 233.487L1325.98 232.653Z" fill="#002145"/>
<path d="M1410.77 251.705L1327.42 227.653L1327.18 228.486L1410.53 252.538L1410.77 251.705Z" fill="#002145"/>
<path d="M1328.87 222.652L1412.21 246.704L1411.97 247.538L1328.63 223.485L1328.87 222.652Z" fill="#002145"/>
<path d="M1413.65 241.704L1330.31 217.651L1330.07 218.485L1413.41 242.537L1413.65 241.704Z" fill="#002145"/>
<path d="M1331.75 212.651L1415.1 236.703L1414.86 237.536L1331.51 213.484L1331.75 212.651Z" fill="#002145"/>
<path d="M1416.54 231.702L1333.2 207.65L1332.96 208.484L1416.3 232.536L1416.54 231.702Z" fill="#002145"/>
<path d="M1334.64 202.65L1417.98 226.702L1417.74 227.535L1334.4 203.483L1334.64 202.65Z" fill="#002145"/>
<path d="M1419.43 221.701L1336.08 197.649L1335.84 198.483L1419.19 222.535L1419.43 221.701Z" fill="#002145"/>
<path d="M1337.53 192.649L1420.87 216.701L1420.63 217.534L1337.29 193.482L1337.53 192.649Z" fill="#002145"/>
<path d="M1422.31 211.7L1338.97 187.648L1338.73 188.481L1422.07 212.533L1422.31 211.7Z" fill="#002145"/>
<path d="M1340.41 182.647L1423.76 206.699L1423.52 207.533L1340.17 183.481L1340.41 182.647Z" fill="#002145"/>
<path d="M1425.2 201.699L1341.86 177.647L1341.62 178.48L1424.96 202.532L1425.2 201.699Z" fill="#002145"/>
<path d="M1343.3 172.646L1426.64 196.698L1426.4 197.532L1343.06 173.48L1343.3 172.646Z" fill="#002145"/>
<path d="M1428.09 191.698L1344.74 167.646L1344.5 168.479L1427.84 192.531L1428.09 191.698Z" fill="#002145"/>
</g>
<g opacity="0.887918">
<path d="M810.286 -16.9006L752.289 -81.4059L752.934 -81.9859L810.931 -17.4806L810.286 -16.9006Z" fill="#002145"/>
<path d="M806.415 -13.4208L748.418 -77.9261L749.064 -78.5061L807.06 -14.0008L806.415 -13.4208Z" fill="#002145"/>
<path d="M744.548 -74.4463L802.545 -9.94096L803.19 -10.5209L745.193 -75.0262L744.548 -74.4463Z" fill="#002145"/>
<path d="M798.675 -6.46114L740.678 -70.9664L741.323 -71.5464L799.32 -7.04111L798.675 -6.46114Z" fill="#002145"/>
<path d="M736.808 -67.4866L794.804 -2.98133L795.45 -3.56129L737.453 -68.0666L736.808 -67.4866Z" fill="#002145"/>
<path d="M790.934 0.498489L732.937 -64.0068L733.582 -64.5868L791.579 -0.0814786L790.934 0.498489Z" fill="#002145"/>
<path d="M729.067 -60.527L787.064 3.97831L787.709 3.39834L729.712 -61.107L729.067 -60.527Z" fill="#002145"/>
<path d="M783.194 7.45812L725.197 -57.0472L725.842 -57.6271L783.839 6.87815L783.194 7.45812Z" fill="#002145"/>
<path d="M721.326 -53.5674L779.323 10.9379L779.968 10.358L721.971 -54.1473L721.326 -53.5674Z" fill="#002145"/>
<path d="M775.453 14.4178L717.456 -50.0875L718.101 -50.6675L776.098 13.8378L775.453 14.4178Z" fill="#002145"/>
<path d="M713.586 -46.6077L771.583 17.8976L772.228 17.3176L714.231 -47.1877L713.586 -46.6077Z" fill="#002145"/>
<path d="M767.712 21.3774L709.715 -43.1279L710.36 -43.7079L768.357 20.7974L767.712 21.3774Z" fill="#002145"/>
<path d="M705.845 -39.6481L763.842 24.8572L764.487 24.2772L706.49 -40.228L705.845 -39.6481Z" fill="#002145"/>
<path d="M759.972 28.337L701.975 -36.1683L702.62 -36.7482L760.617 27.7571L759.972 28.337Z" fill="#002145"/>
<path d="M698.104 -32.6884L756.101 31.8168L756.746 31.2369L698.749 -33.2684L698.104 -32.6884Z" fill="#002145"/>
<path d="M752.231 35.2967L694.234 -29.2086L694.879 -29.7886L752.876 34.7167L752.231 35.2967Z" fill="#002145"/>
<path d="M690.364 -25.7288L748.361 38.7765L749.006 38.1965L691.009 -26.3088L690.364 -25.7288Z" fill="#002145"/>
<path d="M744.49 42.2563L686.493 -22.249L687.138 -22.829L745.135 41.6763L744.49 42.2563Z" fill="#002145"/>
<path d="M682.623 -18.7692L740.62 45.7361L741.265 45.1561L683.268 -19.3491L682.623 -18.7692Z" fill="#002145"/>
<path d="M736.75 49.2159L678.753 -15.2894L679.398 -15.8693L737.395 48.636L736.75 49.2159Z" fill="#002145"/>
<path d="M674.882 -11.8095L732.879 52.6958L733.524 52.1158L675.527 -12.3895L674.882 -11.8095Z" fill="#002145"/>
<path d="M729.009 56.1756L671.012 -8.32973L671.657 -8.9097L729.654 55.5956L729.009 56.1756Z" fill="#002145"/>
<path d="M667.142 -4.84991L725.139 59.6554L725.784 59.0754L667.787 -5.42988L667.142 -4.84991Z" fill="#002145"/>
<path d="M721.268 63.1352L663.271 -1.37009L663.917 -1.95006L721.913 62.5552L721.268 63.1352Z" fill="#002145"/>
<path d="M659.401 2.10973L717.398 66.615L718.043 66.0351L660.046 1.52976L659.401 2.10973Z" fill="#002145"/>
<path d="M713.528 70.0948L655.531 5.58955L656.176 5.00958L714.173 69.5149L713.528 70.0948Z" fill="#002145"/>
<path d="M651.661 9.06936L709.657 73.5747L710.303 72.9947L652.306 8.48939L651.661 9.06936Z" fill="#002145"/>
<path d="M705.787 77.0545L647.79 12.5492L648.435 11.9692L706.432 76.4745L705.787 77.0545Z" fill="#002145"/>
<path d="M643.92 16.029L701.917 80.5343L702.562 79.9543L644.565 15.449L643.92 16.029Z" fill="#002145"/>
<path d="M698.047 84.0141L640.05 19.5088L640.695 18.9288L698.692 83.4341L698.047 84.0141Z" fill="#002145"/>
<path d="M636.179 22.9886L694.176 87.4939L694.821 86.914L636.824 22.4087L636.179 22.9886Z" fill="#002145"/>
<path d="M690.306 90.9737L632.309 26.4685L632.954 25.8885L690.951 90.3938L690.306 90.9737Z" fill="#002145"/>
<path d="M628.439 29.9483L686.436 94.4536L687.081 93.8736L629.084 29.3683L628.439 29.9483Z" fill="#002145"/>
<path d="M682.565 97.9334L624.568 33.4281L625.213 32.8481L683.21 97.3534L682.565 97.9334Z" fill="#002145"/>
<path d="M620.698 36.9079L678.695 101.413L679.34 100.833L621.343 36.3279L620.698 36.9079Z" fill="#002145"/>
<path d="M674.825 104.893L616.828 40.3877L617.473 39.8078L675.47 104.313L674.825 104.893Z" fill="#002145"/>
<path d="M612.957 43.8675L670.954 108.373L671.599 107.793L613.602 43.2876L612.957 43.8675Z" fill="#002145"/>
<path d="M667.084 111.853L609.087 47.3474L609.732 46.7674L667.729 111.273L667.084 111.853Z" fill="#002145"/>
<path d="M605.217 50.8272L663.214 115.332L663.859 114.752L605.862 50.2472L605.217 50.8272Z" fill="#002145"/>
<path d="M659.343 118.812L601.346 54.307L601.991 53.727L659.988 118.232L659.343 118.812Z" fill="#002145"/>
<path d="M597.476 57.7868L655.473 122.292L656.118 121.712L598.121 57.2068L597.476 57.7868Z" fill="#002145"/>
<path d="M651.603 125.772L593.606 61.2666L594.251 60.6867L652.248 125.192L651.603 125.772Z" fill="#002145"/>
<path d="M589.735 64.7464L647.732 129.252L648.377 128.672L590.38 64.1665L589.735 64.7464Z" fill="#002145"/>
<path d="M643.862 132.732L585.865 68.2263L586.51 67.6463L644.507 132.152L643.862 132.732Z" fill="#002145"/>
<path d="M581.995 71.7061L639.992 136.211L640.637 135.631L582.64 71.1261L581.995 71.7061Z" fill="#002145"/>
<path d="M636.121 139.691L578.124 75.1859L578.77 74.6059L636.766 139.111L636.121 139.691Z" fill="#002145"/>
<path d="M574.254 78.6657L632.251 143.171L632.896 142.591L574.899 78.0857L574.254 78.6657Z" fill="#002145"/>
</g>
<g opacity="0.9">
<path d="M725.373 217.176L809.787 197.205L809.987 198.05L725.573 218.02L725.373 217.176Z" fill="#002145"/>
<path d="M724.175 212.111L808.589 192.141L808.789 192.985L724.374 212.955L724.175 212.111Z" fill="#002145"/>
<path d="M807.391 187.076L722.977 207.046L723.176 207.89L807.59 187.92L807.391 187.076Z" fill="#002145"/>
<path d="M721.778 201.981L806.193 182.011L806.392 182.855L721.978 202.825L721.778 201.981Z" fill="#002145"/>
<path d="M804.994 176.946L720.58 196.916L720.78 197.76L805.194 177.79L804.994 176.946Z" fill="#002145"/>
<path d="M719.382 191.851L803.796 171.881L803.996 172.725L719.582 192.696L719.382 191.851Z" fill="#002145"/>
<path d="M802.598 166.816L718.184 186.787L718.383 187.631L802.798 167.66L802.598 166.816Z" fill="#002145"/>
<path d="M716.985 181.722L801.4 161.751L801.599 162.596L717.185 182.566L716.985 181.722Z" fill="#002145"/>
<path d="M800.201 156.687L715.787 176.657L715.987 177.501L800.401 157.531L800.201 156.687Z" fill="#002145"/>
<path d="M714.589 171.592L799.003 151.622L799.203 152.466L714.789 172.436L714.589 171.592Z" fill="#002145"/>
<path d="M797.805 146.557L713.391 166.527L713.59 167.371L798.005 147.401L797.805 146.557Z" fill="#002145"/>
<path d="M712.193 161.462L796.607 141.492L796.806 142.336L712.392 162.307L712.193 161.462Z" fill="#002145"/>
<path d="M795.409 136.427L710.994 156.398L711.194 157.242L795.608 137.271L795.409 136.427Z" fill="#002145"/>
<path d="M709.796 151.333L794.21 131.362L794.41 132.206L709.996 152.177L709.796 151.333Z" fill="#002145"/>
<path d="M793.012 126.297L708.598 146.268L708.798 147.112L793.212 127.142L793.012 126.297Z" fill="#002145"/>
<path d="M707.4 141.203L791.814 121.233L792.014 122.077L707.599 142.047L707.4 141.203Z" fill="#002145"/>
<path d="M790.616 116.168L706.201 136.138L706.401 136.982L790.815 117.012L790.616 116.168Z" fill="#002145"/>
<path d="M705.003 131.073L789.417 111.103L789.617 111.947L705.203 131.917L705.003 131.073Z" fill="#002145"/>
<path d="M788.219 106.038L703.805 126.008L704.005 126.853L788.419 106.882L788.219 106.038Z" fill="#002145"/>
<path d="M702.607 120.944L787.021 100.973L787.221 101.817L702.806 121.788L702.607 120.944Z" fill="#002145"/>
<path d="M785.823 95.9083L701.409 115.879L701.608 116.723L786.022 96.7525L785.823 95.9083Z" fill="#002145"/>
<path d="M700.21 110.814L784.625 90.8435L784.824 91.6876L700.41 111.658L700.21 110.814Z" fill="#002145"/>
<path d="M783.426 85.7786L699.012 105.749L699.212 106.593L783.626 86.6228L783.426 85.7786Z" fill="#002145"/>
<path d="M697.814 100.684L782.228 80.7137L782.428 81.5579L698.014 101.528L697.814 100.684Z" fill="#002145"/>
<path d="M781.03 75.6489L696.616 95.6193L696.815 96.4634L781.23 76.493L781.03 75.6489Z" fill="#002145"/>
<path d="M695.417 90.5544L779.832 70.584L780.031 71.4282L695.617 91.3985L695.417 90.5544Z" fill="#002145"/>
<path d="M778.633 65.5192L694.219 85.4896L694.419 86.3337L778.833 66.3633L778.633 65.5192Z" fill="#002145"/>
<path d="M693.021 80.4247L777.435 60.4543L777.635 61.2985L693.221 81.2688L693.021 80.4247Z" fill="#002145"/>
<path d="M776.237 55.3895L691.823 75.3598L692.022 76.204L776.437 56.2336L776.237 55.3895Z" fill="#002145"/>
<path d="M690.625 70.295L775.039 50.3246L775.238 51.1688L690.824 71.1391L690.625 70.295Z" fill="#002145"/>
<path d="M773.841 45.2598L689.426 65.2301L689.626 66.0743L774.04 46.1039L773.841 45.2598Z" fill="#002145"/>
<path d="M688.228 60.1653L772.642 40.1949L772.842 41.0391L688.428 61.0094L688.228 60.1653Z" fill="#002145"/>
<path d="M771.444 35.1301L687.03 55.1004L687.23 55.9446L771.644 35.9742L771.444 35.1301Z" fill="#002145"/>
<path d="M685.832 50.0356L770.246 30.0652L770.446 30.9093L686.031 50.8797L685.832 50.0356Z" fill="#002145"/>
<path d="M769.048 25.0004L684.633 44.9707L684.833 45.8149L769.247 25.8445L769.048 25.0004Z" fill="#002145"/>
<path d="M683.435 39.9059L767.849 19.9355L768.049 20.7796L683.635 40.75L683.435 39.9059Z" fill="#002145"/>
<path d="M766.651 14.8706L682.237 34.841L682.437 35.6852L766.851 15.7148L766.651 14.8706Z" fill="#002145"/>
<path d="M681.039 29.7761L765.453 9.80579L765.653 10.6499L681.238 30.6203L681.039 29.7761Z" fill="#002145"/>
<path d="M764.255 4.74093L679.841 24.7113L680.04 25.5554L764.455 5.58507L764.255 4.74093Z" fill="#002145"/>
<path d="M678.642 19.6464L763.057 -0.323914L763.256 0.520226L678.842 20.4906L678.642 19.6464Z" fill="#002145"/>
<path d="M761.858 -5.38878L677.444 14.5816L677.644 15.4257L762.058 -4.54464L761.858 -5.38878Z" fill="#002145"/>
<path d="M676.246 9.51673L760.66 -10.4536L760.86 -9.60948L676.446 10.3609L676.246 9.51673Z" fill="#002145"/>
<path d="M759.462 -15.5185L675.048 4.45188L675.247 5.29602L759.662 -14.6743L759.462 -15.5185Z" fill="#002145"/>
<path d="M673.849 -0.612972L758.264 -20.5833L758.463 -19.7392L674.049 0.231168L673.849 -0.612972Z" fill="#002145"/>
<path d="M757.065 -25.6482L672.651 -5.67783L672.851 -4.83368L757.265 -24.804L757.065 -25.6482Z" fill="#002145"/>
<path d="M671.453 -10.7427L755.867 -30.7131L756.067 -29.8689L671.653 -9.89854L671.453 -10.7427Z" fill="#002145"/>
<path d="M754.669 -35.7779L670.255 -15.8075L670.454 -14.9634L754.869 -34.9338L754.669 -35.7779Z" fill="#002145"/>
</g>
</g>
<defs>
<clipPath id="clip0">
<rect width="1400" height="500" fill="white"/>
</clipPath>
</defs>
</svg>
