<svg width="839" height="470" viewBox="0 0 839 470" fill="none" xmlns="http://www.w3.org/2000/svg">
<g opacity="0.2653">
<path d="M197.271 293.39L283.624 301.627L283.541 302.491L197.189 294.253L197.271 293.39Z" fill="#002145"/>
<path d="M197.765 288.209L284.118 296.446L284.035 297.31L197.683 289.072L197.765 288.209Z" fill="#002145"/>
<path d="M284.612 291.265L198.26 283.027L198.177 283.891L284.53 292.129L284.612 291.265Z" fill="#002145"/>
<path d="M198.754 277.846L285.106 286.084L285.024 286.947L198.672 278.71L198.754 277.846Z" fill="#002145"/>
<path d="M285.601 280.903L199.248 272.665L199.166 273.529L285.518 281.766L285.601 280.903Z" fill="#002145"/>
<path d="M199.743 267.484L286.095 275.722L286.012 276.585L199.66 268.348L199.743 267.484Z" fill="#002145"/>
<path d="M286.589 270.54L200.237 262.303L200.154 263.166L286.507 271.404L286.589 270.54Z" fill="#002145"/>
<path d="M200.731 257.122L287.083 265.359L287.001 266.223L200.649 257.985L200.731 257.122Z" fill="#002145"/>
<path d="M287.578 260.178L201.225 251.941L201.143 252.804L287.495 261.042L287.578 260.178Z" fill="#002145"/>
<path d="M201.72 246.759L288.072 254.997L287.989 255.861L201.637 247.623L201.72 246.759Z" fill="#002145"/>
<path d="M288.566 249.816L202.214 241.578L202.131 242.442L288.484 250.679L288.566 249.816Z" fill="#002145"/>
<path d="M202.708 236.397L289.06 244.635L288.978 245.498L202.626 237.261L202.708 236.397Z" fill="#002145"/>
<path d="M289.555 239.454L203.202 231.216L203.12 232.08L289.472 240.317L289.555 239.454Z" fill="#002145"/>
<path d="M203.697 226.035L290.049 234.272L289.966 235.136L203.614 226.898L203.697 226.035Z" fill="#002145"/>
<path d="M290.543 229.091L204.191 220.854L204.108 221.717L290.461 229.955L290.543 229.091Z" fill="#002145"/>
<path d="M204.685 215.673L291.037 223.91L290.955 224.774L204.603 216.536L204.685 215.673Z" fill="#002145"/>
<path d="M291.532 218.729L205.179 210.491L205.097 211.355L291.449 219.593L291.532 218.729Z" fill="#002145"/>
<path d="M205.674 205.31L292.026 213.548L291.944 214.411L205.591 206.174L205.674 205.31Z" fill="#002145"/>
<path d="M292.52 208.367L206.168 200.129L206.085 200.993L292.438 209.23L292.52 208.367Z" fill="#002145"/>
<path d="M206.662 194.948L293.014 203.186L292.932 204.049L206.58 195.812L206.662 194.948Z" fill="#002145"/>
<path d="M293.509 198.005L207.156 189.767L207.074 190.63L293.426 198.868L293.509 198.005Z" fill="#002145"/>
<path d="M207.651 184.586L294.003 192.823L293.921 193.687L207.568 185.449L207.651 184.586Z" fill="#002145"/>
<path d="M294.497 187.642L208.145 179.405L208.062 180.268L294.415 188.506L294.497 187.642Z" fill="#002145"/>
<path d="M208.639 174.223L294.991 182.461L294.909 183.325L208.557 175.087L208.639 174.223Z" fill="#002145"/>
<path d="M295.486 177.28L209.133 169.042L209.051 169.906L295.403 178.143L295.486 177.28Z" fill="#002145"/>
<path d="M209.628 163.861L295.98 172.099L295.898 172.962L209.545 164.725L209.628 163.861Z" fill="#002145"/>
<path d="M296.474 166.918L210.122 158.68L210.04 159.544L296.392 167.781L296.474 166.918Z" fill="#002145"/>
<path d="M210.616 153.499L296.968 161.737L296.886 162.6L210.534 154.362L210.616 153.499Z" fill="#002145"/>
<path d="M297.463 156.555L211.11 148.318L211.028 149.181L297.38 157.419L297.463 156.555Z" fill="#002145"/>
<path d="M211.605 143.137L297.957 151.374L297.875 152.238L211.522 144L211.605 143.137Z" fill="#002145"/>
<path d="M298.451 146.193L212.099 137.956L212.017 138.819L298.369 147.057L298.451 146.193Z" fill="#002145"/>
<path d="M212.593 132.774L298.945 141.012L298.863 141.876L212.511 133.638L212.593 132.774Z" fill="#002145"/>
<path d="M299.44 135.831L213.087 127.593L213.005 128.457L299.357 136.694L299.44 135.831Z" fill="#002145"/>
<path d="M213.582 122.412L299.934 130.65L299.852 131.513L213.499 123.276L213.582 122.412Z" fill="#002145"/>
<path d="M300.428 125.469L214.076 117.231L213.994 118.094L300.346 126.332L300.428 125.469Z" fill="#002145"/>
<path d="M214.57 112.05L300.923 120.287L300.84 121.151L214.488 112.913L214.57 112.05Z" fill="#002145"/>
<path d="M301.417 115.106L215.064 106.869L214.982 107.732L301.334 115.97L301.417 115.106Z" fill="#002145"/>
<path d="M215.559 101.688L301.911 109.925L301.829 110.789L215.476 102.551L215.559 101.688Z" fill="#002145"/>
<path d="M302.405 104.744L216.053 96.5064L215.971 97.3699L302.323 105.608L302.405 104.744Z" fill="#002145"/>
<path d="M216.547 91.3253L302.9 99.5629L302.817 100.426L216.465 92.1888L216.547 91.3253Z" fill="#002145"/>
<path d="M303.394 94.3817L217.042 86.1441L216.959 87.0076L303.311 95.2452L303.394 94.3817Z" fill="#002145"/>
<path d="M217.536 80.963L303.888 89.2006L303.806 90.0641L217.453 81.8265L217.536 80.963Z" fill="#002145"/>
<path d="M304.382 84.0194L218.03 75.7818L217.948 76.6454L304.3 84.883L304.382 84.0194Z" fill="#002145"/>
<path d="M218.524 70.6007L304.877 78.8383L304.794 79.7018L218.442 71.4642L218.524 70.6007Z" fill="#002145"/>
<path d="M305.371 73.6572L219.019 65.4196L218.936 66.2831L305.288 74.5207L305.371 73.6572Z" fill="#002145"/>
<path d="M219.513 60.2384L305.865 68.476L305.783 69.3396L219.43 61.1019L219.513 60.2384Z" fill="#002145"/>
<path d="M306.359 63.2949L220.007 55.0573L219.925 55.9208L306.277 64.1584L306.359 63.2949Z" fill="#002145"/>
<path d="M0.342831 426.113L85.6289 441.952L85.4705 442.805L0.184448 426.966L0.342831 426.113Z" fill="#002145"/>
<path d="M1.29316 420.996L86.5792 436.835L86.4208 437.688L1.13478 421.849L1.29316 420.996Z" fill="#002145"/>
<path d="M87.5296 431.718L2.24349 415.879L2.0851 416.732L87.3712 432.571L87.5296 431.718Z" fill="#002145"/>
<path d="M3.19382 410.762L88.4799 426.601L88.3215 427.453L3.03543 411.615L3.19382 410.762Z" fill="#002145"/>
<path d="M89.4302 421.483L4.14415 405.645L3.98576 406.498L89.2718 422.336L89.4302 421.483Z" fill="#002145"/>
<path d="M5.09447 400.528L90.3805 416.366L90.2221 417.219L4.93609 401.38L5.09447 400.528Z" fill="#002145"/>
<path d="M91.3309 411.249L6.0448 395.41L5.88641 396.263L91.1725 412.102L91.3309 411.249Z" fill="#002145"/>
<path d="M6.99513 390.293L92.2812 406.132L92.1228 406.985L6.83674 391.146L6.99513 390.293Z" fill="#002145"/>
<path d="M93.2315 401.015L7.94546 385.176L7.78707 386.029L93.0731 401.868L93.2315 401.015Z" fill="#002145"/>
<path d="M8.89578 380.059L94.1818 395.898L94.0235 396.751L8.7374 380.912L8.89578 380.059Z" fill="#002145"/>
<path d="M95.1322 390.78L9.84611 374.942L9.68772 375.795L94.9738 391.633L95.1322 390.78Z" fill="#002145"/>
<path d="M10.7964 369.825L96.0825 385.663L95.9241 386.516L10.6381 370.677L10.7964 369.825Z" fill="#002145"/>
<path d="M97.0328 380.546L11.7468 364.707L11.5884 365.56L96.8744 381.399L97.0328 380.546Z" fill="#002145"/>
<path d="M12.6971 359.59L97.9832 375.429L97.8248 376.282L12.5387 360.443L12.6971 359.59Z" fill="#002145"/>
<path d="M98.9335 370.312L13.6474 354.473L13.489 355.326L98.7751 371.165L98.9335 370.312Z" fill="#002145"/>
<path d="M14.5978 349.356L99.8838 365.195L99.7254 366.048L14.4394 350.209L14.5978 349.356Z" fill="#002145"/>
<path d="M100.834 360.078L15.5481 344.239L15.3897 345.092L100.676 360.93L100.834 360.078Z" fill="#002145"/>
<path d="M16.4984 339.122L101.784 354.96L101.626 355.813L16.34 339.974L16.4984 339.122Z" fill="#002145"/>
<path d="M102.735 349.843L17.4487 334.004L17.2904 334.857L102.576 350.696L102.735 349.843Z" fill="#002145"/>
<path d="M18.3991 328.887L103.685 344.726L103.527 345.579L18.2407 329.74L18.3991 328.887Z" fill="#002145"/>
<path d="M104.635 339.609L19.3494 323.77L19.191 324.623L104.477 340.462L104.635 339.609Z" fill="#002145"/>
<path d="M20.2997 318.653L105.586 334.492L105.427 335.345L20.1413 319.506L20.2997 318.653Z" fill="#002145"/>
<path d="M106.536 329.375L21.2501 313.536L21.0917 314.389L106.378 330.227L106.536 329.375Z" fill="#002145"/>
<path d="M22.2004 308.419L107.486 324.257L107.328 325.11L22.042 309.271L22.2004 308.419Z" fill="#002145"/>
<path d="M108.437 319.14L23.1507 303.301L22.9923 304.154L108.278 319.993L108.437 319.14Z" fill="#002145"/>
<path d="M24.101 298.184L109.387 314.023L109.229 314.876L23.9426 299.037L24.101 298.184Z" fill="#002145"/>
<path d="M110.337 308.906L25.0514 293.067L24.893 293.92L110.179 309.759L110.337 308.906Z" fill="#002145"/>
<path d="M26.0017 287.95L111.288 303.789L111.129 304.642L25.8433 288.803L26.0017 287.95Z" fill="#002145"/>
<path d="M112.238 298.672L26.952 282.833L26.7936 283.686L112.08 299.524L112.238 298.672Z" fill="#002145"/>
<path d="M27.9023 277.716L113.188 293.554L113.03 294.407L27.744 278.568L27.9023 277.716Z" fill="#002145"/>
<path d="M114.139 288.437L28.8527 272.598L28.6943 273.451L113.98 289.29L114.139 288.437Z" fill="#002145"/>
<path d="M29.803 267.481L115.089 283.32L114.931 284.173L29.6446 268.334L29.803 267.481Z" fill="#002145"/>
<path d="M116.039 278.203L30.7533 262.364L30.5949 263.217L115.881 279.056L116.039 278.203Z" fill="#002145"/>
<path d="M31.7037 257.247L116.99 273.086L116.831 273.939L31.5453 258.1L31.7037 257.247Z" fill="#002145"/>
<path d="M117.94 267.969L32.654 252.13L32.4956 252.983L117.782 268.821L117.94 267.969Z" fill="#002145"/>
<path d="M33.6043 247.013L118.89 262.851L118.732 263.704L33.4459 247.865L33.6043 247.013Z" fill="#002145"/>
<path d="M119.841 257.734L34.5546 241.895L34.3963 242.748L119.682 258.587L119.841 257.734Z" fill="#002145"/>
<path d="M35.505 236.778L120.791 252.617L120.633 253.47L35.3466 237.631L35.505 236.778Z" fill="#002145"/>
<path d="M121.741 247.5L36.4553 231.661L36.2969 232.514L121.583 248.353L121.741 247.5Z" fill="#002145"/>
<path d="M37.4056 226.544L122.692 242.383L122.533 243.236L37.2472 227.397L37.4056 226.544Z" fill="#002145"/>
<path d="M123.642 237.266L38.356 221.427L38.1976 222.28L123.484 238.118L123.642 237.266Z" fill="#002145"/>
<path d="M39.3063 216.31L124.592 232.148L124.434 233.001L39.1479 217.162L39.3063 216.31Z" fill="#002145"/>
<path d="M125.543 227.031L40.2566 211.192L40.0982 212.045L125.384 227.884L125.543 227.031Z" fill="#002145"/>
<path d="M41.2069 206.075L126.493 221.914L126.335 222.767L41.0485 206.928L41.2069 206.075Z" fill="#002145"/>
<path d="M127.443 216.797L42.1573 200.958L41.9989 201.811L127.285 217.65L127.443 216.797Z" fill="#002145"/>
<path d="M43.1076 195.841L128.394 211.68L128.235 212.533L42.9492 196.694L43.1076 195.841Z" fill="#002145"/>
<path d="M129.344 206.563L44.0579 190.724L43.8995 191.577L129.186 207.415L129.344 206.563Z" fill="#002145"/>
<path d="M18.1377 391.496L56.491 469.301L55.713 469.684L17.3596 391.879L18.1377 391.496Z" fill="#002145"/>
<path d="M22.806 389.194L61.1593 466.999L60.3813 467.383L22.0279 389.578L22.806 389.194Z" fill="#002145"/>
<path d="M65.8276 464.698L27.4743 386.893L26.6962 387.277L65.0496 465.082L65.8276 464.698Z" fill="#002145"/>
<path d="M32.1426 384.592L70.4959 462.397L69.7179 462.78L31.3645 384.976L32.1426 384.592Z" fill="#002145"/>
<path d="M75.1642 460.096L36.8109 382.291L36.0328 382.674L74.3862 460.479L75.1642 460.096Z" fill="#002145"/>
<path d="M41.4791 379.99L79.8325 457.795L79.0545 458.178L40.7011 380.373L41.4791 379.99Z" fill="#002145"/>
<path d="M84.5008 455.493L46.1474 377.688L45.3694 378.072L83.7227 455.877L84.5008 455.493Z" fill="#002145"/>
<path d="M50.8157 375.387L89.1691 453.192L88.391 453.576L50.0377 375.771L50.8157 375.387Z" fill="#002145"/>
<path d="M93.8374 450.891L55.484 373.086L54.706 373.47L93.0593 451.275L93.8374 450.891Z" fill="#002145"/>
<path d="M60.1523 370.785L98.5057 448.59L97.7276 448.973L59.3743 371.168L60.1523 370.785Z" fill="#002145"/>
<path d="M103.174 446.289L64.8206 368.484L64.0426 368.867L102.396 446.672L103.174 446.289Z" fill="#002145"/>
<path d="M69.4889 366.182L107.842 443.987L107.064 444.371L68.7109 366.566L69.4889 366.182Z" fill="#002145"/>
<path d="M112.511 441.686L74.1572 363.881L73.3792 364.265L111.733 442.07L112.511 441.686Z" fill="#002145"/>
<path d="M78.8255 361.58L117.179 439.385L116.401 439.768L78.0474 361.964L78.8255 361.58Z" fill="#002145"/>
<path d="M121.847 437.084L83.4938 359.279L82.7157 359.662L121.069 437.467L121.847 437.084Z" fill="#002145"/>
<path d="M88.1621 356.978L126.515 434.783L125.737 435.166L87.384 357.361L88.1621 356.978Z" fill="#002145"/>
<path d="M131.184 432.481L92.8304 354.676L92.0523 355.06L130.406 432.865L131.184 432.481Z" fill="#002145"/>
<path d="M97.4987 352.375L135.852 430.18L135.074 430.564L96.7206 352.759L97.4987 352.375Z" fill="#002145"/>
<path d="M140.52 427.879L102.167 350.074L101.389 350.458L139.742 428.262L140.52 427.879Z" fill="#002145"/>
<path d="M106.835 347.773L145.189 425.578L144.411 425.961L106.057 348.156L106.835 347.773Z" fill="#002145"/>
<path d="M149.857 423.277L111.504 345.472L110.725 345.855L149.079 423.66L149.857 423.277Z" fill="#002145"/>
<path d="M116.172 343.17L154.525 420.975L153.747 421.359L115.394 343.554L116.172 343.17Z" fill="#002145"/>
<path d="M159.193 418.674L120.84 340.869L120.062 341.253L158.415 419.058L159.193 418.674Z" fill="#002145"/>
<path d="M125.508 338.568L163.862 416.373L163.084 416.756L124.73 338.952L125.508 338.568Z" fill="#002145"/>
<path d="M168.53 414.072L130.177 336.267L129.399 336.65L167.752 414.455L168.53 414.072Z" fill="#002145"/>
<path d="M134.845 333.966L173.198 411.771L172.42 412.154L134.067 334.349L134.845 333.966Z" fill="#002145"/>
<path d="M177.867 409.469L139.513 331.664L138.735 332.048L177.089 409.853L177.867 409.469Z" fill="#002145"/>
<path d="M144.182 329.363L182.535 407.168L181.757 407.552L143.404 329.747L144.182 329.363Z" fill="#002145"/>
<path d="M187.203 404.867L148.85 327.062L148.072 327.446L186.425 405.25L187.203 404.867Z" fill="#002145"/>
<path d="M153.518 324.761L191.872 402.566L191.093 402.949L152.74 325.144L153.518 324.761Z" fill="#002145"/>
<path d="M196.54 400.265L158.186 322.46L157.408 322.843L195.762 400.648L196.54 400.265Z" fill="#002145"/>
<path d="M162.855 320.158L201.208 397.963L200.43 398.347L162.077 320.542L162.855 320.158Z" fill="#002145"/>
<path d="M205.876 395.662L167.523 317.857L166.745 318.241L205.098 396.046L205.876 395.662Z" fill="#002145"/>
<path d="M172.191 315.556L210.545 393.361L209.767 393.744L171.413 315.94L172.191 315.556Z" fill="#002145"/>
<path d="M215.213 391.06L176.86 313.255L176.082 313.638L214.435 391.443L215.213 391.06Z" fill="#002145"/>
<path d="M181.528 310.954L219.881 388.759L219.103 389.142L180.75 311.337L181.528 310.954Z" fill="#002145"/>
<path d="M224.55 386.457L186.196 308.652L185.418 309.036L223.772 386.841L224.55 386.457Z" fill="#002145"/>
<path d="M190.865 306.351L229.218 384.156L228.44 384.54L190.086 306.735L190.865 306.351Z" fill="#002145"/>
<path d="M233.886 381.855L195.533 304.05L194.755 304.434L233.108 382.238L233.886 381.855Z" fill="#002145"/>
<path d="M200.201 301.749L238.554 379.554L237.776 379.937L199.423 302.132L200.201 301.749Z" fill="#002145"/>
<path d="M243.223 377.253L204.869 299.448L204.091 299.831L242.445 377.636L243.223 377.253Z" fill="#002145"/>
<path d="M209.538 297.146L247.891 374.951L247.113 375.335L208.76 297.53L209.538 297.146Z" fill="#002145"/>
<path d="M252.559 372.65L214.206 294.845L213.428 295.229L251.781 373.034L252.559 372.65Z" fill="#002145"/>
<path d="M218.874 292.544L257.228 370.349L256.45 370.732L218.096 292.928L218.874 292.544Z" fill="#002145"/>
<path d="M261.896 368.048L223.543 290.243L222.765 290.626L261.118 368.431L261.896 368.048Z" fill="#002145"/>
<path d="M228.211 287.942L266.564 365.747L265.786 366.13L227.433 288.325L228.211 287.942Z" fill="#002145"/>
<path d="M271.233 363.445L232.879 285.64L232.101 286.024L270.454 363.829L271.233 363.445Z" fill="#002145"/>
<path d="M668.953 195.363L607.888 256.971L607.271 256.36L668.337 194.752L668.953 195.363Z" fill="#002145"/>
<path d="M672.649 199.027L611.584 260.635L610.968 260.024L672.033 198.416L672.649 199.027Z" fill="#002145"/>
<path d="M615.281 264.299L676.346 202.691L675.73 202.08L614.664 263.688L615.281 264.299Z" fill="#002145"/>
<path d="M680.042 206.354L618.977 267.963L618.361 267.352L679.426 205.744L680.042 206.354Z" fill="#002145"/>
<path d="M622.674 271.627L683.739 210.018L683.123 209.408L622.057 271.016L622.674 271.627Z" fill="#002145"/>
<path d="M687.435 213.682L626.37 275.291L625.754 274.68L686.819 213.072L687.435 213.682Z" fill="#002145"/>
<path d="M630.067 278.955L691.132 217.346L690.516 216.736L629.45 278.344L630.067 278.955Z" fill="#002145"/>
<path d="M694.828 221.01L633.763 282.618L633.147 282.008L694.212 220.399L694.828 221.01Z" fill="#002145"/>
<path d="M637.46 286.282L698.525 224.674L697.909 224.063L636.843 285.672L637.46 286.282Z" fill="#002145"/>
<path d="M702.221 228.338L641.156 289.946L640.54 289.336L701.605 227.727L702.221 228.338Z" fill="#002145"/>
<path d="M644.853 293.61L705.918 232.002L705.302 231.391L644.236 293L644.853 293.61Z" fill="#002145"/>
<path d="M709.614 235.666L648.549 297.274L647.933 296.664L708.998 235.055L709.614 235.666Z" fill="#002145"/>
<path d="M652.246 300.938L713.311 239.33L712.695 238.719L651.629 300.327L652.246 300.938Z" fill="#002145"/>
<path d="M717.007 242.994L655.942 304.602L655.326 303.991L716.391 242.383L717.007 242.994Z" fill="#002145"/>
<path d="M659.639 308.266L720.704 246.658L720.088 246.047L659.022 307.655L659.639 308.266Z" fill="#002145"/>
<path d="M724.4 250.322L663.335 311.93L662.719 311.319L723.784 249.711L724.4 250.322Z" fill="#002145"/>
<path d="M667.032 315.594L728.097 253.985L727.481 253.375L666.415 314.983L667.032 315.594Z" fill="#002145"/>
<path d="M731.793 257.649L670.728 319.258L670.112 318.647L731.177 257.039L731.793 257.649Z" fill="#002145"/>
<path d="M674.425 322.922L735.49 261.313L734.874 260.703L673.808 322.311L674.425 322.922Z" fill="#002145"/>
<path d="M739.186 264.977L678.121 326.586L677.505 325.975L738.57 264.367L739.186 264.977Z" fill="#002145"/>
<path d="M681.818 330.25L742.883 268.641L742.267 268.031L681.201 329.639L681.818 330.25Z" fill="#002145"/>
<path d="M746.579 272.305L685.514 333.913L684.898 333.303L745.963 271.694L746.579 272.305Z" fill="#002145"/>
<path d="M689.211 337.577L750.276 275.969L749.66 275.358L688.594 336.967L689.211 337.577Z" fill="#002145"/>
<path d="M753.972 279.633L692.907 341.241L692.291 340.631L753.356 279.022L753.972 279.633Z" fill="#002145"/>
<path d="M696.604 344.905L757.669 283.297L757.053 282.686L695.987 344.295L696.604 344.905Z" fill="#002145"/>
<path d="M761.365 286.961L700.3 348.569L699.684 347.959L760.749 286.35L761.365 286.961Z" fill="#002145"/>
<path d="M703.997 352.233L765.062 290.625L764.446 290.014L703.38 351.622L703.997 352.233Z" fill="#002145"/>
<path d="M768.758 294.289L707.693 355.897L707.077 355.286L768.142 293.678L768.758 294.289Z" fill="#002145"/>
<path d="M711.39 359.561L772.455 297.953L771.839 297.342L710.773 358.95L711.39 359.561Z" fill="#002145"/>
<path d="M776.151 301.617L715.086 363.225L714.47 362.614L775.535 301.006L776.151 301.617Z" fill="#002145"/>
<path d="M718.783 366.889L779.848 305.28L779.232 304.67L718.167 366.278L718.783 366.889Z" fill="#002145"/>
<path d="M783.544 308.944L722.479 370.553L721.863 369.942L782.928 308.334L783.544 308.944Z" fill="#002145"/>
<path d="M726.176 374.217L787.241 312.608L786.625 311.998L725.559 373.606L726.176 374.217Z" fill="#002145"/>
<path d="M790.938 316.272L729.872 377.881L729.256 377.27L790.321 315.662L790.938 316.272Z" fill="#002145"/>
<path d="M733.569 381.545L794.634 319.936L794.018 319.326L732.953 380.934L733.569 381.545Z" fill="#002145"/>
<path d="M798.331 323.6L737.265 385.208L736.649 384.598L797.714 322.989L798.331 323.6Z" fill="#002145"/>
<path d="M740.962 388.872L802.027 327.264L801.411 326.653L740.346 388.262L740.962 388.872Z" fill="#002145"/>
<path d="M805.724 330.928L744.658 392.536L744.042 391.926L805.107 330.317L805.724 330.928Z" fill="#002145"/>
<path d="M748.355 396.2L809.42 334.592L808.804 333.981L747.738 395.59L748.355 396.2Z" fill="#002145"/>
<path d="M813.117 338.256L752.051 399.864L751.435 399.254L812.5 337.645L813.117 338.256Z" fill="#002145"/>
<path d="M755.748 403.528L816.813 341.92L816.197 341.309L755.132 402.917L755.748 403.528Z" fill="#002145"/>
<path d="M820.51 345.584L759.444 407.192L758.828 406.581L819.893 344.973L820.51 345.584Z" fill="#002145"/>
<path d="M763.141 410.856L824.206 349.248L823.59 348.637L762.524 410.245L763.141 410.856Z" fill="#002145"/>
<path d="M827.903 352.911L766.837 414.52L766.221 413.909L827.286 352.301L827.903 352.911Z" fill="#002145"/>
<path d="M770.534 418.184L831.599 356.575L830.983 355.965L769.918 417.573L770.534 418.184Z" fill="#002145"/>
<path d="M835.296 360.239L774.23 421.848L773.614 421.237L834.679 359.629L835.296 360.239Z" fill="#002145"/>
<path d="M777.927 425.512L838.992 363.903L838.376 363.293L777.31 424.901L777.927 425.512Z" fill="#002145"/>
<path d="M374.229 354.626L437.436 295.216L438.03 295.848L374.824 355.258L374.229 354.626Z" fill="#002145"/>
<path d="M370.665 350.833L433.871 291.423L434.465 292.055L371.259 351.465L370.665 350.833Z" fill="#002145"/>
<path d="M430.306 287.631L367.1 347.041L367.694 347.673L430.901 288.263L430.306 287.631Z" fill="#002145"/>
<path d="M363.536 343.249L426.742 283.839L427.336 284.471L364.13 343.881L363.536 343.249Z" fill="#002145"/>
<path d="M423.177 280.046L359.971 339.456L360.565 340.088L423.771 280.678L423.177 280.046Z" fill="#002145"/>
<path d="M356.406 335.664L419.613 276.254L420.207 276.886L357 336.296L356.406 335.664Z" fill="#002145"/>
<path d="M416.048 272.461L352.842 331.871L353.436 332.504L416.642 273.093L416.048 272.461Z" fill="#002145"/>
<path d="M349.277 328.079L412.483 268.669L413.078 269.301L349.871 328.711L349.277 328.079Z" fill="#002145"/>
<path d="M408.919 264.877L345.713 324.287L346.307 324.919L409.513 265.509L408.919 264.877Z" fill="#002145"/>
<path d="M342.148 320.494L405.354 261.084L405.948 261.716L342.742 321.126L342.148 320.494Z" fill="#002145"/>
<path d="M401.79 257.292L338.583 316.702L339.177 317.334L402.384 257.924L401.79 257.292Z" fill="#002145"/>
<path d="M335.019 312.91L398.225 253.5L398.819 254.132L335.613 313.542L335.019 312.91Z" fill="#002145"/>
<path d="M394.66 249.707L331.454 309.117L332.048 309.749L395.254 250.339L394.66 249.707Z" fill="#002145"/>
<path d="M327.89 305.325L391.096 245.915L391.69 246.547L328.484 305.957L327.89 305.325Z" fill="#002145"/>
<path d="M387.531 242.122L324.325 301.532L324.919 302.165L388.125 242.754L387.531 242.122Z" fill="#002145"/>
<path d="M320.76 297.74L383.967 238.33L384.561 238.962L321.354 298.372L320.76 297.74Z" fill="#002145"/>
<path d="M380.402 234.538L317.196 293.948L317.79 294.58L380.996 235.17L380.402 234.538Z" fill="#002145"/>
<path d="M313.631 290.155L376.837 230.745L377.431 231.377L314.225 290.787L313.631 290.155Z" fill="#002145"/>
<path d="M373.273 226.953L310.067 286.363L310.661 286.995L373.867 227.585L373.273 226.953Z" fill="#002145"/>
<path d="M306.502 282.571L369.708 223.161L370.302 223.793L307.096 283.203L306.502 282.571Z" fill="#002145"/>
<path d="M366.144 219.368L302.937 278.778L303.531 279.41L366.738 220L366.144 219.368Z" fill="#002145"/>
<path d="M299.373 274.986L362.579 215.576L363.173 216.208L299.967 275.618L299.373 274.986Z" fill="#002145"/>
<path d="M359.014 211.783L295.808 271.193L296.402 271.826L359.608 212.415L359.014 211.783Z" fill="#002145"/>
<path d="M292.244 267.401L355.45 207.991L356.044 208.623L292.838 268.033L292.244 267.401Z" fill="#002145"/>
<path d="M351.885 204.199L288.679 263.609L289.273 264.241L352.479 204.831L351.885 204.199Z" fill="#002145"/>
<path d="M285.114 259.816L348.321 200.406L348.915 201.038L285.708 260.448L285.114 259.816Z" fill="#002145"/>
<path d="M344.756 196.614L281.55 256.024L282.144 256.656L345.35 197.246L344.756 196.614Z" fill="#002145"/>
<path d="M277.985 252.232L341.191 192.822L341.785 193.454L278.579 252.864L277.985 252.232Z" fill="#002145"/>
<path d="M337.627 189.029L274.421 248.439L275.015 249.071L338.221 189.661L337.627 189.029Z" fill="#002145"/>
<path d="M270.856 244.647L334.062 185.237L334.656 185.869L271.45 245.279L270.856 244.647Z" fill="#002145"/>
<path d="M330.498 181.444L267.291 240.854L267.885 241.487L331.092 182.077L330.498 181.444Z" fill="#002145"/>
<path d="M263.727 237.062L326.933 177.652L327.527 178.284L264.321 237.694L263.727 237.062Z" fill="#002145"/>
<path d="M323.368 173.86L260.162 233.27L260.756 233.902L323.962 174.492L323.368 173.86Z" fill="#002145"/>
<path d="M256.598 229.477L319.804 170.067L320.398 170.699L257.192 230.109L256.598 229.477Z" fill="#002145"/>
<path d="M316.239 166.275L253.033 225.685L253.627 226.317L316.833 166.907L316.239 166.275Z" fill="#002145"/>
<path d="M249.468 221.893L312.675 162.483L313.269 163.115L250.062 222.525L249.468 221.893Z" fill="#002145"/>
<path d="M309.11 158.69L245.904 218.1L246.498 218.732L309.704 159.322L309.11 158.69Z" fill="#002145"/>
<path d="M242.339 214.308L305.545 154.898L306.139 155.53L242.933 214.94L242.339 214.308Z" fill="#002145"/>
<path d="M301.981 151.105L238.775 210.516L239.369 211.148L302.575 151.738L301.981 151.105Z" fill="#002145"/>
<path d="M235.21 206.723L298.416 147.313L299.01 147.945L235.804 207.355L235.21 206.723Z" fill="#002145"/>
<path d="M294.852 143.521L231.645 202.931L232.239 203.563L295.446 144.153L294.852 143.521Z" fill="#002145"/>
<path d="M228.081 199.138L291.287 139.728L291.881 140.36L228.675 199.77L228.081 199.138Z" fill="#002145"/>
<path d="M287.722 135.936L224.516 195.346L225.11 195.978L288.316 136.568L287.722 135.936Z" fill="#002145"/>
<path d="M220.951 191.554L284.158 132.144L284.752 132.776L221.546 192.186L220.951 191.554Z" fill="#002145"/>
<path d="M280.593 128.351L217.387 187.761L217.981 188.393L281.187 128.983L280.593 128.351Z" fill="#002145"/>
<path d="M213.822 183.969L277.029 124.559L277.623 125.191L214.416 184.601L213.822 183.969Z" fill="#002145"/>
<path d="M273.464 120.766L210.258 180.177L210.852 180.809L274.058 121.399L273.464 120.766Z" fill="#002145"/>
<path d="M732.223 317.211L811.494 281.986L811.846 282.779L732.576 318.003L732.223 317.211Z" fill="#002145"/>
<path d="M730.11 312.454L809.38 277.23L809.733 278.023L730.462 313.247L730.11 312.454Z" fill="#002145"/>
<path d="M807.267 272.474L727.997 307.698L728.349 308.491L807.619 273.266L807.267 272.474Z" fill="#002145"/>
<path d="M725.883 302.942L805.153 267.717L805.506 268.51L726.235 303.735L725.883 302.942Z" fill="#002145"/>
<path d="M803.04 262.961L723.77 298.186L724.122 298.979L803.392 263.754L803.04 262.961Z" fill="#002145"/>
<path d="M721.656 293.43L800.927 258.205L801.279 258.998L722.008 294.222L721.656 293.43Z" fill="#002145"/>
<path d="M798.813 253.449L719.543 288.673L719.895 289.466L799.165 254.241L798.813 253.449Z" fill="#002145"/>
<path d="M717.429 283.917L796.7 248.692L797.052 249.485L717.781 284.71L717.429 283.917Z" fill="#002145"/>
<path d="M794.586 243.936L715.316 279.161L715.668 279.954L794.938 244.729L794.586 243.936Z" fill="#002145"/>
<path d="M713.202 274.405L792.473 239.18L792.825 239.973L713.554 275.197L713.202 274.405Z" fill="#002145"/>
<path d="M790.359 234.424L711.089 269.648L711.441 270.441L790.711 235.216L790.359 234.424Z" fill="#002145"/>
<path d="M708.975 264.892L788.246 229.668L788.598 230.46L709.327 265.685L708.975 264.892Z" fill="#002145"/>
<path d="M786.132 224.911L706.862 260.136L707.214 260.929L786.484 225.704L786.132 224.911Z" fill="#002145"/>
<path d="M704.748 255.38L784.019 220.155L784.371 220.948L705.1 256.172L704.748 255.38Z" fill="#002145"/>
<path d="M781.905 215.399L702.635 250.624L702.987 251.416L782.257 216.192L781.905 215.399Z" fill="#002145"/>
<path d="M700.521 245.867L779.792 210.643L780.144 211.435L700.874 246.66L700.521 245.867Z" fill="#002145"/>
<path d="M777.678 205.886L698.408 241.111L698.76 241.904L778.03 206.679L777.678 205.886Z" fill="#002145"/>
<path d="M696.294 236.355L775.565 201.13L775.917 201.923L696.647 237.148L696.294 236.355Z" fill="#002145"/>
<path d="M773.451 196.374L694.181 231.599L694.533 232.391L773.804 197.167L773.451 196.374Z" fill="#002145"/>
<path d="M692.067 226.842L771.338 191.618L771.69 192.41L692.42 227.635L692.067 226.842Z" fill="#002145"/>
<path d="M769.224 186.862L689.954 222.086L690.306 222.879L769.577 187.654L769.224 186.862Z" fill="#002145"/>
<path d="M687.84 217.33L767.111 182.105L767.463 182.898L688.193 218.123L687.84 217.33Z" fill="#002145"/>
<path d="M764.997 177.349L685.727 212.574L686.079 213.366L765.35 178.142L764.997 177.349Z" fill="#002145"/>
<path d="M683.613 207.818L762.884 172.593L763.236 173.386L683.966 208.61L683.613 207.818Z" fill="#002145"/>
<path d="M760.77 167.837L681.5 203.061L681.852 203.854L761.123 168.629L760.77 167.837Z" fill="#002145"/>
<path d="M679.386 198.305L758.657 163.08L759.009 163.873L679.739 199.098L679.386 198.305Z" fill="#002145"/>
<path d="M756.543 158.324L677.273 193.549L677.625 194.342L756.896 159.117L756.543 158.324Z" fill="#002145"/>
<path d="M675.159 188.793L754.43 153.568L754.782 154.361L675.512 189.585L675.159 188.793Z" fill="#002145"/>
<path d="M752.316 148.812L673.046 184.036L673.398 184.829L752.669 149.604L752.316 148.812Z" fill="#002145"/>
<path d="M670.933 179.28L750.203 144.055L750.555 144.848L671.285 180.073L670.933 179.28Z" fill="#002145"/>
<path d="M748.089 139.299L668.819 174.524L669.171 175.317L748.442 140.092L748.089 139.299Z" fill="#002145"/>
<path d="M666.706 169.768L745.976 134.543L746.328 135.336L667.058 170.56L666.706 169.768Z" fill="#002145"/>
<path d="M743.863 129.787L664.592 165.011L664.944 165.804L744.215 130.58L743.863 129.787Z" fill="#002145"/>
<path d="M662.479 160.255L741.749 125.031L742.101 125.823L662.831 161.048L662.479 160.255Z" fill="#002145"/>
<path d="M739.636 120.274L660.365 155.499L660.717 156.292L739.988 121.067L739.636 120.274Z" fill="#002145"/>
<path d="M658.252 150.743L737.522 115.518L737.874 116.311L658.604 151.536L658.252 150.743Z" fill="#002145"/>
<path d="M735.409 110.762L656.138 145.987L656.49 146.779L735.761 111.555L735.409 110.762Z" fill="#002145"/>
<path d="M654.025 141.23L733.295 106.006L733.647 106.798L654.377 142.023L654.025 141.23Z" fill="#002145"/>
<path d="M731.182 101.249L651.911 136.474L652.263 137.267L731.534 102.042L731.182 101.249Z" fill="#002145"/>
<path d="M649.798 131.718L729.068 96.4932L729.42 97.2859L650.15 132.511L649.798 131.718Z" fill="#002145"/>
<path d="M726.955 91.737L647.684 126.962L648.036 127.754L727.307 92.5297L726.955 91.737Z" fill="#002145"/>
<path d="M645.571 122.205L724.841 86.9808L725.193 87.7735L645.923 122.998L645.571 122.205Z" fill="#002145"/>
<path d="M722.728 82.2245L643.457 117.449L643.81 118.242L723.08 83.0173L722.728 82.2245Z" fill="#002145"/>
<path d="M641.344 112.693L720.614 77.4683L720.966 78.261L641.696 113.486L641.344 112.693Z" fill="#002145"/>
<path d="M718.501 72.7121L639.23 107.937L639.583 108.729L718.853 73.5048L718.501 72.7121Z" fill="#002145"/>
<path d="M637.117 103.181L716.387 67.9559L716.74 68.7486L637.469 103.973L637.117 103.181Z" fill="#002145"/>
<path d="M714.274 63.1996L635.003 98.4243L635.356 99.217L714.626 63.9924L714.274 63.1996Z" fill="#002145"/>
<path d="M481.734 0.986949L396.98 19.4624L396.796 18.6149L481.55 0.139404L481.734 0.986949Z" fill="#002145"/>
<path d="M482.843 6.07219L398.089 24.5477L397.904 23.7001L482.658 5.22464L482.843 6.07219Z" fill="#002145"/>
<path d="M399.197 29.6329L483.951 11.1574L483.767 10.3099L399.013 28.7854L399.197 29.6329Z" fill="#002145"/>
<path d="M485.06 16.2427L400.306 34.7182L400.121 33.8706L484.875 15.3951L485.06 16.2427Z" fill="#002145"/>
<path d="M401.415 39.8034L486.169 21.3279L485.984 20.4804L401.23 38.9558L401.415 39.8034Z" fill="#002145"/>
<path d="M487.277 26.4131L402.523 44.8886L402.338 44.0411L487.092 25.5656L487.277 26.4131Z" fill="#002145"/>
<path d="M403.632 49.9739L488.386 31.4984L488.201 30.6508L403.447 49.1263L403.632 49.9739Z" fill="#002145"/>
<path d="M489.494 36.5836L404.74 55.0591L404.555 54.2116L489.309 35.7361L489.494 36.5836Z" fill="#002145"/>
<path d="M405.849 60.1443L490.603 41.6689L490.418 40.8213L405.664 59.2968L405.849 60.1443Z" fill="#002145"/>
<path d="M491.711 46.7541L406.957 65.2296L406.772 64.382L491.526 45.9066L491.711 46.7541Z" fill="#002145"/>
<path d="M408.066 70.3148L492.82 51.8393L492.635 50.9918L407.881 69.4673L408.066 70.3148Z" fill="#002145"/>
<path d="M493.928 56.9246L409.174 75.4001L408.989 74.5525L493.743 56.077L493.928 56.9246Z" fill="#002145"/>
<path d="M410.283 80.4853L495.037 62.0098L494.852 61.1623L410.098 79.6378L410.283 80.4853Z" fill="#002145"/>
<path d="M496.145 67.095L411.391 85.5705L411.207 84.723L495.961 66.2475L496.145 67.095Z" fill="#002145"/>
<path d="M412.5 90.6558L497.254 72.1803L497.069 71.3327L412.315 89.8082L412.5 90.6558Z" fill="#002145"/>
<path d="M498.362 77.2655L413.608 95.741L413.424 94.8935L498.178 76.418L498.362 77.2655Z" fill="#002145"/>
<path d="M414.717 100.826L499.471 82.3508L499.286 81.5032L414.532 99.9787L414.717 100.826Z" fill="#002145"/>
<path d="M500.579 87.436L415.825 105.911L415.641 105.064L500.395 86.5885L500.579 87.436Z" fill="#002145"/>
<path d="M416.934 110.997L501.688 92.5212L501.503 91.6737L416.749 110.149L416.934 110.997Z" fill="#002145"/>
<path d="M502.796 97.6065L418.042 116.082L417.858 115.234L502.612 96.7589L502.796 97.6065Z" fill="#002145"/>
<path d="M419.151 121.167L503.905 102.692L503.72 101.844L418.966 120.32L419.151 121.167Z" fill="#002145"/>
<path d="M505.014 107.777L420.26 126.252L420.075 125.405L504.829 106.929L505.014 107.777Z" fill="#002145"/>
<path d="M421.368 131.338L506.122 112.862L505.937 112.015L421.183 130.49L421.368 131.338Z" fill="#002145"/>
<path d="M507.231 117.947L422.477 136.423L422.292 135.575L507.046 117.1L507.231 117.947Z" fill="#002145"/>
<path d="M423.585 141.508L508.339 123.033L508.154 122.185L423.4 140.661L423.585 141.508Z" fill="#002145"/>
<path d="M509.448 128.118L424.694 146.593L424.509 145.746L509.263 127.27L509.448 128.118Z" fill="#002145"/>
<path d="M425.802 151.679L510.556 133.203L510.371 132.356L425.617 150.831L425.802 151.679Z" fill="#002145"/>
<path d="M511.665 138.288L426.911 156.764L426.726 155.916L511.48 137.441L511.665 138.288Z" fill="#002145"/>
<path d="M428.019 161.849L512.773 143.374L512.588 142.526L427.834 161.002L428.019 161.849Z" fill="#002145"/>
<path d="M513.882 148.459L429.128 166.934L428.943 166.087L513.697 147.611L513.882 148.459Z" fill="#002145"/>
<path d="M430.236 172.02L514.99 153.544L514.806 152.697L430.052 171.172L430.236 172.02Z" fill="#002145"/>
<path d="M516.099 158.629L431.345 177.105L431.16 176.257L515.914 157.782L516.099 158.629Z" fill="#002145"/>
<path d="M432.453 182.19L517.207 163.715L517.023 162.867L432.269 181.343L432.453 182.19Z" fill="#002145"/>
<path d="M518.316 168.8L433.562 187.275L433.377 186.428L518.131 167.952L518.316 168.8Z" fill="#002145"/>
<path d="M434.67 192.361L519.424 173.885L519.24 173.038L434.486 191.513L434.67 192.361Z" fill="#002145"/>
<path d="M520.533 178.97L435.779 197.446L435.594 196.598L520.348 178.123L520.533 178.97Z" fill="#002145"/>
<path d="M436.887 202.531L521.641 184.056L521.457 183.208L436.703 201.683L436.887 202.531Z" fill="#002145"/>
<path d="M522.75 189.141L437.996 207.616L437.811 206.769L522.565 188.293L522.75 189.141Z" fill="#002145"/>
<path d="M439.105 212.702L523.859 194.226L523.674 193.378L438.92 211.854L439.105 212.702Z" fill="#002145"/>
<path d="M524.967 199.311L440.213 217.787L440.028 216.939L524.782 198.464L524.967 199.311Z" fill="#002145"/>
<path d="M441.322 222.872L526.076 204.396L525.891 203.549L441.137 222.024L441.322 222.872Z" fill="#002145"/>
<path d="M527.184 209.482L442.43 227.957L442.245 227.11L526.999 208.634L527.184 209.482Z" fill="#002145"/>
<path d="M443.539 233.042L528.293 214.567L528.108 213.719L443.354 232.195L443.539 233.042Z" fill="#002145"/>
<path d="M529.401 219.652L444.647 238.128L444.462 237.28L529.216 218.805L529.401 219.652Z" fill="#002145"/>
<path d="M445.756 243.213L530.51 224.737L530.325 223.89L445.571 242.365L445.756 243.213Z" fill="#002145"/>
<path d="M531.618 229.823L446.864 248.298L446.679 247.451L531.433 228.975L531.618 229.823Z" fill="#002145"/>
<path d="M447.973 253.383L532.727 234.908L532.542 234.06L447.788 252.536L447.973 253.383Z" fill="#002145"/>
</g>
</svg>
