<svg width="627" height="800" viewBox="0 0 627 800" fill="none" xmlns="http://www.w3.org/2000/svg">
<g opacity="0.15">
<path d="M147.32 668.59L211.868 674.73L211.806 675.374L147.259 669.233L147.32 668.59Z" fill="#002145"/>
<path d="M147.69 664.728L212.237 670.868L212.176 671.512L147.628 665.371L147.69 664.728Z" fill="#002145"/>
<path d="M212.607 667.006L148.059 660.866L147.998 661.509L212.545 667.65L212.607 667.006Z" fill="#002145"/>
<path d="M148.429 657.004L212.976 663.144L212.915 663.788L148.367 657.647L148.429 657.004Z" fill="#002145"/>
<path d="M213.346 659.282L148.798 653.141L148.737 653.785L213.284 659.926L213.346 659.282Z" fill="#002145"/>
<path d="M149.168 649.279L213.715 655.42L213.653 656.063L149.106 649.923L149.168 649.279Z" fill="#002145"/>
<path d="M214.084 651.558L149.537 645.417L149.475 646.061L214.023 652.201L214.084 651.558Z" fill="#002145"/>
<path d="M149.906 641.555L214.454 647.696L214.392 648.339L149.845 642.199L149.906 641.555Z" fill="#002145"/>
<path d="M214.823 643.834L150.276 637.693L150.214 638.337L214.762 644.477L214.823 643.834Z" fill="#002145"/>
<path d="M150.645 633.831L215.193 639.972L215.131 640.615L150.584 634.475L150.645 633.831Z" fill="#002145"/>
<path d="M215.562 636.11L151.015 629.969L150.953 630.613L215.501 636.753L215.562 636.11Z" fill="#002145"/>
<path d="M151.384 626.107L215.932 632.248L215.87 632.891L151.323 626.751L151.384 626.107Z" fill="#002145"/>
<path d="M216.301 628.386L151.754 622.245L151.692 622.889L216.24 629.029L216.301 628.386Z" fill="#002145"/>
<path d="M152.123 618.383L216.671 624.523L216.609 625.167L152.062 619.027L152.123 618.383Z" fill="#002145"/>
<path d="M217.04 620.661L152.493 614.521L152.431 615.165L216.979 621.305L217.04 620.661Z" fill="#002145"/>
<path d="M152.862 610.659L217.41 616.799L217.348 617.443L152.801 611.303L152.862 610.659Z" fill="#002145"/>
<path d="M217.779 612.937L153.232 606.797L153.17 607.441L217.717 613.581L217.779 612.937Z" fill="#002145"/>
<path d="M153.601 602.935L218.148 609.075L218.087 609.719L153.539 603.579L153.601 602.935Z" fill="#002145"/>
<path d="M218.518 605.213L153.97 599.073L153.909 599.717L218.456 605.857L218.518 605.213Z" fill="#002145"/>
<path d="M154.34 595.211L218.887 601.351L218.826 601.995L154.278 595.855L154.34 595.211Z" fill="#002145"/>
<path d="M219.257 597.489L154.709 591.349L154.648 591.993L219.195 598.133L219.257 597.489Z" fill="#002145"/>
<path d="M155.079 587.487L219.626 593.627L219.565 594.271L155.017 588.131L155.079 587.487Z" fill="#002145"/>
<path d="M219.996 589.765L155.448 583.625L155.387 584.268L219.934 590.409L219.996 589.765Z" fill="#002145"/>
<path d="M155.818 579.763L220.365 585.903L220.304 586.547L155.756 580.406L155.818 579.763Z" fill="#002145"/>
<path d="M220.735 582.041L156.187 575.901L156.126 576.544L220.673 582.685L220.735 582.041Z" fill="#002145"/>
<path d="M156.557 572.039L221.104 578.179L221.043 578.823L156.495 572.682L156.557 572.039Z" fill="#002145"/>
<path d="M221.474 574.317L156.926 568.177L156.864 568.82L221.412 574.961L221.474 574.317Z" fill="#002145"/>
<path d="M157.296 564.315L221.843 570.455L221.781 571.099L157.234 564.958L157.296 564.315Z" fill="#002145"/>
<path d="M222.212 566.593L157.665 560.453L157.603 561.096L222.151 567.237L222.212 566.593Z" fill="#002145"/>
<path d="M158.034 556.591L222.582 562.731L222.52 563.375L157.973 557.234L158.034 556.591Z" fill="#002145"/>
<path d="M222.951 558.869L158.404 552.729L158.342 553.372L222.89 559.513L222.951 558.869Z" fill="#002145"/>
<path d="M158.773 548.866L223.321 555.007L223.259 555.651L158.712 549.51L158.773 548.866Z" fill="#002145"/>
<path d="M223.69 551.145L159.143 545.004L159.081 545.648L223.629 551.788L223.69 551.145Z" fill="#002145"/>
<path d="M159.512 541.142L224.06 547.283L223.998 547.926L159.451 541.786L159.512 541.142Z" fill="#002145"/>
<path d="M224.429 543.421L159.882 537.28L159.82 537.924L224.368 544.064L224.429 543.421Z" fill="#002145"/>
<path d="M160.251 533.418L224.799 539.559L224.737 540.202L160.19 534.062L160.251 533.418Z" fill="#002145"/>
<path d="M225.168 535.697L160.621 529.556L160.559 530.2L225.106 536.34L225.168 535.697Z" fill="#002145"/>
<path d="M160.99 525.694L225.537 531.835L225.476 532.478L160.928 526.338L160.99 525.694Z" fill="#002145"/>
<path d="M225.907 527.973L161.36 521.832L161.298 522.476L225.845 528.616L225.907 527.973Z" fill="#002145"/>
<path d="M161.729 517.97L226.276 524.111L226.215 524.754L161.667 518.614L161.729 517.97Z" fill="#002145"/>
<path d="M226.646 520.249L162.098 514.108L162.037 514.752L226.584 520.892L226.646 520.249Z" fill="#002145"/>
<path d="M162.468 510.246L227.015 516.386L226.954 517.03L162.406 510.89L162.468 510.246Z" fill="#002145"/>
<path d="M227.385 512.524L162.837 506.384L162.776 507.028L227.323 513.168L227.385 512.524Z" fill="#002145"/>
<path d="M163.207 502.522L227.754 508.662L227.693 509.306L163.145 503.166L163.207 502.522Z" fill="#002145"/>
<path d="M228.124 504.8L163.576 498.66L163.515 499.304L228.062 505.444L228.124 504.8Z" fill="#002145"/>
<path d="M163.946 494.798L228.493 500.938L228.432 501.582L163.884 495.442L163.946 494.798Z" fill="#002145"/>
<path d="M228.863 497.076L164.315 490.936L164.254 491.58L228.801 497.72L228.863 497.076Z" fill="#002145"/>
<path d="M0.11839 767.522L63.8688 779.328L63.7504 779.964L0 768.158L0.11839 767.522Z" fill="#002145"/>
<path d="M0.828751 763.708L64.5792 775.514L64.4608 776.15L0.710361 764.344L0.828751 763.708Z" fill="#002145"/>
<path d="M65.2896 771.7L1.53911 759.894L1.42072 760.529L65.1712 772.336L65.2896 771.7Z" fill="#002145"/>
<path d="M2.24947 756.079L65.9999 767.885L65.8815 768.521L2.13108 756.715L2.24947 756.079Z" fill="#002145"/>
<path d="M66.7103 764.071L2.95983 752.265L2.84144 752.901L66.5919 764.707L66.7103 764.071Z" fill="#002145"/>
<path d="M3.67019 748.45L67.4206 760.257L67.3022 760.892L3.5518 749.086L3.67019 748.45Z" fill="#002145"/>
<path d="M68.131 756.442L4.38056 744.636L4.26216 745.272L68.0126 757.078L68.131 756.442Z" fill="#002145"/>
<path d="M5.09092 740.822L68.8414 752.628L68.723 753.264L4.97252 741.458L5.09092 740.822Z" fill="#002145"/>
<path d="M69.5517 748.814L5.80128 737.007L5.68288 737.643L69.4333 749.449L69.5517 748.814Z" fill="#002145"/>
<path d="M6.51163 733.193L70.2621 744.999L70.1437 745.635L6.39324 733.829L6.51163 733.193Z" fill="#002145"/>
<path d="M70.9724 741.185L7.22199 729.379L7.1036 730.014L70.8541 741.821L70.9724 741.185Z" fill="#002145"/>
<path d="M7.93235 725.564L71.6828 737.371L71.5644 738.006L7.81396 726.2L7.93235 725.564Z" fill="#002145"/>
<path d="M72.3932 733.556L8.64271 721.75L8.52432 722.386L72.2748 734.192L72.3932 733.556Z" fill="#002145"/>
<path d="M9.35307 717.936L73.1035 729.742L72.9851 730.378L9.23468 718.571L9.35307 717.936Z" fill="#002145"/>
<path d="M73.8139 725.928L10.0634 714.121L9.94504 714.757L73.6955 726.563L73.8139 725.928Z" fill="#002145"/>
<path d="M10.7738 710.307L74.5242 722.113L74.4058 722.749L10.6554 710.943L10.7738 710.307Z" fill="#002145"/>
<path d="M75.2346 718.299L11.4842 706.493L11.3658 707.128L75.1162 718.935L75.2346 718.299Z" fill="#002145"/>
<path d="M12.1945 702.678L75.945 714.485L75.8266 715.12L12.0761 703.314L12.1945 702.678Z" fill="#002145"/>
<path d="M76.6553 710.67L12.9049 698.864L12.7865 699.5L76.5369 711.306L76.6553 710.67Z" fill="#002145"/>
<path d="M13.6152 695.05L77.3657 706.856L77.2473 707.492L13.4968 695.685L13.6152 695.05Z" fill="#002145"/>
<path d="M78.076 703.042L14.3256 691.235L14.2072 691.871L77.9576 703.677L78.076 703.042Z" fill="#002145"/>
<path d="M15.036 687.421L78.7864 699.227L78.668 699.863L14.9176 688.057L15.036 687.421Z" fill="#002145"/>
<path d="M79.4968 695.413L15.7463 683.607L15.6279 684.242L79.3784 696.049L79.4968 695.413Z" fill="#002145"/>
<path d="M16.4567 679.792L80.2071 691.598L80.0887 692.234L16.3383 680.428L16.4567 679.792Z" fill="#002145"/>
<path d="M80.9175 687.784L17.167 675.978L17.0486 676.614L80.7991 688.42L80.9175 687.784Z" fill="#002145"/>
<path d="M17.8774 672.163L81.6278 683.97L81.5095 684.606L17.759 672.799L17.8774 672.163Z" fill="#002145"/>
<path d="M82.3382 680.155L18.5878 668.349L18.4694 668.985L82.2198 680.791L82.3382 680.155Z" fill="#002145"/>
<path d="M19.2981 664.535L83.0486 676.341L82.9302 676.977L19.1797 665.171L19.2981 664.535Z" fill="#002145"/>
<path d="M83.7589 672.527L20.0085 660.72L19.8901 661.356L83.6405 673.162L83.7589 672.527Z" fill="#002145"/>
<path d="M20.7188 656.906L84.4693 668.712L84.3509 669.348L20.6004 657.542L20.7188 656.906Z" fill="#002145"/>
<path d="M85.1796 664.898L21.4292 653.092L21.3108 653.727L85.0613 665.534L85.1796 664.898Z" fill="#002145"/>
<path d="M22.1396 649.277L85.89 661.084L85.7716 661.719L22.0212 649.913L22.1396 649.277Z" fill="#002145"/>
<path d="M86.6004 657.269L22.8499 645.463L22.7315 646.099L86.482 657.905L86.6004 657.269Z" fill="#002145"/>
<path d="M23.5603 641.649L87.3107 653.455L87.1923 654.091L23.4419 642.284L23.5603 641.649Z" fill="#002145"/>
<path d="M88.0211 649.641L24.2706 637.834L24.1522 638.47L87.9027 650.276L88.0211 649.641Z" fill="#002145"/>
<path d="M24.981 634.02L88.7314 645.826L88.6131 646.462L24.8626 634.656L24.981 634.02Z" fill="#002145"/>
<path d="M89.4418 642.012L25.6914 630.206L25.573 630.841L89.3234 642.648L89.4418 642.012Z" fill="#002145"/>
<path d="M26.4017 626.391L90.1522 638.198L90.0338 638.833L26.2833 627.027L26.4017 626.391Z" fill="#002145"/>
<path d="M90.8625 634.383L27.1121 622.577L26.9937 623.213L90.7441 635.019L90.8625 634.383Z" fill="#002145"/>
<path d="M27.8224 618.763L91.5729 630.569L91.4545 631.205L27.7041 619.398L27.8224 618.763Z" fill="#002145"/>
<path d="M92.2833 626.755L28.5328 614.948L28.4144 615.584L92.1649 627.39L92.2833 626.755Z" fill="#002145"/>
<path d="M29.2432 611.134L92.9936 622.94L92.8752 623.576L29.1248 611.77L29.2432 611.134Z" fill="#002145"/>
<path d="M93.704 619.126L29.9535 607.32L29.8351 607.955L93.5856 619.762L93.704 619.126Z" fill="#002145"/>
<path d="M30.6639 603.505L94.4143 615.312L94.2959 615.947L30.5455 604.141L30.6639 603.505Z" fill="#002145"/>
<path d="M95.1247 611.497L31.3742 599.691L31.2559 600.327L95.0063 612.133L95.1247 611.497Z" fill="#002145"/>
<path d="M32.0846 595.877L95.8351 607.683L95.7167 608.319L31.9662 596.512L32.0846 595.877Z" fill="#002145"/>
<path d="M96.5454 603.868L32.795 592.062L32.6766 592.698L96.427 604.504L96.5454 603.868Z" fill="#002145"/>
<path d="M13.4199 741.718L42.0886 799.714L41.507 800L12.8383 742.004L13.4199 741.718Z" fill="#002145"/>
<path d="M16.9094 740.003L45.5781 797.999L44.9965 798.285L16.3278 740.289L16.9094 740.003Z" fill="#002145"/>
<path d="M49.0676 796.283L20.3989 738.287L19.8173 738.573L48.486 796.569L49.0676 796.283Z" fill="#002145"/>
<path d="M23.8884 736.572L52.5571 794.568L51.9755 794.854L23.3068 736.858L23.8884 736.572Z" fill="#002145"/>
<path d="M56.0466 792.853L27.3779 734.857L26.7963 735.143L55.465 793.139L56.0466 792.853Z" fill="#002145"/>
<path d="M30.8674 733.142L59.5361 791.138L58.9545 791.423L30.2858 733.427L30.8674 733.142Z" fill="#002145"/>
<path d="M63.0256 789.422L34.3569 731.426L33.7753 731.712L62.444 789.708L63.0256 789.422Z" fill="#002145"/>
<path d="M37.8464 729.711L66.5151 787.707L65.9335 787.993L37.2648 729.997L37.8464 729.711Z" fill="#002145"/>
<path d="M70.0046 785.992L41.3359 727.996L40.7543 728.281L69.423 786.277L70.0046 785.992Z" fill="#002145"/>
<path d="M44.8254 726.28L73.4941 784.276L72.9125 784.562L44.2438 726.566L44.8254 726.28Z" fill="#002145"/>
<path d="M76.9836 782.561L48.3149 724.565L47.7333 724.851L76.402 782.847L76.9836 782.561Z" fill="#002145"/>
<path d="M51.8044 722.85L80.4731 780.846L79.8915 781.131L51.2228 723.135L51.8044 722.85Z" fill="#002145"/>
<path d="M83.9626 779.13L55.2939 721.134L54.7123 721.42L83.381 779.416L83.9626 779.13Z" fill="#002145"/>
<path d="M58.7834 719.419L87.4521 777.415L86.8705 777.701L58.2018 719.705L58.7834 719.419Z" fill="#002145"/>
<path d="M90.9416 775.7L62.2729 717.704L61.6913 717.99L90.36 775.985L90.9416 775.7Z" fill="#002145"/>
<path d="M65.7624 715.988L94.4311 773.984L93.8495 774.27L65.1808 716.274L65.7624 715.988Z" fill="#002145"/>
<path d="M97.9206 772.269L69.2519 714.273L68.6703 714.559L97.339 772.555L97.9206 772.269Z" fill="#002145"/>
<path d="M72.7414 712.558L101.41 770.554L100.829 770.84L72.1598 712.844L72.7414 712.558Z" fill="#002145"/>
<path d="M104.9 768.838L76.2309 710.842L75.6493 711.128L104.318 769.124L104.9 768.838Z" fill="#002145"/>
<path d="M79.7204 709.127L108.389 767.123L107.808 767.409L79.1388 709.413L79.7204 709.127Z" fill="#002145"/>
<path d="M111.879 765.408L83.2099 707.412L82.6283 707.698L111.297 765.694L111.879 765.408Z" fill="#002145"/>
<path d="M86.6994 705.696L115.368 763.692L114.787 763.978L86.1178 705.982L86.6994 705.696Z" fill="#002145"/>
<path d="M118.858 761.977L90.1889 703.981L89.6073 704.267L118.276 762.263L118.858 761.977Z" fill="#002145"/>
<path d="M93.6784 702.266L122.347 760.262L121.766 760.548L93.0968 702.552L93.6784 702.266Z" fill="#002145"/>
<path d="M125.837 758.546L97.1679 700.55L96.5863 700.836L125.255 758.832L125.837 758.546Z" fill="#002145"/>
<path d="M100.657 698.835L129.326 756.831L128.745 757.117L100.076 699.121L100.657 698.835Z" fill="#002145"/>
<path d="M132.816 755.116L104.147 697.12L103.565 697.406L132.234 755.402L132.816 755.116Z" fill="#002145"/>
<path d="M107.636 695.404L136.305 753.4L135.724 753.686L107.055 695.69L107.636 695.404Z" fill="#002145"/>
<path d="M139.795 751.685L111.126 693.689L110.544 693.975L139.213 751.971L139.795 751.685Z" fill="#002145"/>
<path d="M114.615 691.974L143.284 749.97L142.703 750.256L114.034 692.26L114.615 691.974Z" fill="#002145"/>
<path d="M146.774 748.254L118.105 690.258L117.523 690.544L146.192 748.54L146.774 748.254Z" fill="#002145"/>
<path d="M121.594 688.543L150.263 746.539L149.682 746.825L121.013 688.829L121.594 688.543Z" fill="#002145"/>
<path d="M153.753 744.824L125.084 686.828L124.502 687.114L153.171 745.11L153.753 744.824Z" fill="#002145"/>
<path d="M128.573 685.112L157.242 743.108L156.661 743.394L127.992 685.398L128.573 685.112Z" fill="#002145"/>
<path d="M160.732 741.393L132.063 683.397L131.481 683.683L160.15 741.679L160.732 741.393Z" fill="#002145"/>
<path d="M135.552 681.682L164.221 739.678L163.64 739.964L134.971 681.968L135.552 681.682Z" fill="#002145"/>
<path d="M167.711 737.963L139.042 679.967L138.46 680.252L167.129 738.248L167.711 737.963Z" fill="#002145"/>
<path d="M142.531 678.251L171.2 736.247L170.619 736.533L141.95 678.537L142.531 678.251Z" fill="#002145"/>
<path d="M174.69 734.532L146.021 676.536L145.439 676.822L174.108 734.818L174.69 734.532Z" fill="#002145"/>
<path d="M149.51 674.821L178.179 732.817L177.598 733.102L148.929 675.106L149.51 674.821Z" fill="#002145"/>
<path d="M181.669 731.101L153 673.105L152.418 673.391L181.087 731.387L181.669 731.101Z" fill="#002145"/>
<path d="M156.489 671.39L185.158 729.386L184.577 729.672L155.908 671.676L156.489 671.39Z" fill="#002145"/>
<path d="M188.648 727.671L159.979 669.675L159.397 669.96L188.066 727.956L188.648 727.671Z" fill="#002145"/>
<path d="M163.468 667.959L192.137 725.955L191.556 726.241L162.887 668.245L163.468 667.959Z" fill="#002145"/>
<path d="M195.627 724.24L166.958 666.244L166.376 666.53L195.045 724.526L195.627 724.24Z" fill="#002145"/>
<path d="M170.447 664.529L199.116 722.525L198.535 722.811L169.866 664.815L170.447 664.529Z" fill="#002145"/>
<path d="M202.606 720.809L173.937 662.813L173.355 663.099L202.024 721.095L202.606 720.809Z" fill="#002145"/>
<path d="M499.898 595.52L454.252 641.443L453.791 640.988L499.437 595.065L499.898 595.52Z" fill="#002145"/>
<path d="M502.661 598.251L457.015 644.174L456.554 643.719L502.2 597.796L502.661 598.251Z" fill="#002145"/>
<path d="M459.778 646.905L505.424 600.982L504.963 600.527L459.317 646.45L459.778 646.905Z" fill="#002145"/>
<path d="M508.187 603.713L462.541 649.636L462.081 649.181L507.726 603.258L508.187 603.713Z" fill="#002145"/>
<path d="M465.304 652.367L510.95 606.444L510.489 605.989L464.844 651.912L465.304 652.367Z" fill="#002145"/>
<path d="M513.713 609.176L468.067 655.099L467.607 654.643L513.253 608.72L513.713 609.176Z" fill="#002145"/>
<path d="M470.83 657.83L516.476 611.907L516.016 611.451L470.37 657.374L470.83 657.83Z" fill="#002145"/>
<path d="M519.239 614.638L473.593 660.561L473.133 660.106L518.779 614.183L519.239 614.638Z" fill="#002145"/>
<path d="M476.357 663.292L522.002 617.369L521.542 616.914L475.896 662.837L476.357 663.292Z" fill="#002145"/>
<path d="M524.765 620.1L479.12 666.023L478.659 665.568L524.305 619.645L524.765 620.1Z" fill="#002145"/>
<path d="M481.883 668.754L527.529 622.831L527.068 622.376L481.422 668.299L481.883 668.754Z" fill="#002145"/>
<path d="M530.292 625.562L484.646 671.485L484.185 671.03L529.831 625.107L530.292 625.562Z" fill="#002145"/>
<path d="M487.409 674.216L533.055 628.293L532.594 627.838L486.948 673.761L487.409 674.216Z" fill="#002145"/>
<path d="M535.818 631.024L490.172 676.947L489.711 676.492L535.357 630.569L535.818 631.024Z" fill="#002145"/>
<path d="M492.935 679.678L538.581 633.755L538.12 633.3L492.475 679.223L492.935 679.678Z" fill="#002145"/>
<path d="M541.344 636.487L495.698 682.41L495.238 681.954L540.883 636.031L541.344 636.487Z" fill="#002145"/>
<path d="M498.461 685.141L544.107 639.218L543.647 638.762L498.001 684.685L498.461 685.141Z" fill="#002145"/>
<path d="M546.87 641.949L501.224 687.872L500.764 687.417L546.41 641.494L546.87 641.949Z" fill="#002145"/>
<path d="M503.987 690.603L549.633 644.68L549.173 644.225L503.527 690.148L503.987 690.603Z" fill="#002145"/>
<path d="M552.396 647.411L506.751 693.334L506.29 692.879L551.936 646.956L552.396 647.411Z" fill="#002145"/>
<path d="M509.514 696.065L555.159 650.142L554.699 649.687L509.053 695.61L509.514 696.065Z" fill="#002145"/>
<path d="M557.923 652.873L512.277 698.796L511.816 698.341L557.462 652.418L557.923 652.873Z" fill="#002145"/>
<path d="M515.04 701.527L560.686 655.604L560.225 655.149L514.579 701.072L515.04 701.527Z" fill="#002145"/>
<path d="M563.449 658.335L517.803 704.258L517.342 703.803L562.988 657.88L563.449 658.335Z" fill="#002145"/>
<path d="M520.566 706.99L566.212 661.066L565.751 660.611L520.106 706.534L520.566 706.99Z" fill="#002145"/>
<path d="M568.975 663.798L523.329 709.721L522.869 709.265L568.514 663.342L568.975 663.798Z" fill="#002145"/>
<path d="M526.092 712.452L571.738 666.529L571.278 666.073L525.632 711.997L526.092 712.452Z" fill="#002145"/>
<path d="M574.501 669.26L528.855 715.183L528.395 714.728L574.041 668.805L574.501 669.26Z" fill="#002145"/>
<path d="M531.618 717.914L577.264 671.991L576.804 671.536L531.158 717.459L531.618 717.914Z" fill="#002145"/>
<path d="M580.027 674.722L534.382 720.645L533.921 720.19L579.567 674.267L580.027 674.722Z" fill="#002145"/>
<path d="M537.145 723.376L582.79 677.453L582.33 676.998L536.684 722.921L537.145 723.376Z" fill="#002145"/>
<path d="M585.554 680.184L539.908 726.107L539.447 725.652L585.093 679.729L585.554 680.184Z" fill="#002145"/>
<path d="M542.671 728.838L588.317 682.915L587.856 682.46L542.21 728.383L542.671 728.838Z" fill="#002145"/>
<path d="M591.08 685.646L545.434 731.569L544.973 731.114L590.619 685.191L591.08 685.646Z" fill="#002145"/>
<path d="M548.197 734.301L593.843 688.377L593.382 687.922L547.737 733.845L548.197 734.301Z" fill="#002145"/>
<path d="M596.606 691.109L550.96 737.032L550.5 736.576L596.145 690.653L596.606 691.109Z" fill="#002145"/>
<path d="M553.723 739.763L599.369 693.84L598.909 693.384L553.263 739.308L553.723 739.763Z" fill="#002145"/>
<path d="M602.132 696.571L556.486 742.494L556.026 742.039L601.672 696.116L602.132 696.571Z" fill="#002145"/>
<path d="M559.249 745.225L604.895 699.302L604.435 698.847L558.789 744.77L559.249 745.225Z" fill="#002145"/>
<path d="M607.658 702.033L562.013 747.956L561.552 747.501L607.198 701.578L607.658 702.033Z" fill="#002145"/>
<path d="M564.776 750.687L610.421 704.764L609.961 704.309L564.315 750.232L564.776 750.687Z" fill="#002145"/>
<path d="M613.185 707.495L567.539 753.418L567.078 752.963L612.724 707.04L613.185 707.495Z" fill="#002145"/>
<path d="M570.302 756.149L615.948 710.226L615.487 709.771L569.841 755.694L570.302 756.149Z" fill="#002145"/>
<path d="M618.711 712.957L573.065 758.88L572.604 758.425L618.25 712.502L618.711 712.957Z" fill="#002145"/>
<path d="M575.828 761.612L621.474 715.688L621.013 715.233L575.368 761.156L575.828 761.612Z" fill="#002145"/>
<path d="M624.237 718.42L578.591 764.343L578.131 763.887L623.776 717.964L624.237 718.42Z" fill="#002145"/>
<path d="M581.354 767.074L627 721.151L626.54 720.695L580.894 766.619L581.354 767.074Z" fill="#002145"/>
<path d="M279.595 714.235L326.841 669.951L327.285 670.422L280.039 714.706L279.595 714.235Z" fill="#002145"/>
<path d="M276.93 711.408L324.176 667.124L324.62 667.595L277.374 711.879L276.93 711.408Z" fill="#002145"/>
<path d="M321.512 664.297L274.266 708.581L274.71 709.053L321.956 664.768L321.512 664.297Z" fill="#002145"/>
<path d="M271.601 705.755L318.847 661.47L319.291 661.941L272.045 706.226L271.601 705.755Z" fill="#002145"/>
<path d="M316.183 658.643L268.937 702.928L269.381 703.399L316.627 659.114L316.183 658.643Z" fill="#002145"/>
<path d="M266.272 700.101L313.518 655.816L313.962 656.288L266.716 700.572L266.272 700.101Z" fill="#002145"/>
<path d="M310.854 652.99L263.608 697.274L264.052 697.745L311.298 653.461L310.854 652.99Z" fill="#002145"/>
<path d="M260.943 694.447L308.189 650.163L308.633 650.634L261.387 694.918L260.943 694.447Z" fill="#002145"/>
<path d="M305.525 647.336L258.279 691.62L258.723 692.091L305.969 647.807L305.525 647.336Z" fill="#002145"/>
<path d="M255.614 688.793L302.86 644.509L303.304 644.98L256.058 689.265L255.614 688.793Z" fill="#002145"/>
<path d="M300.196 641.682L252.95 685.967L253.394 686.438L300.64 642.153L300.196 641.682Z" fill="#002145"/>
<path d="M250.285 683.14L297.531 638.855L297.975 639.327L250.729 683.611L250.285 683.14Z" fill="#002145"/>
<path d="M294.867 636.029L247.621 680.313L248.065 680.784L295.311 636.5L294.867 636.029Z" fill="#002145"/>
<path d="M244.956 677.486L292.202 633.202L292.646 633.673L245.4 677.957L244.956 677.486Z" fill="#002145"/>
<path d="M289.538 630.375L242.292 674.659L242.736 675.13L289.982 630.846L289.538 630.375Z" fill="#002145"/>
<path d="M239.627 671.832L286.873 627.548L287.317 628.019L240.071 672.304L239.627 671.832Z" fill="#002145"/>
<path d="M284.209 624.721L236.963 669.006L237.407 669.477L284.653 625.192L284.209 624.721Z" fill="#002145"/>
<path d="M234.298 666.179L281.544 621.894L281.988 622.365L234.742 666.65L234.298 666.179Z" fill="#002145"/>
<path d="M278.88 619.067L231.634 663.352L232.078 663.823L279.324 619.539L278.88 619.067Z" fill="#002145"/>
<path d="M228.969 660.525L276.215 616.241L276.659 616.712L229.413 660.996L228.969 660.525Z" fill="#002145"/>
<path d="M273.551 613.414L226.305 657.698L226.749 658.169L273.995 613.885L273.551 613.414Z" fill="#002145"/>
<path d="M223.64 654.871L270.886 610.587L271.33 611.058L224.084 655.342L223.64 654.871Z" fill="#002145"/>
<path d="M268.222 607.76L220.976 652.045L221.42 652.516L268.666 608.231L268.222 607.76Z" fill="#002145"/>
<path d="M218.311 649.218L265.557 604.933L266.001 605.404L218.755 649.689L218.311 649.218Z" fill="#002145"/>
<path d="M262.893 602.106L215.647 646.391L216.091 646.862L263.337 602.578L262.893 602.106Z" fill="#002145"/>
<path d="M212.982 643.564L260.228 599.28L260.672 599.751L213.426 644.035L212.982 643.564Z" fill="#002145"/>
<path d="M257.564 596.453L210.318 640.737L210.762 641.208L258.008 596.924L257.564 596.453Z" fill="#002145"/>
<path d="M207.653 637.91L254.899 593.626L255.343 594.097L208.097 638.381L207.653 637.91Z" fill="#002145"/>
<path d="M252.235 590.799L204.989 635.083L205.433 635.555L252.679 591.27L252.235 590.799Z" fill="#002145"/>
<path d="M202.324 632.257L249.57 587.972L250.014 588.443L202.768 632.728L202.324 632.257Z" fill="#002145"/>
<path d="M246.906 585.145L199.66 629.43L200.104 629.901L247.35 585.616L246.906 585.145Z" fill="#002145"/>
<path d="M196.995 626.603L244.241 582.318L244.685 582.79L197.439 627.074L196.995 626.603Z" fill="#002145"/>
<path d="M241.577 579.492L194.331 623.776L194.775 624.247L242.021 579.963L241.577 579.492Z" fill="#002145"/>
<path d="M191.666 620.949L238.912 576.665L239.356 577.136L192.11 621.42L191.666 620.949Z" fill="#002145"/>
<path d="M236.248 573.838L189.002 618.122L189.446 618.593L236.692 574.309L236.248 573.838Z" fill="#002145"/>
<path d="M186.337 615.296L233.583 571.011L234.027 571.482L186.781 615.767L186.337 615.296Z" fill="#002145"/>
<path d="M230.919 568.184L183.673 612.469L184.117 612.94L231.363 568.655L230.919 568.184Z" fill="#002145"/>
<path d="M181.008 609.642L228.254 565.357L228.698 565.829L181.452 610.113L181.008 609.642Z" fill="#002145"/>
<path d="M225.59 562.531L178.344 606.815L178.788 607.286L226.034 563.002L225.59 562.531Z" fill="#002145"/>
<path d="M175.679 603.988L222.925 559.704L223.369 560.175L176.123 604.459L175.679 603.988Z" fill="#002145"/>
<path d="M220.261 556.877L173.015 601.161L173.459 601.632L220.705 557.348L220.261 556.877Z" fill="#002145"/>
<path d="M170.35 598.334L217.596 554.05L218.04 554.521L170.794 598.806L170.35 598.334Z" fill="#002145"/>
<path d="M214.932 551.223L167.686 595.508L168.13 595.979L215.376 551.694L214.932 551.223Z" fill="#002145"/>
<path d="M165.021 592.681L212.267 548.396L212.711 548.867L165.465 593.152L165.021 592.681Z" fill="#002145"/>
<path d="M209.603 545.569L162.357 589.854L162.801 590.325L210.047 546.041L209.603 545.569Z" fill="#002145"/>
<path d="M159.692 587.027L206.938 542.743L207.382 543.214L160.136 587.498L159.692 587.027Z" fill="#002145"/>
<path d="M204.274 539.916L157.028 584.2L157.472 584.671L204.718 540.387L204.274 539.916Z" fill="#002145"/>
<path d="M547.192 686.346L606.445 660.089L606.709 660.68L547.455 686.937L547.192 686.346Z" fill="#002145"/>
<path d="M545.612 682.801L604.866 656.544L605.129 657.135L545.875 683.391L545.612 682.801Z" fill="#002145"/>
<path d="M603.286 652.999L544.032 679.255L544.295 679.846L603.549 653.59L603.286 652.999Z" fill="#002145"/>
<path d="M542.452 675.71L601.706 649.453L601.969 650.044L542.716 676.301L542.452 675.71Z" fill="#002145"/>
<path d="M600.126 645.908L540.872 672.165L541.136 672.756L600.389 646.499L600.126 645.908Z" fill="#002145"/>
<path d="M539.293 668.619L598.546 642.363L598.81 642.954L539.556 669.21L539.293 668.619Z" fill="#002145"/>
<path d="M596.967 638.817L537.713 665.074L537.976 665.665L597.23 639.408L596.967 638.817Z" fill="#002145"/>
<path d="M536.133 661.529L595.387 635.272L595.65 635.863L536.396 662.12L536.133 661.529Z" fill="#002145"/>
<path d="M593.807 631.727L534.553 657.983L534.816 658.574L594.07 632.318L593.807 631.727Z" fill="#002145"/>
<path d="M532.973 654.438L592.227 628.182L592.49 628.772L533.237 655.029L532.973 654.438Z" fill="#002145"/>
<path d="M590.647 624.636L531.394 650.893L531.657 651.484L590.911 625.227L590.647 624.636Z" fill="#002145"/>
<path d="M529.814 647.348L589.068 621.091L589.331 621.682L530.077 647.938L529.814 647.348Z" fill="#002145"/>
<path d="M587.488 617.546L528.234 643.802L528.497 644.393L587.751 618.137L587.488 617.546Z" fill="#002145"/>
<path d="M526.654 640.257L585.908 614L586.171 614.591L526.917 640.848L526.654 640.257Z" fill="#002145"/>
<path d="M584.328 610.455L525.074 636.712L525.338 637.303L584.591 611.046L584.328 610.455Z" fill="#002145"/>
<path d="M523.495 633.166L582.748 606.91L583.012 607.501L523.758 633.757L523.495 633.166Z" fill="#002145"/>
<path d="M581.169 603.364L521.915 629.621L522.178 630.212L581.432 603.955L581.169 603.364Z" fill="#002145"/>
<path d="M520.335 626.076L579.589 599.819L579.852 600.41L520.598 626.667L520.335 626.076Z" fill="#002145"/>
<path d="M578.009 596.274L518.755 622.53L519.018 623.121L578.272 596.865L578.009 596.274Z" fill="#002145"/>
<path d="M517.175 618.985L576.429 592.729L576.692 593.319L517.439 619.576L517.175 618.985Z" fill="#002145"/>
<path d="M574.849 589.183L515.595 615.44L515.859 616.031L575.113 589.774L574.849 589.183Z" fill="#002145"/>
<path d="M514.016 611.894L573.27 585.638L573.533 586.229L514.279 612.485L514.016 611.894Z" fill="#002145"/>
<path d="M571.69 582.093L512.436 608.349L512.699 608.94L571.953 582.684L571.69 582.093Z" fill="#002145"/>
<path d="M510.856 604.804L570.11 578.547L570.373 579.138L511.119 605.395L510.856 604.804Z" fill="#002145"/>
<path d="M568.53 575.002L509.276 601.259L509.54 601.849L568.793 575.593L568.53 575.002Z" fill="#002145"/>
<path d="M507.696 597.713L566.95 571.457L567.214 572.048L507.96 598.304L507.696 597.713Z" fill="#002145"/>
<path d="M565.37 567.911L506.117 594.168L506.38 594.759L565.634 568.502L565.37 567.911Z" fill="#002145"/>
<path d="M504.537 590.623L563.791 564.366L564.054 564.957L504.8 591.214L504.537 590.623Z" fill="#002145"/>
<path d="M562.211 560.821L502.957 587.077L503.22 587.668L562.474 561.412L562.211 560.821Z" fill="#002145"/>
<path d="M501.377 583.532L560.631 557.275L560.894 557.866L501.641 584.123L501.377 583.532Z" fill="#002145"/>
<path d="M559.051 553.73L499.797 579.987L500.061 580.578L559.315 554.321L559.051 553.73Z" fill="#002145"/>
<path d="M498.218 576.441L557.471 550.185L557.735 550.776L498.481 577.032L498.218 576.441Z" fill="#002145"/>
<path d="M555.892 546.64L496.638 572.896L496.901 573.487L556.155 547.23L555.892 546.64Z" fill="#002145"/>
<path d="M495.058 569.351L554.312 543.094L554.575 543.685L495.321 569.942L495.058 569.351Z" fill="#002145"/>
<path d="M552.732 539.549L493.478 565.806L493.742 566.396L552.995 540.14L552.732 539.549Z" fill="#002145"/>
<path d="M491.898 562.26L551.152 536.004L551.416 536.595L492.162 562.851L491.898 562.26Z" fill="#002145"/>
<path d="M549.572 532.458L490.319 558.715L490.582 559.306L549.836 533.049L549.572 532.458Z" fill="#002145"/>
<path d="M488.739 555.17L547.993 528.913L548.256 529.504L489.002 555.761L488.739 555.17Z" fill="#002145"/>
<path d="M546.413 525.368L487.159 551.624L487.422 552.215L546.676 525.959L546.413 525.368Z" fill="#002145"/>
<path d="M485.579 548.079L544.833 521.822L545.096 522.413L485.842 548.67L485.579 548.079Z" fill="#002145"/>
<path d="M543.253 518.277L483.999 544.534L484.263 545.125L543.517 518.868L543.253 518.277Z" fill="#002145"/>
<path d="M482.42 540.988L541.673 514.732L541.937 515.323L482.683 541.579L482.42 540.988Z" fill="#002145"/>
<path d="M540.094 511.187L480.84 537.443L481.103 538.034L540.357 511.777L540.094 511.187Z" fill="#002145"/>
<path d="M479.26 533.898L538.514 507.641L538.777 508.232L479.523 534.489L479.26 533.898Z" fill="#002145"/>
<path d="M536.934 504.096L477.68 530.352L477.943 530.943L537.197 504.687L536.934 504.096Z" fill="#002145"/>
<path d="M476.1 526.807L535.354 500.551L535.618 501.141L476.364 527.398L476.1 526.807Z" fill="#002145"/>
<path d="M533.774 497.005L474.521 523.262L474.784 523.853L534.038 497.596L533.774 497.005Z" fill="#002145"/>
<path d="M359.954 450.632L296.601 464.403L296.463 463.772L359.815 450L359.954 450.632Z" fill="#002145"/>
<path d="M360.782 454.422L297.429 468.194L297.291 467.562L360.644 453.791L360.782 454.422Z" fill="#002145"/>
<path d="M298.258 471.985L361.611 458.213L361.473 457.581L298.12 471.353L298.258 471.985Z" fill="#002145"/>
<path d="M362.439 462.003L299.087 475.775L298.949 475.143L362.301 461.372L362.439 462.003Z" fill="#002145"/>
<path d="M299.915 479.566L363.268 465.794L363.13 465.162L299.777 478.934L299.915 479.566Z" fill="#002145"/>
<path d="M364.097 469.585L300.744 483.356L300.606 482.724L363.959 468.953L364.097 469.585Z" fill="#002145"/>
<path d="M301.573 487.147L364.925 473.375L364.787 472.743L301.434 486.515L301.573 487.147Z" fill="#002145"/>
<path d="M365.754 477.166L302.401 490.937L302.263 490.306L365.616 476.534L365.754 477.166Z" fill="#002145"/>
<path d="M303.23 494.728L366.583 480.956L366.444 480.324L303.092 494.096L303.23 494.728Z" fill="#002145"/>
<path d="M367.411 484.747L304.058 498.518L303.92 497.887L367.273 484.115L367.411 484.747Z" fill="#002145"/>
<path d="M304.887 502.309L368.24 488.537L368.102 487.906L304.749 501.677L304.887 502.309Z" fill="#002145"/>
<path d="M369.068 492.328L305.716 506.1L305.578 505.468L368.93 491.696L369.068 492.328Z" fill="#002145"/>
<path d="M306.544 509.89L369.897 496.118L369.759 495.487L306.406 509.258L306.544 509.89Z" fill="#002145"/>
<path d="M370.726 499.909L307.373 513.681L307.235 513.049L370.587 499.277L370.726 499.909Z" fill="#002145"/>
<path d="M308.201 517.471L371.554 503.699L371.416 503.068L308.063 516.839L308.201 517.471Z" fill="#002145"/>
<path d="M372.383 507.49L309.03 521.262L308.892 520.63L372.245 506.858L372.383 507.49Z" fill="#002145"/>
<path d="M309.859 525.052L373.211 511.281L373.073 510.649L309.721 524.421L309.859 525.052Z" fill="#002145"/>
<path d="M374.04 515.071L310.687 528.843L310.549 528.211L373.902 514.439L374.04 515.071Z" fill="#002145"/>
<path d="M311.516 532.633L374.869 518.862L374.731 518.23L311.378 532.002L311.516 532.633Z" fill="#002145"/>
<path d="M375.697 522.652L312.345 536.424L312.206 535.792L375.559 522.02L375.697 522.652Z" fill="#002145"/>
<path d="M313.173 540.214L376.526 526.443L376.388 525.811L313.035 539.583L313.173 540.214Z" fill="#002145"/>
<path d="M377.354 530.233L314.002 544.005L313.864 543.373L377.216 529.602L377.354 530.233Z" fill="#002145"/>
<path d="M314.83 547.796L378.183 534.024L378.045 533.392L314.692 547.164L314.83 547.796Z" fill="#002145"/>
<path d="M379.012 537.814L315.659 551.586L315.521 550.954L378.874 537.183L379.012 537.814Z" fill="#002145"/>
<path d="M316.488 555.377L379.84 541.605L379.702 540.973L316.35 554.745L316.488 555.377Z" fill="#002145"/>
<path d="M380.669 545.396L317.316 559.167L317.178 558.535L380.531 544.764L380.669 545.396Z" fill="#002145"/>
<path d="M318.145 562.958L381.498 549.186L381.359 548.554L318.007 562.326L318.145 562.958Z" fill="#002145"/>
<path d="M382.326 552.977L318.973 566.748L318.835 566.117L382.188 552.345L382.326 552.977Z" fill="#002145"/>
<path d="M319.802 570.539L383.155 556.767L383.017 556.135L319.664 569.907L319.802 570.539Z" fill="#002145"/>
<path d="M383.983 560.558L320.631 574.329L320.493 573.698L383.845 559.926L383.983 560.558Z" fill="#002145"/>
<path d="M321.459 578.12L384.812 564.348L384.674 563.717L321.321 577.488L321.459 578.12Z" fill="#002145"/>
<path d="M385.641 568.139L322.288 581.911L322.15 581.279L385.503 567.507L385.641 568.139Z" fill="#002145"/>
<path d="M323.117 585.701L386.469 571.929L386.331 571.298L322.978 585.069L323.117 585.701Z" fill="#002145"/>
<path d="M387.298 575.72L323.945 589.492L323.807 588.86L387.16 575.088L387.298 575.72Z" fill="#002145"/>
<path d="M324.774 593.282L388.126 579.511L387.988 578.879L324.636 592.65L324.774 593.282Z" fill="#002145"/>
<path d="M388.955 583.301L325.602 597.073L325.464 596.441L388.817 582.669L388.955 583.301Z" fill="#002145"/>
<path d="M326.431 600.863L389.784 587.092L389.646 586.46L326.293 600.232L326.431 600.863Z" fill="#002145"/>
<path d="M390.612 590.882L327.26 604.654L327.122 604.022L390.474 590.25L390.612 590.882Z" fill="#002145"/>
<path d="M328.088 608.444L391.441 594.673L391.303 594.041L327.95 607.813L328.088 608.444Z" fill="#002145"/>
<path d="M392.27 598.463L328.917 612.235L328.779 611.603L392.131 597.832L392.27 598.463Z" fill="#002145"/>
<path d="M329.745 616.026L393.098 602.254L392.96 601.622L329.607 615.394L329.745 616.026Z" fill="#002145"/>
<path d="M393.927 606.044L330.574 619.816L330.436 619.184L393.789 605.413L393.927 606.044Z" fill="#002145"/>
<path d="M331.403 623.607L394.755 609.835L394.617 609.203L331.265 622.975L331.403 623.607Z" fill="#002145"/>
<path d="M395.584 613.625L332.231 627.397L332.093 626.765L395.446 612.994L395.584 613.625Z" fill="#002145"/>
<path d="M333.06 631.188L396.413 617.416L396.275 616.784L332.922 630.556L333.06 631.188Z" fill="#002145"/>
<path d="M397.241 621.207L333.888 634.978L333.75 634.347L397.103 620.575L397.241 621.207Z" fill="#002145"/>
<path d="M334.717 638.769L398.07 624.997L397.932 624.365L334.579 638.137L334.717 638.769Z" fill="#002145"/>
</g>
</svg>
