<svg width="627" height="700" viewBox="0 0 627 700" fill="none" xmlns="http://www.w3.org/2000/svg">
  <g opacity="0.1">
    <path d="M147.32 568.59L211.868 574.73L211.806 575.374L147.259 569.233L147.32 568.59Z" fill="#002145"/>
    <path d="M147.69 564.728L212.237 570.868L212.176 571.512L147.628 565.371L147.69 564.728Z" fill="#002145"/>
    <path d="M212.607 567.006L148.059 560.866L147.998 561.509L212.545 567.65L212.607 567.006Z" fill="#002145"/>
    <path d="M148.429 557.004L212.976 563.144L212.915 563.788L148.367 557.647L148.429 557.004Z" fill="#002145"/>
    <path d="M213.346 559.282L148.798 553.141L148.737 553.785L213.284 559.926L213.346 559.282Z" fill="#002145"/>
    <path d="M149.168 549.279L213.715 555.42L213.653 556.063L149.106 549.923L149.168 549.279Z" fill="#002145"/>
    <path d="M214.084 551.558L149.537 545.417L149.475 546.061L214.023 552.201L214.084 551.558Z" fill="#002145"/>
    <path d="M149.906 541.555L214.454 547.696L214.392 548.339L149.845 542.199L149.906 541.555Z" fill="#002145"/>
    <path d="M214.823 543.834L150.276 537.693L150.214 538.337L214.762 544.477L214.823 543.834Z" fill="#002145"/>
    <path d="M150.645 533.831L215.193 539.972L215.131 540.615L150.584 534.475L150.645 533.831Z" fill="#002145"/>
    <path d="M215.562 536.11L151.015 529.969L150.953 530.613L215.501 536.753L215.562 536.11Z" fill="#002145"/>
    <path d="M151.384 526.107L215.932 532.248L215.87 532.891L151.323 526.751L151.384 526.107Z" fill="#002145"/>
    <path d="M216.301 528.386L151.754 522.245L151.692 522.889L216.24 529.029L216.301 528.386Z" fill="#002145"/>
    <path d="M152.123 518.383L216.671 524.523L216.609 525.167L152.062 519.027L152.123 518.383Z" fill="#002145"/>
    <path d="M217.04 520.661L152.493 514.521L152.431 515.165L216.979 521.305L217.04 520.661Z" fill="#002145"/>
    <path d="M152.862 510.659L217.41 516.799L217.348 517.443L152.801 511.303L152.862 510.659Z" fill="#002145"/>
    <path d="M217.779 512.937L153.232 506.797L153.17 507.441L217.717 513.581L217.779 512.937Z" fill="#002145"/>
    <path d="M153.601 502.935L218.148 509.075L218.087 509.719L153.539 503.579L153.601 502.935Z" fill="#002145"/>
    <path d="M218.518 505.213L153.97 499.073L153.909 499.717L218.456 505.857L218.518 505.213Z" fill="#002145"/>
    <path d="M154.34 495.211L218.887 501.351L218.826 501.995L154.278 495.855L154.34 495.211Z" fill="#002145"/>
    <path d="M219.257 497.489L154.709 491.349L154.648 491.993L219.195 498.133L219.257 497.489Z" fill="#002145"/>
    <path d="M155.079 487.487L219.626 493.627L219.565 494.271L155.017 488.131L155.079 487.487Z" fill="#002145"/>
    <path d="M219.996 489.765L155.448 483.625L155.387 484.268L219.934 490.409L219.996 489.765Z" fill="#002145"/>
    <path d="M155.818 479.763L220.365 485.903L220.304 486.547L155.756 480.406L155.818 479.763Z" fill="#002145"/>
    <path d="M220.735 482.041L156.187 475.901L156.126 476.544L220.673 482.685L220.735 482.041Z" fill="#002145"/>
    <path d="M156.557 472.039L221.104 478.179L221.043 478.823L156.495 472.682L156.557 472.039Z" fill="#002145"/>
    <path d="M221.474 474.317L156.926 468.177L156.864 468.82L221.412 474.961L221.474 474.317Z" fill="#002145"/>
    <path d="M157.296 464.315L221.843 470.455L221.781 471.099L157.234 464.958L157.296 464.315Z" fill="#002145"/>
    <path d="M222.212 466.593L157.665 460.453L157.603 461.096L222.151 467.237L222.212 466.593Z" fill="#002145"/>
    <path d="M158.034 456.591L222.582 462.731L222.52 463.375L157.973 457.234L158.034 456.591Z" fill="#002145"/>
    <path d="M222.951 458.869L158.404 452.729L158.342 453.372L222.89 459.513L222.951 458.869Z" fill="#002145"/>
    <path d="M158.773 448.866L223.321 455.007L223.259 455.651L158.712 449.51L158.773 448.866Z" fill="#002145"/>
    <path d="M223.69 451.145L159.143 445.004L159.081 445.648L223.629 451.788L223.69 451.145Z" fill="#002145"/>
    <path d="M159.512 441.142L224.06 447.283L223.998 447.926L159.451 441.786L159.512 441.142Z" fill="#002145"/>
    <path d="M224.429 443.421L159.882 437.28L159.82 437.924L224.368 444.064L224.429 443.421Z" fill="#002145"/>
    <path d="M160.251 433.418L224.799 439.559L224.737 440.202L160.19 434.062L160.251 433.418Z" fill="#002145"/>
    <path d="M225.168 435.697L160.621 429.556L160.559 430.2L225.106 436.34L225.168 435.697Z" fill="#002145"/>
    <path d="M160.99 425.694L225.537 431.835L225.476 432.478L160.928 426.338L160.99 425.694Z" fill="#002145"/>
    <path d="M225.907 427.973L161.36 421.832L161.298 422.476L225.845 428.616L225.907 427.973Z" fill="#002145"/>
    <path d="M161.729 417.97L226.276 424.111L226.215 424.754L161.667 418.614L161.729 417.97Z" fill="#002145"/>
    <path d="M226.646 420.249L162.098 414.108L162.037 414.752L226.584 420.892L226.646 420.249Z" fill="#002145"/>
    <path d="M162.468 410.246L227.015 416.386L226.954 417.03L162.406 410.89L162.468 410.246Z" fill="#002145"/>
    <path d="M227.385 412.524L162.837 406.384L162.776 407.028L227.323 413.168L227.385 412.524Z" fill="#002145"/>
    <path d="M163.207 402.522L227.754 408.662L227.693 409.306L163.145 403.166L163.207 402.522Z" fill="#002145"/>
    <path d="M228.124 404.8L163.576 398.66L163.515 399.304L228.062 405.444L228.124 404.8Z" fill="#002145"/>
    <path d="M163.946 394.798L228.493 400.938L228.432 401.582L163.884 395.442L163.946 394.798Z" fill="#002145"/>
    <path d="M228.863 397.076L164.315 390.936L164.254 391.58L228.801 397.72L228.863 397.076Z" fill="#002145"/>
    <path d="M0.11839 667.522L63.8688 679.328L63.7504 679.964L0 668.158L0.11839 667.522Z" fill="#002145"/>
    <path d="M0.828751 663.708L64.5792 675.514L64.4608 676.15L0.710361 664.344L0.828751 663.708Z" fill="#002145"/>
    <path d="M65.2896 671.7L1.53911 659.894L1.42072 660.529L65.1712 672.336L65.2896 671.7Z" fill="#002145"/>
    <path d="M2.24947 656.079L65.9999 667.885L65.8815 668.521L2.13108 656.715L2.24947 656.079Z" fill="#002145"/>
    <path d="M66.7103 664.071L2.95983 652.265L2.84144 652.901L66.5919 664.707L66.7103 664.071Z" fill="#002145"/>
    <path d="M3.67019 648.451L67.4206 660.257L67.3022 660.892L3.5518 649.086L3.67019 648.451Z" fill="#002145"/>
    <path d="M68.131 656.442L4.38056 644.636L4.26216 645.272L68.0126 657.078L68.131 656.442Z" fill="#002145"/>
    <path d="M5.09092 640.822L68.8414 652.628L68.723 653.264L4.97252 641.458L5.09092 640.822Z" fill="#002145"/>
    <path d="M69.5517 648.814L5.80128 637.007L5.68288 637.643L69.4333 649.449L69.5517 648.814Z" fill="#002145"/>
    <path d="M6.51163 633.193L70.2621 644.999L70.1437 645.635L6.39324 633.829L6.51163 633.193Z" fill="#002145"/>
    <path d="M70.9724 641.185L7.22199 629.379L7.1036 630.014L70.854 641.821L70.9724 641.185Z" fill="#002145"/>
    <path d="M7.93235 625.564L71.6828 637.371L71.5644 638.006L7.81396 626.2L7.93235 625.564Z" fill="#002145"/>
    <path d="M72.3932 633.556L8.64271 621.75L8.52432 622.386L72.2748 634.192L72.3932 633.556Z" fill="#002145"/>
    <path d="M9.35307 617.936L73.1035 629.742L72.9851 630.378L9.23468 618.571L9.35307 617.936Z" fill="#002145"/>
    <path d="M73.8139 625.928L10.0634 614.121L9.94504 614.757L73.6955 626.563L73.8139 625.928Z" fill="#002145"/>
    <path d="M10.7738 610.307L74.5242 622.113L74.4059 622.749L10.6554 610.943L10.7738 610.307Z" fill="#002145"/>
    <path d="M75.2346 618.299L11.4842 606.493L11.3658 607.128L75.1162 618.935L75.2346 618.299Z" fill="#002145"/>
    <path d="M12.1945 602.678L75.945 614.485L75.8266 615.12L12.0761 603.314L12.1945 602.678Z" fill="#002145"/>
    <path d="M76.6553 610.67L12.9049 598.864L12.7865 599.5L76.5369 611.306L76.6553 610.67Z" fill="#002145"/>
    <path d="M13.6152 595.05L77.3657 606.856L77.2473 607.492L13.4968 595.685L13.6152 595.05Z" fill="#002145"/>
    <path d="M78.076 603.042L14.3256 591.235L14.2072 591.871L77.9576 603.677L78.076 603.042Z" fill="#002145"/>
    <path d="M15.036 587.421L78.7864 599.227L78.668 599.863L14.9176 588.057L15.036 587.421Z" fill="#002145"/>
    <path d="M79.4968 595.413L15.7463 583.607L15.6279 584.242L79.3784 596.049L79.4968 595.413Z" fill="#002145"/>
    <path d="M16.4567 579.792L80.2071 591.598L80.0887 592.234L16.3383 580.428L16.4567 579.792Z" fill="#002145"/>
    <path d="M80.9175 587.784L17.167 575.978L17.0486 576.614L80.7991 588.42L80.9175 587.784Z" fill="#002145"/>
    <path d="M17.8774 572.163L81.6279 583.97L81.5095 584.605L17.759 572.799L17.8774 572.163Z" fill="#002145"/>
    <path d="M82.3382 580.155L18.5878 568.349L18.4694 568.985L82.2198 580.791L82.3382 580.155Z" fill="#002145"/>
    <path d="M19.2981 564.535L83.0486 576.341L82.9302 576.977L19.1797 565.171L19.2981 564.535Z" fill="#002145"/>
    <path d="M83.7589 572.527L20.0085 560.72L19.8901 561.356L83.6405 573.162L83.7589 572.527Z" fill="#002145"/>
    <path d="M20.7188 556.906L84.4693 568.712L84.3509 569.348L20.6004 557.542L20.7188 556.906Z" fill="#002145"/>
    <path d="M85.1796 564.898L21.4292 553.092L21.3108 553.727L85.0613 565.534L85.1796 564.898Z" fill="#002145"/>
    <path d="M22.1396 549.277L85.89 561.084L85.7716 561.719L22.0212 549.913L22.1396 549.277Z" fill="#002145"/>
    <path d="M86.6004 557.269L22.8499 545.463L22.7315 546.099L86.482 557.905L86.6004 557.269Z" fill="#002145"/>
    <path d="M23.5603 541.649L87.3107 553.455L87.1923 554.091L23.4419 542.284L23.5603 541.649Z" fill="#002145"/>
    <path d="M88.0211 549.641L24.2706 537.834L24.1522 538.47L87.9027 550.276L88.0211 549.641Z" fill="#002145"/>
    <path d="M24.981 534.02L88.7314 545.826L88.6131 546.462L24.8626 534.656L24.981 534.02Z" fill="#002145"/>
    <path d="M89.4418 542.012L25.6914 530.206L25.573 530.841L89.3234 542.648L89.4418 542.012Z" fill="#002145"/>
    <path d="M26.4017 526.391L90.1522 538.198L90.0338 538.833L26.2833 527.027L26.4017 526.391Z" fill="#002145"/>
    <path d="M90.8625 534.383L27.1121 522.577L26.9937 523.213L90.7441 535.019L90.8625 534.383Z" fill="#002145"/>
    <path d="M27.8224 518.763L91.5729 530.569L91.4545 531.205L27.7041 519.398L27.8224 518.763Z" fill="#002145"/>
    <path d="M92.2833 526.755L28.5328 514.948L28.4144 515.584L92.1649 527.39L92.2833 526.755Z" fill="#002145"/>
    <path d="M29.2432 511.134L92.9936 522.94L92.8752 523.576L29.1248 511.77L29.2432 511.134Z" fill="#002145"/>
    <path d="M93.704 519.126L29.9535 507.32L29.8351 507.955L93.5856 519.762L93.704 519.126Z" fill="#002145"/>
    <path d="M30.6639 503.505L94.4143 515.312L94.2959 515.947L30.5455 504.141L30.6639 503.505Z" fill="#002145"/>
    <path d="M95.1247 511.497L31.3742 499.691L31.2559 500.327L95.0063 512.133L95.1247 511.497Z" fill="#002145"/>
    <path d="M32.0846 495.877L95.8351 507.683L95.7167 508.319L31.9662 496.512L32.0846 495.877Z" fill="#002145"/>
    <path d="M96.5454 503.868L32.795 492.062L32.6766 492.698L96.427 504.504L96.5454 503.868Z" fill="#002145"/>
    <path d="M13.4199 641.718L42.0886 699.714L41.507 700L12.8383 642.004L13.4199 641.718Z" fill="#002145"/>
    <path d="M16.9094 640.003L45.5781 697.999L44.9965 698.285L16.3278 640.289L16.9094 640.003Z" fill="#002145"/>
    <path d="M49.0676 696.284L20.3989 638.287L19.8173 638.573L48.486 696.569L49.0676 696.284Z" fill="#002145"/>
    <path d="M23.8884 636.572L52.5571 694.568L51.9755 694.854L23.3068 636.858L23.8884 636.572Z" fill="#002145"/>
    <path d="M56.0466 692.853L27.3779 634.857L26.7963 635.143L55.465 693.139L56.0466 692.853Z" fill="#002145"/>
    <path d="M30.8674 633.142L59.5361 691.138L58.9545 691.423L30.2858 633.427L30.8674 633.142Z" fill="#002145"/>
    <path d="M63.0256 689.422L34.3569 631.426L33.7753 631.712L62.444 689.708L63.0256 689.422Z" fill="#002145"/>
    <path d="M37.8464 629.711L66.5151 687.707L65.9335 687.993L37.2648 629.997L37.8464 629.711Z" fill="#002145"/>
    <path d="M70.0046 685.992L41.3359 627.996L40.7543 628.281L69.423 686.277L70.0046 685.992Z" fill="#002145"/>
    <path d="M44.8254 626.28L73.4941 684.276L72.9125 684.562L44.2438 626.566L44.8254 626.28Z" fill="#002145"/>
    <path d="M76.9836 682.561L48.3149 624.565L47.7333 624.851L76.402 682.847L76.9836 682.561Z" fill="#002145"/>
    <path d="M51.8044 622.85L80.4731 680.846L79.8915 681.131L51.2228 623.135L51.8044 622.85Z" fill="#002145"/>
    <path d="M83.9626 679.13L55.2939 621.134L54.7123 621.42L83.381 679.416L83.9626 679.13Z" fill="#002145"/>
    <path d="M58.7834 619.419L87.4521 677.415L86.8705 677.701L58.2018 619.705L58.7834 619.419Z" fill="#002145"/>
    <path d="M90.9416 675.7L62.2729 617.704L61.6913 617.99L90.36 675.985L90.9416 675.7Z" fill="#002145"/>
    <path d="M65.7624 615.988L94.4311 673.984L93.8495 674.27L65.1808 616.274L65.7624 615.988Z" fill="#002145"/>
    <path d="M97.9206 672.269L69.2519 614.273L68.6703 614.559L97.339 672.555L97.9206 672.269Z" fill="#002145"/>
    <path d="M72.7414 612.558L101.41 670.554L100.829 670.84L72.1598 612.844L72.7414 612.558Z" fill="#002145"/>
    <path d="M104.9 668.838L76.2309 610.842L75.6493 611.128L104.318 669.124L104.9 668.838Z" fill="#002145"/>
    <path d="M79.7204 609.127L108.389 667.123L107.808 667.409L79.1388 609.413L79.7204 609.127Z" fill="#002145"/>
    <path d="M111.879 665.408L83.2099 607.412L82.6283 607.698L111.297 665.694L111.879 665.408Z" fill="#002145"/>
    <path d="M86.6994 605.696L115.368 663.692L114.787 663.978L86.1178 605.982L86.6994 605.696Z" fill="#002145"/>
    <path d="M118.858 661.977L90.1889 603.981L89.6073 604.267L118.276 662.263L118.858 661.977Z" fill="#002145"/>
    <path d="M93.6784 602.266L122.347 660.262L121.766 660.548L93.0968 602.552L93.6784 602.266Z" fill="#002145"/>
    <path d="M125.837 658.546L97.1679 600.55L96.5863 600.836L125.255 658.832L125.837 658.546Z" fill="#002145"/>
    <path d="M100.657 598.835L129.326 656.831L128.745 657.117L100.076 599.121L100.657 598.835Z" fill="#002145"/>
    <path d="M132.816 655.116L104.147 597.12L103.565 597.406L132.234 655.402L132.816 655.116Z" fill="#002145"/>
    <path d="M107.636 595.404L136.305 653.4L135.724 653.686L107.055 595.69L107.636 595.404Z" fill="#002145"/>
    <path d="M139.795 651.685L111.126 593.689L110.544 593.975L139.213 651.971L139.795 651.685Z" fill="#002145"/>
    <path d="M114.615 591.974L143.284 649.97L142.703 650.256L114.034 592.26L114.615 591.974Z" fill="#002145"/>
    <path d="M146.774 648.254L118.105 590.258L117.523 590.544L146.192 648.54L146.774 648.254Z" fill="#002145"/>
    <path d="M121.594 588.543L150.263 646.539L149.682 646.825L121.013 588.829L121.594 588.543Z" fill="#002145"/>
    <path d="M153.753 644.824L125.084 586.828L124.502 587.114L153.171 645.11L153.753 644.824Z" fill="#002145"/>
    <path d="M128.573 585.112L157.242 643.108L156.661 643.394L127.992 585.398L128.573 585.112Z" fill="#002145"/>
    <path d="M160.732 641.393L132.063 583.397L131.481 583.683L160.15 641.679L160.732 641.393Z" fill="#002145"/>
    <path d="M135.552 581.682L164.221 639.678L163.64 639.964L134.971 581.968L135.552 581.682Z" fill="#002145"/>
    <path d="M167.711 637.963L139.042 579.967L138.46 580.252L167.129 638.248L167.711 637.963Z" fill="#002145"/>
    <path d="M142.531 578.251L171.2 636.247L170.619 636.533L141.95 578.537L142.531 578.251Z" fill="#002145"/>
    <path d="M174.69 634.532L146.021 576.536L145.439 576.822L174.108 634.818L174.69 634.532Z" fill="#002145"/>
    <path d="M149.51 574.821L178.179 632.817L177.598 633.102L148.929 575.106L149.51 574.821Z" fill="#002145"/>
    <path d="M181.669 631.101L153 573.105L152.418 573.391L181.087 631.387L181.669 631.101Z" fill="#002145"/>
    <path d="M156.489 571.39L185.158 629.386L184.577 629.672L155.908 571.676L156.489 571.39Z" fill="#002145"/>
    <path d="M188.648 627.671L159.979 569.675L159.397 569.96L188.066 627.956L188.648 627.671Z" fill="#002145"/>
    <path d="M163.468 567.959L192.137 625.955L191.556 626.241L162.887 568.245L163.468 567.959Z" fill="#002145"/>
    <path d="M195.627 624.24L166.958 566.244L166.376 566.53L195.045 624.526L195.627 624.24Z" fill="#002145"/>
    <path d="M170.447 564.529L199.116 622.525L198.535 622.811L169.866 564.815L170.447 564.529Z" fill="#002145"/>
    <path d="M202.606 620.809L173.937 562.813L173.355 563.099L202.024 621.095L202.606 620.809Z" fill="#002145"/>
    <path d="M499.898 495.52L454.252 541.443L453.791 540.988L499.437 495.065L499.898 495.52Z" fill="#002145"/>
    <path d="M502.661 498.251L457.015 544.174L456.554 543.719L502.2 497.796L502.661 498.251Z" fill="#002145"/>
    <path d="M459.778 546.905L505.424 500.982L504.963 500.527L459.317 546.45L459.778 546.905Z" fill="#002145"/>
    <path d="M508.187 503.713L462.541 549.636L462.081 549.181L507.726 503.258L508.187 503.713Z" fill="#002145"/>
    <path d="M465.304 552.367L510.95 506.444L510.489 505.989L464.844 551.912L465.304 552.367Z" fill="#002145"/>
    <path d="M513.713 509.176L468.067 555.099L467.607 554.643L513.253 508.72L513.713 509.176Z" fill="#002145"/>
    <path d="M470.83 557.83L516.476 511.907L516.016 511.451L470.37 557.374L470.83 557.83Z" fill="#002145"/>
    <path d="M519.239 514.638L473.593 560.561L473.133 560.106L518.779 514.183L519.239 514.638Z" fill="#002145"/>
    <path d="M476.357 563.292L522.002 517.369L521.542 516.914L475.896 562.837L476.357 563.292Z" fill="#002145"/>
    <path d="M524.765 520.1L479.12 566.023L478.659 565.568L524.305 519.645L524.765 520.1Z" fill="#002145"/>
    <path d="M481.883 568.754L527.529 522.831L527.068 522.376L481.422 568.299L481.883 568.754Z" fill="#002145"/>
    <path d="M530.292 525.562L484.646 571.485L484.185 571.03L529.831 525.107L530.292 525.562Z" fill="#002145"/>
    <path d="M487.409 574.216L533.055 528.293L532.594 527.838L486.948 573.761L487.409 574.216Z" fill="#002145"/>
    <path d="M535.818 531.024L490.172 576.947L489.711 576.492L535.357 530.569L535.818 531.024Z" fill="#002145"/>
    <path d="M492.935 579.678L538.581 533.755L538.12 533.3L492.475 579.223L492.935 579.678Z" fill="#002145"/>
    <path d="M541.344 536.487L495.698 582.41L495.238 581.954L540.883 536.031L541.344 536.487Z" fill="#002145"/>
    <path d="M498.461 585.141L544.107 539.218L543.647 538.762L498.001 584.686L498.461 585.141Z" fill="#002145"/>
    <path d="M546.87 541.949L501.224 587.872L500.764 587.417L546.41 541.494L546.87 541.949Z" fill="#002145"/>
    <path d="M503.987 590.603L549.633 544.68L549.173 544.225L503.527 590.148L503.987 590.603Z" fill="#002145"/>
    <path d="M552.396 547.411L506.751 593.334L506.29 592.879L551.936 546.956L552.396 547.411Z" fill="#002145"/>
    <path d="M509.514 596.065L555.159 550.142L554.699 549.687L509.053 595.61L509.514 596.065Z" fill="#002145"/>
    <path d="M557.923 552.873L512.277 598.796L511.816 598.341L557.462 552.418L557.923 552.873Z" fill="#002145"/>
    <path d="M515.04 601.527L560.686 555.604L560.225 555.149L514.579 601.072L515.04 601.527Z" fill="#002145"/>
    <path d="M563.449 558.335L517.803 604.258L517.342 603.803L562.988 557.88L563.449 558.335Z" fill="#002145"/>
    <path d="M520.566 606.99L566.212 561.066L565.751 560.611L520.106 606.534L520.566 606.99Z" fill="#002145"/>
    <path d="M568.975 563.798L523.329 609.721L522.869 609.265L568.514 563.342L568.975 563.798Z" fill="#002145"/>
    <path d="M526.092 612.452L571.738 566.529L571.278 566.073L525.632 611.997L526.092 612.452Z" fill="#002145"/>
    <path d="M574.501 569.26L528.855 615.183L528.395 614.728L574.041 568.805L574.501 569.26Z" fill="#002145"/>
    <path d="M531.618 617.914L577.264 571.991L576.804 571.536L531.158 617.459L531.618 617.914Z" fill="#002145"/>
    <path d="M580.027 574.722L534.382 620.645L533.921 620.19L579.567 574.267L580.027 574.722Z" fill="#002145"/>
    <path d="M537.145 623.376L582.79 577.453L582.33 576.998L536.684 622.921L537.145 623.376Z" fill="#002145"/>
    <path d="M585.554 580.184L539.908 626.107L539.447 625.652L585.093 579.729L585.554 580.184Z" fill="#002145"/>
    <path d="M542.671 628.838L588.317 582.915L587.856 582.46L542.21 628.383L542.671 628.838Z" fill="#002145"/>
    <path d="M591.08 585.646L545.434 631.569L544.973 631.114L590.619 585.191L591.08 585.646Z" fill="#002145"/>
    <path d="M548.197 634.301L593.843 588.377L593.382 587.922L547.737 633.845L548.197 634.301Z" fill="#002145"/>
    <path d="M596.606 591.109L550.96 637.032L550.5 636.576L596.145 590.653L596.606 591.109Z" fill="#002145"/>
    <path d="M553.723 639.763L599.369 593.84L598.909 593.384L553.263 639.308L553.723 639.763Z" fill="#002145"/>
    <path d="M602.132 596.571L556.486 642.494L556.026 642.039L601.672 596.116L602.132 596.571Z" fill="#002145"/>
    <path d="M559.249 645.225L604.895 599.302L604.435 598.847L558.789 644.77L559.249 645.225Z" fill="#002145"/>
    <path d="M607.658 602.033L562.013 647.956L561.552 647.501L607.198 601.578L607.658 602.033Z" fill="#002145"/>
    <path d="M564.776 650.687L610.421 604.764L609.961 604.309L564.315 650.232L564.776 650.687Z" fill="#002145"/>
    <path d="M613.185 607.495L567.539 653.418L567.078 652.963L612.724 607.04L613.185 607.495Z" fill="#002145"/>
    <path d="M570.302 656.149L615.948 610.226L615.487 609.771L569.841 655.694L570.302 656.149Z" fill="#002145"/>
    <path d="M618.711 612.957L573.065 658.88L572.604 658.425L618.25 612.502L618.711 612.957Z" fill="#002145"/>
    <path d="M575.828 661.612L621.474 615.688L621.013 615.233L575.367 661.156L575.828 661.612Z" fill="#002145"/>
    <path d="M624.237 618.42L578.591 664.343L578.131 663.887L623.776 617.964L624.237 618.42Z" fill="#002145"/>
    <path d="M581.354 667.074L627 621.151L626.539 620.695L580.894 666.619L581.354 667.074Z" fill="#002145"/>
    <path d="M279.595 614.235L326.841 569.951L327.285 570.422L280.039 614.706L279.595 614.235Z" fill="#002145"/>
    <path d="M276.93 611.408L324.176 567.124L324.62 567.595L277.374 611.879L276.93 611.408Z" fill="#002145"/>
    <path d="M321.512 564.297L274.266 608.581L274.71 609.053L321.956 564.768L321.512 564.297Z" fill="#002145"/>
    <path d="M271.601 605.755L318.847 561.47L319.291 561.941L272.045 606.226L271.601 605.755Z" fill="#002145"/>
    <path d="M316.183 558.643L268.937 602.928L269.381 603.399L316.627 559.114L316.183 558.643Z" fill="#002145"/>
    <path d="M266.272 600.101L313.518 555.816L313.962 556.288L266.716 600.572L266.272 600.101Z" fill="#002145"/>
    <path d="M310.854 552.99L263.608 597.274L264.052 597.745L311.298 553.461L310.854 552.99Z" fill="#002145"/>
    <path d="M260.943 594.447L308.189 550.163L308.633 550.634L261.387 594.918L260.943 594.447Z" fill="#002145"/>
    <path d="M305.525 547.336L258.279 591.62L258.723 592.091L305.969 547.807L305.525 547.336Z" fill="#002145"/>
    <path d="M255.614 588.793L302.86 544.509L303.304 544.98L256.058 589.265L255.614 588.793Z" fill="#002145"/>
    <path d="M300.196 541.682L252.95 585.967L253.394 586.438L300.64 542.153L300.196 541.682Z" fill="#002145"/>
    <path d="M250.285 583.14L297.531 538.855L297.975 539.327L250.729 583.611L250.285 583.14Z" fill="#002145"/>
    <path d="M294.867 536.029L247.621 580.313L248.065 580.784L295.311 536.5L294.867 536.029Z" fill="#002145"/>
    <path d="M244.956 577.486L292.202 533.202L292.646 533.673L245.4 577.957L244.956 577.486Z" fill="#002145"/>
    <path d="M289.538 530.375L242.292 574.659L242.736 575.13L289.982 530.846L289.538 530.375Z" fill="#002145"/>
    <path d="M239.627 571.832L286.873 527.548L287.317 528.019L240.071 572.304L239.627 571.832Z" fill="#002145"/>
    <path d="M284.209 524.721L236.963 569.006L237.407 569.477L284.653 525.192L284.209 524.721Z" fill="#002145"/>
    <path d="M234.298 566.179L281.544 521.894L281.988 522.365L234.742 566.65L234.298 566.179Z" fill="#002145"/>
    <path d="M278.88 519.067L231.634 563.352L232.078 563.823L279.324 519.539L278.88 519.067Z" fill="#002145"/>
    <path d="M228.969 560.525L276.215 516.241L276.659 516.712L229.413 560.996L228.969 560.525Z" fill="#002145"/>
    <path d="M273.551 513.414L226.305 557.698L226.749 558.169L273.995 513.885L273.551 513.414Z" fill="#002145"/>
    <path d="M223.64 554.871L270.886 510.587L271.33 511.058L224.084 555.342L223.64 554.871Z" fill="#002145"/>
    <path d="M268.222 507.76L220.976 552.045L221.42 552.516L268.666 508.231L268.222 507.76Z" fill="#002145"/>
    <path d="M218.311 549.218L265.557 504.933L266.001 505.404L218.755 549.689L218.311 549.218Z" fill="#002145"/>
    <path d="M262.893 502.106L215.647 546.391L216.091 546.862L263.337 502.578L262.893 502.106Z" fill="#002145"/>
    <path d="M212.982 543.564L260.228 499.28L260.672 499.751L213.426 544.035L212.982 543.564Z" fill="#002145"/>
    <path d="M257.564 496.453L210.318 540.737L210.762 541.208L258.008 496.924L257.564 496.453Z" fill="#002145"/>
    <path d="M207.653 537.91L254.899 493.626L255.343 494.097L208.097 538.381L207.653 537.91Z" fill="#002145"/>
    <path d="M252.235 490.799L204.989 535.083L205.433 535.555L252.679 491.27L252.235 490.799Z" fill="#002145"/>
    <path d="M202.324 532.257L249.57 487.972L250.014 488.443L202.768 532.728L202.324 532.257Z" fill="#002145"/>
    <path d="M246.906 485.145L199.66 529.43L200.104 529.901L247.35 485.616L246.906 485.145Z" fill="#002145"/>
    <path d="M196.995 526.603L244.241 482.318L244.685 482.79L197.439 527.074L196.995 526.603Z" fill="#002145"/>
    <path d="M241.577 479.492L194.331 523.776L194.775 524.247L242.021 479.963L241.577 479.492Z" fill="#002145"/>
    <path d="M191.666 520.949L238.912 476.665L239.356 477.136L192.11 521.42L191.666 520.949Z" fill="#002145"/>
    <path d="M236.248 473.838L189.002 518.122L189.446 518.593L236.692 474.309L236.248 473.838Z" fill="#002145"/>
    <path d="M186.337 515.296L233.583 471.011L234.027 471.482L186.781 515.767L186.337 515.296Z" fill="#002145"/>
    <path d="M230.919 468.184L183.673 512.469L184.117 512.94L231.363 468.655L230.919 468.184Z" fill="#002145"/>
    <path d="M181.008 509.642L228.254 465.357L228.698 465.829L181.452 510.113L181.008 509.642Z" fill="#002145"/>
    <path d="M225.59 462.531L178.344 506.815L178.788 507.286L226.034 463.002L225.59 462.531Z" fill="#002145"/>
    <path d="M175.679 503.988L222.925 459.704L223.369 460.175L176.123 504.459L175.679 503.988Z" fill="#002145"/>
    <path d="M220.261 456.877L173.015 501.161L173.459 501.632L220.705 457.348L220.261 456.877Z" fill="#002145"/>
    <path d="M170.35 498.334L217.596 454.05L218.04 454.521L170.794 498.806L170.35 498.334Z" fill="#002145"/>
    <path d="M214.932 451.223L167.686 495.508L168.13 495.979L215.376 451.694L214.932 451.223Z" fill="#002145"/>
    <path d="M165.021 492.681L212.267 448.396L212.711 448.867L165.465 493.152L165.021 492.681Z" fill="#002145"/>
    <path d="M209.603 445.569L162.357 489.854L162.801 490.325L210.047 446.041L209.603 445.569Z" fill="#002145"/>
    <path d="M159.692 487.027L206.938 442.743L207.382 443.214L160.136 487.498L159.692 487.027Z" fill="#002145"/>
    <path d="M204.274 439.916L157.028 484.2L157.472 484.671L204.718 440.387L204.274 439.916Z" fill="#002145"/>
    <path d="M547.192 586.346L606.445 560.089L606.709 560.68L547.455 586.937L547.192 586.346Z" fill="#002145"/>
    <path d="M545.612 582.801L604.866 556.544L605.129 557.135L545.875 583.391L545.612 582.801Z" fill="#002145"/>
    <path d="M603.286 552.999L544.032 579.255L544.295 579.846L603.549 553.59L603.286 552.999Z" fill="#002145"/>
    <path d="M542.452 575.71L601.706 549.453L601.969 550.044L542.716 576.301L542.452 575.71Z" fill="#002145"/>
    <path d="M600.126 545.908L540.872 572.165L541.136 572.756L600.389 546.499L600.126 545.908Z" fill="#002145"/>
    <path d="M539.293 568.619L598.546 542.363L598.81 542.954L539.556 569.21L539.293 568.619Z" fill="#002145"/>
    <path d="M596.967 538.818L537.713 565.074L537.976 565.665L597.23 539.408L596.967 538.818Z" fill="#002145"/>
    <path d="M536.133 561.529L595.387 535.272L595.65 535.863L536.396 562.12L536.133 561.529Z" fill="#002145"/>
    <path d="M593.807 531.727L534.553 557.983L534.816 558.574L594.07 532.318L593.807 531.727Z" fill="#002145"/>
    <path d="M532.973 554.438L592.227 528.182L592.49 528.772L533.237 555.029L532.973 554.438Z" fill="#002145"/>
    <path d="M590.647 524.636L531.394 550.893L531.657 551.484L590.911 525.227L590.647 524.636Z" fill="#002145"/>
    <path d="M529.814 547.348L589.068 521.091L589.331 521.682L530.077 547.938L529.814 547.348Z" fill="#002145"/>
    <path d="M587.488 517.546L528.234 543.802L528.497 544.393L587.751 518.137L587.488 517.546Z" fill="#002145"/>
    <path d="M526.654 540.257L585.908 514L586.171 514.591L526.917 540.848L526.654 540.257Z" fill="#002145"/>
    <path d="M584.328 510.455L525.074 536.712L525.338 537.303L584.591 511.046L584.328 510.455Z" fill="#002145"/>
    <path d="M523.495 533.166L582.748 506.91L583.012 507.501L523.758 533.757L523.495 533.166Z" fill="#002145"/>
    <path d="M581.169 503.364L521.915 529.621L522.178 530.212L581.432 503.955L581.169 503.364Z" fill="#002145"/>
    <path d="M520.335 526.076L579.589 499.819L579.852 500.41L520.598 526.667L520.335 526.076Z" fill="#002145"/>
    <path d="M578.009 496.274L518.755 522.53L519.018 523.121L578.272 496.865L578.009 496.274Z" fill="#002145"/>
    <path d="M517.175 518.985L576.429 492.729L576.692 493.319L517.439 519.576L517.175 518.985Z" fill="#002145"/>
    <path d="M574.849 489.183L515.596 515.44L515.859 516.031L575.113 489.774L574.849 489.183Z" fill="#002145"/>
    <path d="M514.016 511.895L573.27 485.638L573.533 486.229L514.279 512.485L514.016 511.895Z" fill="#002145"/>
    <path d="M571.69 482.093L512.436 508.349L512.699 508.94L571.953 482.684L571.69 482.093Z" fill="#002145"/>
    <path d="M510.856 504.804L570.11 478.547L570.373 479.138L511.119 505.395L510.856 504.804Z" fill="#002145"/>
    <path d="M568.53 475.002L509.276 501.259L509.54 501.849L568.793 475.593L568.53 475.002Z" fill="#002145"/>
    <path d="M507.696 497.713L566.95 471.457L567.214 472.048L507.96 498.304L507.696 497.713Z" fill="#002145"/>
    <path d="M565.37 467.911L506.117 494.168L506.38 494.759L565.634 468.502L565.37 467.911Z" fill="#002145"/>
    <path d="M504.537 490.623L563.791 464.366L564.054 464.957L504.8 491.214L504.537 490.623Z" fill="#002145"/>
    <path d="M562.211 460.821L502.957 487.077L503.22 487.668L562.474 461.412L562.211 460.821Z" fill="#002145"/>
    <path d="M501.377 483.532L560.631 457.275L560.894 457.866L501.641 484.123L501.377 483.532Z" fill="#002145"/>
    <path d="M559.051 453.73L499.797 479.987L500.061 480.578L559.315 454.321L559.051 453.73Z" fill="#002145"/>
    <path d="M498.218 476.441L557.471 450.185L557.735 450.776L498.481 477.032L498.218 476.441Z" fill="#002145"/>
    <path d="M555.892 446.64L496.638 472.896L496.901 473.487L556.155 447.23L555.892 446.64Z" fill="#002145"/>
    <path d="M495.058 469.351L554.312 443.094L554.575 443.685L495.321 469.942L495.058 469.351Z" fill="#002145"/>
    <path d="M552.732 439.549L493.478 465.806L493.742 466.396L552.995 440.14L552.732 439.549Z" fill="#002145"/>
    <path d="M491.898 462.26L551.152 436.004L551.416 436.595L492.162 462.851L491.898 462.26Z" fill="#002145"/>
    <path d="M549.573 432.458L490.319 458.715L490.582 459.306L549.836 433.049L549.573 432.458Z" fill="#002145"/>
    <path d="M488.739 455.17L547.993 428.913L548.256 429.504L489.002 455.761L488.739 455.17Z" fill="#002145"/>
    <path d="M546.413 425.368L487.159 451.624L487.422 452.215L546.676 425.959L546.413 425.368Z" fill="#002145"/>
    <path d="M485.579 448.079L544.833 421.822L545.096 422.413L485.842 448.67L485.579 448.079Z" fill="#002145"/>
    <path d="M543.253 418.277L483.999 444.534L484.263 445.125L543.517 418.868L543.253 418.277Z" fill="#002145"/>
    <path d="M482.42 440.988L541.673 414.732L541.937 415.323L482.683 441.579L482.42 440.988Z" fill="#002145"/>
    <path d="M540.094 411.187L480.84 437.443L481.103 438.034L540.357 411.777L540.094 411.187Z" fill="#002145"/>
    <path d="M479.26 433.898L538.514 407.641L538.777 408.232L479.523 434.489L479.26 433.898Z" fill="#002145"/>
    <path d="M536.934 404.096L477.68 430.352L477.943 430.943L537.197 404.687L536.934 404.096Z" fill="#002145"/>
    <path d="M476.1 426.807L535.354 400.551L535.618 401.141L476.364 427.398L476.1 426.807Z" fill="#002145"/>
    <path d="M533.774 397.005L474.521 423.262L474.784 423.853L534.038 397.596L533.774 397.005Z" fill="#002145"/>
    <path d="M359.954 350.632L296.601 364.403L296.463 363.772L359.815 350L359.954 350.632Z" fill="#002145"/>
    <path d="M360.782 354.422L297.43 368.194L297.291 367.562L360.644 353.791L360.782 354.422Z" fill="#002145"/>
    <path d="M298.258 371.985L361.611 358.213L361.473 357.581L298.12 371.353L298.258 371.985Z" fill="#002145"/>
    <path d="M362.439 362.003L299.087 375.775L298.949 375.143L362.301 361.372L362.439 362.003Z" fill="#002145"/>
    <path d="M299.915 379.566L363.268 365.794L363.13 365.162L299.777 378.934L299.915 379.566Z" fill="#002145"/>
    <path d="M364.097 369.585L300.744 383.356L300.606 382.724L363.959 368.953L364.097 369.585Z" fill="#002145"/>
    <path d="M301.573 387.147L364.925 373.375L364.787 372.743L301.434 386.515L301.573 387.147Z" fill="#002145"/>
    <path d="M365.754 377.166L302.401 390.937L302.263 390.306L365.616 376.534L365.754 377.166Z" fill="#002145"/>
    <path d="M303.23 394.728L366.583 380.956L366.444 380.324L303.092 394.096L303.23 394.728Z" fill="#002145"/>
    <path d="M367.411 384.747L304.058 398.518L303.92 397.887L367.273 384.115L367.411 384.747Z" fill="#002145"/>
    <path d="M304.887 402.309L368.24 388.537L368.102 387.906L304.749 401.677L304.887 402.309Z" fill="#002145"/>
    <path d="M369.068 392.328L305.716 406.1L305.578 405.468L368.93 391.696L369.068 392.328Z" fill="#002145"/>
    <path d="M306.544 409.89L369.897 396.118L369.759 395.487L306.406 409.258L306.544 409.89Z" fill="#002145"/>
    <path d="M370.726 399.909L307.373 413.681L307.235 413.049L370.587 399.277L370.726 399.909Z" fill="#002145"/>
    <path d="M308.201 417.471L371.554 403.699L371.416 403.068L308.063 416.839L308.201 417.471Z" fill="#002145"/>
    <path d="M372.383 407.49L309.03 421.262L308.892 420.63L372.245 406.858L372.383 407.49Z" fill="#002145"/>
    <path d="M309.859 425.052L373.211 411.281L373.073 410.649L309.721 424.421L309.859 425.052Z" fill="#002145"/>
    <path d="M374.04 415.071L310.687 428.843L310.549 428.211L373.902 414.439L374.04 415.071Z" fill="#002145"/>
    <path d="M311.516 432.633L374.869 418.862L374.731 418.23L311.378 432.002L311.516 432.633Z" fill="#002145"/>
    <path d="M375.697 422.652L312.345 436.424L312.206 435.792L375.559 422.02L375.697 422.652Z" fill="#002145"/>
    <path d="M313.173 440.214L376.526 426.443L376.388 425.811L313.035 439.583L313.173 440.214Z" fill="#002145"/>
    <path d="M377.354 430.233L314.002 444.005L313.864 443.373L377.216 429.602L377.354 430.233Z" fill="#002145"/>
    <path d="M314.83 447.796L378.183 434.024L378.045 433.392L314.692 447.164L314.83 447.796Z" fill="#002145"/>
    <path d="M379.012 437.814L315.659 451.586L315.521 450.954L378.874 437.183L379.012 437.814Z" fill="#002145"/>
    <path d="M316.488 455.377L379.84 441.605L379.702 440.973L316.35 454.745L316.488 455.377Z" fill="#002145"/>
    <path d="M380.669 445.396L317.316 459.167L317.178 458.535L380.531 444.764L380.669 445.396Z" fill="#002145"/>
    <path d="M318.145 462.958L381.498 449.186L381.359 448.554L318.007 462.326L318.145 462.958Z" fill="#002145"/>
    <path d="M382.326 452.977L318.973 466.748L318.835 466.117L382.188 452.345L382.326 452.977Z" fill="#002145"/>
    <path d="M319.802 470.539L383.155 456.767L383.017 456.135L319.664 469.907L319.802 470.539Z" fill="#002145"/>
    <path d="M383.983 460.558L320.631 474.329L320.493 473.698L383.845 459.926L383.983 460.558Z" fill="#002145"/>
    <path d="M321.459 478.12L384.812 464.348L384.674 463.717L321.321 477.488L321.459 478.12Z" fill="#002145"/>
    <path d="M385.641 468.139L322.288 481.911L322.15 481.279L385.503 467.507L385.641 468.139Z" fill="#002145"/>
    <path d="M323.117 485.701L386.469 471.929L386.331 471.298L322.978 485.069L323.117 485.701Z" fill="#002145"/>
    <path d="M387.298 475.72L323.945 489.492L323.807 488.86L387.16 475.088L387.298 475.72Z" fill="#002145"/>
    <path d="M324.774 493.282L388.126 479.511L387.988 478.879L324.636 492.65L324.774 493.282Z" fill="#002145"/>
    <path d="M388.955 483.301L325.602 497.073L325.464 496.441L388.817 482.669L388.955 483.301Z" fill="#002145"/>
    <path d="M326.431 500.863L389.784 487.092L389.646 486.46L326.293 500.232L326.431 500.863Z" fill="#002145"/>
    <path d="M390.612 490.882L327.26 504.654L327.122 504.022L390.474 490.25L390.612 490.882Z" fill="#002145"/>
    <path d="M328.088 508.444L391.441 494.673L391.303 494.041L327.95 507.813L328.088 508.444Z" fill="#002145"/>
    <path d="M392.27 498.463L328.917 512.235L328.779 511.603L392.131 497.832L392.27 498.463Z" fill="#002145"/>
    <path d="M329.745 516.026L393.098 502.254L392.96 501.622L329.607 515.394L329.745 516.026Z" fill="#002145"/>
    <path d="M393.927 506.044L330.574 519.816L330.436 519.184L393.789 505.413L393.927 506.044Z" fill="#002145"/>
    <path d="M331.403 523.607L394.755 509.835L394.617 509.203L331.265 522.975L331.403 523.607Z" fill="#002145"/>
    <path d="M395.584 513.625L332.231 527.397L332.093 526.765L395.446 512.994L395.584 513.625Z" fill="#002145"/>
    <path d="M333.06 531.188L396.413 517.416L396.275 516.784L332.922 530.556L333.06 531.188Z" fill="#002145"/>
    <path d="M397.241 521.207L333.888 534.978L333.75 534.347L397.103 520.575L397.241 521.207Z" fill="#002145"/>
    <path d="M334.717 538.769L398.07 524.997L397.932 524.365L334.579 538.137L334.717 538.769Z" fill="#002145"/>
  </g>
</svg>
