<svg width="1356" height="520" viewBox="0 0 1356 520" fill="none" xmlns="http://www.w3.org/2000/svg">
  <path d="M172 315.518L233.518 254L403.931 424.413L342.413 485.931L172 315.518Z" fill="#F2F4F6"/>
  <path d="M317.025 173L394.975 211.635L287.951 427.568L210 388.932L317.025 173Z" fill="#F2F4F6"/>
  <path d="M83.0922 485.956L0 460.175L71.4179 230L154.51 255.782L83.0922 485.956Z" fill="#F2F4F6"/>
  <path d="M488 246.39L563.407 203L683.604 411.887L608.196 455.277L488 246.39Z" fill="#F2F4F6"/>
  <path d="M683.854 203L710.006 285.976L480.151 358.419L454 275.443L683.854 203Z" fill="#F2F4F6"/>
  <path d="M1217 73.5707L1301.77 54L1355.98 288.823L1271.21 308.394L1217 73.5707Z" fill="#F2F4F6"/>
  <path d="M955.307 392.934L948 306.241L1188.15 286L1195.46 372.693L955.307 392.934Z" fill="#F2F4F6"/>
  <path d="M54.09 236.001L-23.1633 276.012L-134 62.0116L-56.7467 22L54.09 236.001Z" fill="#F2F4F6"/>
  <path d="M825.798 -18L910.844 0.337952L860.045 235.923L775 217.586L825.798 -18Z" fill="#F2F4F6"/>
  <path d="M825.675 153.648L740.968 173.491L686 -61.1569L770.707 -81L825.675 153.648Z" fill="#F2F4F6"/>
  <path d="M131 361L69.6171 299.347L240.404 129.309L301.787 190.962L131 361Z" fill="#F2F4F6"/>
  <path d="M1131 269L1217.23 280.515L1185.34 519.394L1099.1 507.88L1131 269Z" fill="#F2F4F6"/>
  <path d="M325.056 194.869L282 119.271L491.417 7.62939e-06L534.473 75.5987L325.056 194.869Z" fill="#F2F4F6"/>
</svg>
